{
    "asset" : {
        "generator" : "Khronos glTF Blender I/O v0.9.35",
        "version" : "2.0"
    },
    "scene" : 0,
    "scenes" : [
        {
            "name" : "Scene",
            "nodes" : [
                0
            ]
        }
    ],
    "nodes" : [
        {
            "mesh" : 0,
            "name" : "Sphere.001"
        },
        {
            "mesh" : 0,
            "name" : "Sphere.001"
        }
    ],
    "animations" : [
        {
            "channels" : [
                {
                    "sampler" : 0,
                    "target" : {
                        "node" : 1,
                        "path" : "translation"
                    }
                }
            ],
            "name" : "Sphere.001Action",
            "samplers" : [
                {
                    "input" : 15,
                    "interpolation" : "LINEAR",
                    "output" : 16
                }
            ]
        }
    ],
    "materials" : [
        {
            "doubleSided" : true,
            "name" : "metal2",
            "pbrMetallicRoughness" : {
                "baseColorFactor" : [
                    1,
                    1,
                    1,
                    1
                ],
                "metallicFactor" : 1,
                "roughnessFactor" : 1
            }
        },
        {
            "doubleSided" : true,
            "name" : "black.001",
            "pbrMetallicRoughness" : {
                "baseColorFactor" : [
                    0.01738755591213703,
                    0.014669964089989662,
                    0.006765253376215696,
                    1
                ],
                "metallicFactor" : 0.30894309282302856,
                "roughnessFactor" : 0.40243902802467346
            }
        },
        {
            "doubleSided" : true,
            "name" : "gold",
            "pbrMetallicRoughness" : {
                "baseColorFactor" : [
                    0.5277186632156372,
                    0.4222201704978943,
                    0.14151714742183685,
                    1
                ],
                "metallicFactor" : 0.5040650367736816,
                "roughnessFactor" : 0.5
            }
        },
        {
            "doubleSided" : true,
            "name" : "led",
            "pbrMetallicRoughness" : {
                "baseColorFactor" : [
                    0.5277186632156372,
                    0.4222201704978943,
                    0.14151714742183685,
                    1
                ],
                "metallicFactor" : 0.5040650367736816,
                "roughnessFactor" : 0.5
            }
        },
        {
            "doubleSided" : true,
            "name" : "metal1",
            "pbrMetallicRoughness" : {
                "baseColorFactor" : [
                    1,
                    1,
                    1,
                    1
                ],
                "metallicFactor" : 1,
                "roughnessFactor" : 1
            }
        }
    ],
    "meshes" : [
        {
            "name" : "Sphere.009",
            "primitives" : [
                {
                    "attributes" : {
                        "POSITION" : 0,
                        "NORMAL" : 1
                    },
                    "indices" : 2,
                    "material" : 0
                },
                {
                    "attributes" : {
                        "POSITION" : 3,
                        "NORMAL" : 4
                    },
                    "indices" : 5,
                    "material" : 1
                },
                {
                    "attributes" : {
                        "POSITION" : 6,
                        "NORMAL" : 7
                    },
                    "indices" : 8,
                    "material" : 2
                },
                {
                    "attributes" : {
                        "POSITION" : 9,
                        "NORMAL" : 10
                    },
                    "indices" : 11,
                    "material" : 3
                },
                {
                    "attributes" : {
                        "POSITION" : 12,
                        "NORMAL" : 13
                    },
                    "indices" : 14,
                    "material" : 4
                }
            ]
        }
    ],
    "accessors" : [
        {
            "bufferView" : 0,
            "componentType" : 5126,
            "count" : 11222,
            "max" : [
                1.4675407409667969,
                1.9261736869812012,
                1.4303207397460938
            ],
            "min" : [
                -1.5086113214492798,
                -0.8458119034767151,
                -1.4376012086868286
            ],
            "type" : "VEC3"
        },
        {
            "bufferView" : 1,
            "componentType" : 5126,
            "count" : 11222,
            "type" : "VEC3"
        },
        {
            "bufferView" : 2,
            "componentType" : 5123,
            "count" : 20316,
            "type" : "SCALAR"
        },
        {
            "bufferView" : 3,
            "componentType" : 5126,
            "count" : 669,
            "max" : [
                0.24133293330669403,
                -0.300127774477005,
                0.2671874165534973
            ],
            "min" : [
                -0.33519527316093445,
                -0.8154406547546387,
                -0.30947187542915344
            ],
            "type" : "VEC3"
        },
        {
            "bufferView" : 4,
            "componentType" : 5126,
            "count" : 669,
            "type" : "VEC3"
        },
        {
            "bufferView" : 5,
            "componentType" : 5123,
            "count" : 852,
            "type" : "SCALAR"
        },
        {
            "bufferView" : 6,
            "componentType" : 5126,
            "count" : 748,
            "max" : [
                0.10158798843622208,
                0.13886061310768127,
                1.5521801710128784
            ],
            "min" : [
                -1.630258560180664,
                -0.9026328325271606,
                -1.5590907335281372
            ],
            "type" : "VEC3"
        },
        {
            "bufferView" : 7,
            "componentType" : 5126,
            "count" : 748,
            "type" : "VEC3"
        },
        {
            "bufferView" : 8,
            "componentType" : 5123,
            "count" : 3132,
            "type" : "SCALAR"
        },
        {
            "bufferView" : 9,
            "componentType" : 5126,
            "count" : 679,
            "max" : [
                1.5891879796981812,
                0.4077933430671692,
                0.7190386652946472
            ],
            "min" : [
                -0.808768093585968,
                -0.8990113735198975,
                -0.7474166750907898
            ],
            "type" : "VEC3"
        },
        {
            "bufferView" : 10,
            "componentType" : 5126,
            "count" : 679,
            "type" : "VEC3"
        },
        {
            "bufferView" : 11,
            "componentType" : 5123,
            "count" : 1494,
            "type" : "SCALAR"
        },
        {
            "bufferView" : 12,
            "componentType" : 5126,
            "count" : 66,
            "max" : [
                0.7506830096244812,
                0.4065704345703125,
                0.403499573469162
            ],
            "min" : [
                -0.49342650175094604,
                -0.32899266481399536,
                -0.43020787835121155
            ],
            "type" : "VEC3"
        },
        {
            "bufferView" : 13,
            "componentType" : 5126,
            "count" : 66,
            "type" : "VEC3"
        },
        {
            "bufferView" : 14,
            "componentType" : 5123,
            "count" : 66,
            "type" : "SCALAR"
        },
        {
            "bufferView" : 15,
            "componentType" : 5126,
            "count" : 121,
            "max" : [
                5
            ],
            "min" : [
                0
            ],
            "type" : "SCALAR"
        },
        {
            "bufferView" : 16,
            "componentType" : 5126,
            "count" : 121,
            "type" : "VEC3"
        }
    ],
    "bufferViews" : [
        {
            "buffer" : 0,
            "byteLength" : 134664,
            "byteOffset" : 0
        },
        {
            "buffer" : 0,
            "byteLength" : 134664,
            "byteOffset" : 134664
        },
        {
            "buffer" : 0,
            "byteLength" : 40632,
            "byteOffset" : 269328
        },
        {
            "buffer" : 0,
            "byteLength" : 8028,
            "byteOffset" : 309960
        },
        {
            "buffer" : 0,
            "byteLength" : 8028,
            "byteOffset" : 317988
        },
        {
            "buffer" : 0,
            "byteLength" : 1704,
            "byteOffset" : 326016
        },
        {
            "buffer" : 0,
            "byteLength" : 8976,
            "byteOffset" : 327720
        },
        {
            "buffer" : 0,
            "byteLength" : 8976,
            "byteOffset" : 336696
        },
        {
            "buffer" : 0,
            "byteLength" : 6264,
            "byteOffset" : 345672
        },
        {
            "buffer" : 0,
            "byteLength" : 8148,
            "byteOffset" : 351936
        },
        {
            "buffer" : 0,
            "byteLength" : 8148,
            "byteOffset" : 360084
        },
        {
            "buffer" : 0,
            "byteLength" : 2988,
            "byteOffset" : 368232
        },
        {
            "buffer" : 0,
            "byteLength" : 792,
            "byteOffset" : 371220
        },
        {
            "buffer" : 0,
            "byteLength" : 792,
            "byteOffset" : 372012
        },
        {
            "buffer" : 0,
            "byteLength" : 132,
            "byteOffset" : 372804
        },
        {
            "buffer" : 0,
            "byteLength" : 484,
            "byteOffset" : 372936
        },
        {
            "buffer" : 0,
            "byteLength" : 1452,
            "byteOffset" : 373420
        }
    ],
    "buffers" : [
        {
            "byteLength" : 374872,
            "uri" : "eagle_animate.bin"
        }
    ]
}
