{
    "asset" : {
        "generator" : "Khronos glTF Blender I/O v0.9.35",
        "version" : "2.0"
    },
    "scene" : 0,
    "scenes" : [
        {
            "extras" : {
                "glTF2ExportSettings" : {
                    "export_animations" : 0,
                    "export_apply" : 1,
                    "export_extras" : 1,
                    "export_format" : "GLTF_SEPARATE",
                    "export_morph" : 0,
                    "export_skins" : 0,
                    "export_tangents" : 1
                }
            },
            "name" : "Scene",
            "nodes" : [
                0,
                1,
                2,
                3,
                4
            ]
        }
    ],
    "nodes" : [
        {
            "name" : "Light",
            "rotation" : [
                0.16907575726509094,
                0.7558803558349609,
                -0.27217137813568115,
                0.570947527885437
            ],
            "translation" : [
                4.076245307922363,
                5.903861999511719,
                -1.0054539442062378
            ]
        },
        {
            "name" : "Camera",
            "rotation" : [
                0.483536034822464,
                0.33687159419059753,
                -0.20870360732078552,
                0.7804827094078064
            ],
            "translation" : [
                7.358891487121582,
                4.958309173583984,
                6.925790786743164
            ]
        },
        {
            "mesh" : 0,
            "name" : "earth",
            "rotation" : [
                0.8792486190795898,
                0,
                0.4763631820678711,
                -3.080594126458891e-07
            ],
            "scale" : [
                0.7083341479301453,
                0.7083342671394348,
                0.7083341479301453
            ],
            "translation" : [
                -0.7871735095977783,
                0.21285246312618256,
                -0.059176988899707794
            ]
        },
        {
            "mesh" : 1,
            "name" : "moon",
            "rotation" : [
                -0.5755173563957214,
                0,
                -0.8177895545959473,
                1.7589503187309674e-08
            ],
            "scale" : [
                0.1750064343214035,
                0.17500638961791992,
                0.17500638961791992
            ],
            "translation" : [
                0.9862549304962158,
                0.9401422739028931,
                -0.16265055537223816
            ]
        },
        {
            "mesh" : 2,
            "name" : "BezierCurve",
            "rotation" : [
                -0.5755173563957214,
                0,
                -0.8177895545959473,
                8.080978375346604e-08
            ],
            "scale" : [
                0.21375244855880737,
                0.21375246345996857,
                0.2137524038553238
            ],
            "translation" : [
                -1.6729216575622559,
                0.4241778254508972,
                -0.06940111517906189
            ]
        }
    ],
    "materials" : [
        {
            "doubleSided" : true,
            "name" : "earth",
            "pbrMetallicRoughness" : {
                "baseColorTexture" : {
                    "index" : 0,
                    "texCoord" : 0
                },
                "metallicFactor" : 0,
                "roughnessFactor" : 1
            }
        },
        {
            "doubleSided" : true,
            "name" : "moon",
            "pbrMetallicRoughness" : {
                "baseColorTexture" : {
                    "index" : 1,
                    "texCoord" : 0
                },
                "metallicFactor" : 0,
                "roughnessFactor" : 1
            }
        },
        {
            "doubleSided" : true,
            "name" : "glow",
            "pbrMetallicRoughness" : {
                "baseColorFactor" : [
                    0.361,
                    0.767,
                    1,
                    1
                ],
                "metallicFactor" : 0,
                "roughnessFactor" : 0
            }
        },
        {
            "alphaMode" : "BLEND",
            "doubleSided" : true,
            "name" : "Material.001",
            "pbrMetallicRoughness" : {
                "baseColorFactor" : [
                    0.004241788759827614,
                    0.004241788759827614,
                    0.004241788759827614,
                    1
                ],
                "metallicFactor" : 0,
                "roughnessFactor" : 0
            }
        }
    ],
    "meshes" : [
        {
            "name" : "Sphere",
            "primitives" : [
                {
                    "attributes" : {
                        "POSITION" : 0,
                        "NORMAL" : 1,
                        "TANGENT" : 2,
                        "TEXCOORD_0" : 3
                    },
                    "indices" : 4,
                    "material" : 0
                }
            ]
        },
        {
            "name" : "Sphere.001",
            "primitives" : [
                {
                    "attributes" : {
                        "POSITION" : 5,
                        "NORMAL" : 6,
                        "TANGENT" : 7,
                        "TEXCOORD_0" : 8
                    },
                    "indices" : 4,
                    "material" : 1
                }
            ]
        },
        {
            "name" : "BezierCurve",
            "primitives" : [
                {
                    "attributes" : {
                        "POSITION" : 9,
                        "NORMAL" : 10,
                        "TANGENT" : 11,
                        "TEXCOORD_0" : 12
                    },
                    "indices" : 13,
                    "material" : 2
                },
                {
                    "attributes" : {
                        "POSITION" : 14,
                        "NORMAL" : 15,
                        "TANGENT" : 16,
                        "TEXCOORD_0" : 17
                    },
                    "indices" : 18,
                    "material" : 3
                }
            ]
        }
    ],
    "textures" : [
        {
            "source" : 0
        },
        {
            "source" : 1
        }
    ],
    "images" : [
        {
            "mimeType" : "image/jpg",
            "name" : "uv-earth",
            "uri" : "uv-earth.jpg"
        },
        {
            "mimeType" : "image/jpg",
            "name" : "uv-moon",
            "uri" : "uv-moon.jpg"
        }
    ],
    "accessors" : [
        {
            "bufferView" : 0,
            "componentType" : 5126,
            "count" : 559,
            "max" : [
                1.000000238418579,
                1,
                1
            ],
            "min" : [
                -0.9999998211860657,
                -1,
                -1.0000003576278687
            ],
            "type" : "VEC3"
        },
        {
            "bufferView" : 1,
            "componentType" : 5126,
            "count" : 559,
            "type" : "VEC3"
        },
        {
            "bufferView" : 2,
            "componentType" : 5126,
            "count" : 559,
            "type" : "VEC4"
        },
        {
            "bufferView" : 3,
            "componentType" : 5126,
            "count" : 559,
            "type" : "VEC2"
        },
        {
            "bufferView" : 4,
            "componentType" : 5123,
            "count" : 2880,
            "type" : "SCALAR"
        },
        {
            "bufferView" : 5,
            "componentType" : 5126,
            "count" : 559,
            "max" : [
                1.000000238418579,
                1,
                1
            ],
            "min" : [
                -0.9999998211860657,
                -1,
                -1.0000003576278687
            ],
            "type" : "VEC3"
        },
        {
            "bufferView" : 6,
            "componentType" : 5126,
            "count" : 559,
            "type" : "VEC3"
        },
        {
            "bufferView" : 7,
            "componentType" : 5126,
            "count" : 559,
            "type" : "VEC4"
        },
        {
            "bufferView" : 8,
            "componentType" : 5126,
            "count" : 559,
            "type" : "VEC2"
        },
        {
            "bufferView" : 9,
            "componentType" : 5126,
            "count" : 2536,
            "max" : [
                3.01328182220459,
                0.6099997758865356,
                12.938003540039062
            ],
            "min" : [
                -6.030217170715332,
                -2.98081374168396,
                -0.3184330463409424
            ],
            "type" : "VEC3"
        },
        {
            "bufferView" : 10,
            "componentType" : 5126,
            "count" : 2536,
            "type" : "VEC3"
        },
        {
            "bufferView" : 11,
            "componentType" : 5126,
            "count" : 2536,
            "type" : "VEC4"
        },
        {
            "bufferView" : 12,
            "componentType" : 5126,
            "count" : 2536,
            "type" : "VEC2"
        },
        {
            "bufferView" : 13,
            "componentType" : 5123,
            "count" : 5544,
            "type" : "SCALAR"
        },
        {
            "bufferView" : 14,
            "componentType" : 5126,
            "count" : 2533,
            "max" : [
                3.01328182220459,
                0.6099997758865356,
                12.938003540039062
            ],
            "min" : [
                -6.030217170715332,
                -2.98081374168396,
                -0.3184330463409424
            ],
            "type" : "VEC3"
        },
        {
            "bufferView" : 15,
            "componentType" : 5126,
            "count" : 2533,
            "type" : "VEC3"
        },
        {
            "bufferView" : 16,
            "componentType" : 5126,
            "count" : 2533,
            "type" : "VEC4"
        },
        {
            "bufferView" : 17,
            "componentType" : 5126,
            "count" : 2533,
            "type" : "VEC2"
        },
        {
            "bufferView" : 18,
            "componentType" : 5123,
            "count" : 5544,
            "type" : "SCALAR"
        }
    ],
    "bufferViews" : [
        {
            "buffer" : 0,
            "byteLength" : 6708,
            "byteOffset" : 0
        },
        {
            "buffer" : 0,
            "byteLength" : 6708,
            "byteOffset" : 6708
        },
        {
            "buffer" : 0,
            "byteLength" : 8944,
            "byteOffset" : 13416
        },
        {
            "buffer" : 0,
            "byteLength" : 4472,
            "byteOffset" : 22360
        },
        {
            "buffer" : 0,
            "byteLength" : 5760,
            "byteOffset" : 26832
        },
        {
            "buffer" : 0,
            "byteLength" : 6708,
            "byteOffset" : 32592
        },
        {
            "buffer" : 0,
            "byteLength" : 6708,
            "byteOffset" : 39300
        },
        {
            "buffer" : 0,
            "byteLength" : 8944,
            "byteOffset" : 46008
        },
        {
            "buffer" : 0,
            "byteLength" : 4472,
            "byteOffset" : 54952
        },
        {
            "buffer" : 0,
            "byteLength" : 30432,
            "byteOffset" : 59424
        },
        {
            "buffer" : 0,
            "byteLength" : 30432,
            "byteOffset" : 89856
        },
        {
            "buffer" : 0,
            "byteLength" : 40576,
            "byteOffset" : 120288
        },
        {
            "buffer" : 0,
            "byteLength" : 20288,
            "byteOffset" : 160864
        },
        {
            "buffer" : 0,
            "byteLength" : 11088,
            "byteOffset" : 181152
        },
        {
            "buffer" : 0,
            "byteLength" : 30396,
            "byteOffset" : 192240
        },
        {
            "buffer" : 0,
            "byteLength" : 30396,
            "byteOffset" : 222636
        },
        {
            "buffer" : 0,
            "byteLength" : 40528,
            "byteOffset" : 253032
        },
        {
            "buffer" : 0,
            "byteLength" : 20264,
            "byteOffset" : 293560
        },
        {
            "buffer" : 0,
            "byteLength" : 11088,
            "byteOffset" : 313824
        }
    ],
    "buffers" : [
        {
            "byteLength" : 324912,
            "uri" : "trajectory.bin"
        }
    ]
}
