{
    "asset" : {
        "generator" : "Khronos glTF Blender I/O v0.9.35",
        "version" : "2.0"
    },
    "scene" : 0,
    "scenes" : [
        {
            "extras" : {
                "glTF2ExportSettings" : {
                    "export_animations" : 0,
                    "export_apply" : 1,
                    "export_colors" : 0,
                    "export_current_frame" : 0,
                    "export_extras" : 1,
                    "export_force_sampling" : 0,
                    "export_format" : "GLTF_SEPARATE",
                    "export_frame_range" : 0,
                    "export_morph" : 0,
                    "export_normals" : 0,
                    "export_selected" : 1,
                    "export_skins" : 0,
                    "export_texcoords" : 0,
                    "export_yup" : 0
                }
            },
            "name" : "Scene",
            "nodes" : [
                0
            ]
        }
    ],
    "nodes" : [
        {
            "mesh" : 0,
            "name" : "Sphere.001",
            "scale" : [
                0.20000000298023224,
                0.20000000298023224,
                0.20000000298023224
            ]
        }
    ],
    "materials" : [
        {
            "doubleSided" : true,
            "name" : "metal2",
            "pbrMetallicRoughness" : {
                "baseColorFactor" : [
                    1,
                    1,
                    1,
                    1
                ],
                "metallicFactor" : 1,
                "roughnessFactor" : 1
            }
        },
        {
            "doubleSided" : true,
            "name" : "black.001",
            "pbrMetallicRoughness" : {
                "baseColorFactor" : [
                    0.01738755591213703,
                    0.014669964089989662,
                    0.006765253376215696,
                    1
                ],
                "metallicFactor" : 0.30894309282302856,
                "roughnessFactor" : 0.40243902802467346
            }
        },
        {
            "doubleSided" : true,
            "name" : "gold",
            "pbrMetallicRoughness" : {
                "baseColorFactor" : [
                    0.5277186632156372,
                    0.4222201704978943,
                    0.14151714742183685,
                    1
                ],
                "metallicFactor" : 0.5040650367736816,
                "roughnessFactor" : 0.5
            }
        },
        {
            "doubleSided" : true,
            "name" : "led",
            "pbrMetallicRoughness" : {
                "baseColorFactor" : [
                    0.5277186632156372,
                    0.4222201704978943,
                    0.14151714742183685,
                    1
                ],
                "metallicFactor" : 0.5040650367736816,
                "roughnessFactor" : 0.5
            }
        },
        {
            "doubleSided" : true,
            "name" : "metal1",
            "pbrMetallicRoughness" : {
                "baseColorFactor" : [
                    1,
                    1,
                    1,
                    1
                ],
                "metallicFactor" : 1,
                "roughnessFactor" : 1
            }
        }
    ],
    "meshes" : [
        {
            "name" : "Sphere.009",
            "primitives" : [
                {
                    "attributes" : {
                        "POSITION" : 0
                    },
                    "indices" : 1,
                    "material" : 0
                },
                {
                    "attributes" : {
                        "POSITION" : 2
                    },
                    "indices" : 3,
                    "material" : 1
                },
                {
                    "attributes" : {
                        "POSITION" : 4
                    },
                    "indices" : 5,
                    "material" : 2
                },
                {
                    "attributes" : {
                        "POSITION" : 6
                    },
                    "indices" : 7,
                    "material" : 3
                },
                {
                    "attributes" : {
                        "POSITION" : 8
                    },
                    "indices" : 9,
                    "material" : 4
                }
            ]
        }
    ],
    "accessors" : [
        {
            "bufferView" : 0,
            "componentType" : 5126,
            "count" : 19552,
            "max" : [
                7.151605129241943,
                9.630867958068848,
                7.543055534362793
            ],
            "min" : [
                -7.188006401062012,
                -4.229060173034668,
                -7.337702751159668
            ],
            "type" : "VEC3"
        },
        {
            "bufferView" : 1,
            "componentType" : 5123,
            "count" : 19836,
            "type" : "SCALAR"
        },
        {
            "bufferView" : 2,
            "componentType" : 5126,
            "count" : 838,
            "max" : [
                1.3359375,
                -1.500638723373413,
                1.6759761571884155
            ],
            "min" : [
                -1.5473594665527344,
                -4.077203273773193,
                -1.2066643238067627
            ],
            "type" : "VEC3"
        },
        {
            "bufferView" : 3,
            "componentType" : 5123,
            "count" : 852,
            "type" : "SCALAR"
        },
        {
            "bufferView" : 4,
            "componentType" : 5126,
            "count" : 3022,
            "max" : [
                7.760902404785156,
                0.6943037509918213,
                8.151291847229004
            ],
            "min" : [
                -7.795454025268555,
                -4.51316499710083,
                -0.507938802242279
            ],
            "type" : "VEC3"
        },
        {
            "bufferView" : 5,
            "componentType" : 5123,
            "count" : 3132,
            "type" : "SCALAR"
        },
        {
            "bufferView" : 6,
            "componentType" : 5126,
            "count" : 1456,
            "max" : [
                3.595193862915039,
                2.0389671325683594,
                4.043839931488037
            ],
            "min" : [
                -3.73708438873291,
                -4.495057106018066,
                -7.945938587188721
            ],
            "type" : "VEC3"
        },
        {
            "bufferView" : 7,
            "componentType" : 5123,
            "count" : 1494,
            "type" : "SCALAR"
        },
        {
            "bufferView" : 8,
            "componentType" : 5126,
            "count" : 64,
            "max" : [
                2.017498254776001,
                2.0328521728515625,
                2.467132091522217
            ],
            "min" : [
                -2.1510396003723145,
                -1.6449635028839111,
                -3.7534143924713135
            ],
            "type" : "VEC3"
        },
        {
            "bufferView" : 9,
            "componentType" : 5123,
            "count" : 66,
            "type" : "SCALAR"
        }
    ],
    "bufferViews" : [
        {
            "buffer" : 0,
            "byteLength" : 234624,
            "byteOffset" : 0
        },
        {
            "buffer" : 0,
            "byteLength" : 39672,
            "byteOffset" : 234624
        },
        {
            "buffer" : 0,
            "byteLength" : 10056,
            "byteOffset" : 274296
        },
        {
            "buffer" : 0,
            "byteLength" : 1704,
            "byteOffset" : 284352
        },
        {
            "buffer" : 0,
            "byteLength" : 36264,
            "byteOffset" : 286056
        },
        {
            "buffer" : 0,
            "byteLength" : 6264,
            "byteOffset" : 322320
        },
        {
            "buffer" : 0,
            "byteLength" : 17472,
            "byteOffset" : 328584
        },
        {
            "buffer" : 0,
            "byteLength" : 2988,
            "byteOffset" : 346056
        },
        {
            "buffer" : 0,
            "byteLength" : 768,
            "byteOffset" : 349044
        },
        {
            "buffer" : 0,
            "byteLength" : 132,
            "byteOffset" : 349812
        }
    ],
    "buffers" : [
        {
            "byteLength" : 349944,
            "uri" : "eagle.bin"
        }
    ]
}
