{
    "asset" : {
        "generator" : "Khronos glTF Blender I/O v0.9.35",
        "version" : "2.0"
    },
    "scene" : 0,
    "scenes" : [
        {
            "extras" : {
                "glTF2ExportSettings" : {
                    "export_animations" : 0,
                    "export_apply" : 1,
                    "export_extras" : 1,
                    "export_format" : "GLTF_SEPARATE",
                    "export_morph" : 0,
                    "export_morph_normal" : 0,
                    "export_selected" : 1,
                    "export_skins" : 0,
                    "export_tangents" : 1
                }
            },
            "name" : "Scene",
            "nodes" : [
                0
            ]
        }
    ],
    "nodes" : [
        {
            "mesh" : 0,
            "name" : "Sphere.001",
            "rotation" : [
                -0.16126087307929993,
                -0.6884729266166687,
                -0.16126087307929993,
                0.6884728670120239
            ],
            "scale" : [
                0.4298541247844696,
                0.4298541247844696,
                0.4298541247844696
            ],
            "translation" : [
                -7.788321018218994,
                -0.7608308792114258,
                -0.43998241424560547
            ]
        }
    ],
    "materials" : [
        {
            "doubleSided" : true,
            "name" : "metal2",
            "pbrMetallicRoughness" : {}
        },
        {
            "doubleSided" : true,
            "name" : "black",
            "pbrMetallicRoughness" : {
                "baseColorFactor" : [
                    0.01738755591213703,
                    0.014669964089989662,
                    0.006765253376215696,
                    1
                ],
                "metallicFactor" : 0.30894309282302856,
                "roughnessFactor" : 0.40243902802467346
            }
        },
        {
            "doubleSided" : true,
            "name" : "gold",
            "pbrMetallicRoughness" : {
                "baseColorFactor" : [
                    0.5277186632156372,
                    0.4222201704978943,
                    0.14151714742183685,
                    1
                ],
                "metallicFactor" : 0.5040650367736816,
                "roughnessFactor" : 0.5
            }
        },
        {
            "doubleSided" : true,
            "name" : "led",
            "pbrMetallicRoughness" : {
                "baseColorFactor" : [
                    0.5277186632156372,
                    0.4222201704978943,
                    0.14151714742183685,
                    1
                ],
                "metallicFactor" : 0.5040650367736816,
                "roughnessFactor" : 0.5
            }
        },
        {
            "doubleSided" : true,
            "name" : "metal1",
            "pbrMetallicRoughness" : {}
        }
    ],
    "meshes" : [
        {
            "name" : "Sphere.001",
            "primitives" : [
                {
                    "attributes" : {
                        "POSITION" : 0,
                        "NORMAL" : 1,
                        "TEXCOORD_0" : 2
                    },
                    "indices" : 3,
                    "material" : 0
                },
                {
                    "attributes" : {
                        "POSITION" : 4,
                        "NORMAL" : 5,
                        "TEXCOORD_0" : 6
                    },
                    "indices" : 7,
                    "material" : 1
                },
                {
                    "attributes" : {
                        "POSITION" : 8,
                        "NORMAL" : 9,
                        "TEXCOORD_0" : 10
                    },
                    "indices" : 11,
                    "material" : 2
                },
                {
                    "attributes" : {
                        "POSITION" : 12,
                        "NORMAL" : 13,
                        "TEXCOORD_0" : 14
                    },
                    "indices" : 15,
                    "material" : 3
                },
                {
                    "attributes" : {
                        "POSITION" : 16,
                        "NORMAL" : 17,
                        "TEXCOORD_0" : 18
                    },
                    "indices" : 19,
                    "material" : 4
                }
            ]
        }
    ],
    "accessors" : [
        {
            "bufferView" : 0,
            "componentType" : 5126,
            "count" : 12520,
            "max" : [
                7.557078838348389,
                8.72504997253418,
                5.2650465965271
            ],
            "min" : [
                -7.323675632476807,
                -6.869073867797852,
                -8.21509075164795
            ],
            "type" : "VEC3"
        },
        {
            "bufferView" : 1,
            "componentType" : 5126,
            "count" : 12520,
            "type" : "VEC3"
        },
        {
            "bufferView" : 2,
            "componentType" : 5126,
            "count" : 12520,
            "type" : "VEC2"
        },
        {
            "bufferView" : 3,
            "componentType" : 5123,
            "count" : 19944,
            "type" : "SCALAR"
        },
        {
            "bufferView" : 4,
            "componentType" : 5126,
            "count" : 542,
            "max" : [
                1.6900007724761963,
                -0.769317626953125,
                0.7187734842300415
            ],
            "min" : [
                -1.1926391124725342,
                -4.208793640136719,
                -2.716231346130371
            ],
            "type" : "VEC3"
        },
        {
            "bufferView" : 5,
            "componentType" : 5126,
            "count" : 542,
            "type" : "VEC3"
        },
        {
            "bufferView" : 6,
            "componentType" : 5126,
            "count" : 542,
            "type" : "VEC2"
        },
        {
            "bufferView" : 7,
            "componentType" : 5123,
            "count" : 852,
            "type" : "SCALAR"
        },
        {
            "bufferView" : 8,
            "componentType" : 5126,
            "count" : 2016,
            "max" : [
                8.165314674377441,
                3.012631893157959,
                5.2650465965271
            ],
            "min" : [
                -0.4939131736755371,
                -7.505428314208984,
                -8.9415864944458
            ],
            "type" : "VEC3"
        },
        {
            "bufferView" : 9,
            "componentType" : 5126,
            "count" : 2016,
            "type" : "VEC3"
        },
        {
            "bufferView" : 10,
            "componentType" : 5126,
            "count" : 2016,
            "type" : "VEC2"
        },
        {
            "bufferView" : 11,
            "componentType" : 5123,
            "count" : 3132,
            "type" : "SCALAR"
        },
        {
            "bufferView" : 12,
            "componentType" : 5126,
            "count" : 960,
            "max" : [
                4.057864189147949,
                3.3999595642089844,
                4.2418012619018555
            ],
            "min" : [
                -7.931911468505859,
                -4.416441917419434,
                -4.08154821395874
            ],
            "type" : "VEC3"
        },
        {
            "bufferView" : 13,
            "componentType" : 5126,
            "count" : 960,
            "type" : "VEC3"
        },
        {
            "bufferView" : 14,
            "componentType" : 5126,
            "count" : 960,
            "type" : "VEC2"
        },
        {
            "bufferView" : 15,
            "componentType" : 5123,
            "count" : 1494,
            "type" : "SCALAR"
        },
        {
            "bufferView" : 16,
            "componentType" : 5126,
            "count" : 44,
            "max" : [
                2.481156587600708,
                2.3569393157958984,
                2.1394782066345215
            ],
            "min" : [
                -3.7393884658813477,
                -2.3667116165161133,
                -2.4994735717773438
            ],
            "type" : "VEC3"
        },
        {
            "bufferView" : 17,
            "componentType" : 5126,
            "count" : 44,
            "type" : "VEC3"
        },
        {
            "bufferView" : 18,
            "componentType" : 5126,
            "count" : 44,
            "type" : "VEC2"
        },
        {
            "bufferView" : 19,
            "componentType" : 5123,
            "count" : 66,
            "type" : "SCALAR"
        }
    ],
    "bufferViews" : [
        {
            "buffer" : 0,
            "byteLength" : 150240,
            "byteOffset" : 0
        },
        {
            "buffer" : 0,
            "byteLength" : 150240,
            "byteOffset" : 150240
        },
        {
            "buffer" : 0,
            "byteLength" : 100160,
            "byteOffset" : 300480
        },
        {
            "buffer" : 0,
            "byteLength" : 39888,
            "byteOffset" : 400640
        },
        {
            "buffer" : 0,
            "byteLength" : 6504,
            "byteOffset" : 440528
        },
        {
            "buffer" : 0,
            "byteLength" : 6504,
            "byteOffset" : 447032
        },
        {
            "buffer" : 0,
            "byteLength" : 4336,
            "byteOffset" : 453536
        },
        {
            "buffer" : 0,
            "byteLength" : 1704,
            "byteOffset" : 457872
        },
        {
            "buffer" : 0,
            "byteLength" : 24192,
            "byteOffset" : 459576
        },
        {
            "buffer" : 0,
            "byteLength" : 24192,
            "byteOffset" : 483768
        },
        {
            "buffer" : 0,
            "byteLength" : 16128,
            "byteOffset" : 507960
        },
        {
            "buffer" : 0,
            "byteLength" : 6264,
            "byteOffset" : 524088
        },
        {
            "buffer" : 0,
            "byteLength" : 11520,
            "byteOffset" : 530352
        },
        {
            "buffer" : 0,
            "byteLength" : 11520,
            "byteOffset" : 541872
        },
        {
            "buffer" : 0,
            "byteLength" : 7680,
            "byteOffset" : 553392
        },
        {
            "buffer" : 0,
            "byteLength" : 2988,
            "byteOffset" : 561072
        },
        {
            "buffer" : 0,
            "byteLength" : 528,
            "byteOffset" : 564060
        },
        {
            "buffer" : 0,
            "byteLength" : 528,
            "byteOffset" : 564588
        },
        {
            "buffer" : 0,
            "byteLength" : 352,
            "byteOffset" : 565116
        },
        {
            "buffer" : 0,
            "byteLength" : 132,
            "byteOffset" : 565468
        }
    ],
    "buffers" : [
        {
            "byteLength" : 565600,
            "uri" : "eagle.bin"
        }
    ]
}
