{
    "asset" : {
        "generator" : "Khronos glTF Blender I/O v0.9.35",
        "version" : "2.0"
    },
    "scene" : 0,
    "scenes" : [
        {
            "name" : "Scene",
            "nodes" : [
                0,
                1,
                2
            ]
        }
    ],
    "nodes" : [
        {
            "name" : "Light",
            "rotation" : [
                0.16907575726509094,
                0.7558803558349609,
                -0.27217137813568115,
                0.570947527885437
            ],
            "translation" : [
                4.076245307922363,
                5.903861999511719,
                -1.0054539442062378
            ]
        },
        {
            "name" : "Camera",
            "rotation" : [
                0.483536034822464,
                0.33687159419059753,
                -0.20870360732078552,
                0.7804827094078064
            ],
            "translation" : [
                7.358891487121582,
                4.958309173583984,
                6.925790786743164
            ]
        },
        {
            "mesh" : 0,
            "name" : "Sphere.001"
        }
    ],
    "materials" : [
        {
            "doubleSided" : true,
            "name" : "metal2",
            "pbrMetallicRoughness" : {
                "baseColorFactor" : [
                    1,
                    1,
                    1,
                    1
                ],
                "metallicFactor" : 1,
                "roughnessFactor" : 1
            }
        },
        {
            "doubleSided" : true,
            "name" : "black.001",
            "pbrMetallicRoughness" : {
                "baseColorFactor" : [
                    0.01738755591213703,
                    0.014669964089989662,
                    0.006765253376215696,
                    1
                ],
                "metallicFactor" : 0.30894309282302856,
                "roughnessFactor" : 0.40243902802467346
            }
        },
        {
            "doubleSided" : true,
            "name" : "gold",
            "pbrMetallicRoughness" : {
                "baseColorFactor" : [
                    0.5277186632156372,
                    0.4222201704978943,
                    0.14151714742183685,
                    1
                ],
                "metallicFactor" : 0.5040650367736816,
                "roughnessFactor" : 0.5
            }
        },
        {
            "doubleSided" : true,
            "name" : "led",
            "pbrMetallicRoughness" : {
                "baseColorFactor" : [
                    0.5277186632156372,
                    0.4222201704978943,
                    0.14151714742183685,
                    1
                ],
                "metallicFactor" : 0.5040650367736816,
                "roughnessFactor" : 0.5
            }
        },
        {
            "doubleSided" : true,
            "name" : "metal1",
            "pbrMetallicRoughness" : {
                "baseColorFactor" : [
                    1,
                    1,
                    1,
                    1
                ],
                "metallicFactor" : 1,
                "roughnessFactor" : 1
            }
        }
    ],
    "meshes" : [
        {
            "name" : "Sphere.009",
            "primitives" : [
                {
                    "attributes" : {
                        "POSITION" : 0,
                        "NORMAL" : 1
                    },
                    "indices" : 2,
                    "material" : 0
                },
                {
                    "attributes" : {
                        "POSITION" : 3,
                        "NORMAL" : 4
                    },
                    "indices" : 5,
                    "material" : 1
                },
                {
                    "attributes" : {
                        "POSITION" : 6,
                        "NORMAL" : 7
                    },
                    "indices" : 8,
                    "material" : 2
                },
                {
                    "attributes" : {
                        "POSITION" : 9,
                        "NORMAL" : 10
                    },
                    "indices" : 11,
                    "material" : 3
                },
                {
                    "attributes" : {
                        "POSITION" : 12,
                        "NORMAL" : 13
                    },
                    "indices" : 14,
                    "material" : 4
                }
            ]
        }
    ],
    "accessors" : [
        {
            "bufferView" : 0,
            "componentType" : 5126,
            "count" : 8697,
            "max" : [
                1.4675407409667969,
                1.9261736869812012,
                1.4303208589553833
            ],
            "min" : [
                -1.5086113214492798,
                -0.8458120822906494,
                -1.437601089477539
            ],
            "type" : "VEC3"
        },
        {
            "bufferView" : 1,
            "componentType" : 5126,
            "count" : 8697,
            "type" : "VEC3"
        },
        {
            "bufferView" : 2,
            "componentType" : 5123,
            "count" : 20316,
            "type" : "SCALAR"
        },
        {
            "bufferView" : 3,
            "componentType" : 5126,
            "count" : 454,
            "max" : [
                0.24133293330669403,
                -0.3001277446746826,
                0.2671874761581421
            ],
            "min" : [
                -0.33519527316093445,
                -0.8154407143592834,
                -0.30947184562683105
            ],
            "type" : "VEC3"
        },
        {
            "bufferView" : 4,
            "componentType" : 5126,
            "count" : 454,
            "type" : "VEC3"
        },
        {
            "bufferView" : 5,
            "componentType" : 5123,
            "count" : 852,
            "type" : "SCALAR"
        },
        {
            "bufferView" : 6,
            "componentType" : 5126,
            "count" : 733,
            "max" : [
                0.10158798843622208,
                0.1388607621192932,
                1.552180290222168
            ],
            "min" : [
                -1.630258560180664,
                -0.9026330709457397,
                -1.5590906143188477
            ],
            "type" : "VEC3"
        },
        {
            "bufferView" : 7,
            "componentType" : 5126,
            "count" : 733,
            "type" : "VEC3"
        },
        {
            "bufferView" : 8,
            "componentType" : 5123,
            "count" : 3132,
            "type" : "SCALAR"
        },
        {
            "bufferView" : 9,
            "componentType" : 5126,
            "count" : 553,
            "max" : [
                1.5891879796981812,
                0.40779343247413635,
                0.719038724899292
            ],
            "min" : [
                -0.808768093585968,
                -0.8990113735198975,
                -0.7474167346954346
            ],
            "type" : "VEC3"
        },
        {
            "bufferView" : 10,
            "componentType" : 5126,
            "count" : 553,
            "type" : "VEC3"
        },
        {
            "bufferView" : 11,
            "componentType" : 5123,
            "count" : 1494,
            "type" : "SCALAR"
        },
        {
            "bufferView" : 12,
            "componentType" : 5126,
            "count" : 52,
            "max" : [
                0.7506830096244812,
                0.4065704643726349,
                0.4034996032714844
            ],
            "min" : [
                -0.49342650175094604,
                -0.32899269461631775,
                -0.43020784854888916
            ],
            "type" : "VEC3"
        },
        {
            "bufferView" : 13,
            "componentType" : 5126,
            "count" : 52,
            "type" : "VEC3"
        },
        {
            "bufferView" : 14,
            "componentType" : 5123,
            "count" : 66,
            "type" : "SCALAR"
        }
    ],
    "bufferViews" : [
        {
            "buffer" : 0,
            "byteLength" : 104364,
            "byteOffset" : 0
        },
        {
            "buffer" : 0,
            "byteLength" : 104364,
            "byteOffset" : 104364
        },
        {
            "buffer" : 0,
            "byteLength" : 40632,
            "byteOffset" : 208728
        },
        {
            "buffer" : 0,
            "byteLength" : 5448,
            "byteOffset" : 249360
        },
        {
            "buffer" : 0,
            "byteLength" : 5448,
            "byteOffset" : 254808
        },
        {
            "buffer" : 0,
            "byteLength" : 1704,
            "byteOffset" : 260256
        },
        {
            "buffer" : 0,
            "byteLength" : 8796,
            "byteOffset" : 261960
        },
        {
            "buffer" : 0,
            "byteLength" : 8796,
            "byteOffset" : 270756
        },
        {
            "buffer" : 0,
            "byteLength" : 6264,
            "byteOffset" : 279552
        },
        {
            "buffer" : 0,
            "byteLength" : 6636,
            "byteOffset" : 285816
        },
        {
            "buffer" : 0,
            "byteLength" : 6636,
            "byteOffset" : 292452
        },
        {
            "buffer" : 0,
            "byteLength" : 2988,
            "byteOffset" : 299088
        },
        {
            "buffer" : 0,
            "byteLength" : 624,
            "byteOffset" : 302076
        },
        {
            "buffer" : 0,
            "byteLength" : 624,
            "byteOffset" : 302700
        },
        {
            "buffer" : 0,
            "byteLength" : 132,
            "byteOffset" : 303324
        }
    ],
    "buffers" : [
        {
            "byteLength" : 303456,
            "uri" : "eagle.bin"
        }
    ]
}
