{
    "asset" : {
        "generator" : "Khronos glTF Blender I/O v0.9.35",
        "version" : "2.0"
    },
    "scene" : 0,
    "scenes" : [
        {
            "extras" : {
                "glTF2ExportSettings" : {
                    "export_animations" : 1,
                    "export_apply" : 1,
                    "export_extras" : 1,
                    "export_format" : "GLTF_SEPARATE",
                    "export_frame_range" : 0,
                    "export_morph" : 0,
                    "export_skins" : 0
                }
            },
            "name" : "Scene",
            "nodes" : [
                0,
                1
            ]
        }
    ],
    "nodes" : [
        {
            "name" : "Camera",
            "rotation" : [
                0.483536034822464,
                0.33687159419059753,
                -0.20870360732078552,
                0.7804827094078064
            ],
            "translation" : [
                6.136789321899414,
                6.793060302734375,
                6.892106533050537
            ]
        },
        {
            "mesh" : 0,
            "name" : "Astronaut_mesh_1_2",
            "translation" : [
                0,
                0.001843571662902832,
                0
            ]
        },
        {
            "mesh" : 0,
            "name" : "Astronaut_mesh_1_2",
            "translation" : [
                0,
                0.001843571662902832,
                0
            ]
        }
    ],
    "animations" : [
        {
            "channels" : [
                {
                    "sampler" : 0,
                    "target" : {
                        "node" : 2,
                        "path" : "translation"
                    }
                }
            ],
            "name" : "Astronaut_mesh_1_2Action",
            "samplers" : [
                {
                    "input" : 12,
                    "interpolation" : "LINEAR",
                    "output" : 13
                }
            ]
        }
    ],
    "materials" : [
        {
            "doubleSided" : true,
            "name" : "white",
            "pbrMetallicRoughness" : {
                "baseColorFactor" : [
                    0.20190156996250153,
                    0.20190156996250153,
                    0.20190156996250153,
                    1
                ],
                "metallicFactor" : 0,
                "roughnessFactor" : 0.5
            }
        },
        {
            "doubleSided" : true,
            "name" : "helmet.001",
            "pbrMetallicRoughness" : {
                "baseColorFactor" : [
                    0.21804861724376678,
                    0.26241087913513184,
                    0.3931148648262024,
                    1
                ],
                "metallicFactor" : 0,
                "roughnessFactor" : 0.5
            }
        },
        {
            "doubleSided" : true,
            "name" : "globes",
            "pbrMetallicRoughness" : {
                "baseColorFactor" : [
                    0,
                    0,
                    0,
                    1
                ],
                "metallicFactor" : 0.20000000298023224,
                "roughnessFactor" : 0.5
            }
        }
    ],
    "meshes" : [
        {
            "name" : "Mesh.002",
            "primitives" : [
                {
                    "attributes" : {
                        "POSITION" : 0,
                        "NORMAL" : 1,
                        "TEXCOORD_0" : 2
                    },
                    "indices" : 3,
                    "material" : 0
                },
                {
                    "attributes" : {
                        "POSITION" : 4,
                        "NORMAL" : 5,
                        "TEXCOORD_0" : 6
                    },
                    "indices" : 7,
                    "material" : 1
                },
                {
                    "attributes" : {
                        "POSITION" : 8,
                        "NORMAL" : 9,
                        "TEXCOORD_0" : 10
                    },
                    "indices" : 11,
                    "material" : 2
                }
            ]
        }
    ],
    "accessors" : [
        {
            "bufferView" : 0,
            "componentType" : 5126,
            "count" : 4391,
            "max" : [
                1.598240613937378,
                2.4200916290283203,
                0.4279414117336273
            ],
            "min" : [
                -1.5457961559295654,
                -1.795251488685608,
                -0.942462682723999
            ],
            "type" : "VEC3"
        },
        {
            "bufferView" : 1,
            "componentType" : 5126,
            "count" : 4391,
            "type" : "VEC3"
        },
        {
            "bufferView" : 2,
            "componentType" : 5126,
            "count" : 4391,
            "type" : "VEC2"
        },
        {
            "bufferView" : 3,
            "componentType" : 5123,
            "count" : 20871,
            "type" : "SCALAR"
        },
        {
            "bufferView" : 4,
            "componentType" : 5126,
            "count" : 41,
            "max" : [
                0.39421334862709045,
                2.253577470779419,
                0.4731798768043518
            ],
            "min" : [
                -0.3067839741706848,
                1.6097725629806519,
                0.2516389489173889
            ],
            "type" : "VEC3"
        },
        {
            "bufferView" : 5,
            "componentType" : 5126,
            "count" : 41,
            "type" : "VEC3"
        },
        {
            "bufferView" : 6,
            "componentType" : 5126,
            "count" : 41,
            "type" : "VEC2"
        },
        {
            "bufferView" : 7,
            "componentType" : 5123,
            "count" : 195,
            "type" : "SCALAR"
        },
        {
            "bufferView" : 8,
            "componentType" : 5126,
            "count" : 9089,
            "max" : [
                1.79429292678833,
                1.6828367710113525,
                0.461327463388443
            ],
            "min" : [
                -1.7413967847824097,
                0.43042927980422974,
                -0.46664851903915405
            ],
            "type" : "VEC3"
        },
        {
            "bufferView" : 9,
            "componentType" : 5126,
            "count" : 9089,
            "type" : "VEC3"
        },
        {
            "bufferView" : 10,
            "componentType" : 5126,
            "count" : 9089,
            "type" : "VEC2"
        },
        {
            "bufferView" : 11,
            "componentType" : 5123,
            "count" : 51168,
            "type" : "SCALAR"
        },
        {
            "bufferView" : 12,
            "componentType" : 5126,
            "count" : 80,
            "max" : [
                2.6666666666666665
            ],
            "min" : [
                0.03333333333333333
            ],
            "type" : "SCALAR"
        },
        {
            "bufferView" : 13,
            "componentType" : 5126,
            "count" : 80,
            "type" : "VEC3"
        }
    ],
    "bufferViews" : [
        {
            "buffer" : 0,
            "byteLength" : 52692,
            "byteOffset" : 0
        },
        {
            "buffer" : 0,
            "byteLength" : 52692,
            "byteOffset" : 52692
        },
        {
            "buffer" : 0,
            "byteLength" : 35128,
            "byteOffset" : 105384
        },
        {
            "buffer" : 0,
            "byteLength" : 41742,
            "byteOffset" : 140512
        },
        {
            "buffer" : 0,
            "byteLength" : 492,
            "byteOffset" : 182256
        },
        {
            "buffer" : 0,
            "byteLength" : 492,
            "byteOffset" : 182748
        },
        {
            "buffer" : 0,
            "byteLength" : 328,
            "byteOffset" : 183240
        },
        {
            "buffer" : 0,
            "byteLength" : 390,
            "byteOffset" : 183568
        },
        {
            "buffer" : 0,
            "byteLength" : 109068,
            "byteOffset" : 183960
        },
        {
            "buffer" : 0,
            "byteLength" : 109068,
            "byteOffset" : 293028
        },
        {
            "buffer" : 0,
            "byteLength" : 72712,
            "byteOffset" : 402096
        },
        {
            "buffer" : 0,
            "byteLength" : 102336,
            "byteOffset" : 474808
        },
        {
            "buffer" : 0,
            "byteLength" : 320,
            "byteOffset" : 577144
        },
        {
            "buffer" : 0,
            "byteLength" : 960,
            "byteOffset" : 577464
        }
    ],
    "buffers" : [
        {
            "byteLength" : 578424,
            "uri" : "helmet_animate.bin"
        }
    ]
}
