{
    "asset" : {
        "generator" : "Khronos glTF Blender I/O v0.9.35",
        "version" : "2.0"
    },
    "scene" : 0,
    "scenes" : [
        {
            "extras" : {
                "glTF2ExportSettings" : {
                    "export_apply" : 1,
                    "export_extras" : 1,
                    "export_force_sampling" : 0,
                    "export_format" : "GLTF_SEPARATE",
                    "export_frame_range" : 0,
                    "export_morph" : 0,
                    "export_morph_tangent" : 1,
                    "export_selected" : 1,
                    "export_skins" : 0,
                    "export_tangents" : 1,
                    "export_yup" : 1
                }
            },
            "name" : "Scene",
            "nodes" : [
                0
            ]
        }
    ],
    "nodes" : [
        {
            "mesh" : 0,
            "name" : "Sphere.008",
            "rotation" : [
                0,
                1,
                0,
                -4.371138828673793e-08
            ],
            "scale" : [
                0.39144447445869446,
                0.39144453406333923,
                0.8291714787483215
            ],
            "translation" : [
                -4.680042266845703,
                3.5588722229003906,
                -2.067430257797241
            ]
        },
        {
            "mesh" : 0,
            "name" : "Sphere.008",
            "rotation" : [
                0,
                1,
                0,
                -4.371138828673793e-08
            ],
            "scale" : [
                0.39144447445869446,
                0.39144453406333923,
                0.8291714787483215
            ],
            "translation" : [
                -4.680042266845703,
                3.5588722229003906,
                -2.067430257797241
            ]
        }
    ],
    "animations" : [
        {
            "channels" : [
                {
                    "sampler" : 0,
                    "target" : {
                        "node" : 1,
                        "path" : "rotation"
                    }
                }
            ],
            "name" : "Sphere.008Action.002",
            "samplers" : [
                {
                    "input" : 10,
                    "interpolation" : "LINEAR",
                    "output" : 11
                }
            ]
        }
    ],
    "materials" : [
        {
            "doubleSided" : true,
            "name" : "black",
            "pbrMetallicRoughness" : {
                "baseColorFactor" : [
                    1,
                    1,
                    1,
                    1
                ],
                "metallicFactor" : 1,
                "roughnessFactor" : 1
            }
        },
        {
            "doubleSided" : true,
            "name" : "white",
            "pbrMetallicRoughness" : {
                "baseColorFactor" : [
                    1,
                    1,
                    1,
                    1
                ],
                "metallicFactor" : 1,
                "roughnessFactor" : 1
            }
        }
    ],
    "meshes" : [
        {
            "name" : "Sphere.008",
            "primitives" : [
                {
                    "attributes" : {
                        "POSITION" : 0,
                        "NORMAL" : 1,
                        "TANGENT" : 2,
                        "TEXCOORD_0" : 3
                    },
                    "indices" : 4,
                    "material" : 0
                },
                {
                    "attributes" : {
                        "POSITION" : 5,
                        "NORMAL" : 6,
                        "TANGENT" : 7,
                        "TEXCOORD_0" : 8
                    },
                    "indices" : 9,
                    "material" : 1
                }
            ]
        }
    ],
    "accessors" : [
        {
            "bufferView" : 0,
            "componentType" : 5126,
            "count" : 13076,
            "max" : [
                4.602675914764404,
                4.567727565765381,
                7.097826957702637
            ],
            "min" : [
                -4.610500812530518,
                -4.579715251922607,
                -12.033234596252441
            ],
            "type" : "VEC3"
        },
        {
            "bufferView" : 1,
            "componentType" : 5126,
            "count" : 13076,
            "type" : "VEC3"
        },
        {
            "bufferView" : 2,
            "componentType" : 5126,
            "count" : 13076,
            "type" : "VEC4"
        },
        {
            "bufferView" : 3,
            "componentType" : 5126,
            "count" : 13076,
            "type" : "VEC2"
        },
        {
            "bufferView" : 4,
            "componentType" : 5123,
            "count" : 13962,
            "type" : "SCALAR"
        },
        {
            "bufferView" : 5,
            "componentType" : 5126,
            "count" : 13566,
            "max" : [
                4.065390586853027,
                4.069367408752441,
                6.616320610046387
            ],
            "min" : [
                -4.120720863342285,
                -4.0522780418396,
                -17.26293182373047
            ],
            "type" : "VEC3"
        },
        {
            "bufferView" : 6,
            "componentType" : 5126,
            "count" : 13566,
            "type" : "VEC3"
        },
        {
            "bufferView" : 7,
            "componentType" : 5126,
            "count" : 13566,
            "type" : "VEC4"
        },
        {
            "bufferView" : 8,
            "componentType" : 5126,
            "count" : 13566,
            "type" : "VEC2"
        },
        {
            "bufferView" : 9,
            "componentType" : 5123,
            "count" : 14568,
            "type" : "SCALAR"
        },
        {
            "bufferView" : 10,
            "componentType" : 5126,
            "count" : 2,
            "max" : [
                4.166666666666667
            ],
            "min" : [
                0
            ],
            "type" : "SCALAR"
        },
        {
            "bufferView" : 11,
            "componentType" : 5126,
            "count" : 2,
            "type" : "VEC4"
        }
    ],
    "bufferViews" : [
        {
            "buffer" : 0,
            "byteLength" : 156912,
            "byteOffset" : 0
        },
        {
            "buffer" : 0,
            "byteLength" : 156912,
            "byteOffset" : 156912
        },
        {
            "buffer" : 0,
            "byteLength" : 209216,
            "byteOffset" : 313824
        },
        {
            "buffer" : 0,
            "byteLength" : 104608,
            "byteOffset" : 523040
        },
        {
            "buffer" : 0,
            "byteLength" : 27924,
            "byteOffset" : 627648
        },
        {
            "buffer" : 0,
            "byteLength" : 162792,
            "byteOffset" : 655572
        },
        {
            "buffer" : 0,
            "byteLength" : 162792,
            "byteOffset" : 818364
        },
        {
            "buffer" : 0,
            "byteLength" : 217056,
            "byteOffset" : 981156
        },
        {
            "buffer" : 0,
            "byteLength" : 108528,
            "byteOffset" : 1198212
        },
        {
            "buffer" : 0,
            "byteLength" : 29136,
            "byteOffset" : 1306740
        },
        {
            "buffer" : 0,
            "byteLength" : 8,
            "byteOffset" : 1335876
        },
        {
            "buffer" : 0,
            "byteLength" : 32,
            "byteOffset" : 1335884
        }
    ],
    "buffers" : [
        {
            "byteLength" : 1335916,
            "uri" : "rocket_animate.bin"
        }
    ]
}
