{
    "asset" : {
        "generator" : "Khronos glTF Blender I/O v0.9.35",
        "version" : "2.0"
    },
    "scene" : 0,
    "scenes" : [
        {
            "extras" : {
                "glTF2ExportSettings" : {
                    "export_animations" : 0,
                    "export_apply" : 1,
                    "export_extras" : 1,
                    "export_format" : "GLTF_SEPARATE",
                    "export_morph" : 0,
                    "export_selected" : 1,
                    "export_skins" : 0,
                    "export_tangents" : 1
                }
            },
            "name" : "Scene",
            "nodes" : [
                0
            ]
        }
    ],
    "nodes" : [
        {
            "mesh" : 0,
            "name" : "Sphere.008",
            "scale" : [
                0.39144447445869446,
                0.829171359539032,
                0.39144447445869446
            ],
            "translation" : [
                -4.678851127624512,
                1.4793612957000732,
                -2.070760726928711
            ]
        }
    ],
    "materials" : [
        {
            "doubleSided" : true,
            "name" : "black",
            "pbrMetallicRoughness" : {}
        },
        {
            "doubleSided" : true,
            "name" : "white",
            "pbrMetallicRoughness" : {}
        }
    ],
    "meshes" : [
        {
            "name" : "Sphere.008",
            "primitives" : [
                {
                    "attributes" : {
                        "POSITION" : 0,
                        "NORMAL" : 1,
                        "TEXCOORD_0" : 2
                    },
                    "indices" : 3,
                    "material" : 0
                },
                {
                    "attributes" : {
                        "POSITION" : 4,
                        "NORMAL" : 5,
                        "TEXCOORD_0" : 6
                    },
                    "indices" : 7,
                    "material" : 1
                }
            ]
        }
    ],
    "accessors" : [
        {
            "bufferView" : 0,
            "componentType" : 5126,
            "count" : 9108,
            "max" : [
                4.599630832672119,
                14.541169166564941,
                4.576237678527832
            ],
            "min" : [
                -4.613545894622803,
                -4.589892387390137,
                -4.571205139160156
            ],
            "type" : "VEC3"
        },
        {
            "bufferView" : 1,
            "componentType" : 5126,
            "count" : 9108,
            "type" : "VEC3"
        },
        {
            "bufferView" : 2,
            "componentType" : 5126,
            "count" : 9108,
            "type" : "VEC2"
        },
        {
            "bufferView" : 3,
            "componentType" : 5123,
            "count" : 13962,
            "type" : "SCALAR"
        },
        {
            "bufferView" : 4,
            "componentType" : 5126,
            "count" : 9482,
            "max" : [
                4.062345504760742,
                19.77086639404297,
                4.077877521514893
            ],
            "min" : [
                -4.12376594543457,
                -4.108386039733887,
                -4.043767929077148
            ],
            "type" : "VEC3"
        },
        {
            "bufferView" : 5,
            "componentType" : 5126,
            "count" : 9482,
            "type" : "VEC3"
        },
        {
            "bufferView" : 6,
            "componentType" : 5126,
            "count" : 9482,
            "type" : "VEC2"
        },
        {
            "bufferView" : 7,
            "componentType" : 5123,
            "count" : 14856,
            "type" : "SCALAR"
        }
    ],
    "bufferViews" : [
        {
            "buffer" : 0,
            "byteLength" : 109296,
            "byteOffset" : 0
        },
        {
            "buffer" : 0,
            "byteLength" : 109296,
            "byteOffset" : 109296
        },
        {
            "buffer" : 0,
            "byteLength" : 72864,
            "byteOffset" : 218592
        },
        {
            "buffer" : 0,
            "byteLength" : 27924,
            "byteOffset" : 291456
        },
        {
            "buffer" : 0,
            "byteLength" : 113784,
            "byteOffset" : 319380
        },
        {
            "buffer" : 0,
            "byteLength" : 113784,
            "byteOffset" : 433164
        },
        {
            "buffer" : 0,
            "byteLength" : 75856,
            "byteOffset" : 546948
        },
        {
            "buffer" : 0,
            "byteLength" : 29712,
            "byteOffset" : 622804
        }
    ],
    "buffers" : [
        {
            "byteLength" : 652516,
            "uri" : "rocket.bin"
        }
    ]
}
