{
    "asset" : {
        "generator" : "Khronos glTF Blender I/O v0.9.35",
        "version" : "2.0"
    },
    "scene" : 0,
    "scenes" : [
        {
            "extras" : {
                "glTF2ExportSettings" : {
                    "export_animations" : 0,
                    "export_apply" : 1,
                    "export_colors" : 0,
                    "export_current_frame" : 0,
                    "export_extras" : 1,
                    "export_force_sampling" : 0,
                    "export_format" : "GLTF_SEPARATE",
                    "export_frame_range" : 0,
                    "export_morph" : 0,
                    "export_normals" : 0,
                    "export_selected" : 1,
                    "export_skins" : 0,
                    "export_texcoords" : 0,
                    "export_yup" : 0
                }
            },
            "name" : "Scene",
            "nodes" : [
                0
            ]
        }
    ],
    "nodes" : [
        {
            "mesh" : 0,
            "name" : "Cylinder"
        }
    ],
    "materials" : [
        {
            "doubleSided" : true,
            "name" : "white",
            "pbrMetallicRoughness" : {
                "baseColorFactor" : [
                    0.800000011920929,
                    0.800000011920929,
                    0.800000011920929,
                    1
                ],
                "metallicFactor" : 0,
                "roughnessFactor" : 0
            }
        },
        {
            "doubleSided" : true,
            "name" : "black",
            "pbrMetallicRoughness" : {
                "baseColorFactor" : [
                    0,
                    0,
                    0,
                    1
                ],
                "metallicFactor" : 0,
                "roughnessFactor" : 0
            }
        }
    ],
    "meshes" : [
        {
            "name" : "Cylinder",
            "primitives" : [
                {
                    "attributes" : {
                        "POSITION" : 0
                    },
                    "indices" : 1,
                    "material" : 0
                },
                {
                    "attributes" : {
                        "POSITION" : 2
                    },
                    "indices" : 3,
                    "material" : 1
                }
            ]
        }
    ],
    "accessors" : [
        {
            "bufferView" : 0,
            "componentType" : 5126,
            "count" : 9368,
            "max" : [
                0.31804439425468445,
                2.2347497940063477,
                0.31922832131385803
            ],
            "min" : [
                -0.32283729314804077,
                -1.7252490520477295,
                -0.3166065216064453
            ],
            "type" : "VEC3"
        },
        {
            "bufferView" : 1,
            "componentType" : 5123,
            "count" : 14856,
            "type" : "SCALAR"
        },
        {
            "bufferView" : 2,
            "componentType" : 5126,
            "count" : 9036,
            "max" : [
                0.3601078689098358,
                1.3674871921539307,
                0.3582443594932556
            ],
            "min" : [
                -0.3611815869808197,
                -1.8050992488861084,
                -0.3578989505767822
            ],
            "type" : "VEC3"
        },
        {
            "bufferView" : 3,
            "componentType" : 5123,
            "count" : 13962,
            "type" : "SCALAR"
        }
    ],
    "bufferViews" : [
        {
            "buffer" : 0,
            "byteLength" : 112416,
            "byteOffset" : 0
        },
        {
            "buffer" : 0,
            "byteLength" : 29712,
            "byteOffset" : 112416
        },
        {
            "buffer" : 0,
            "byteLength" : 108432,
            "byteOffset" : 142128
        },
        {
            "buffer" : 0,
            "byteLength" : 27924,
            "byteOffset" : 250560
        }
    ],
    "buffers" : [
        {
            "byteLength" : 278484,
            "uri" : "rocket.bin"
        }
    ]
}
