{
    "asset" : {
        "generator" : "Khronos glTF Blender I/O v0.9.35",
        "version" : "2.0"
    },
    "scene" : 0,
    "scenes" : [
        {
            "name" : "Scene",
            "nodes" : [
                0,
                1,
                2,
                3,
                4
            ]
        }
    ],
    "nodes" : [
        {
            "name" : "Light",
            "rotation" : [
                0.16907575726509094,
                0.7558803558349609,
                -0.27217137813568115,
                0.570947527885437
            ],
            "translation" : [
                4.076245307922363,
                5.903861999511719,
                -1.0054539442062378
            ]
        },
        {
            "name" : "Camera",
            "rotation" : [
                0.483536034822464,
                0.33687159419059753,
                -0.20870360732078552,
                0.7804827094078064
            ],
            "translation" : [
                7.358891487121582,
                4.958309173583984,
                6.925790786743164
            ]
        },
        {
            "mesh" : 0,
            "name" : "Cylinder",
            "rotation" : [
                0.7071068286895752,
                0,
                0,
                0.7071067094802856
            ]
        },
        {
            "name" : "Camera.001",
            "rotation" : [
                0.9096918702125549,
                0.20288313925266266,
                0.08604494482278824,
                0.35198774933815
            ],
            "translation" : [
                13.112072944641113,
                -20.539676666259766,
                34.0629997253418
            ]
        },
        {
            "name" : "Point",
            "rotation" : [
                0.7071068286895752,
                0,
                0,
                0.7071067094802856
            ],
            "translation" : [
                7.039031505584717,
                8.879474639892578,
                21.71028709411621
            ]
        }
    ],
    "materials" : [
        {
            "doubleSided" : true,
            "name" : "white",
            "pbrMetallicRoughness" : {
                "baseColorFactor" : [
                    0.3843735456466675,
                    0.3843735456466675,
                    0.3843735456466675,
                    1
                ],
                "metallicFactor" : 0,
                "roughnessFactor" : 0
            }
        },
        {
            "doubleSided" : true,
            "name" : "black",
            "pbrMetallicRoughness" : {
                "baseColorFactor" : [
                    0.004241788759827614,
                    0.004241788759827614,
                    0.004241788759827614,
                    1
                ],
                "metallicFactor" : 0,
                "roughnessFactor" : 0
            }
        }
    ],
    "meshes" : [
        {
            "name" : "Cylinder",
            "primitives" : [
                {
                    "attributes" : {
                        "POSITION" : 0,
                        "NORMAL" : 1
                    },
                    "indices" : 2,
                    "material" : 0
                },
                {
                    "attributes" : {
                        "POSITION" : 3,
                        "NORMAL" : 4
                    },
                    "indices" : 5,
                    "material" : 1
                }
            ]
        }
    ],
    "accessors" : [
        {
            "bufferView" : 0,
            "componentType" : 5126,
            "count" : 9364,
            "max" : [
                0.31804439425468445,
                0.31922832131385803,
                1.7252490520477295
            ],
            "min" : [
                -0.32283729314804077,
                -0.3166065216064453,
                -2.2347497940063477
            ],
            "type" : "VEC3"
        },
        {
            "bufferView" : 1,
            "componentType" : 5126,
            "count" : 9364,
            "type" : "VEC3"
        },
        {
            "bufferView" : 2,
            "componentType" : 5123,
            "count" : 14568,
            "type" : "SCALAR"
        },
        {
            "bufferView" : 3,
            "componentType" : 5126,
            "count" : 9088,
            "max" : [
                0.3601078689098358,
                0.3582443594932556,
                1.8050992488861084
            ],
            "min" : [
                -0.3611815869808197,
                -0.3578989505767822,
                -1.3674871921539307
            ],
            "type" : "VEC3"
        },
        {
            "bufferView" : 4,
            "componentType" : 5126,
            "count" : 9088,
            "type" : "VEC3"
        },
        {
            "bufferView" : 5,
            "componentType" : 5123,
            "count" : 13962,
            "type" : "SCALAR"
        }
    ],
    "bufferViews" : [
        {
            "buffer" : 0,
            "byteLength" : 112368,
            "byteOffset" : 0
        },
        {
            "buffer" : 0,
            "byteLength" : 112368,
            "byteOffset" : 112368
        },
        {
            "buffer" : 0,
            "byteLength" : 29136,
            "byteOffset" : 224736
        },
        {
            "buffer" : 0,
            "byteLength" : 109056,
            "byteOffset" : 253872
        },
        {
            "buffer" : 0,
            "byteLength" : 109056,
            "byteOffset" : 362928
        },
        {
            "buffer" : 0,
            "byteLength" : 27924,
            "byteOffset" : 471984
        }
    ],
    "buffers" : [
        {
            "byteLength" : 499908,
            "uri" : "rocket.bin"
        }
    ]
}
