{
    "asset" : {
        "generator" : "Khronos glTF Blender I/O v0.9.35",
        "version" : "2.0"
    },
    "scene" : 0,
    "scenes" : [
        {
            "extras" : {
                "glTF2ExportSettings" : {
                    "export_animations" : 0,
                    "export_apply" : 1,
                    "export_extras" : 1,
                    "export_format" : "GLTF_SEPARATE",
                    "export_image_format" : "JPEG",
                    "export_morph" : 0,
                    "export_skins" : 0
                }
            },
            "name" : "Scene",
            "nodes" : [
                0,
                1,
                2,
                3
            ]
        }
    ],
    "nodes" : [
        {
            "name" : "Camera",
            "rotation" : [
                0.4414525032043457,
                0.46357420086860657,
                -0.28720027208328247,
                0.7125550508499146
            ],
            "translation" : [
                25.121461868286133,
                14.36375904083252,
                12.873557090759277
            ]
        },
        {
            "mesh" : 0,
            "name" : "earth",
            "rotation" : [
                0,
                -0.4763631522655487,
                0,
                0.8792486190795898
            ],
            "scale" : [
                1.647392749786377,
                1.6473928689956665,
                1.647392749786377
            ],
            "translation" : [
                -1.179447889328003,
                -0.20193058252334595,
                -0.008932828903198242
            ]
        },
        {
            "mesh" : 1,
            "name" : "moon",
            "rotation" : [
                0,
                -0.817789614200592,
                0,
                0.5755172967910767
            ],
            "scale" : [
                0.4070173501968384,
                0.4070173501968384,
                0.4070173501968384
            ],
            "translation" : [
                2.94506573677063,
                1.4895479679107666,
                -0.24958467483520508
            ]
        },
        {
            "mesh" : 2,
            "name" : "BezierCurve",
            "rotation" : [
                0,
                -0.817789614200592,
                0,
                0.5755172967910767
            ],
            "scale" : [
                0.4971301853656769,
                0.4971301853656769,
                0.4971301853656769
            ],
            "translation" : [
                -3.2394580841064453,
                0.28955477476119995,
                -0.03271150588989258
            ]
        }
    ],
    "materials" : [
        {
            "doubleSided" : true,
            "name" : "earth",
            "pbrMetallicRoughness" : {
                "baseColorTexture" : {
                    "index" : 0,
                    "texCoord" : 0
                },
                "metallicFactor" : 0,
                "roughnessFactor" : 0.18636363744735718
            }
        },
        {
            "doubleSided" : true,
            "name" : "moon",
            "pbrMetallicRoughness" : {
                "baseColorTexture" : {
                    "index" : 1,
                    "texCoord" : 0
                },
                "metallicFactor" : 0,
                "roughnessFactor" : 0.7090908885002136
            }
        },
        {
            "alphaMode" : "BLEND",
            "doubleSided" : true,
            "extras" : {
                "prop" : 2
            },
            "name" : "glow",
            "pbrMetallicRoughness" : {}
        }
    ],
    "meshes" : [
        {
            "name" : "Sphere",
            "primitives" : [
                {
                    "attributes" : {
                        "POSITION" : 0,
                        "NORMAL" : 1,
                        "TEXCOORD_0" : 2
                    },
                    "indices" : 3,
                    "material" : 0
                }
            ]
        },
        {
            "name" : "Sphere.001",
            "primitives" : [
                {
                    "attributes" : {
                        "POSITION" : 4,
                        "NORMAL" : 5,
                        "TEXCOORD_0" : 6
                    },
                    "indices" : 3,
                    "material" : 1
                }
            ]
        },
        {
            "name" : "BezierCurve",
            "primitives" : [
                {
                    "attributes" : {
                        "POSITION" : 7,
                        "NORMAL" : 8
                    },
                    "indices" : 9,
                    "material" : 2
                }
            ]
        }
    ],
    "textures" : [
        {
            "source" : 0
        },
        {
            "source" : 1
        }
    ],
    "images" : [
        {
            "mimeType" : "image/jpeg",
            "name" : "uv-earth",
            "uri" : "uv-earth.jpg"
        },
        {
            "mimeType" : "image/jpeg",
            "name" : "uv-moon",
            "uri" : "uv-moon.jpg"
        }
    ],
    "accessors" : [
        {
            "bufferView" : 0,
            "componentType" : 5126,
            "count" : 559,
            "max" : [
                1.000000238418579,
                1,
                1.0000003576278687
            ],
            "min" : [
                -0.9999998211860657,
                -1,
                -1
            ],
            "type" : "VEC3"
        },
        {
            "bufferView" : 1,
            "componentType" : 5126,
            "count" : 559,
            "type" : "VEC3"
        },
        {
            "bufferView" : 2,
            "componentType" : 5126,
            "count" : 559,
            "type" : "VEC2"
        },
        {
            "bufferView" : 3,
            "componentType" : 5123,
            "count" : 2880,
            "type" : "SCALAR"
        },
        {
            "bufferView" : 4,
            "componentType" : 5126,
            "count" : 559,
            "max" : [
                1.000000238418579,
                1,
                1.0000003576278687
            ],
            "min" : [
                -0.9999998211860657,
                -1,
                -1
            ],
            "type" : "VEC3"
        },
        {
            "bufferView" : 5,
            "componentType" : 5126,
            "count" : 559,
            "type" : "VEC3"
        },
        {
            "bufferView" : 6,
            "componentType" : 5126,
            "count" : 559,
            "type" : "VEC2"
        },
        {
            "bufferView" : 7,
            "componentType" : 5126,
            "count" : 2210,
            "max" : [
                3.01328182220459,
                2.98081374168396,
                0.3184330463409424
            ],
            "min" : [
                -6.030217170715332,
                -0.6099997758865356,
                -12.938003540039062
            ],
            "type" : "VEC3"
        },
        {
            "bufferView" : 8,
            "componentType" : 5126,
            "count" : 2210,
            "type" : "VEC3"
        },
        {
            "bufferView" : 9,
            "componentType" : 5123,
            "count" : 11088,
            "type" : "SCALAR"
        }
    ],
    "bufferViews" : [
        {
            "buffer" : 0,
            "byteLength" : 6708,
            "byteOffset" : 0
        },
        {
            "buffer" : 0,
            "byteLength" : 6708,
            "byteOffset" : 6708
        },
        {
            "buffer" : 0,
            "byteLength" : 4472,
            "byteOffset" : 13416
        },
        {
            "buffer" : 0,
            "byteLength" : 5760,
            "byteOffset" : 17888
        },
        {
            "buffer" : 0,
            "byteLength" : 6708,
            "byteOffset" : 23648
        },
        {
            "buffer" : 0,
            "byteLength" : 6708,
            "byteOffset" : 30356
        },
        {
            "buffer" : 0,
            "byteLength" : 4472,
            "byteOffset" : 37064
        },
        {
            "buffer" : 0,
            "byteLength" : 26520,
            "byteOffset" : 41536
        },
        {
            "buffer" : 0,
            "byteLength" : 26520,
            "byteOffset" : 68056
        },
        {
            "buffer" : 0,
            "byteLength" : 22176,
            "byteOffset" : 94576
        }
    ],
    "buffers" : [
        {
            "byteLength" : 116752,
            "uri" : "trajectory2.bin"
        }
    ]
}
