<svg xmlns="http://www.w3.org/2000/svg" viewBox="0 0 1668.3 298.9">
  <path fill="#e1347a" d="M106.6 18.6v74.2L96.2 87v44.7l10.4 6.1 10.8 6.2h-10.8v154.8H223v-73.1l-41-23.4V257.8h-34.2v-96.6l41.8 24.2v-44.7l-41.8-24.1v-57h34.2v45.8h41V18.6h-75.2zm138.2 0v280.3h41V87l46.9 27H320V299h41V18.6h-41v43.6zm137.9 0v280.3h41V161.2l34.3 19.9 11.9 6.8.7.4H458v110.6h41V18.6h-41V136l-34.2-19.8V18.6zm137.9 0v280.2h116.3V18.7h-75.2zm137.9 0v280.3h41V161.2l34.3 19.9 11.9 6.8.7.4h-12.6v110.6h41V158L755 146.5l19.8-11.2V18.6h-75.3zm137.9 0v280.3h41V161.2l34.3 19.9 11.8 6.8.8.4h-12.6v110.6h41V18.6h-75.3zm137.9 0v280.2h116.3V158l-19.8-11.5 19.8-11.2V18.6h-75.3zm137.9 0v280.2h116.3V18.7h-41v239.2h-34.3V18.6zm141.1 0v74.2L1203 87v44.7l10.4 6.1 10.8 6.2h-10.8v154.8h116.3v-73.1l-41-23.4V257.8h-34.2v-96.6l41.8 24.2v-44.7l-41.8-24.1v-57h34.2v45.8h41V18.6h-75.2zm138.2 0v280.3h41V87l46.9 27h-12.6V299h41V18.6h-41v43.6zm137.9 0v280.3h41V161.2l34.3 19.9 11.8 6.8.8.4h-12.6v110.6h41V18.6h-75.3zm137.9 0V238h41V18.6zm-1065.6 41h34.2v198.2h-34.2zm137.8 0h34.3V136l-34.3-19.8zm138 0h34.2V136l-34.3-19.8zm137.8 0h34.3V136l-34.3-19.8zm555.1 0h34.3V136l-34.3-19.8zM13.5 36v44.6h35.7V36zm961.8 125.3l34.3 19.9 11.8 6.8.8.4h-12.6v69.5h-34.3zM17.2 120.5l-3.7 62.8v115.2h35.7V183.3l-3.5-62.8zm1610 130v25.3l41.1 23v-48.2z" font-family="Long Shot" font-weight="400" letter-spacing="0" style="line-height:100%;-inkscape-font-specification:'Long Shot'" word-spacing="0"/>
  <path fill="#fff" stroke="#240a43" stroke-width="3" d="M94.6 2.6v74.2L84.2 71v44.7l10.4 6.1 10.8 6.2H94.6v154.8H211v-73.1l-41-23.4V241.8h-34.2v-96.6l41.8 24.2v-44.7l-41.8-24.1v-57h34.2v45.8h41V2.6h-75.2zm138.2 0v280.3h41V71l46.9 27H308V283h41V2.6h-41v43.6zm137.9 0v280.3h41V145.2l34.3 19.9 11.9 6.8.7.4H446v110.6h41V2.6h-41V120l-34.2-19.8V2.6zm137.9 0v280.2h116.3V2.7h-75.2zm137.9 0v280.3h41V145.2l34.3 19.9 11.9 6.8.7.4h-12.6v110.6h41V142L743 130.5l19.8-11.2V2.6h-75.3zm137.9 0v280.3h41V145.2l34.3 19.9 11.8 6.8.8.4h-12.6v110.6h41V2.6h-75.3zm137.9 0v280.2h116.3V142l-19.8-11.5 19.8-11.2V2.6h-75.3zm137.9 0v280.2h116.3V2.7h-41v239.2h-34.3V2.6zm141.1 0v74.2L1191 71v44.7l10.4 6.1 10.8 6.2h-10.8v154.8h116.3v-73.1l-41-23.4V241.8h-34.2v-96.6l41.8 24.2v-44.7l-41.8-24.1v-57h34.2v45.8h41V2.6h-75.2zm138.2 0v280.3h41V71l46.9 27h-12.6V283h41V2.6h-41v43.6zm137.9 0v280.3h41V145.2l34.3 19.9 11.8 6.8.8.4h-12.6v110.6h41V2.6h-75.3zm137.9 0V222h41V2.6zm-1065.6 41h34.2v198.2h-34.2zm137.8 0h34.3V120l-34.3-19.8zm138 0h34.2V120l-34.3-19.8zm137.8 0h34.3V120l-34.3-19.8zm555.1 0h34.3V120l-34.3-19.8zM1.5 18v44.6h35.7V18zm961.8 127.3l34.3 19.9 11.8 6.8.8.4h-12.6v69.5h-34.3zM5.2 102.5l-3.7 62.8v115.2h35.7V165.3l-3.5-62.8zm1610 132v25.3l41.1 23v-48.2z" font-family="Long Shot" font-weight="400" letter-spacing="0" style="line-height:100%;-inkscape-font-specification:'Long Shot'" word-spacing="0"/>
  <path fill="#5de6b6" d="M123.7 10.6l-.1.8c0 1.3 1.2 1.8 2 .9.6-.5.4-1.3-.3-1.7zm23.2 0l-.1.8c0 1.3 1.2 1.8 2 .9.6-.5.4-1.3-.3-1.7zm23 0a1 1 0 0 0-.2.7c0 .8 1 1.5 1.8 1.2.5-.2 1-.7 1-1 0-.4-.3-.7-.6-.9zm23.3 0a1 1 0 0 0-.3.7c0 .8 1 1.5 1.8 1.2.5-.2 1-.7 1-1 0-.4-.3-.7-.6-.9zm139.2 0l-.2.1a1 1 0 0 0-.4.8c0 .7 1 1.4 2 1 .6-.2 1-.7 1-1 0-.4-.2-.7-.5-.9zm46.4 0h-.1v1.7c.4.3 1 .4 1.6.2.5-.2 1-.7 1-1 0-.4-.3-.7-.6-.9zm23.2 0l-.2.1a1 1 0 0 0-.4.8c0 .7 1 1.4 2 1l.4-.2v-1.7zm69.5 0c-.3.2-.6.5-.6.8 0 1.1 2 1.6 2.6.6.3-.5.2-1 0-1.4zm46.4 0c-.4.2-.6.5-.6.8 0 1.1 2 1.6 2.5.6.3-.5.3-1 0-1.4zm23.2 0c-.4.2-.6.5-.6.8 0 1.1 2 1.6 2.5.6.3-.5.3-1 0-1.4zm23.2 0c-.3.2-.6.5-.6.8 0 1.1 2 1.6 2.6.6.2-.5.2-1 0-1.4zm23.4 0c-.3.2-.5.5-.5.8 0 .6.5 1 1.1 1.2.8.1 1.1-.2 1.1-1.2 0-.3 0-.6-.2-.8zm23.2 0c-.3.2-.5.5-.5.8 0 .6.5 1 1 1.2.9.1 1.2-.2 1.2-1.2 0-.3 0-.6-.2-.8zm45.9 0a1 1 0 0 0-.2.7c0 .5.5 1.1 1.3 1.3.7.1 1-.2 1-1.1 0-.4 0-.7-.2-.9zm23.2 0a1 1 0 0 0-.2.7c0 .5.5 1.1 1.3 1.3.7.1 1-.2 1-1.1 0-.4 0-.7-.2-.9zm23.2 0a1 1 0 0 0-.2.7c0 .5.5 1.1 1.3 1.3.7.1 1-.2 1-1.1 0-.4 0-.7-.2-.9zm23.2 0a1 1 0 0 0-.2.7c0 .5.5 1.1 1.3 1.3.7.1 1-.2 1-1.1 0-.4 0-.7-.2-.9zm23.1 0a1 1 0 0 0-.1.7c0 .5.5 1.1 1.3 1.3.7.1 1-.2 1-1.1 0-.4 0-.7-.2-.9zm46.4 0l-.2.5c0 1.1 1 1.8 1.8 1.3s.8-1.3.4-1.8zm23.2 0c-.2.1-.3.3-.3.5 0 1.1 1 1.8 2 1.3.7-.5.7-1.3.3-1.8zm23.8 0l-.2.8c0 1.3 1.2 1.7 2 .9.6-.6.6-1.3.2-1.7zm23.2 0l-.2.8c0 1.3 1.2 1.7 2 .9.6-.6.6-1.3.2-1.7zm23.2 0l-.2.8c0 1.3 1.2 1.7 2 .9.6-.6.6-1.3.2-1.7zm46.4 0l-.2.8c0 1.3 1.2 1.7 2 .9.6-.6.6-1.3.2-1.7zm23.2 0l-.2.8c0 1.3 1.2 1.7 2 .9.6-.6.6-1.3.2-1.7zm23.2 0l-.2.8c0 1.3 1.2 1.7 2 .9.6-.6.6-1.3.2-1.7zm23.1 0l-.1.8c0 1.3 1.2 1.8 2 .9.6-.5.4-1.3-.2-1.7zm23.3 0l-.2.8c0 1.3 1.2 1.8 2.1.9l.2-.4v-.6c0-.3-.2-.5-.5-.7zm46.2 0a1 1 0 0 0-.3.7c0 .8 1 1.5 1.8 1.2.6-.2 1-.7 1-1 0-.4-.2-.7-.6-.9zm69.5 0a1 1 0 0 0-.2.7c0 .8.9 1.5 1.8 1.2.5-.2 1-.7 1-1 0-.4-.3-.7-.6-.9zm23.3 0l-.2.1a1 1 0 0 0-.3.8c0 .6.7 1.2 1.5 1v-1.9zm46.4 0l-.2.1a1 1 0 0 0-.3.8c0 .7 1 1.4 2 1 .5-.2 1-.7 1-1 0-.4-.3-.7-.6-.9zm23.2 0l-.2.1a1 1 0 0 0-.4.8c0 .7 1 1.4 2 1 .6-.2 1-.7 1-1 0-.4-.2-.7-.5-.9zm23.2 0l-.2.1a1 1 0 0 0-.4.8c0 .7 1 1.4 2 1 .6-.2 1-.7 1-1 0-.4-.2-.7-.5-.9zm23.2 0l-.2.1a1 1 0 0 0-.3.8c0 .7 1 1.4 2 1 .5-.2 1-.7 1-1 0-.4-.3-.7-.6-.9zm23.1 0c-.3.2-.6.5-.6.8 0 1.1 2 1.6 2.6.6.3-.5.3-1 0-1.4zm116.2 0v1.8c.6.2 1.4.2 1.8-.4.3-.5.3-1 0-1.4zm23 0c-.3.2-.6.5-.6.8 0 1.1 2 1.6 2.6.6v-1.3-.1zm46.6 0c-.3.2-.5.5-.5.8 0 .6.5 1 1.1 1.2.8.1 1.1-.2 1.1-1.2l-.1-.8zm22.7 0a1 1 0 0 0-.2.7c0 .5.5 1.1 1.3 1.3.8.1 1.1-.2 1.1-1.1 0-.4 0-.7-.2-.9zm23.2 0a1 1 0 0 0-.2.7c0 .5.5 1.1 1.3 1.3.8.1 1.1-.2 1.1-1.1 0-.4 0-.7-.2-.9zm23.2 0a1 1 0 0 0-.2.7c0 .5.5 1.1 1.3 1.3.8.1 1.1-.2 1.1-1.1 0-.4 0-.7-.2-.9zm23.2 0a1 1 0 0 0-.2.7c0 .5.5 1 1.2 1.2v-1.9zm46.4 0a1 1 0 0 0-.2.7c0 .5.5 1.1 1.3 1.3.8.1 1.1-.2 1.1-1.1 0-.4 0-.7-.2-.9zm-1528.5 0V12c.4-.5.3-1 0-1.4zm10.5 10.9c-.7 0-1.2.7-1.3 1.4 0 .4 0 .9.4 1.2.5.5.9.5 1.6 0 1-1 .6-2.6-.7-2.6zm23.2 0c-.7 0-1.2.7-1.3 1.4 0 .4 0 .9.4 1.2.5.5.9.5 1.6 0 1-1 .6-2.6-.7-2.6zm23.2 0c-.7 0-1.2.7-1.3 1.4 0 .4 0 .9.4 1.2.5.5 1 .5 1.6 0 1-1 .6-2.6-.7-2.6zm23.3 0c-.5 0-1.1.4-1.3 1l-.1.4c-.1 1 .9 2 1.7 1.4 1-.6.8-2.8-.3-2.8zm138.9 0c-.8 0-1.3.4-1.3 1.2 0 1.4 1 2.2 2 1.6 1-.7.6-2.8-.7-2.8zm69.6 0c-.8 0-1.3.4-1.3 1.2 0 1.4 1 2.2 1.9 1.6 1.2-.7.7-2.8-.6-2.8zm557 0c-.8 0-1.3.7-1.4 1.4 0 .4 0 .9.4 1.2.5.5 1 .5 1.6 0 1-1 .7-2.6-.7-2.6zm23.1 0c-.7 0-1.2.7-1.3 1.4 0 .4 0 .9.4 1.2.5.5 1 .5 1.6 0 1-1 .6-2.6-.7-2.6zm23.2 0c-.7 0-1.2.7-1.3 1.4 0 .4 0 .9.4 1.2.5.5 1 .5 1.6 0 1-1 .7-2.6-.7-2.6zm23.3 0c-.8 0-1.3.7-1.4 1.4 0 .4 0 .9.4 1.2.5.5 1 .5 1.6 0 1-1 .7-2.6-.6-2.6zm69.7 0c-.6 0-1.2.4-1.4 1v.4c-.2 1 .8 2 1.6 1.4 1-.6.8-2.8-.2-2.8zm69.2 0c-.8 0-1.3.4-1.3 1.2 0 1.4 1 2.2 2 1.6 1-.7.6-2.8-.7-2.8zm69.6 0c-.8 0-1.3.4-1.3 1.2 0 1.4 1 2.2 2 1.6 1-.7.6-2.8-.7-2.8zm23.2 0c-.8 0-1.3.4-1.3 1.2 0 1.4 1 2.2 2 1.6 1-.7.6-2.8-.7-2.8zm23.2 0c-.8 0-1.3.4-1.3 1.2 0 1.4 1 2.2 2 1.6 1-.7.6-2.8-.7-2.8zm23.2 0c-.8 0-1.3.4-1.3 1.2 0 1.4 1 2.2 2 1.6 1.1-.7.6-2.8-.7-2.8zm-835 0c-.6-.1-1.3.2-1.6.9v.4c0 1 1.3 2 2 1.5.5-.2.7-1 .7-1.6 0-.7-.5-1.2-1.1-1.2zm115.2 0c-.4.2-.6.5-.6 1.1 0 1.5 1 2.3 2 1.7 1-.6.4-2.5-.9-2.7h-.5zm23.2 0c-.4.2-.6.5-.6 1.1 0 1.5 1 2.3 2 1.7 1-.6.3-2.5-1-2.7h-.4zm-69.4 0c-.6.2-1 .7-1 1.3 0 .4.1.8.5 1.1.4.5 1.1.7 1.5.4 1-.6.8-2.2-.3-2.6l-.7-.1zm23.2 0c-.6.2-1 .7-1 1.3 0 .4.1.8.5 1.1.5.5 1.1.7 1.5.4 1-.6.9-2.2-.3-2.6l-.7-.1zm881.6 0c-.6.2-1 .7-1 1.3 0 .4 0 .8.4 1.1.5.5 1.2.7 1.6.4 1-.6.8-2.2-.3-2.6l-.7-.1zm69.6 0c-.6.2-1 .7-1 1.3 0 .4 0 .8.4 1.1.5.5 1.2.7 1.6.4 1-.6.8-2.2-.4-2.6l-.6-.1zm-835 .1c-.4 0-.9.1-1.2.4-.2.2-.2.4-.2.6 0 1 1.3 2.3 2.2 1.7 1-.6.8-2.2-.3-2.6l-.4-.1zm23.3 0c-.5 0-1 .1-1.3.4-.2.2-.2.4-.2.6 0 1 1.3 2.3 2.2 1.7 1-.6.8-2.2-.3-2.6l-.4-.1zm835.1 0c-.4 0-1 .1-1.2.4l-.3.6c0 1 1.4 2.3 2.3 1.7 1-.6.8-2.2-.3-2.6l-.5-.1zm23.2 0c-.4 0-1 .1-1.2.4l-.3.6c0 1 1.4 2.3 2.2 1.7 1-.6.9-2.2-.2-2.6l-.5-.1zm23.2 0c-.4 0-1 .1-1.2.4l-.3.6c0 1 1.4 2.3 2.2 1.7 1-.6.9-2.2-.2-2.6l-.5-.1zm-858.3 0c-.5 0-1 0-1.3.4a1 1 0 0 0-.2.8c0 .8 1 1.8 2 1.4.5-.2.9-.8.9-1.2 0-.8-.7-1.3-1.4-1.4zm23.1 0c-.4 0-.8 0-1.2.4a1 1 0 0 0-.3.8c.1.8 1.1 1.8 2 1.4.6-.2 1-.8 1-1.2 0-.8-.7-1.3-1.5-1.4zm69.6 0c-.4 0-.9 0-1.2.4a1 1 0 0 0-.3.8c.1.8 1.1 1.8 2 1.4.6-.2 1-.8 1-1.2 0-.8-.7-1.3-1.5-1.4zm23.2 0c-.4 0-.9 0-1.2.4a1 1 0 0 0-.3.8c.1.8 1.1 1.8 2 1.4.6-.2 1-.8 1-1.2 0-.8-.7-1.3-1.5-1.4zm23.8 0c-.6 0-1.2.3-1.4.8l-.1.5c0 1 1.2 1.8 2.2 1 .5-.4.7-1 .6-1.4-.2-.6-.8-.9-1.3-.9zm23.2 0c-.6 0-1.2.3-1.4.8l-.1.5c0 1 1.2 1.8 2.2 1 .5-.4.7-1 .6-1.4-.2-.6-.8-.9-1.3-.9zm765 0c-.4 0-.9 0-1.2.4a1 1 0 0 0-.3.8c.1.8 1.1 1.8 2 1.4.6-.2 1-.8 1-1.2 0-.8-.7-1.3-1.5-1.4zM251 22.4v.3c0 1.4 1 2.2 1.8 1.6.3-.1.4-.3.5-.5l-2.3-1.4zM263.5 33c-.7 0-1.2.7-1.3 1.4 0 .4.1.8.4 1 .4.5 1.2.6 1.7.4 1.4-.5 1-2.5-.4-2.8h-.4zm69.6 0c-.7 0-1.3.7-1.3 1.4 0 .4.1.8.4 1 .4.5 1.1.6 1.7.4 1.3-.5 1-2.5-.5-2.8h-.3zm46.4 0c-.3 0-.6.1-.8.3v2.2c.4.4 1 .5 1.6.3 1.3-.5 1-2.5-.5-2.8h-.3zm23.2 0c-.7 0-1.3.7-1.3 1.4 0 .4.1.8.4 1 .4.5 1.1.6 1.7.4l.3-.2v-2.3c-.2-.1-.5-.3-.8-.3h-.3zm69.6 0c-.7 0-1.3.7-1.3 1.4 0 .4.1.8.4 1 .4.5 1.1.6 1.7.4 1.3-.5 1-2.5-.5-2.8h-.3zm672.7 0c-.7 0-1.2.7-1.3 1.4 0 .4.1.8.4 1 .4.5 1.2.6 1.7.4 1.3-.5 1-2.5-.5-2.8h-.3zm23.2 0c-.7 0-1.2.7-1.3 1.4 0 .4.1.8.4 1 .3.4.8.5 1.2.5v-3h-.3zm46.4 0c-.7 0-1.2.7-1.3 1.4 0 .4.1.8.4 1 .4.5 1.2.6 1.7.4 1.3-.5 1-2.5-.5-2.8h-.3zm23.2 0c-.7 0-1.3.7-1.3 1.4 0 .4.1.8.4 1l.5.4h1.2c1.3-.5 1-2.5-.5-2.8h-.3zm23.2 0c-.7 0-1.3.7-1.3 1.4 0 .4.1.8.4 1l.5.4h1.2c1.3-.5 1-2.5-.5-2.8h-.3zm23.2 0c-.7 0-1.2.7-1.3 1.4 0 .4.1.8.4 1l.5.4H1285c1.3-.5 1-2.5-.5-2.8h-.3zm23.2 0c-.7 0-1.2.7-1.3 1.4 0 .4.1.8.4 1 .4.5 1.2.6 1.7.4 1.3-.5 1-2.5-.4-2.8h-.4zm46.4 0c-.7 0-1.2.7-1.3 1.4 0 .4.2.8.5 1 .3.5 1 .6 1.6.4 1.4-.5 1-2.5-.4-2.8h-.4zm-464 0c-.4 0-.8.3-1 .8l-.2 1c0 .7.7 1.2 1.8 1.2 1 0 1.2-.4 1-1.4 0-1-.9-1.7-1.5-1.6zm-649 0v2.8h.4c1.2-.5 1-2.4-.4-2.8zm439.9 0c-.6.2-1 .8-1 1.8 0 .4.2.7.6 1h1.8l.3-.2c.6-.7.5-1.3-.5-2-.4-.4-.9-.6-1.2-.5zm23.2 0c-.6.2-1 .8-1 1.8 0 .4.2.7.6 1h1.8l.3-.2c.6-.7.5-1.3-.5-2-.4-.4-.9-.6-1.2-.5zm23.2 0c-.6.2-1 .8-1 1.8 0 .4.2.7.6 1h1.8l.3-.2c.6-.7.5-1.3-.5-2-.4-.4-.9-.6-1.2-.5zm23.2 0c-.6.2-1 .8-1 1.8 0 1.2 1.8 1.7 2.7.8.6-.7.5-1.3-.5-2-.4-.4-.9-.6-1.2-.5zm46.4 0c-.6.2-1 .8-1 1.8 0 1.2 1.8 1.7 2.7.8.6-.7.5-1.3-.5-2-.5-.4-.9-.6-1.2-.5zm23.2 0c-.6.2-1 .8-1 1.8 0 .4.2.7.5 1h1.9l.3-.2c.6-.7.5-1.3-.5-2-.5-.4-.9-.6-1.2-.5zm24.2 0c-.4 0-.8.2-1.2.7-.5.4-.7.8-.6 1.2 0 .4.2.7.6.9h1.9c.2-.2.4-.6.4-1 0-1-.5-1.7-1.1-1.7zm23.2 0c-.4 0-.8.2-1.3.7-.4.4-.6.8-.5 1.2 0 .4.2.7.6.9h1.6v.1c.4-.1.7-.5.7-1.1 0-1-.5-1.7-1.1-1.7zm695 0c-.7.2-1 .8-1 1.8 0 1.2 1.7 1.7 2.6.8.7-.7.5-1.3-.5-2-.4-.4-.8-.6-1.2-.5zm23.1 0c-.6.2-1 .8-1 1.8 0 .7.6 1.1 1.3 1.2v-3h-.3zm46.4 0c-.6.2-1 .8-1 1.8 0 1.2 1.8 1.7 2.7.8.7-.7.5-1.3-.5-2-.4-.4-.8-.6-1.2-.5zM124.5 33c-.6 0-1.3.4-1.3 1.3s.5 1.3 1.5 1.5c1.2.2 1.4 0 1.3-1.3-.2-1-.9-1.4-1.5-1.5zm23.2 0c-.6 0-1.3.4-1.3 1.3 0 .7.4 1.2 1 1.4h1.7v-1.2c0-1-.7-1.4-1.4-1.5zm23.2 0c-.6 0-1.2.4-1.2 1.3 0 .7.3 1.2 1 1.4h1.6c.1-.2.2-.6 0-1.2 0-1-.7-1.4-1.4-1.5zm23.2 0c-.6 0-1.2.4-1.2 1.3s.5 1.3 1.4 1.5c1.2.2 1.5 0 1.3-1.3-.2-1-.8-1.4-1.5-1.5zm742.3 0c-.6 0-1.2.4-1.2 1.3s.4 1.3 1.4 1.5c1.2.2 1.4 0 1.3-1.3-.2-1-.8-1.4-1.5-1.5zm23.2 0c-.6 0-1.2.4-1.2 1.3 0 .7.3 1.2 1 1.4h1.6c.2-.2.2-.6 0-1.2 0-1-.7-1.4-1.4-1.5zm23.2 0c-.6 0-1.2.4-1.2 1.3 0 .7.3 1.2 1 1.4h1.6c.1-.2.2-.6 0-1.2 0-1-.7-1.4-1.4-1.5zm23.2 0c-.6 0-1.2.4-1.2 1.3s.5 1.3 1.4 1.5c1.2.2 1.5 0 1.3-1.3-.2-1-.8-1.4-1.5-1.5zm23.2 0c-.6 0-1.2.4-1.2 1.3s.5 1.3 1.4 1.5c.7 0 1 0 1.2-.2v-1.4c-.2-.7-.8-1.1-1.4-1.2zm46.5 0c-.7 0-1.3.4-1.3 1.3s.5 1.3 1.5 1.5c1.2.2 1.4 0 1.2-1.3-.1-1-.8-1.4-1.4-1.5zm-556.9 0c-.8 0-1.3.6-1.4 1.5v.3c0 .8.2 1 1 1 .6 0 1.4-.1 1.6-.3.8-.9 0-2.4-1.2-2.4zm23.2 0c-.8 0-1.3.6-1.4 1.5v.3c0 .8.2 1 1 1v-.1h1.2l.4-.2c.8-.9 0-2.4-1.2-2.4zm23.3 0c-.8 0-1.3.6-1.5 1.5v.3c0 .4 0 .7.2.9h2l.4-.2c.9-.9.1-2.4-1.1-2.4zm23.2 0c-.9 0-1.4.6-1.5 1.5v.3c0 .4 0 .7.2.9h2l.4-.2c.9-.9 0-2.4-1.1-2.4zm23.1 0c-.8 0-1.3.6-1.4 1.5v.3c0 .8.2 1 1 1 .6 0 1.4-.1 1.6-.3.9-.9 0-2.4-1.2-2.4zm46.4 0c-.8 0-1.3.6-1.4 1.5v.3c0 .8.2 1 1 1 .6 0 1.4-.1 1.6-.3.8-.9 0-2.4-1.2-2.4zm765.6 0c-.3 0-.6.2-.8.3V36h.3c.7 0 1.4-.2 1.7-.4.8-.9 0-2.4-1.2-2.4zm23.2 0c-.8 0-1.3.6-1.5 1.5v.3c0 .8.3 1 1 1 .6 0 1.2 0 1.5-.3v-2c-.2-.2-.6-.4-1-.4zm46.4 0c-.8 0-1.3.6-1.5 1.5v.3c0 .8.3 1 1 1s1.4-.1 1.7-.3c.8-.9 0-2.4-1.2-2.4zm23.2 0c-.8 0-1.3.6-1.5 1.5v.3c0 .4 0 .7.2.9h2l.5-.2c.8-.9 0-2.4-1.2-2.4zm23.2 0c-.8 0-1.3.6-1.5 1.5v.3c0 .4 0 .7.2.9h2l.5-.2c.8-.9 0-2.4-1.2-2.4zm-163.3.1c-.3.3-.5.8-.6 1.2 0 .4.1.8.4 1 .4.5 1.2.6 1.7.4.6-.3.8-.7.8-1.2l-2.3-1.4zm-1273.7 1v1.6c.2-.2.2-.5.1-1.2v-.4zm288.6 10c-.3 0-.5.3-1 .7-.3.4-.5 1-.5 1.5v.5c.5 1.2 2.6 1.4 3 .2.6-1.3.5-1.5-.5-2.4-.4-.3-.7-.5-1-.4zm1043.7.3l-.7.3c-.5.4-.9 1.1-.9 1.6 0 1.3 1.7 1.8 2.9.9 1.1-1 1.1-1-.1-2.2-.5-.5-.9-.7-1.2-.6zm69.6 0c-.2 0-.5.1-.7.3-.5.4-.9 1.1-.9 1.6 0 1.3 1.7 1.8 2.8.9 1.2-1 1.2-1 0-2.2-.5-.5-.9-.7-1.2-.6zm-1391.3 0c-.4 0-.7.1-1.2.6s-.7.8-.7 1c0 .4.1.6.6 1 .5.6 1.3.8 1.9.6 1.2-.5 1.3-2 .1-2.9l-.7-.3zm695.2 0c-.9 0-1.5.6-1.5 1.5 0 1.4 1 2.1 2.3 1.7 1-.5 1.2-2.7 0-3.1-.2-.1-.5-.2-.8-.1zm70.3 0c-.3 0-.7.1-1.2.6s-.7.8-.7 1c0 .4.2.6.6 1 .5.6 1.4.8 1.9.6 1.2-.5 1.3-2 .1-2.9-.2-.2-.5-.3-.7-.3zm139.2 0c-.3 0-.7.1-1.2.6s-.7.8-.7 1c0 .4.2.6.6 1 .5.6 1.4.8 2 .6 1.1-.5 1.2-2 0-2.9-.2-.2-.4-.3-.7-.3zm625.7 0c-.9 0-1.5.6-1.5 1.5 0 1.4 1 2.1 2.2 1.7 1.2-.5 1.2-2.7.2-3.1-.3-.1-.7-.2-1-.1zm-974 0c-.9 0-1.8 1-1.7 2v.5c.5 1 1.8 1.2 2.6.5.7-.8.4-2.6-.5-3h-.4zm69.6 0c-.9 0-1.8 1-1.7 2v.5c.4 1 1.8 1.2 2.6.5.7-.8.4-2.6-.5-3h-.4zm835.2 0c-1 0-1.8 1-1.8 2l.1.5c.4 1 1.8 1.2 2.5.5.8-.8.5-2.6-.5-3h-.3zm-626.4 0c-.7 0-1.2.7-1.2 1.5 0 1.4 1 2.1 2.2 1.7 1-.5 1.2-1.8.2-2.8-.4-.3-.8-.5-1.2-.4zm-626.2 0c-.3 0-.7.2-1 .5-.6.4-.9.6-.9 1 0 .2.1.5.5.9 1 1.2 2.3 1.3 2.7.2.6-1.2.5-1.5-.4-2.2-.3-.3-.6-.4-.9-.4zm-139.2 0c-.3 0-.6.2-1 .6-.6.4-1 .6-1 .9 0 .2.3.5.8 1 .5.6 1.5.9 2 .7 1.2-.5 1.3-2 .2-2.8-.3-.3-.6-.4-1-.4zm69.6 0c-.3 0-.6.2-1 .6-.6.4-1 .6-1 .9 0 .2.3.5.8 1 .5.6 1.5.9 2 .7 1.2-.5 1.3-2 .2-2.8-.3-.3-.6-.4-1-.4zm23.2 0c-.3 0-.7.2-1.1.6-.6.4-.8.6-.9.9 0 .2.3.5.7 1 .6.6 1.5.9 2 .7 1.3-.5 1.4-2 .2-2.8-.3-.3-.6-.4-.9-.4zm812 0c-.3 0-.7.2-1.1.6-.6.4-.9.6-.9.9 0 .2.2.5.7 1 .6.6 1.5.9 2 .7 1.3-.5 1.3-2 .2-2.8-.3-.3-.6-.4-1-.4zm69.5 0c-.3 0-.6.2-1.1.6-.6.4-.8.6-.9.9 0 .2.3.5.8 1 .5.6 1.4.9 2 .7 1.2-.5 1.3-2 .1-2.8-.3-.3-.6-.4-.9-.4zm-696.3 0c-.3 0-.6.2-.9.4a2 2 0 0 0-.6 1.3c-.1 1.3 1.3 2.2 2.7 1 1.3-1 1.2-1.6-.2-2.4a2 2 0 0 0-1-.3zm69.5 0c-.3 0-.6.2-.8.4a2 2 0 0 0-.7 1.3c0 1.3 1.4 2.2 2.8 1 1.2-1 1.2-1.6-.2-2.4a2 2 0 0 0-1-.3zm69.6 0c-.3 0-.6.2-.8.4a2 2 0 0 0-.7 1.3c0 1.3 1.4 2.2 2.8 1 1.2-1 1.2-1.6-.2-2.4a2 2 0 0 0-1-.3zm765.6 0c-.3 0-.6.2-.8.4a2 2 0 0 0-.7 1.3c0 1.3 1.4 2.2 2.8 1 1.2-1 1.1-1.6-.3-2.4a2 2 0 0 0-1-.3zm23.2 0c-.3 0-.6.2-.9.4a2 2 0 0 0-.6 1.3c-.1 1.3 1.3 2.2 2.7 1 1.3-1 1.2-1.6-.2-2.4a2 2 0 0 0-1-.3zm-162 0c-.8 0-1.7.8-1.7 1.8v.5c.5 1.3 2.6 1.5 3 .3.6-1.2.5-1.5-.4-2.2-.2-.3-.5-.4-.8-.4zm69.3 0c-.8 0-1.4.7-1.5 1.5 0 .3 0 .6.2.9.4 1.2 1.6 1.3 2.6.2 1-1 1-1.6-.4-2.3-.3-.2-.6-.2-.9-.2zM124.8 56A1.9 1.9 0 0 0 123 58c0 1.4 1.6 2.1 2.8 1.1 1-.8 1-1.2.3-2.3-.3-.5-.7-.7-1.2-.7zm765.6 0a1.9 1.9 0 0 0-1.8 1.9c0 1.4 1.6 2.1 2.7 1.1 1-.8 1-1.2.4-2.3-.3-.5-.8-.7-1.3-.7zm46.4 0A1.9 1.9 0 0 0 935 58c0 1.4 1.6 2.1 2.7 1.1 1-.8 1-1.2.4-2.3-.3-.5-.8-.7-1.3-.7zm69.6 0l-.8.2v3.2c.5.2 1.2 0 1.8-.4 1-.8 1-1.2.3-2.3-.3-.5-.8-.7-1.3-.7zm23.2 0a1.9 1.9 0 0 0-1.8 1.9c0 1.4 1.6 2.1 2.8 1.1v-2.6c-.3-.3-.6-.4-1-.4zm-788.2 0h-.6v3.4l.4-.1c.5-.2.9-1 .9-1.9 0-1-.2-1.3-.7-1.4zm137.4 0h-.1v3c.4.4 1 .5 1.8.2 1.3-.5.6-3-1-3.1h-.7zm928 0c-.6 0-.8.5-.8 1.4 0 1.6 1 2.4 2.4 1.8 1.4-.5.6-3-1-3.1h-.7zM264.3 56c-.9 0-1.9.6-2 1.6v.3c0 1.4 1.5 2 2.6.8.5-.5.8-1.3.6-1.9-.2-.5-.7-.7-1.2-.8zm532.4 0c-1 0-1.5.6-1.5 1.4 0 .5.1 1 .6 1.5.9.9 1.2.9 2 .2 1.4-1.1 1-2.8-.7-3h-.4zm349 0c-.8 0-1.8.6-2 1.6v.3c0 1.4 1.5 2 2.7.8.5-.5.8-1.3.6-1.9-.2-.5-.7-.7-1.2-.8zM472 56c-.9 0-1.4.7-1.4 1.4 0 .4.2.9.5 1.3.5.7 1.2 1 1.9.7 1.6-.6 1.1-3-.6-3.3h-.4zm46.4 0c-.9 0-1.4.7-1.4 1.4 0 .4.2.9.5 1.3.5.7 1.2 1 1.9.7 1.5-.6 1-3-.6-3.3h-.4zm23.2 0c-.9 0-1.4.7-1.4 1.4 0 .4.2.9.5 1.3s.6.6 1 .7v-3.3h-.1zm812 0c-1 0-1.4.7-1.4 1.4 0 .4.1.9.5 1.3.4.7 1.1 1 1.8.7 1.6-.6 1.1-3-.6-3.3h-.4zm23.1 0c-.8 0-1.4.7-1.3 1.4 0 .4.1.9.5 1.3.4.7 1.1 1 1.8.7 1.6-.6 1.1-3-.6-3.3h-.4zm23.2 0c-.9 0-1.4.7-1.4 1.4 0 .4.2.9.5 1.3.5.7 1.2 1 2 .7 1.5-.6 1-3-.7-3.3h-.4zm23.2 0c-.9 0-1.4.7-1.4 1.4 0 .4.2.9.5 1.3.5.7 1.2 1 1.9.7 1.6-.6 1.1-3-.6-3.3h-.4zm23.2 0c-.9 0-1.4.7-1.4 1.4 0 .4.2.9.5 1.3.5.7 1.2 1 2 .7l.4-.4v-2.3c-.2-.3-.6-.6-1-.6h-.5zm-835.1 0c-1 .1-1.5.9-1.5 1.7 0 .4.2.8.6 1.2a2 2 0 0 0 1.9.4c1.5-.5 1-3-.6-3.2a2 2 0 0 0-.4 0zm46.4 0c-1 .1-1.5.9-1.5 1.7 0 .4.2.8.6 1.2a2 2 0 0 0 1.9.4c1.5-.5 1-3-.6-3.2a2 2 0 0 0-.4 0zm92.7 0c-.9.1-1.4.9-1.4 1.7 0 .4.2.8.5 1.2a2 2 0 0 0 2 .4c1.5-.5 1-3-.7-3.2a2 2 0 0 0-.4 0zm742.4 0c-.9.1-1.5.9-1.5 1.7 0 .4.2.8.6 1.2a2 2 0 0 0 2 .4c1.5-.5 1-3-.7-3.2a2 2 0 0 0-.4 0zm69.6 0c-.9.1-1.5.9-1.5 1.7 0 .4.2.8.6 1.2a2 2 0 0 0 2 .4c1.5-.5 1-3-.7-3.2a2 2 0 0 0-.4 0zm23.2 0c-.9.1-1.5.9-1.5 1.7a1.8 1.8 0 0 0 1.7 1.7v-3.3h-.2zm46.4 0c-.9.1-1.5.9-1.5 1.7 0 .4.2.8.6 1.2a2 2 0 0 0 2 .4c1.5-.5 1-3-.7-3.2a2 2 0 0 0-.4 0zM194.8 56h-.6c-1 .2-1.5 1-1.6 1.8 0 .7.3 1.3 1 1.6.7.2 1.4 0 1.9-.7.9-1.2.5-2.5-.7-2.6zm92.7 0h-.5c-1 .2-1.6 1-1.6 1.8 0 .7.3 1.3 1 1.6.7.2 1.4 0 1.8-.7 1-1.2.5-2.5-.7-2.6zm788.8 0h-.6c-1 .2-1.5 1-1.5 1.8 0 .7.3 1.3 1 1.6.6.2 1.3 0 1.8-.7 1-1.2.5-2.5-.7-2.6zm92.2 0c-1 .2-1.6 1-1.6 1.8a1.5 1.5 0 0 0 1.6 1.6v-3.3zm-300.8 0v3.3l.4-.3c1-.8 1-1.2.3-2.3-.1-.3-.4-.5-.7-.6zm-534.5.1c-.8 0-1.5.6-1.5 1.6 0 1.7 1.6 2.2 2.9 1 .9-1 .9-1.2 0-2a2 2 0 0 0-1.4-.6zm881.5 0c-.8 0-1.5.6-1.5 1.6 0 1.7 1.6 2.2 2.9 1 .9-1 .9-1.2 0-2a2 2 0 0 0-1.4-.6zm-904.6.1c-.7 0-1.3.5-1.5 1.4v.2c0 1.3 1.5 2.2 2.5 1.5.4-.2.5-1 .4-1.7-.1-.9-.8-1.4-1.4-1.4zm92.8 0c-.7 0-1.3.4-1.5 1.2v.5c0 1.1 1.1 1.8 2.2 1.4l.2-.1v-2.6c-.3-.2-.6-.3-1-.3zm881.7.1v3h.6c.4-.2.7-1 .6-1.7 0-.8-.6-1.2-1.2-1.3zm-1182 0V59c1-.8 1-1.2.3-2.3 0-.2-.2-.3-.3-.4zm577 .5a1.6 1.6 0 0 0 0 1.7zM182.7 67.3c-1 0-2.2 1-2.2 1.9 0 1.3 1.4 2.1 2.9 1.6 1-.4 1.2-2.7.3-3.3l-1-.2zm625.5 0c-.7.1-1.3.7-1.3 1.7v.3c.3 1.6 2.3 2.2 3.1 1 .8-1.2.7-1.5-.3-2.4a2 2 0 0 0-1.5-.5zm835.2 0c-.7.1-1.3.7-1.3 1.7v.3c.3 1.6 2.3 2.2 3.1 1 .8-1.2.7-1.5-.3-2.4a2 2 0 0 0-1.5-.5zM530 67.4c-1 0-1.4.7-1.4 1.9 0 1.3 1.3 2.1 2.8 1.6 1.4-.6 1.1-2.8-.3-3.3l-1.1-.1zm881.5 0c-.9 0-1.4.7-1.4 1.9 0 1.3 1.4 2.1 2.8 1.6 1.4-.6 1.2-2.8-.3-3.3l-1-.1zm-1298.1 0c-1 0-2.4 1.1-2.4 2.2 0 1 1.5 1.8 2.8 1.3 1.3-.5 1.3-2.9 0-3.3l-.4-.1zm765.5 0c-1 0-2.4 1.1-2.4 2.2 0 1 1.6 1.8 2.8 1.3 1.3-.5 1.3-2.9 0-3.3l-.4-.1zm69.6 0c-1 0-2.4 1.1-2.4 2.2 0 1 1.6 1.8 2.9 1.3 1.2-.5 1.2-2.9 0-3.3l-.5-.1zm69.6 0c-1 0-2.4 1.1-2.4 2.2 0 1 1.6 1.8 2.9 1.3 1.2-.5 1.2-2.9 0-3.3l-.5-.1zm-418.5 0c-.8.2-1.4.8-1.4 1.8 0 1.4 1.3 2.2 2.8 1.7 1.2-.5 1.2-2 0-3a2 2 0 0 0-1.4-.4zm69.5 0c-.7.2-1.3.8-1.3 1.8 0 1.4 1.3 2.2 2.8 1.7 1.2-.5 1.2-2 0-3a2 2 0 0 0-1.5-.4zm69.6 0c-.7.2-1.4.8-1.4 1.8 0 1.4 1.4 2.2 2.9 1.7 1.2-.5 1.2-2 0-3a2 2 0 0 0-1.5-.4zm696 0c-.8.2-1.4.8-1.4 1.8 0 1.4 1.4 2.2 2.9 1.7 1.2-.5 1.2-2 0-3a2 2 0 0 0-1.5-.4zm69.6 0c-.8.2-1.4.8-1.4 1.8 0 1.4 1.4 2.2 2.8 1.7 1.2-.5 1.2-2 0-3a2 2 0 0 0-1.4-.4zm69.6 0c-.8.2-1.4.8-1.4 1.8 0 1.4 1.4 2.2 2.8 1.7 1.2-.5 1.2-2 0-3a2 2 0 0 0-1.4-.4zM252 67.6c-1.1 0-1.6.4-1.8 1.5v.2c0 1.4 1.3 2.1 2.8 1.6.6-.3.9-1 .8-1.8-.2-1-.6-1.5-1.8-1.5zm46.4 0c-1.2 0-1.6.4-1.8 1.5v.2c0 1.4 1.2 2.1 2.8 1.6.6-.3.9-1 .8-1.8-.2-1-.7-1.5-1.8-1.5zm23.2 0c-1.2 0-1.6.4-1.8 1.5v.2c0 1.4 1.2 2.1 2.8 1.6.6-.3.9-1 .7-1.8-.1-1-.6-1.5-1.7-1.5zm69.6 0c-1.2 0-1.6.4-1.8 1.5v.2c0 1.4 1.2 2.1 2.8 1.6.6-.3.9-1 .7-1.8-.1-1-.6-1.5-1.7-1.5zm69.6 0c-1.2 0-1.6.4-1.8 1.5v.2c0 1.4 1.3 2.1 2.8 1.6.6-.3.9-1 .8-1.8-.2-1-.7-1.5-1.8-1.5zm626.4 0c-1.2 0-1.7.4-1.8 1.5v.2c0 1.4 1.2 2.1 2.7 1.6.6-.3 1-1 .8-1.8-.1-1-.6-1.5-1.7-1.5zm69.5 0c-1.2 0-1.6.4-1.8 1.5v.2c0 1.4 1.3 2.1 2.8 1.6.6-.3.9-1 .8-1.8-.2-1-.7-1.5-1.8-1.5zm69.6 0c-1.2 0-1.6.4-1.8 1.5v.2c0 1.4 1.2 2.1 2.8 1.6.6-.3.9-1 .8-1.8-.2-1-.7-1.5-1.8-1.5zm69.6 0c-1.2 0-1.6.4-1.8 1.5v.2c0 1.4 1.3 2.1 2.8 1.6.6-.3.9-1 .8-1.8-.2-1-.7-1.5-1.8-1.5zm69.6 0c-1.1 0-1.6.4-1.8 1.5v.2c0 1.4 1.3 2.1 2.8 1.6.6-.3.9-1 .8-1.8-.2-1-.6-1.5-1.8-1.5zm-847 11c-.4 0-.8.4-1.3 1a2 2 0 0 0-.5 1.4c.2 1.4 2 2.5 3.3 1.4 1.2-1 1.2-1.6 0-2.8-.7-.6-1.1-1-1.5-1zm904.7 0c-.4 0-.8.4-1.3 1a2 2 0 0 0-.5 1.4c.2 1.4 2 2.5 3.3 1.4 1.2-1 1.2-1.6 0-2.8-.6-.6-1-1-1.5-1zm23.2 0c-.4 0-.8.4-1.3 1a2 2 0 0 0-.4 1.4c0 1.3 1.7 2.4 3 1.5v-3c-.5-.6-.9-.8-1.3-.8zm-1136.4 0c-.5 0-.8.3-1.3.8-.5.4-.7 1-.7 1.5 0 .3 0 .6.2.9l1.9 1c.4 0 .8-.1 1.2-.5 1.1-1 1-2.4-.5-3.3l-.8-.3zm23.1 0c-.4 0-.7.3-1.2.8-.5.4-.7 1-.7 1.5 0 1.5 1.7 2.7 3.3 1.4 1.1-1 1-2.4-.5-3.3l-.9-.3zm46.4 0c-.3 0-.6.2-1 .5v3.5c.7.4 1.6.4 2.4-.3 1.1-1 1-2.4-.5-3.3l-.9-.3zm23.2 0c-.4 0-.8.3-1.3.8-.4.4-.6 1-.6 1.5 0 1.3 1.4 2.5 2.9 1.7V79h-.1c-.3-.3-.6-.4-.9-.4zm765.6 0c-.5 0-.8.3-1.3.8-.5.4-.7 1-.7 1.5 0 1 1 2 2.1 2v-4.2h-.1zm46.4 0c-.5 0-.8.3-1.3.8-.5.4-.7 1-.7 1.5 0 1.5 1.7 2.7 3.3 1.4 1.2-1 1-2.4-.5-3.3l-.8-.3zm92.8 0c-.4 0-.8.3-1.3.8-.5.4-.7 1-.7 1.5l.1.6h3.8c.4-.8 0-1.8-1.1-2.5l-.8-.3zm-766 0c-.3.1-.7.4-1.1 1a2 2 0 0 0-.5 1.4c0 .9.8 1.6 1.7 1.8zm743 .1v2.8h1.7c.4-.8 0-1.8-1.1-2.5l-.6-.3zm-812.5.1c-.3 0-.7.3-1 .6a2 2 0 0 0-.6 1.5c0 1.4 1.8 2.7 3.2 1.5 1.4-1.1 1.2-2.4-.4-3.2-.5-.3-.9-.4-1.2-.4zm881.5 0c-.3 0-.6.3-1 .6a2 2 0 0 0-.6 1.5c0 1.4 1.8 2.7 3.3 1.5 1.3-1.1 1.1-2.4-.4-3.2-.5-.3-1-.4-1.3-.4zm-742 0a2 2 0 0 0-1.4.7c-.4.4-.6.9-.6 1.3 0 .9.6 1.6 1.5 2 .6.3 1.4 0 1.9-.7 1-1.6 0-3.3-1.4-3.3zm881.5 0a2 2 0 0 0-1.4.7c-.4.4-.5.9-.5 1.3 0 .9.5 1.6 1.4 2 .7.3 1.4 0 1.9-.7 1.1-1.6 0-3.3-1.4-3.3zm-835 0c-1.1 0-2.3 1-2.3 2.4 0 1.6 2.6 2.2 3.6.9.9-1.3.5-2.6-.9-3.1l-.4-.1zm904.7 0c-1 0-1.9.8-2.1 1.8v1c.4 1.3 2.5 1.7 3.4.5 1-1.3.6-2.6-.8-3.1l-.5-.1zm-1438.1 0c-1.1 0-2.2 1.2-2.1 2.3 0 .4.1.7.4 1 .9 1.1 2 1.1 3 .2 1-1 .9-2.1-.2-3-.3-.3-.7-.4-1.1-.4zm69.6 0c-1.1 0-2.2 1.2-2.1 2.3v.4h3.9c.4-.8.2-1.5-.6-2.2-.4-.3-.8-.4-1.2-.4zm742.5 0c-1 0-2 .8-2 2 0 1.8.9 2.4 2.6 1.9 1.4-.5 1.6-2.3.3-3.4-.3-.3-.6-.4-1-.4zm69.4 0l-.7.2v3.9c.7.2 1.3 0 2-.6 1-1 1-2.1-.2-3-.3-.3-.7-.4-1-.4zm23.2 0c-1.1 0-2.2 1.2-2.1 2.3 0 .4.2.7.4 1 .9 1 2 1.1 3 .2v-3h-.1c-.4-.3-.8-.4-1.2-.4zm46.5 0c-1.2 0-2.3 1.2-2.2 2.3 0 .4.2.7.5 1 .8 1.1 2 1.1 2.9.2 1-1 1-2.1-.1-3-.4-.3-.8-.4-1.1-.4zm-325 0c-1.2 0-2.3 1-2.3 2.4s1.4 2.1 2.9 1.6c1.2-.5 1.2-3.3-.1-3.8l-.5-.1zm46.4 0c-1.2 0-2.3 1-2.3 2.4s1.4 2.1 2.8 1.6c1.3-.5 1.3-3.3 0-3.8l-.5-.1zm70.4 0V83c.3 0 .6-.2.9-.4.7-.7.5-2.4-.3-3.2l-.6-.5zm764.8 0c-1.2 0-2.3 1-2.3 2.4s1.4 2.1 2.8 1.6c1.3-.5 1.2-3.3 0-3.8l-.5-.1zm-742.5 0l-.5.2a2 2 0 0 0-1.3 1.8c0 1.2 1 2.4 2.6 2 1.6-.6 1.9-2.4.5-3.5-.3-.3-.9-.4-1.3-.4zm695.7 0c-1 .2-1.8 1.1-1.8 2.3v.3c.2 1 1 1.5 1.8 1.5zm-1344.9.1v4l1-.5c1.2-1 1.2-2.1 0-3.1-.3-.3-.6-.4-1-.4zm23.2 0c-1 0-2.3.8-2.4 1.8v.2c.4 1.7 2.2 2.5 3.3 1.5.6-.5 1-1 1-1.5v-.1c0-.5-.3-1-.9-1.5-.3-.3-.6-.4-1-.4zm881.5 0c-.8 0-1.6.4-2 1v1.8c.6 1 2 1.5 2.9.7 1.2-1 1.3-2.1 0-3.1-.2-.3-.5-.4-.9-.4zm-1042.9.4v3h.1c.4-.5.8-1.1.8-1.5 0-.4-.4-1-.9-1.5zm577 .4c-.4.4-.6 1-.6 1.5 0 .4.2.8.5 1zM112.7 90.4c-1 .1-1.8.9-1.7 1.9 0 .3 0 .7.3 1.2 1 1.4 1.8 1.5 3 .4 1.2-1.3 1.2-1.7.3-2.7-.6-.6-1.3-.8-1.9-.8zm904.8 0c-1 .1-1.8.9-1.8 1.9 0 .3.1.7.4 1.2.9 1.4 1.8 1.5 3 .4 1.1-1.3 1.2-1.7.2-2.7-.6-.6-1.2-.8-1.8-.8zm69.6 0c-1 .1-1.8.9-1.8 1.9 0 .3.1.7.4 1.2.9 1.4 1.8 1.5 3 .4 1.2-1.3 1.2-1.7.2-2.7-.6-.6-1.2-.8-1.8-.8zm-139 0c-.8 0-1.6.4-1.9 1v.5c-.2 1 .6 2.4 1.5 2.7.4.2 1.2-.2 1.7-.7 1.2-1.2 1.2-1.2.6-2.5-.2-.6-1-1-1.9-1zm255 0c-1 0-1.9.9-1.9 2.2 0 .9.1 1.6.3 1.6l1.1.3c.5.2 1.4 0 2-.7 1.2-1.1 1-2-.4-3-.3-.2-.7-.3-1-.3zm-603.8 0c-.7.1-1.2.4-1.4 1l-.2.7c-.1 1.8 1.8 3.2 3.3 2 .5-.4.8-1.3.7-2-.1-1-1.4-1.7-2.4-1.6zm69.5 0c-.6.1-1.1.4-1.4 1l-.1.7c-.1 1.8 1.8 3.2 3.3 2 .5-.4.8-1.3.7-2-.2-1-1.4-1.7-2.5-1.6zm835.2 0c-.6.1-1.2.4-1.4 1l-.2.7c0 1.8 1.9 3.2 3.3 2 .5-.4.8-1.3.7-2-.1-1-1.3-1.7-2.4-1.6zm69.6 0c-.6.1-1.2.4-1.4 1l-.2.7c0 1.8 1.8 3.2 3.3 2 .5-.4.8-1.3.7-2-.1-1-1.4-1.7-2.4-1.6zm-695 .1h-.4a2 2 0 0 0-1.7 2c0 .6.3 1.2.8 1.6.7.6 1.3.6 2.2.1 2.1-1.1 1.4-3.7-.8-3.7zm-140 0c-1.2 0-2 1-2 2 0 .6.5 1.3 1.3 1.7 1 .5 1.5.5 2.2 0 1.4-1.2.9-3.4-1-3.7a3 3 0 0 0-.5 0zm69.6 0c-1.2 0-2 1-2 2 0 .6.5 1.3 1.3 1.7 1 .5 1.5.5 2.2 0 1.4-1.2.9-3.4-1-3.7a3 3 0 0 0-.5 0zm835.2 0c-1.2 0-2 1-2 2 0 .6.4 1.3 1.3 1.7 1 .5 1.5.5 2.2 0 1.4-1.2.8-3.4-1-3.7a3 3 0 0 0-.5 0zm-1391.2 0h-.4c-1.1.2-1.7 1.3-1.6 2.3.1 1 .8 2 2 2 .2 0 .8-.4 1.3-1 1.3-1.2.4-3.3-1.3-3.3zm904.6 0h-.3c-1 .2-1.5 1-1.6 1.9 0 1.1.6 2.4 2 2.4.1 0 .8-.4 1.3-1 1.3-1.2.3-3.3-1.4-3.3zm69.6 0h-.3c-1.2.2-1.7 1.3-1.6 2.3 0 1 .7 2 1.9 2 .2 0 .9-.4 1.4-1 1.3-1.2.3-3.3-1.4-3.3zm-835.5 0c-.6.1-1.2.4-1.5.8-.4.4-.5.8-.5 1.3 0 1.3 1.6 2.4 3.2 1.8 1.5-.6 1-3.6-.7-3.8h-.5zm69.6 0c-.6.1-1.2.4-1.5.8-.3.4-.5.8-.5 1.3.1 1.3 1.6 2.4 3.3 1.8 1.5-.6.9-3.6-.7-3.8h-.6zm69.5 0c-.5.1-1.1.4-1.4.8-.3.3-.5.7-.5 1-.1 1.6 1.8 3 3.3 1.8 1.3-1 .8-3.3-.8-3.5h-.6zm835.2 0c-.6.1-1.2.4-1.5.8-.3.3-.4.7-.4 1-.2 1.6 1.8 3 3.3 1.8 1.2-1 .7-3.3-.8-3.5h-.6zm69.6 0c-.6.1-1.2.4-1.5.8l-.4.8 3.3 1.9c1.2-1.1.7-3.2-.8-3.4h-.6zM18.9 28c.3.3.6.6 1 .7.4.2 1.1-.2 1.7-.7zm592.3 73.8c-.8.1-1.4 1-1.4 2.2 0 1.5.3 2 1.5 2 .8.2 1.7 0 2-.5.8-1.3.7-2.2-.4-3-.6-.5-1.1-.7-1.7-.7zm46.4 0c-.8.1-1.4 1-1.4 2.2 0 1.5.3 2 1.5 2 .8.2 1.7 0 2-.5.8-1.3.7-2.2-.4-3-.6-.5-1.2-.7-1.7-.7zm835.2 0c-.9.1-1.5 1-1.5 2.2 0 1.5.3 2 1.5 2 .8.2 1.7 0 2-.5.8-1.3.7-2.2-.3-3-.6-.5-1.2-.7-1.7-.7zm69.6 0c-.9.1-1.5 1-1.5 2.2 0 1.5.3 2 1.5 2 .8.2 1.7 0 2-.5.8-1.3.7-2.2-.3-3-.6-.5-1.2-.7-1.7-.7zm23.2 0c-.9.1-1.5 1-1.5 2.2 0 1.5.3 2 1.5 2l.1.1v-4.3h-.1zm-1344.5 0h-.3v4.4l1-.2c1.3-.5 1.2-3.5-.1-4l-.6-.1zm23.2 0c-1.3 0-2.5 1-2.5 2.6 0 1.5 1.5 2.2 3.2 1.6.5-.2.8-.9.9-1.6v-.6c-.1-.8-.4-1.6-1-1.8l-.6-.1zm765.5 0c-1.2 0-2.4 1-2.4 2.6 0 1.5 1.4 2.2 3.1 1.6l.1-.1V102l-.2-.1-.6-.1zm46.5 0c-1.3 0-2.5 1-2.5 2.6 0 1.5 1.4 2.2 3.2 1.6 1.2-.5 1.1-3.5-.2-4l-.5-.1zm69.5 0c-1 0-2 .7-2.3 1.8v1.5c.3 1 1.5 1.4 3 .9 1.2-.5 1.1-3.5-.1-4l-.6-.1zm69.6 0c-1.3 0-2.5 1-2.5 2.6 0 1.5 1.4 2.2 3.2 1.6 1.2-.5 1.1-3.5-.1-4l-.6-.1zm-743.2 0l-.5.1c-.8.2-1.2 1.1-1.2 2.1s.4 2 1.2 2c.7.2 1.6.1 2 0 2-.8.6-4-1.5-4.1zm46.3 0l-.4.1c-.8.2-1.2 1.1-1.2 2.1s.4 2 1.2 2c.6.2 1.5.1 2 0 2-.8.5-4-1.6-4.1zm835.2 0l-.4.1c-.8.2-1.2 1.1-1.2 2.1s.4 2 1.2 2c.6.2 1.5.1 2 0 2-.8.5-4-1.6-4.1zm-812 0l-.4.1c-.8.2-1.2 1.1-1.2 2.1s.4 2 1.2 2l.4.1zm255.3 0a2 2 0 0 0-.5.1c-.8.2-1.2.8-1.2 2.1 0 2 1.6 2.8 3.2 1.5.5-.4 1-1 1-1.5 0-1-1.4-2-2.5-2.1zm-46.5.1a2 2 0 0 0-1.8 1l-.3 1.3a2.2 2.2 0 0 0 3.9 1.2c.4-.4.7-1 .7-1.4 0-1.3-1.3-2.1-2.5-2.1zm881.6 0a2 2 0 0 0-1.8 1c-.3.5-.3.9-.3 1.3a2.2 2.2 0 0 0 3.8 1.2c.4-.4.8-1 .8-1.4 0-1.3-1.3-2.1-2.5-2.1zm-1530.8 0a2.2 2.2 0 0 0-2 2.4l.1.6c.4 1.3 2.7 1.8 3.7.8 1-.9 0-3.6-1.2-3.8h-.6zm23.2 0a2.2 2.2 0 0 0-2 2.4l.1.6c.4 1.3 2.7 1.8 3.7.8 1-.9 0-3.6-1.2-3.8h-.6zm765.6 0a2.2 2.2 0 0 0-2 2.4v.6c.4 1.3 2.8 1.8 3.7.8 1-.9.1-3.6-1.2-3.8h-.5zm46.3 0a2.2 2.2 0 0 0-2 2.4l.1.6c.4 1.3 2.8 1.8 3.7.8 1-.9.1-3.6-1.2-3.8h-.6zm69.7 0l-.6.1v4c.9.3 1.8.3 2.3-.3 1-.9.1-3.6-1.2-3.8h-.5zm-627 0h-.4v4c.6.4 1.4.4 2.3 0 .5-.1.9-1 .9-1.9 0-1.1-.5-1.6-1.7-2h-1.1zm23.4 0a2 2 0 0 0-1.7 2v.3c.2 1.7 1.6 2.4 3.4 1.8l.5-.5-1-.6v-2.7l-1.2-.3zm766 .1a2.2 2.2 0 0 0-2.2 2.6c.2 1 1 1.6 2.2 1.6zm-300.8 0v4.2c.3 0 .7-.2 1-.5.8-.8.1-3.2-1-3.7zM9.5 36v4.2c.3-.1.6-.2.8-.5.8-.8.3-3-.8-3.6zm670 67a3 3 0 0 0-.1 1c0 1.5.3 2 1.5 2.1h.7l-2-1.2zm50.3.5v0zm-396.9 2.7h.8zm498.8 7l-.8.3c-1 .6-1.3 1.4-1.3 2.3.1 1.3 1.3 2.5 3 2 1.4-.4 1.7-2.4.7-3.7l-1.6-.9zm-417.6 0c-.7.1-1.3.6-1.7 1.3a2 2 0 0 0-.4 1.2c.1 1.7 2.4 3.1 4 1.8 1.3-1 1.2-2.2 0-3.5-.6-.6-1.3-.8-2-.7zm46.4 0c-.7.1-1.3.6-1.7 1.3a2 2 0 0 0-.4 1.2c.1 1.7 2.5 3.1 4 1.8 1.3-1 1.2-2.2 0-3.5-.6-.6-1.3-.8-2-.7zm69.5 0c-.6.1-1.2.6-1.7 1.3a2 2 0 0 0-.3 1.3c.1 1.8 2.8 3.1 4.1 1.3 1-1.4 1-1.8-.2-3-.6-.7-1.2-1-1.9-.8zm69.6 0c-.6.1-1.2.6-1.7 1.3a2 2 0 0 0-.3 1.3c.2 1.8 2.8 3.1 4.1 1.3 1.1-1.4 1-1.8-.2-3-.6-.7-1.2-1-1.9-.8zm69.6 0c-.6.1-1.2.6-1.7 1.3a2 2 0 0 0-.3 1.3c.1 1.8 2.8 3.1 4.1 1.3 1-1.4 1-1.8-.2-3-.6-.7-1.3-1-1.9-.8zm23.2 0c-.6.1-1.2.6-1.7 1.3a2 2 0 0 0-.3 1.3c.1 1.8 2.8 3.1 4.1 1.3 1-1.4 1-1.8-.2-3-.6-.7-1.3-1-1.9-.8zm672.8 0c-.6.1-1.2.6-1.7 1.3a2 2 0 0 0-.3 1.2c0 1.7 2.4 3.1 4 1.8 1.2-1 1.2-2.2-.1-3.5-.6-.6-1.3-.8-2-.7zm69.6 0c-.7.1-1.3.6-1.7 1.3a2 2 0 0 0-.4 1.3c.2 1.8 2.9 3.1 4.2 1.3 1-1.4 1-1.8-.2-3-.6-.7-1.3-1-2-.8zm69.6 0c-.7.1-1.3.6-1.7 1.3a2 2 0 0 0-.4 1.3c.2 1.8 2.8 3.1 4.2 1.3 1-1.4 1-1.8-.2-3-.6-.7-1.3-1-2-.8zm69.6 0c-.7.1-1.3.6-1.7 1.3a2 2 0 0 0-.4 1.3c.2 1.8 2.8 3.1 4.2 1.3 1-1.4 1-1.8-.2-3-.6-.7-1.3-1-2-.8zM20.4 47.2c-.3 0-.5 0-.8.2-1.2.3-1.8 1.3-1.7 2.4l.3 1.1c.8 1.4 2.5 1.6 3.7.5 1.5-1.6.4-4-1.5-4.1zm92.8 66c-.3 0-.5 0-.8.2-1.2.3-1.8 1.3-1.7 2.4l.3 1.1c.8 1.4 2.5 1.6 3.7.5 1.5-1.6.4-4-1.5-4.1zm23.2 0c-.3 0-.5 0-.8.2-1.2.3-1.8 1.3-1.7 2.4l.3 1.1c.8 1.4 2.5 1.6 3.7.5 1.5-1.6.4-4-1.5-4.1zm742.3 0c-.3 0-.5 0-.8.2-1.2.3-1.8 1.3-1.7 2.4 0 .3.1.7.4 1.1.7 1.4 2.4 1.6 3.6.5 1.5-1.6.4-4-1.5-4.1zm69.6 0c-.2 0-.5 0-.8.2-1.2.3-1.8 1.3-1.7 2.4 0 .3.2.7.4 1.1.7 1.4 2.4 1.6 3.6.5 1.5-1.6.4-4-1.5-4.1zm69.6 0c-.2 0-.5 0-.8.2-1.2.3-1.8 1.3-1.7 2.4 0 .3.2.7.4 1.1.7 1.4 2.5 1.6 3.6.5 1.5-1.6.4-4-1.5-4.1zm69.7 0c-.3 0-.6 0-.9.2-1.2.3-1.8 1.3-1.7 2.4 0 .3.2.7.4 1.1.7 1.4 2.5 1.6 3.6.5 1.6-1.6.4-4-1.4-4.1zm-835.2 0c-.3 0-.6 0-.8.2-.7.2-1.5 1-1.7 1.6l-.1.9c0 1.9 2.5 3 4 1.5 1.6-1.6.5-4-1.4-4.1zm486.8.1c-.6 0-1.2.1-1.6.5a2 2 0 0 0-.8 1.4c0 1.6 1.5 3.4 3.3 2.7 1.5-.6 1.3-4-.3-4.5l-.6-.1zm69.6 0c-.6 0-1.2.1-1.6.5a2 2 0 0 0-.8 1.4c0 1.6 1.5 3.4 3.3 2.7 1.5-.6 1.3-4-.3-4.5l-.6-.1zm835.2 0c-.6 0-1.2.1-1.6.5a2 2 0 0 0-.8 1.4c-.1 1.6 1.5 3.4 3.3 2.7 1.5-.6 1.3-4-.3-4.5l-.6-.1zm-1253 0c-1.3 0-2.2.9-2.2 2.2 0 2.3 2.7 3.4 4.2 1.9 1.3-1.3.9-3-.8-3.8a3 3 0 0 0-1.3-.3zm-69.1 0c-1.1 0-2 .6-2.4 1.8l-.2.8c.1 1.9 2.6 3 4.1 1.5 1.2-1.2 1-3-.4-3.7a3 3 0 0 0-1.1-.3zm835 0c-1 0-2 .6-2.3 1.8-.1.3-.2.5-.1.8 0 1.9 2.5 3 4 1.5 1.2-1.2 1-3-.4-3.7a3 3 0 0 0-1.1-.3zm46.5 0l-.8.1 3 1.7c-.2-.5-.5-1-1.1-1.4a3 3 0 0 0-1.1-.3zm23.2 0c-1.1 0-2 .6-2.4 1.8l-.2.8c.1 1.9 2.6 3 4.1 1.5 1.2-1.2 1-3-.4-3.7a3 3 0 0 0-1.1-.3zm-256.4.3c-.9.4-1.3 1.2-1.2 2.2 0 .3.1.7.4 1.1.7 1.4 2.4 1.6 3.6.5.5-.6.7-1.2.7-1.8l-3.5-2zm278.5 0l-.4.1c-.7.4-1.2 1.2-1.2 1.8 0 2.3 2.7 3.4 4.2 1.9.6-.6.8-1.3.7-1.9l-3.3-2zm277.5.5l-.3.4a2 2 0 0 0-.4 1.3c.2 1.8 2.8 3.1 4.2 1.3l.5-.8-4-2.2zM263.5 124.6c-1 .1-1.8 1.2-1.8 2.4 0 1 .3 2 1.3 2.5.9.6 1.3.5 2.3-.7l.6-1V126a3 3 0 0 0-1.2-1.1 2 2 0 0 0-1.2-.3zm69.6 0c-1.1.1-1.8 1.2-1.9 2.4 0 1 .4 2 1.3 2.5 1 .6 1.4.5 2.4-.7 1.3-1.6 1-3-.7-3.9a2 2 0 0 0-1.1-.3zm811.9 0c-.7 0-1.2.6-1.5 1.2v2.7c.2.4.5.8 1 1 .9.6 1.3.5 2.3-.7 1.3-1.6 1-3-.6-3.9a2 2 0 0 0-1.2-.3zm-486.9 0c-.5 0-1 .3-1.6.8-.8.6-1.1 1.4-1.1 2 0 1.6 1.7 2.9 3.6 1.9 1.6-.9 1.6-3.5 0-4.4a2 2 0 0 0-.9-.3zm23.2 0c-.5 0-1 .3-1.6.8-.8.6-1.1 1.4-1.1 2 0 1.6 1.7 2.9 3.6 1.9 1.6-.9 1.6-3.5 0-4.4a2 2 0 0 0-.9-.3zm858.3 0c-.5 0-1 .3-1.6.8-.8.6-1 1.4-1 2 0 1.6 1.6 2.9 3.6 1.9 1.5-.9 1.5-3.5 0-4.4a2 2 0 0 0-1-.3zm23.2 0c-.5 0-1 .3-1.6.8l-.5.6v2.8c.6.8 1.8 1.2 3 .5 1.6-.9 1.6-3.5 0-4.4a2 2 0 0 0-.9-.3zm69.7 0c-.5 0-1 .3-1.7.8-.8.6-1 1.4-1 2 0 1.6 1.7 2.9 3.6 1.9 1.5-.9 1.6-3.5 0-4.4a2 2 0 0 0-1-.3zm-1391.7 0v5.2c.4 0 .8-.4 1.3-1 1.3-1.6 1-3-.6-3.9l-.7-.2zm138.7 0l-.8.4v4.5c.8.5 1.8.3 2.6-.8 1.3-1.5 1-2.9-.7-3.8-.4-.2-.8-.3-1.1-.2zm858.3 0a2.7 2.7 0 0 0-2.2 2.4c0 .4 0 .7.2 1 1 2 2.5 2.3 3.8.7 1.3-1.5 1-2.9-.7-3.8-.4-.2-.8-.3-1.1-.2zm23.2 0a2.7 2.7 0 0 0-2.2 2.4c0 .4 0 .7.2 1 1 2 2.5 2.3 3.8.7 1.3-1.5 1-2.9-.7-3.8-.4-.2-.8-.3-1.1-.2zm-1136.6 0l-1 .3c-.7.5-1 1.3-1 2.2 0 .6.1 1 .4 1.5l2.2 1.2c.4 0 .7-.2 1.3-.9 1.4-1.3 1.3-2.5-.3-3.6-.6-.4-1.1-.6-1.6-.6zm23.2 0l-1 .3c-.7.5-1 1.3-1 2.2 0 .9.3 1.8 1.1 2.2 1.6.8 1.7.8 2.8-.4 1.4-1.3 1.3-2.5-.3-3.6-.6-.4-1.1-.6-1.6-.6zm788.7 0l-1 .3c-.7.5-1 1.3-1 2.2 0 .9.4 1.8 1.1 2.2 1.6.8 1.7.8 2.8-.4 1.4-1.3 1.3-2.5-.3-3.6-.6-.4-1.1-.6-1.6-.6zm69.6 0l-.2.1v4l3-1.7c0-.6-.4-1.2-1.2-1.7-.6-.4-1.1-.6-1.6-.6zm441 0c-.5 0-1 .3-1.6.7-.8.6-1.2 1.1-1.3 1.7 0 .6.4 1.2 1.2 2 1 .8 1.4.9 2.5.3h.1v-4.4a2 2 0 0 0-.9-.2zm-1044.3 0a2.4 2.4 0 0 0-2.2 2.5c0 .6.2 1.1.6 1.6 1.4 1.6 2.5 1.5 3.7-.1 1-1.5.7-2.9-.8-3.6-.5-.3-.9-.3-1.3-.3zm69.6.1a2.4 2.4 0 0 0-2.2 2.4c0 .5.2 1.1.7 1.6 1.2 1.4 2.2 1.5 3.2.5 1.1-1.2 1-3.5-.3-4.2l-1.4-.3zm881.6 0a2.4 2.4 0 0 0-2.3 2.4c0 .5.2 1.1.7 1.6 1.2 1.4 2.2 1.5 3.3.5 1-1.2.9-3.5-.4-4.2-.4-.2-.9-.3-1.3-.3zm-927.5 0a3 3 0 0 0-1.9.8c-.7.6-1 1-1 1.4 0 .3 0 .6.2.9 1.4 2.2 2.8 2.5 4 1 1.7-2 .5-4-1.3-4zm997 0l-.5.2v4.6c.7.4 1.4.3 2-.2 1.3-1.1 1.2-3.6-.2-4.4a2 2 0 0 0-1.2-.2zm-881.6 0c-1.3.3-2.4 1.4-2.3 2.5 0 .2 0 .4.2.6.6 1 1.3 1.7 2 1.9zm534 .2c-1 0-2 .8-2.1 2v.4c0 2 2 3 3.7 1.6 1.4-1.3 1.5-2.3.3-3.3-.6-.5-1.3-.7-2-.7zM890 125l-.5.1c-1 .2-1.7 1-1.7 2 0 .8.2 1.6 1 2 1.4 1.1 1.8 1.1 3 0 1.7-1.9.6-4-1.8-4zm69.6 0l-.5.1c-1 .2-1.7 1-1.7 2 0 .8.2 1.6 1 2 1.4 1.1 1.8 1.1 3 0 1.7-1.9.6-4-1.8-4zm23.2 0l-.5.1c-1 .2-1.7 1-1.7 2 0 .8.2 1.6 1 2 1.4 1.1 1.7 1.1 3 0 1.7-1.9.6-4-1.8-4zM844 125l-.5.1c-1.3.2-2.1 1.2-2 2.3 0 .6.3 1.3 1 1.8 1.4 1 1.8 1 3-.2 1.8-1.8.9-4-1.5-4zm324.5 0l-.5.1c-1.2.2-1.5.6-1.5 2 0 1.8.9 2.9 2 2.7zm-372.3.1c-.8 0-1.2.3-1.4.9l-.3 1.3c.1 1.9 1.9 3 3.7 2 1-.4 1.2-1.1 1.1-2.3-.2-1.4-.6-1.7-2.2-1.9h-.9zm23.2 0c-.8 0-1.2.3-1.4.9l-.3 1.3c.1 1.9 1.9 3 3.7 2 .9-.4 1.2-1.1 1-2.3 0-1.4-.5-1.7-2-1.9h-1zm-208.1 0c-1.4.1-2.4 1-2.3 2.3l.1.6c.5 1.6 2 2.2 3.6 1.3 1.9-1 1.3-4-.8-4.2h-.6zm92.8 0c-1.4.1-2.4 1-2.3 2.3l.1.6c.5 1.6 2 2.2 3.6 1.3 1.9-1 1.3-4-.8-4.2h-.6zm788.7 0c-1.3.1-2.3 1-2.3 2.3 0 .2 0 .4.2.6.5 1.6 2 2.2 3.5 1.3 2-1 1.4-4-.8-4.2h-.6zm23.2 0c-1.4.1-2.3 1-2.3 2.3l.1.6c.6 1.6 2 2.2 3.6 1.3 2-1 1.4-4-.8-4.2h-.6zm69.6 0c-1.4.1-2.3 1-2.3 2.3l.1.6c.4 1.2 1.3 1.8 2.3 1.7V125zm-718 0v4.7a4 4 0 0 0 1-.8c1.6-1.5 1-3.5-1-3.9zm-348.7.2c-1 0-1.9.3-2.3.8v2.1l.5.6c1 1.1 1.5 1.2 2.7.6 1-.5 1.3-1.2 1.1-2.4-.1-1.4-.5-1.7-2-1.7zm150.3 11c-.9 0-1.7.5-2 1.4-.2.4-.2.9-.2 1.3 0 .5 0 .9.2 1.2.7 1.3 3 1.5 4.2.3.4-.4.7-1.2.7-1.7 0-1.7-1.5-2.6-3-2.5zm46.4 0c-.9 0-1.7.5-2 1.4-.2.4-.2.9-.2 1.3 0 .5 0 .9.2 1.2.7 1.3 3 1.5 4.2.3.4-.4.7-1.2.7-1.7 0-1.7-1.5-2.6-3-2.5zm835.1 0c-.8 0-1.6.5-2 1.4l-.2 1.3c0 .5.1.9.3 1.2.6 1.3 3 1.5 4.1.3.5-.4.8-1.2.8-1.7 0-1.7-1.6-2.6-3-2.5zm-742.3 0c-.8 0-1.6.4-2 1.2-.4.5-.4 1-.4 1.5.2 2 2.8 3.3 4.6 1.5.4-.4.7-1.2.7-1.7 0-1.6-1.5-2.5-2.9-2.5zm23.2 0a2.4 2.4 0 0 0-2.4 2l4.3 2.5.3-.3c.4-.4.7-1.2.7-1.7 0-1.6-1.5-2.5-2.9-2.5zm812 0c-.8 0-1.7.4-2.1 1.2-.3.5-.4 1-.3 1.5.2 2 2.8 3.3 4.6 1.5.4-.4.7-1.2.7-1.7 0-1.6-1.5-2.5-2.9-2.5zm-1252.4 0c-1.2 0-2.1 1.2-2.1 2.9 0 1.4.3 1.8 1.4 2 .8.1 1.9-.2 2.4-.6 1.2-1 1-3-.5-4l-1.2-.3zm23.2 0c-.5 0-1 .3-1.3.6l3.7 2.1c0-.8-.4-1.8-1.2-2.3-.4-.3-.8-.4-1.2-.4zm23.2 0c-1.2 0-2.1 1.2-2.1 2.9 0 1.4.3 1.8 1.4 2 .8.1 1.9-.2 2.4-.6 1.2-1 1-3-.5-4l-1.2-.3zm23.2 0c-1.2 0-2.1 1.2-2.1 2.9 0 1.4.3 1.8 1.4 2 .8.1 2-.2 2.4-.6 1.2-1 1-3-.5-4l-1.2-.3zm69.6 0c-1.2 0-2.1 1.2-2.1 2.9 0 1.4.3 1.8 1.4 2 .8.1 1.9-.2 2.4-.6 1.2-1 .9-3-.6-4l-1.1-.3zm719 0c-1 0-2 1.1-2 2.7l3.5 2 .7-.4a3 3 0 0 0-1-4c-.3-.2-.7-.3-1.1-.3zm23.3 0c-1.2 0-2.1 1.2-2.1 2.9 0 1.4.3 1.8 1.4 2 .8.1 2-.2 2.4-.6 1.2-1 1-3-.5-4l-1.2-.3zm92.8 0c-1.1 0-2 1.2-2 2.9 0 1.4.2 1.8 1.4 2 .8.1 1.8-.2 2.3-.6 1.2-1 1-3-.5-4l-1.2-.3zm-672.8 0h-.6c-1 .2-1.3.6-1.4 1.6l4 2.4c.4-.5.6-1 .6-1.5 0-1.3-1.1-2.4-2.6-2.4zm812 0h-.7c-1.2.3-1.4.7-1.4 2.5s.2 2.2 1.4 2.4c.8.1 1.9-.1 2.4-.6.5-.4.9-1.2.9-1.8 0-1.3-1.2-2.4-2.6-2.4zm23.2 0h-.7c-1.2.3-1.4.7-1.4 2.5 0 .8 0 1.3.2 1.7l1.2.7c.8.1 1.9-.1 2.4-.6.5-.4.9-1.2.9-1.8 0-1.3-1.2-2.4-2.6-2.4zm46.4 0h-.7c-1.2.3-1.4.7-1.4 2.5s.2 2.2 1.4 2.4c.8.1 1.9-.1 2.4-.6.5-.4.9-1.2.9-1.8 0-1.3-1.2-2.4-2.6-2.4zm-1322.2 0c-.8 0-1.5.5-2.1 1.4a2 2 0 0 0-.3 1.1c0 1.6 2 3 4 2.3.5-.2 1-1 1-1.9 0-1.8-1.3-2.9-2.6-2.8zm69.6 0c-.8 0-1.6.5-2.1 1.4a2 2 0 0 0-.4 1.1c0 1.6 2 3 4 2.3.6-.2 1-1 1-1.9 0-1.8-1.2-2.9-2.5-2.8zm765.6 0c-.8 0-1.6.5-2.2 1.4a2 2 0 0 0-.3 1.1c0 1.6 2 3 4 2.3.6-.2 1-1 1-1.9 0-1.8-1.3-2.9-2.5-2.8zm69.5 0c-.8 0-1.6.5-2.1 1.4a2 2 0 0 0-.4 1.1c0 1.6 2.1 3 4.1 2.3.5-.2.9-1 .9-1.9 0-1.8-1.2-2.9-2.5-2.8zm69.6 0c-.8 0-1.6.5-2.1 1.4a2 2 0 0 0-.4 1.1c0 1.6 2.1 3 4 2.3.6-.2 1-1 1-1.9 0-1.8-1.2-2.9-2.5-2.8zm-1066.9.1c-1.7 0-2.8 1.3-2.7 2.6 0 .5.3 1 .7 1.5.9.9 3.2 1 3.9.4.2-.3.4-1.2.4-2.2 0-1.4-.4-1.9-1.6-2.2h-.7zm-46.4 0c-1.5 0-2.6 1-2.7 2.2 0 .7.1 1.4.7 2 .8.8 3.2 1 3.9.3.2-.3.4-1.2.4-2.2 0-1.4-.4-1.9-1.6-2.2h-.7zm23.2 0l2.2 1.3c-.2-.6-.6-1-1.5-1.2h-.7zm858.4 0c-1.6 0-2.7 1-2.8 2.2 0 .7.2 1.4.8 2 .8.8 3.1 1 3.8.3.2-.3.4-1.2.4-2.2 0-1.4-.3-1.9-1.6-2.2h-.6zm-394.6 0l-1 .1c-1.2.3-1.5.7-1.5 1.9v.6c.2 1.5.6 2 1.7 2.2.8.1 1.9-.1 2.4-.6 1.8-1.5.6-4-1.6-4.2zm835.1 0l-1 .1c-1.2.3-1.5.7-1.4 1.9v.6c.2 1.5.5 2 1.6 2.2.8.1 1.9-.1 2.4-.6 1.9-1.5.7-4-1.6-4.2zm-579.6.2c-1.7 0-2.8 1-2.9 2 0 .5.1.9.4 1.3a3.1 3.1 0 0 0 3.8 1.1c.6-.2.8-1 .7-2.4-.2-1.8-.4-2-2-2zm23.2 0c-1.7 0-2.8 1-2.9 2 0 .5.1.9.4 1.3a3.1 3.1 0 0 0 3.8 1.1c.6-.2.8-1 .7-2.4-.2-1.8-.4-2-2-2zm69.6 0c-1.7 0-2.8 1-2.9 2 0 .5.1.9.4 1.3a3.1 3.1 0 0 0 3.8 1.1c.6-.2.8-1 .7-2.4-.2-1.8-.4-2-2-2zm23.2 0c-1.7 0-2.8 1-2.9 2l.1.7 3.4 2 .7-.3c.6-.2.8-1 .7-2.4-.2-1.8-.4-2-2-2zm-234 0c-.4.3-.7.5-.9 1-.2.4-.3 1-.3 1.4.2 2 2.9 3.3 4.6 1.5.3-.3.6-1 .7-1.4l-4.1-2.4zm277.8 1.2l-.3.8c0 .7.2 1.4.8 2 .8.8 3.1 1 3.8.3l.2-.4-4.5-2.7zm607.9.7v0zm-1359.6 9c-1 0-2.8 1.8-2.8 2.9 0 2.2 3.3 3.6 4.9 2v-3.5c-.4-.8-1.2-1.3-2-1.3zm69.6 0c-1 0-2.8 1.7-2.8 2.7 0 2.7 3.6 4.1 5 2a5 5 0 0 0 .6-2c0-1-1.8-2.6-2.8-2.6zm46.4 0a2 2 0 0 0-1 .4v5.1c1.1.4 2.5.2 3.1-.9a5 5 0 0 0 .7-1.8c0-1-1.8-2.7-2.8-2.7zm23.2 0c-1.2 0-2.8 1.8-2.8 3.1 0 1.9 2 3 3.7 2.5v-5.3a2 2 0 0 0-1-.2zm46.6 0c-1.5 0-3 1.5-3 2.8 0 2.7 2.7 3.9 4.6 2 .6-.6 1-1.4 1-2 0-.9-1.7-2.7-2.6-2.7zm23.2 0c-1.5 0-3 1.5-3 2.8 0 2.7 2.7 3.9 4.6 2 .6-.6 1-1.4 1-2 0-.9-1.7-2.7-2.6-2.7zm46.4 0c-1 0-2 .6-2.5 1.4v3.2c.9 1.3 2.7 1.5 4 .1.6-.5 1-1.3 1-1.8 0-1-1.6-2.8-2.5-2.8zm371.1 0c-1.2 0-2.7 2-2.7 3.5v.6c.6 1.3 3.2 2 4.4 1 .4-.4.7-.8.8-1.3v-1.7c-.3-1-1.2-2-2.5-2zm46.5 0c-1.4 0-2.9 1.8-2.9 3.2v.6c.6 1.6 3.2 2.3 4.5 1.3 1.9-1.6.8-5-1.6-5zm208.5 0c-.5 0-1.2.5-1.7 1v3.9c1 .8 2.8 1 3.8 0 1.5-1.5 0-4.8-2.1-4.8zm23.2 0c-.5 0-1.3.5-1.8 1-.6.6-1 1.4-1 1.9 0 1.5 1.5 2.6 3 2.7v-5.5h-.2zm46.4 0c-1 0-2.8 1.7-2.8 2.7 0 2.7 3.6 4.1 5 2a5 5 0 0 0 .6-2c0-1-1.8-2.6-2.8-2.6zm139.4 0c-1.4 0-3 1.5-3 2.8 0 2.7 2.7 3.9 4.7 2 .5-.6 1-1.4 1-2 0-.9-1.7-2.7-2.7-2.7zm69.6 0c-.3 0-.7.1-1 .3v5.3c.8.2 1.8 0 2.6-.9.6-.5 1-1.3 1-1.8 0-1-1.7-2.8-2.6-2.8zm23.2 0c-1.5 0-3 1.5-3 2.8 0 2.4 2 3.5 3.8 2.5v-5l-.8-.2zm-463.9 0l2 1.2a2.4 2.4 0 0 0-2-1.1zm-742.3 0v5.6c.7 0 1.3-.2 1.8-.6 1.5-1.5.2-4.6-1.8-5zm509.7.1c-1.3 0-2.5 1-2.5 2.8 0 2.6 2.8 3.7 4.7 1.8 1.2-1.2 1.2-1.5 0-3.2a2.9 2.9 0 0 0-2.2-1.4zm835.1 0c-1.3 0-2.4 1-2.4 2.8 0 1.7 1.2 2.8 2.5 2.8v-5.6zm46.4 0c-1.2 0-2.4 1-2.4 2.8 0 2.6 2.7 3.7 4.6 1.8 1.3-1.2 1.3-1.5 0-3.2a2.9 2.9 0 0 0-2.2-1.4zm-974.4 0c-1.3 0-2.4 1-2.4 2.8 0 2.6 2.8 3.7 4.7 1.8 1.2-1.2 1.2-2 0-3.5a3 3 0 0 0-2.3-1zm881.5 0l-.6.1 3.7 2.2c-.2-.4-.4-.8-.8-1.2a3 3 0 0 0-2.3-1zm23.2 0c-1.3 0-2.3 1-2.3 2.8 0 2.6 2.7 3.7 4.6 1.8 1.3-1.2 1.3-2 0-3.5a3 3 0 0 0-2.3-1zm-765.4 0c-1.1 0-2.2 1-2.4 2.4v.5c0 2.3 2.5 3.6 4.2 2 1-1.1.7-3.7-.7-4.6a2 2 0 0 0-1.1-.3zm-69.8 0c-1.4.1-2.3 1.6-2.3 3 0 .7.3 1.5 1 2 1.2 1 3.9.3 4.2-1.1.3-1.4-1-3.6-2.3-3.8h-.6zm-185.4 0c-1.3.4-2.5 1.6-2.5 2.7 0 1.7 1.1 2.8 2.5 2.9zm325.5 0c-.8 0-1.7.6-2.3 1.6-.4.5-.6.9-.6 1.3 0 .3.3.7.7 1.3 1 1.5 2.7 1.8 3.9.7 1-1 1-3.4-.2-4.3-.4-.4-1-.5-1.5-.5zm-742.7 0c-.6 0-1 .3-1.7 1-.6.7-1 1.3-1 2 0 .2 0 .4.2.7.5 1.6 3 2.3 4.4 1.3a2.7 2.7 0 0 0-.7-4.5c-.5-.3-.9-.4-1.2-.4zm881.5 0c-.5 0-1 .3-1.6 1-.7.7-1 1.3-1 2v.7c.6 1.6 3.2 2.3 4.5 1.3a2.7 2.7 0 0 0-.7-4.5c-.5-.3-.8-.4-1.2-.4zm23.2.2a2.5 2.5 0 0 0-2.6 2.7c0 .3 0 .6.2 1 .4 1.2 2.5 2 3.8 1.4V148l-1.4-.3zm46.4 0a2.5 2.5 0 0 0-2.6 2.7c0 .3 0 .6.2 1 .5 1.4 3.1 2.1 4.4 1 1.3-1 1.1-3.5-.4-4.3-.5-.3-1-.4-1.6-.4zm-464.2 0a2.9 2.9 0 0 0-2.6 2.7c0 .6.2 1.3.8 2 1 1 2.7.9 3.9-.3 1.3-1.3 1.2-2.3-.3-3.7-.6-.5-1.2-.7-1.8-.7zm881.5 0a2.9 2.9 0 0 0-2.6 2.7c0 .6.2 1.3.8 2 1 1 2.8.9 4-.3 1.2-1.3 1.2-2.3-.3-3.7-.6-.5-1.3-.7-2-.7zm-1390.2 0v5l.5-.2c1.5-1.3 1-3.8-.5-4.7zm576.8.2c-.6.5-1 1.3-1 2.4 0 1 .4 1.9 1 2.3zm-510 .1c-.8.5-1.3 1.3-1.2 2.4l.1 1c.2.4.6.8 1 1zm152.2 10.7c-.8 0-3.2 2.4-3.2 3.2 0 .8 2.4 3.1 3.2 3.1.3 0 1.2-.5 1.9-1.2.6-.7 1.2-1.6 1.2-2 0-.7-2.3-3-3.1-3zm69.6 0c-.8 0-3.2 2.4-3.2 3.2 0 .8 2.4 3.1 3.2 3.1.3 0 1.2-.5 1.9-1.2.6-.7 1.2-1.6 1.2-2 0-.7-2.3-3-3.1-3zm835 0c-.7 0-3 2.4-3 3.2 0 .8 2.3 3.1 3 3.1.4 0 1.3-.5 2-1.2s1.2-1.6 1.2-2c0-.7-2.3-3-3.1-3zm-974 .3c-1.6-.1-2.8 1.7-2.7 3.3 0 .8.4 1.6 1.3 2 1.3.8 3.4.1 4-1.3l.3-1c.2-.6-1.3-2.5-2.2-2.9l-.7-.1zm904.7 0c-1.6-.1-2.8 1.7-2.8 3.3 0 .8.5 1.6 1.3 2 1.4.8 3.4.1 4-1.3l.4-1c.1-.6-1.3-2.5-2.2-2.9l-.7-.1zm-696 0c-1 0-2 .5-2.7 1.7-.2.4-.3.9-.3 1.3l.2.8 3.2 1.8.8-.2c.8-.5 1.2-1.3 1.2-2.5 0-1.8-1.1-2.8-2.4-2.9zm904.7 0c-1 0-2 .5-2.6 1.7-.3.4-.4.9-.4 1.3.1 1.9 2.3 3.4 4.2 2.4.8-.5 1.2-1.3 1.2-2.5 0-1.8-1.1-2.8-2.4-2.9zm-278.6 0c-.4 0-.7.2-1 .4-1 .5-1.5 1.4-1.6 2.3 0 .7.3 1.5 1 2.1 1.4 1.5 2 1.5 3.6 0 1.5-1.5 1.5-1.6.7-3.1-.6-1.2-1.6-1.8-2.7-1.7zm-347.6 0c-.6 0-1.2.2-1.9.7-1 .6-1.4 1.3-1.4 2 0 .8.3 1.6 1.1 2.4 1 1 1.6 1 2.9.4 1.1-.5 1.5-1.2 1.5-2.6 0-1.7-1-2.8-2.2-2.9zm904.8 0c-.6 0-1.2.2-2 .7-.8.6-1.3 1.3-1.4 2 0 .8.4 1.6 1.2 2.4 1 1 1.6 1 2.8.4 1.2-.5 1.6-1.2 1.6-2.6 0-1.7-1-2.8-2.2-2.9zm-1531.7 0c-1.3 0-2.2 1.1-2.2 2.9 0 2.5 2 3.6 4.1 2.2.8-.5 1.5-1.5 1.5-2.2 0-.7-.7-1.7-1.5-2.2-.7-.5-1.3-.7-1.9-.7zm418.1 0c-.6 0-1.2.2-1.9.7-.8.5-1.5 1.5-1.5 2.2 0 1.8 2.7 3.4 4.4 2.5.8-.5 1.3-1.3 1.3-2.5 0-1.8-1-2.8-2.3-2.9zm69.6 0c-.5 0-1.2.2-1.8.7-.9.5-1.6 1.5-1.6 2.2 0 1.8 2.7 3.4 4.4 2.5.8-.5 1.3-1.3 1.3-2.5 0-1.8-1-2.8-2.3-2.9zm69.6 0c-.6 0-1.2.2-1.9.7-.8.5-1.5 1.5-1.5 2.2 0 1.8 2.7 3.4 4.3 2.5 1-.5 1.3-1.3 1.3-2.5 0-1.8-.9-2.8-2.2-2.9zm208.2 0c-1.3 0-2.2 1.1-2.2 2.9 0 2.5 2 3.6 4.1 2.2.9-.5 1.5-1.5 1.5-2.2 0-.7-.6-1.7-1.5-2.2-.6-.5-1.3-.7-1.9-.7zm69.6 0c-1.2 0-2.2 1.1-2.2 2.9 0 2.5 2 3.6 4.1 2.2.9-.5 1.6-1.5 1.6-2.2 0-.7-.7-1.7-1.6-2.2-.6-.5-1.3-.7-1.9-.7zm69.6 0c-1.2 0-2.2 1.1-2.2 2.9 0 2.5 2 3.6 4.1 2.2.9-.5 1.6-1.5 1.6-2.2 0-.7-.7-1.7-1.6-2.2-.6-.5-1.3-.7-1.9-.7zm418.2 0c-.6 0-1.2.2-2 .7-.7.5-1.4 1.5-1.4 2.2 0 1.8 2.7 3.4 4.3 2.5.9-.5 1.3-1.3 1.3-2.5 0-1.8-1-2.8-2.2-2.9zm69.6 0c-.6 0-1.3.2-2 .7-.8.5-1.4 1.5-1.4 2.2 0 1.8 2.7 3.4 4.3 2.5.9-.5 1.3-1.3 1.3-2.5 0-1.8-1-2.8-2.2-2.9zm69.6 0c-.6 0-1.3.2-2 .7-.8.5-1.5 1.5-1.5 2.2 0 1.8 2.8 3.4 4.4 2.5.9-.5 1.3-1.3 1.3-2.5 0-1.8-1-2.8-2.2-2.9zm-765.9.1c-1.3 0-3.1 1.5-3.1 2.7 0 .6.5 1.7 1.2 2.3 1 1 1.6 1 2.9.4 2.3-1 2-4.4-.4-5.3h-.6zm814.5 2.5V161.6zm-1359.6 9a2.7 2.7 0 0 0-2.8 2.9c0 2.5 3.1 3.8 4.9 2v-4c-.4-.5-1.2-.8-2-.8zm69.6 0a2.7 2.7 0 0 0-2.8 2.9c0 2.5 3 3.8 4.8 2 .5-.4.8-1.3.8-2 0-1.7-1.1-2.8-2.8-2.8zm46.4 0l-1 .2v5.3c1 .4 2.2.3 3-.6.5-.4.8-1.3.8-2 0-1.7-1.1-2.8-2.8-2.8zm23.2 0a2.7 2.7 0 0 0-2.8 2.9c0 2 2 3.2 3.7 2.7v-5.4l-1-.1zm69.6 0h-.3l2.9 1.7c-.5-1-1.4-1.6-2.6-1.6zm46.3 0c-1 0-1.7.5-2.2 1.1v3.5c1 1.3 3 1.6 4.3.3.4-.4.8-1.3.8-2 0-1.7-1.2-2.8-2.9-2.8zm417.6 0a2.6 2.6 0 0 0-2.7 3v.2c.3 1.9 1.8 2.8 3.9 2.3 1.3-.4 1.6-.8 1.6-2.2 0-2-1-3.2-2.8-3.2zm139.3 0a2.7 2.7 0 0 0-2.9 2.9c0 2.5 3.2 3.8 5 2 .3-.4.7-1.3.7-2 0-1.7-1.2-2.8-2.8-2.8zm69.5 0c-.7 0-1.3.3-1.7.6v4.5c1 .8 2.7 1 3.8-.2.4-.4.7-1.3.7-2 0-1.7-1.1-2.8-2.8-2.8zm23.2 0a2.7 2.7 0 0 0-2.8 2.9 3 3 0 0 0 3 2.8v-5.6h-.2zm46.4 0a2.7 2.7 0 0 0-2.8 2.9c0 2.5 3.1 3.8 4.9 2 .4-.4.7-1.3.7-2 0-1.7-1.1-2.8-2.8-2.8zm139.2 0a2.7 2.7 0 0 0-2.8 2.9c0 2.5 3.1 3.8 4.9 2 .4-.4.7-1.3.7-2 0-1.7-1.1-2.8-2.8-2.8zm69.6 0l-.8.2v5.4c1 .3 2 .2 2.9-.7.4-.4.7-1.3.7-2 0-1.7-1.1-2.8-2.8-2.8zm23.2 0a2.7 2.7 0 0 0-2.8 2.9c0 2 2.1 3.3 3.8 2.7v-5.4l-1-.1zm-556.8 0c-.8 0-1.7.4-2.2 1.1 1.6 1 3.3 1.8 5 2.7v-2c-.2-.1-.2-.2-.3-.4-.7-.9-1.6-1.3-2.5-1.3zm-649.2 0v5.7c.6 0 1.3-.2 1.8-.8.4-.4.7-1.3.7-2 0-1.6-1-2.7-2.5-2.8zm1345 0c-1.7.2-2.6 1-2.8 2.4l2.7 1.4zm-1044.1 0c-1.5.3-2.5 1.3-2.5 2.9 0 1.5 1.2 2.6 2.5 2.8zm255.6 0c-.9 0-1.9.4-2.5 1-.6.6-1 1-1 1.6 0 .5.2 1 .6 1.9.9 1.5 4 1.6 5 .1.8-1.4.8-1.9 0-3.3-.4-.8-1.2-1.2-2.1-1.2zm-46.2.1c-.7 0-1.5.2-2.1.5l4.5 2.5c0-1-.4-2.1-1.2-2.6l-1.2-.4zm881.6 0c-1.4 0-3 .7-3.3 1.7l-.1 1.1c0 1.6 1 2.8 2.6 2.8 1 0 2.2-.4 2.6-.8 1-1 .7-3.6-.6-4.4l-1.2-.4zm-1020.8 0c-1.1 0-2.2.6-2.8 1.6-.4.5-.6.9-.6 1.3 0 .3.3.7.7 1.3 1 1.5 3.3 1.8 4.5.6 1-1 1-3.3-.1-4.2-.5-.4-1.1-.6-1.7-.6zm46.3 0c-1 0-2.1.6-2.7 1.6-.4.5-.6.9-.6 1.3 0 .3.3.7.7 1.3 1 1.5 3.3 1.8 4.5.6 1-1 1-3.3-.1-4.2-.5-.4-1.1-.6-1.8-.6zm835.2 0c-1 0-2.2.6-2.8 1.6-.4.5-.5.9-.5 1.3 0 .3.2.7.6 1.3 1 1.5 3.4 1.8 4.6.6 1-1 1-3.3-.2-4.2-.5-.4-1-.6-1.7-.6zm-1369.2 0c-1.3.1-2.5 1.1-2.5 2.7 0 3 3.5 4 5.3 1.5.8-1.2.8-1.6 0-2.6a3.2 3.2 0 0 0-2.8-1.6zm904.7 0c-1 .1-1.8.6-2.2 1.6l4 2.1v-3.3c-.6-.3-1.2-.4-1.8-.4zm-926.3.3v5c.3 0 .5-.2.8-.5.4-.4.7-1.3.7-2 0-1.2-.6-2.1-1.5-2.5zm577 0c-1 .5-1.3 1.3-1.3 2.5 0 1 .5 1.8 1.2 2.3zm137.8 1.2l-.4 1c0 .4.1.9.4 1.5zM252.3 182c-1.3 0-3.3 1.9-3.3 3 0 1.4 1.8 3.3 3.2 3.3.6 0 1.5-.4 2-1 .6-.5 1-1.5 1-2.1 0-1.5-1.6-3.2-3-3.2zm69.4 0c-1.5 0-3.2 1.7-3.2 3.2 0 2.6 3.4 4 5.3 2.1.6-.5 1-1.5 1-2.1 0-1.5-1.6-3.2-3.1-3.2zm69.6 0c-1.5 0-3.2 1.7-3.2 3.2 0 2.6 3.4 4 5.3 2.1.6-.5 1-1.5 1-2.1 0-1.5-1.6-3.2-3.1-3.2zm417.3 0c-1.9 0-3 1.2-3 3.2 0 3.2 3.6 4.3 5.4 1.7.5-.8 1-1.5 1-1.7 0-1.1-2.2-3.2-3.4-3.2zm209.2 0c-1.3 0-3.3 1.9-3.3 3 0 1.4 1.9 3.3 3.2 3.3.6 0 1.5-.4 2-1 .6-.5 1-1.5 1-2.1 0-1.5-1.6-3.2-3-3.2zm69.6 0c-1.3 0-3.3 1.9-3.3 3 0 1.4 1.9 3.3 3.2 3.3.6 0 1.6-.4 2.1-1 .5-.5 1-1.5 1-2.1 0-1.5-1.6-3.2-3-3.2zm139 0c-1.5 0-3.2 1.7-3.2 3.2 0 2.6 3.4 4 5.3 2.1.6-.5 1-1.5 1-2.1 0-1.5-1.6-3.2-3.1-3.2zM670 182a4 4 0 0 0-1.4.4c-1.5.5-1.8 1-1.8 2.8 0 1.8.3 2.2 1.8 2.8 1.5.5 2 .4 3-.9.6-.8 1.2-1.7 1.2-2 0-.2-.6-1-1.2-1.9-.7-.8-1-1.1-1.6-1.1zm69.5 0a4 4 0 0 0-1.3.4c-1.5.5-1.8 1-1.8 2.8 0 1.8.3 2.2 1.8 2.8 1.5.5 2 .4 3-.9.6-.8 1.2-1.7 1.2-2 0-.2-.6-1-1.2-1.9-.7-.8-1-1.1-1.7-1.1zm835.2 0a4 4 0 0 0-1.3.4c-1.5.5-1.8 1-1.8 2.8 0 1.8.3 2.2 1.8 2.8 1.5.5 2 .4 3-.9.6-.8 1.1-1.7 1.1-2 0-.2-.5-1-1.2-1.9-.6-.8-1-1.1-1.6-1.1zm69.6 0a4 4 0 0 0-1.3.4c-1.5.5-1.8 1-1.8 2.8 0 1.8.3 2.2 1.8 2.8 1.5.5 2 .4 3-.9.6-.8 1.1-1.7 1.1-2 0-.2-.5-1-1.2-1.9-.6-.8-1-1.1-1.6-1.1zm-1624-66c-.9.1-1.8.6-2.5 1.6-.4.7-.7 1.2-.7 1.6 0 .4.3.8.7 1.5 1.2 1.7 2.3 2 4.2 1 .8-.5 1.2-1.4 1.2-2.5 0-2-1.4-3.2-2.9-3.1zm858.3 66c-.9.1-1.8.6-2.4 1.6-.5.7-.8 1.2-.8 1.6 0 .4.3.8.8 1.5 1 1.7 2.2 2 4.1 1 .8-.5 1.2-1.4 1.2-2.5 0-2-1.4-3.2-2.9-3.1zm-278.4.1a4 4 0 0 0-1.3.3c-1.4.5-1.7 1-1.7 2.8 0 1.8.3 2.2 1.7 2.7s2 .4 3-.5c.7-.7 1.3-1.6 1.3-2.2 0-.6-.6-1.6-1.3-2.2-.6-.6-1-.9-1.7-.9zm347.7 0c-.6 0-1.1.3-1.7.9-.8.7-1.2 1.3-1.3 2 0 .7.3 1.4 1 2.2 1.2 1.3 2.3 1.4 4 .4 2-1 1.5-4.4-.8-5.2a4 4 0 0 0-1.2-.3zm557 0a4 4 0 0 0-1.2.3c-1.4.5-1.7 1-1.7 2.8 0 1.8.3 2.2 1.7 2.7 1.3.5 2 .4 3-.5.7-.7 1.2-1.6 1.2-2.2 0-.6-.5-1.6-1.2-2.2-.7-.6-1.2-.9-1.8-.9zm-348.2 0a3 3 0 0 0-2 1c-.7.6-1 1.2-1 2 0 .6.3 1.3 1 2 1.3 1.5 3 1.5 4.2.2.6-.5 1-1.5 1-2.1 0-1.9-1.6-3-3.2-3zm278.3 0c-1.5 0-2.8 1.4-2.8 3.2 0 .3 0 .7.2 1.1.5 1.8 3.2 2.3 4.7 1 .7-.7 1.2-1.6 1.2-2.2 0-.6-.5-1.6-1.2-2.2a3 3 0 0 0-2-.9zm-1321.8 0c-.7 0-1.5.2-2.2.9-.7.7-1.1 1.3-1.2 2 0 .7.3 1.4 1 2.2 1.3 1.4 3 1.4 4.3 0 2-2 .3-4.8-1.9-5zm347.6.1c-1.2 0-2.4.6-2.7 1.7a4 4 0 0 0-.2 1.2c0 2.6 2.8 4.2 4.9 2.2.7-.6 1.2-1.5 1.2-2.1 0-.6-.5-1.6-1.2-2.2-.6-.5-1.3-.8-2-.8zm69.5 0c-1.2 0-2.3.6-2.7 1.7a4 4 0 0 0-.2 1.2c0 2.6 2.8 4.2 5 2.2.6-.6 1.2-1.5 1.2-2.1 0-.6-.6-1.6-1.2-2.2-.6-.5-1.3-.8-2-.8zm835.2 0c-1.2 0-2.4.6-2.7 1.7a4 4 0 0 0-.2 1.2c0 2.6 2.8 4.2 5 2.2.6-.6 1.1-1.5 1.1-2.1 0-.6-.5-1.6-1.2-2.2-.6-.5-1.3-.8-2-.8zm257.8 1.8v2.4l.6-1.2-.6-1.2zm-1498.7 9.3c-2 0-3.2 2.1-3 4 0 .8.3 1.6 1 2 1.6 1.2 2.6 1.1 4-.3.5-.5.9-1 1-1.4v-1.6c-.5-1.2-2-2.7-3-2.7zm139.2 0c-1.9 0-3.2 2.1-3 4 0 .8.4 1.6 1 2 1.6 1.2 2.6 1.1 4-.3v-4.4c-.6-.7-1.4-1.3-2-1.3zm69.5 0c-.5 0-1.5.6-2.2 1.3-.7.7-1.3 1.6-1.3 2.2 0 .5.6 1.5 1.3 2.2.7.7 1.7 1.2 2.2 1.2.5 0 1.5-.5 2.2-1.2.7-.7 1.2-1.7 1.2-2.2 0-.6-.5-1.5-1.2-2.2-.7-.7-1.7-1.3-2.2-1.3zm46.4 0c-.3 0-.6.2-1 .4v6.2l1 .3c.5 0 1.5-.5 2.2-1.2.7-.7 1.2-1.7 1.2-2.2 0-.6-.5-1.5-1.2-2.2-.7-.7-1.7-1.3-2.2-1.3zm23.2 0c-.5 0-1.5.6-2.2 1.3-.7.7-1.3 1.6-1.3 2.2 0 .5.6 1.5 1.3 2.2.7.7 1.7 1.2 2.2 1.2l.9-.3v-6.3l-1-.3zm208.5 0c-1 0-3.2 2.4-3.2 3.5 0 1.2 2.2 3.4 3.4 3.4.5 0 1.3-.4 1.9-1 2-2 .7-5.9-2.1-5.9zm46.7 0c-1.5 0-3.5 2-3.5 3.5 0 1.4 2 3.4 3.5 3.4.5 0 1.2-.4 1.8-1a4 4 0 0 0 1-2.4c0-1.6-1.5-3.5-2.8-3.5zm348 0l-.5.1v6.7c.8.2 1.6-.1 2.6-1.1.7-.7 1.3-1.7 1.3-2.2 0-1.2-2.2-3.5-3.4-3.5zm23.3 0c-1.8 0-3 1.7-3.1 3.4 0 1 .2 2 1 2.7 1.4 1 2.3 1 3.3.2v-5.7c-.4-.3-.9-.6-1.2-.6zm46.4 0c-2 0-3.2 2.1-3 4 0 .8.3 1.6 1 2 1.6 1.2 2.6 1.1 4-.3.7-.7 1.3-1.7 1.3-2.2 0-1.2-2.2-3.5-3.3-3.5zm69.5 0c-.7 0-1.3.3-1.8.8v5.3c1.5 1.1 2.5 1 3.9-.4.7-.7 1.2-1.7 1.2-2.2 0-1.2-2.2-3.5-3.3-3.5zm23.2 0c-2 0-3.2 2.1-3 4 0 .8.3 1.6 1 2 .8.6 1.4.9 2 .8v-6.8zm46.3 0c-.5 0-1.5.6-2.2 1.3-.7.7-1.3 1.6-1.3 2.2 0 .5.6 1.5 1.3 2.2.7.7 1.7 1.2 2.2 1.2.5 0 1.5-.5 2.2-1.2.7-.7 1.2-1.7 1.2-2.2 0-.6-.5-1.5-1.2-2.2-.7-.7-1.7-1.3-2.2-1.3zm278.1 0c-1 0-3.2 2.4-3.2 3.5 0 1.2 2.3 3.4 3.4 3.4.5 0 1.4-.4 2-1 2-2 .6-5.9-2.2-5.9zm-1252.1 0v6.8c.6 0 1.2-.4 2-1.1.6-.7 1.2-1.7 1.2-2.2 0-1.1-2-3.3-3.2-3.4zm1322 0c-.5 0-1.2.4-2.1 1v4.8l.6.4c1.6 1 1.8.9 3-.2 1.5-1.4 1.7-3.6.3-5-.6-.6-1.1-1-1.7-1zm-811.8 0c-.4 0-.9.3-1.6.7-1.3.7-1.7 1.4-1.7 2.8 0 1.3.4 2 1.7 2.7 1.5.9 1.8.9 3-.2a4 4 0 0 0 1.2-2.5 4 4 0 0 0-1.3-2.6c-.5-.5-1-.8-1.3-.8zm881.6 0c-.4 0-.9.3-1.7.7-1.2.7-1.6 1.4-1.6 2.8 0 1.3.4 2 1.6 2.7 1.6.9 1.8.9 3-.2a4 4 0 0 0 1.3-2.5 4 4 0 0 0-1.3-2.6c-.6-.5-1-.8-1.3-.8zm-835.2 0c-.4 0-.9.3-1.6.7-1.4.7-2 1.9-2 3a3 3 0 0 0 1.5 2.3c1.5 1 1.7 1 3.2 0 1.9-1.2 2-3.5.2-5-.5-.6-1-.9-1.3-1zm788.3.1c-.5.1-1 .4-1.8 1-.9.5-1.3 1.3-1.3 2.2 0 1.1.7 2.2 2 3l1.1.5zm-1066.8 0a3 3 0 0 0-2.3 1v4.7c1 .9 2.4 1.3 3.8.5.9-.5 1.3-1.3 1.3-2.8 0-2-1.4-3.3-2.8-3.3zm904.7 0c-.3 0-.6 0-.8.2v6.3c.7.2 1.5.1 2.3-.3 1-.5 1.3-1.3 1.3-2.8 0-2-1.3-3.3-2.8-3.3zm23.2 0c-1 0-2.3.6-3 2-.2.6-.3 1.1-.2 1.6.1 2 2.2 3.5 4.2 2.8v-6.1l-1-.2zm-905.1 0c-1 .2-2 .8-2.6 2l-.3 1.6a3.2 3.2 0 0 0 2.9 3zm-69 .1a3.4 3.4 0 0 0-3.5 3.3c0 .3 0 .6.2 1 .8 2.7 4.9 3 5.9.3.6-1.8.1-3.4-1.3-4.2a3 3 0 0 0-1.3-.4zm881.6 0a3.4 3.4 0 0 0-3.6 3.3c0 .3 0 .6.2 1 .9 2.7 5 3 5.9.3.7-1.8.1-3.4-1.3-4.2a3 3 0 0 0-1.2-.4zm-418.2 0c-1.4.1-2.5 1.4-2.4 3.3 0 .4 0 .8.2 1.2.4 2 2.5 2.6 4.4 1.3 2-1.3 2-3.8 0-5-.7-.6-1.5-.8-2.2-.8zm-46.3.1c-1 0-2 .6-2.3 1.7a5 5 0 0 0-.3 1.8c.2 2.4 2.4 3.7 4.7 2.2l.8-.7v-3.7a3.8 3.8 0 0 0-3-1.3zm-22.1 0v6.3l1-.6c2.1-1.4 2-4-.4-5.3l-.6-.3zm-765.1.2v5.9l.9-.7c.7-.7 1.2-1.7 1.2-2.2 0-.8-1-2.2-2.1-3zm577 .3l-.5.2c-.8.6-1.2 1.4-1.2 2.3 0 1 .5 2 1.6 2.8zm50.2.6v3.9c.8-1.2.8-2.8 0-4zm87.6.7c-.2.5-.4 1-.4 1.6 0 .4.2.9.4 1.2zM11.7 129.5l-.2 2.5c.3-.4.4-.9.4-1.3 0-.5 0-.8-.2-1.2zM669.6 205c-1 0-2 .5-2.8 1.7-.5.7-.8 1.1-.8 1.6 0 .4.3.8.8 1.5 1.2 2 4.3 2.2 5.3.5 1.6-2.7-.3-5.2-2.5-5.3zm69.6 0c-1 0-2 .5-2.9 1.7-.4.7-.7 1.1-.7 1.6 0 .4.3.8.7 1.5 1.3 2 4.4 2.2 5.4.5 1.6-2.7-.4-5.2-2.5-5.3zm835.1 0c-1 0-2 .5-2.8 1.7-.5.7-.7 1.1-.7 1.6 0 .4.2.8.7 1.5 1.2 2 4.4 2.2 5.3.5 1.6-2.7-.3-5.2-2.5-5.3zm69.6 0c-1 0-2 .5-2.8 1.7-.5.7-.7 1.1-.7 1.6 0 .4.2.8.7 1.5 1.3 2 4.4 2.2 5.4.5 1.6-2.7-.4-5.2-2.6-5.3zM20 139c-1 .1-2 .7-2.5 1.7a4 4 0 0 0-.4 1.4c-.2 3 3.7 4.9 5.8 2l1-1.8-1-1.8c-.7-1-1.8-1.5-2.9-1.4zm858.3 66c-1 .1-2 .7-2.5 1.7a4 4 0 0 0-.4 1.4c-.2 3 3.7 4.9 5.8 2l1-1.8-1-1.8c-.7-1-1.8-1.5-2.9-1.4zm-765.3.1c-2.2 0-3.2 1-3.2 3.2 0 .9.3 2 .7 2.3 1.3 1.3 4.1 1 5.2-.6.5-.8 1-1.5 1-1.7 0-1.3-2.2-3.2-3.7-3.2zm69.5 0c-2 0-3.1 1-3.1 3.2 0 2 1 3.1 3.1 3.1 1 0 2-.3 2.4-.8.4-.4.7-1.4.7-2.3 0-2.1-1-3.2-3-3.2zm69.6 0c-2 0-3.1 1-3.1 3.2 0 2 1 3.1 3.1 3.1 1 0 2-.3 2.4-.8.4-.4.7-1.4.7-2.3 0-2.1-1-3.2-3-3.2zm69.6 0c-2 0-3.2 1-3.2 3.2 0 2 1.1 3.1 3.2 3.1.9 0 2-.3 2.4-.8.4-.4.7-1.4.7-2.3 0-2.1-1-3.2-3.1-3.2zm69.6 0c-2.1 0-3.2 1-3.2 3.2 0 2 1.1 3.1 3.2 3.1.9 0 2-.3 2.4-.8.4-.4.7-1.4.7-2.3 0-2.1-1-3.2-3.1-3.2zm69.6 0c-2 0-3.1 1-3.1 3.2 0 2 1 3.1 3 3.1 1 0 2-.3 2.5-.8.4-.4.7-1.4.7-2.3 0-2.1-1-3.2-3.1-3.2zm69.5 0c-2 0-3 1-3 3.2 0 2 1 3.1 3 3.1 1 0 2-.3 2.4-.8.4-.4.8-1.4.8-2.3 0-2.1-1-3.2-3.2-3.2zm69.5 0c-1.1 0-2 .5-2.7 1.6-.5.7-.7 1.1-.7 1.6 0 .4.2.8.7 1.5 1.1 1.7 4 2.2 5.2.8.5-.4.8-1.4.8-2.3 0-2.1-1-3.2-3.3-3.2zm209.1 0c-1.9 0-4 1.6-4 3 0 2.7 4 4.3 6 2.3 1.9-2 .6-5.3-2-5.3zm208.7 0c-2.1 0-3.2 1-3.2 3.2 0 .9.3 2 .7 2.3 1.3 1.3 4.1 1 5.2-.6.5-.8 1-1.5 1-1.7 0-1.3-2.2-3.2-3.7-3.2zm69.6 0c-2.1 0-3.2 1-3.2 3.2 0 2 1 3.1 3.2 3.1.9 0 2-.3 2.3-.8.5-.4.8-1.4.8-2.3 0-2.1-1-3.2-3.1-3.2zm69.5 0c-2 0-3.1 1-3.1 3.2 0 2 1 3.1 3 3.1 1 0 2-.3 2.5-.8.4-.4.7-1.4.7-2.3 0-2.1-1-3.2-3.1-3.2zm69.6 0c-2 0-3.2 1-3.2 3.2 0 2 1.1 3.1 3.2 3.1.9 0 2-.3 2.4-.8.4-.4.7-1.4.7-2.3 0-2.1-1-3.2-3.1-3.2zm139.2 0c-2 0-3.1 1-3.1 3.2 0 2 1 3.1 3.1 3.1.9 0 2-.3 2.4-.8.4-.4.7-1.4.7-2.3 0-2.1-1-3.2-3-3.2zm69.6 0c-2 0-3.1 1-3.1 3.2 0 2 1 3.1 3.1 3.1.9 0 2-.3 2.4-.8.4-.4.7-1.4.7-2.3 0-2.1-1-3.2-3.1-3.2zm69.5 0c-1.2 0-2.1.5-2.8 1.6-.5.7-.7 1.1-.7 1.6 0 .4.2.8.7 1.5 1.1 1.7 4 2.2 5.3.8.4-.4.7-1.4.7-2.3 0-2.1-1-3.2-3.2-3.2zm-556.3.1a5 5 0 0 0-.7 0c-1.8.2-2.7 1.2-2.7 2.6 0 .4 0 1 .2 1.5.7 2 3.5 2.8 5 1.4.6-.4 1-1.5 1-2.4 0-2-1-3-2.8-3zm345.8.3c-.9.5-1.3 1.4-1.3 2.8 0 2 1 3.1 3 3.1 1 0 2-.3 2.5-.8.4-.4.7-1.4.7-2.2l-5-2.9zm329 1v3.8c.9-1.5.7-2.9 0-3.9zm-826.2 10c-1.6-.1-3.2 1-3.2 3 0 3.5 3.2 5 5.6 2.6 1.5-1.6 1.6-2.5.3-4.3-.7-1-1.7-1.4-2.7-1.4zm-602.8 0c-1.7 0-3.5 1.7-3.5 3.3 0 3 3.5 4.5 5.7 2.5s.7-5.9-2.2-5.9zm69.6 0c-1.7 0-3.5 1.7-3.5 3.3 0 2.9 3.3 4.4 5.6 2.6v-5.2a3 3 0 0 0-2-.8zm69.6 0c-1.7 0-3.6 1.7-3.6 3.3 0 3 3.5 4.5 5.8 2.5 2.1-2 .7-5.9-2.2-5.9zm46.4 0a3 3 0 0 0-1.1.2v6.4c1 .3 2.3 0 3.3-.8 2.1-2 .7-5.9-2.2-5.9zm23.2 0c-1.7 0-3.6 1.7-3.6 3.3 0 2.4 2.3 3.8 4.4 3.3v-6.6a3 3 0 0 0-.8 0zm69.6 0c-1.7 0-3.6 1.7-3.6 3.3 0 3 3.6 4.5 5.8 2.5 2.1-2 .7-5.9-2.2-5.9zm46.2 0c-.9 0-1.7.2-2.2.7v5c1.3 1.4 3.1 1.4 4.6 0 2.2-2 .6-5.8-2.4-5.8zm232.3 0c-2.3 0-3.7 1.1-3.7 3 0 3.6 4 5.2 5.9 2.4.5-.8 1-1.7 1-2 0-1.4-2-3.5-3.2-3.5zm278.1 0c-1 0-2 .5-2.6 1.6-.5.7-.7 1.1-.7 1.6 0 .4.2.9.6 1.6 1 1.7 2.6 2.3 4.1 1.6v-6.2c-.4-.2-.9-.3-1.4-.3zm46.6 0c-1.7 0-3.6 1.7-3.6 3.3 0 3 3.5 4.5 5.8 2.5 2.1-2 .6-5.9-2.2-5.9zm69.5 0c-.6 0-1.3.2-1.8.6v5.6c1.2.7 2.8.7 4-.4 2.1-2 .7-5.9-2.2-5.9zm23.2 0c-1.7 0-3.6 1.7-3.6 3.3 0 2 1.8 3.5 3.6 3.4v-6.8zm46.4 0c-1.7 0-3.6 1.7-3.6 3.3 0 3 3.6 4.5 5.8 2.5 2.1-2 .7-5.9-2.2-5.9zm92.8 0c-1.7 0-3.5 1.7-3.5 3.3 0 2.9 3.2 4.4 5.5 2.7V217a3 3 0 0 0-2-.7zm46.4 0c-1.6 0-3.5 1.7-3.5 3.3 0 3 3.5 4.5 5.7 2.5s.7-5.9-2.2-5.9zm-69.5 0v6.7c.7 0 1.5-.4 2-1 2.2-1.9.8-5.7-2-5.8zm-1043.8 0v6.7c.7-.1 1.4-.4 2-1 2.1-1.8.8-5.6-2-5.8zm417 0a3.4 3.4 0 0 0-3.2 3.4c0 3.2 4 4.6 6 2 .4-.8.9-1.7.9-2 0-.4-.5-1.3-1-2a3 3 0 0 0-2.7-1.4zm904.8 0c-.7 0-1.4.2-2 .7v5.4c1.4 1 3.5 1 4.7-.7.5-.8 1-1.7 1-2 0-.4-.5-1.3-1-2a3 3 0 0 0-2.7-1.4zm23.1 0a3.4 3.4 0 0 0-3.2 3.4c0 2 1.6 3.3 3.2 3.4zm-973.9 0c-1.8-.1-3.6 1.2-3.6 3.2 0 3.3 4.1 4.8 6 2.2 1.2-1.8 1.2-3-.1-4.3-.7-.7-1.5-1-2.3-1.1zm812 0h-1v6.6a3 3 0 0 0 3.2-1.2c1.3-1.8 1.3-3 0-4.3-.6-.7-1.4-1-2.3-1.1zm23.1 0c-1.7-.1-3.6 1.2-3.6 3.2 0 2.5 2.6 4 4.5 3.3v-6.3l-.9-.2zm46.4 0c-1.7-.1-3.6 1.2-3.6 3.2 0 3.3 4.2 4.8 6 2.2 1.2-1.8 1.2-3-.1-4.3-.6-.7-1.4-1-2.2-1.1zm-951.6 0c-1.6.1-3.1 1.4-3.1 3.2 0 2 1.5 3.3 3 3.5zm-417.2 0c-1 .1-2.1.7-2.8 1.9-.4.7-.6 1.2-.6 1.6 0 .5.3 1 .8 1.7 1.2 1.8 3.5 2.1 5 .6.3-.3.6-.7.8-1.2v-2.6c-.6-1.3-1.9-2-3.2-2zm765.5 0c-1 .1-2.1.7-2.8 1.9-.4.7-.6 1.2-.6 1.6 0 .5.3 1 .8 1.7 1.2 1.8 3.5 2.1 5 .6.2 0 .2-.2.3-.3v-4.3a3.2 3.2 0 0 0-2.7-1.1zm46.4 0c-1 .1-2.1.7-2.8 1.9-.4.7-.6 1.2-.5 1.6 0 .5.2 1 .7 1.7 1.2 1.8 3.6 2.1 5 .6a4 4 0 0 0 1-2.4c0-2.2-1.7-3.5-3.4-3.3zm69.6 0l-.4.1v6.6c1 .2 2 0 2.9-.9a4 4 0 0 0 1-2.4c0-2.2-1.8-3.5-3.5-3.3zm-138.3.1v6.6c.5-.1 1.1-.4 1.6-.9a4 4 0 0 0 1-2.4c0-1.9-1.2-3-2.6-3.3zm-765 .1v6.4c.3-.2.7-.4 1-.8a4 4 0 0 0 1-2.4c0-1.7-.9-2.7-2-3.2zm576.8.2c-1 .5-1.7 1.6-1.7 3s.7 2.4 1.7 3zM10.5 151l-.4 6 .9-.7a4 4 0 0 0 1-2.4c0-1.4-.7-2.3-1.6-2.9zm719.3 66.5v4.8l.3-.4c.5-.8 1-1.7 1-2 0-.8-.6-1.7-1.3-2.4zm87.6.5c-.3.5-.4 1.1-.4 1.9 0 .7.1 1.4.4 2zm-789-64.5v0zm-8.1 8.2c-2 0-3.2 1.9-3.3 3.7 0 1 .4 2.2 1.4 2.8 1.8 1.3 2.7 1.3 4.2-.2.7-.7 1.3-1.9 1.3-2.5 0-1.6-2.2-3.8-3.6-3.8zm92.6 66c-1.1 0-3.8 2.7-3.8 3.9 0 1 3 3.6 4 3.6.6 0 1.6-.5 2.3-1.2.7-.7 1.2-1.9 1.2-2.5 0-1.6-2-3.8-3.7-3.8zm765.7 0c-2 0-3.2 1.9-3.3 3.7 0 1 .4 2.2 1.4 2.8 1.8 1.3 2.7 1.3 4.2-.2.7-.7 1.3-1.9 1.3-2.5 0-1.6-2.1-3.8-3.6-3.8zm69.6 0c-2 0-3.2 1.9-3.2 3.7 0 1 .3 2.2 1.3 2.8 1.8 1.3 2.7 1.3 4.2-.2.7-.7 1.3-1.9 1.3-2.5 0-1.6-2.1-3.8-3.6-3.8zm69.5 0c-1.2 0-3.8 2.7-3.8 3.9 0 1 3 3.6 4 3.6.5 0 1.5-.5 2.2-1.2.7-.7 1.3-1.9 1.3-2.5 0-1.6-2.2-3.8-3.7-3.8zm208.7 0c-1.6 0-3.8 2.1-3.8 3.7 0 1.1 2.7 3.8 3.8 3.8.2 0 1.2-.6 2-1.3 1-.7 1.7-1.8 1.7-2.5 0-1.6-2.1-3.7-3.7-3.7zm69.5 0c-2 0-3.7 2.3-3.6 4.2 0 .4.2.8.4 1.2 1.6 2.4 5 2.3 6.4-.2 1.2-2.1-.7-5.2-3.2-5.2zm69.8 0c-.8 0-1.7.4-2.6 1.2-.8.8-1.2 1.8-1.2 2.6 0 1.5 1 2.8 3 3.4 1 .3 1.7 0 2.9-1.2 1.8-1.8 1.8-1.9.8-3.7-.7-1.5-1.8-2.3-2.9-2.3zm-1183.2 0c-.9.1-1.7.7-2.5 1.6-.8 1.1-1.2 1.7-1.2 2.3 0 .6.6 1.2 1.5 2.1 1.7 1.7 3.7 1.6 5.2-.2 1.1-1.5 1-3.1-.5-4.6-.8-.8-1.7-1.2-2.5-1.1zm904.7 0c-.8.1-1.6.7-2.4 1.6-.8 1.1-1.2 1.7-1.2 2.3 0 .6.5 1.2 1.5 2.1 1.7 1.7 3.7 1.6 5.1-.2 1.2-1.5 1-3.1-.4-4.6-.9-.8-1.7-1.2-2.6-1.1zm348 0c-.8 0-1.7.4-2.5 1.2-.8.8-1.2 1.8-1.2 2.6 0 1.5 1 2.8 2.9 3.4 1 .3 1.8 0 3-1.2 1.9-1.9 2-2.2.3-4.4-.8-1-1.6-1.5-2.5-1.5zm-1183.2 0c-1.4 0-2.8 1-3.3 3v.3c-.2 2 2.4 4.4 4.2 3.9a5 5 0 0 0 2.2-1.4c1.1-1.5 1-3.1-.5-4.6a3.7 3.7 0 0 0-2.6-1.1zm69.6 0c-1.4 0-2.8 1-3.3 3l-.1.3c-.2 2 2.4 4.4 4.3 3.9a5 5 0 0 0 2.2-1.4c1-1.5 1-3.1-.5-4.6a3.7 3.7 0 0 0-2.6-1.1zm69.7 0c-.8 0-1.7.5-2.5 1.2-.8.8-1.2 1.8-1.2 2.6 0 1.5 1 2.8 2.9 3.4 1 .3 1.8 0 3-1.2s1.5-2 1.2-3c-.6-2-2-3-3.4-3zm69.7 0c-1 0-1.8.5-2.6 1.2-.8.8-1.2 1.8-1.2 2.6 0 1.5 1 2.8 2.9 3.4 1 .3 1.8 0 3-1.2s1.5-2 1.2-3c-.5-2-1.9-3-3.3-3zm695.7 0c-1.4 0-2.8 1-3.3 3l-.1.3c-.2 2 2.4 4.4 4.3 3.9a5 5 0 0 0 2.2-1.4c1.1-1.5 1-3.1-.5-4.6a3.7 3.7 0 0 0-2.6-1.1zm-348 0c-.5 0-1 .3-1.7.7-1.3.7-1.6 1.4-1.6 3 0 1.7.3 2.4 1.6 3.1 1.5.9 1.8.8 3.3-.1 1.2-.8 1.6-1.6 1.6-3 0-1.2-.4-2.1-1.6-2.9-.7-.5-1.2-.7-1.6-.7zm-139.3.1l-.7.1a3.6 3.6 0 0 0-2.6 3.7c0 1.3.7 2.5 2 3.1 1.2.6 1.8.5 3-.3 3-2 1.5-6.7-1.7-6.6zm835.2 0l-.7.1a3.6 3.6 0 0 0-2.7 3.7c0 1.3.7 2.5 2 3.1 1.2.6 1.9.5 3.1-.3 3-2 1.4-6.7-1.7-6.6zm69.5 0l-.6.1a3.6 3.6 0 0 0-2.7 3.7c0 1.3.7 2.5 2 3.1 1.2.6 1.9.5 3.1-.3 3-2 1.4-6.7-1.8-6.6zm-974.3 0l-.6.1a3.6 3.6 0 0 0-2.7 3.8c0 1.2.7 2.4 2.1 3 1.2.4 2 .3 3.1-.4 2.9-1.9 1.2-6.6-1.9-6.5zm-69.3 0l-1 .1a3.6 3.6 0 0 0-2.6 3.8c0 1.2.7 2.4 2 3 2 .7 3.9-.2 4.6-2.2.9-2.2-.9-4.5-3-4.6zm209 0c-.4 0-.9 0-1.3.3-1.8.6-2.7 1.6-2.6 3.1l.1 1.1c.6 2.4 3 3.4 5 2 3-1.8 1.6-6.2-1.2-6.4zm-536.5 2c-.7.7-1 1.3-1 1.8s.4 1 1 1.5zm138.1 1.4V231.5zm270.5 8.3c-1.3.1-2.5.7-3.2 1.7-.5.8-.7 1.2-.7 1.7 0 .4.1.9.6 1.6 1 2 4.2 2.6 5.8 1 1.1-1.1 1.3-3 .3-4.7-.5-1-1.6-1.3-2.8-1.3zm46.3 0c-1.2.1-2.4.7-3.1 1.7l-.3.6v2.4l.1.3c1.2 2 4.3 2.6 5.9 1 1.1-1.1 1.3-3 .3-4.7-.5-1-1.6-1.3-2.9-1.3zm835.2 0c-1.2.1-2.5.7-3.1 1.7-.5.8-.8 1.2-.8 1.7 0 .4.2.9.6 1.6 1.1 2 4.3 2.6 5.8 1 1.2-1.1 1.3-3 .4-4.7-.5-1-1.7-1.3-2.9-1.3zm69.6 0c-.7 0-1.4.3-2 .7v5.6c1.4.9 3.4.9 4.5-.3 1.2-1.1 1.3-3 .4-4.7-.5-1-1.7-1.3-3-1.3zm-1438.2 0c-1.2 0-2.3.4-2.8 1.3a5 5 0 0 0-.6 2.2c0 2 1.5 3.6 4 3.4 1.2-.1 2-.7 2.6-1.7v-3.6l-.1-.1c-.7-1-1.9-1.4-3-1.4zm881.5 0h-.4v6.9h1c1.3-.2 2.1-.7 2.7-1.8 1-2 1-2-.2-3.6-.6-1-1.9-1.4-3-1.4zm-812.5 0c-.8.1-1.6.4-2 .9-.6.5-.8 1.5-.8 2.5s.4 2 1 2.6c1.5 1.6 4.7 1 5.7-.9 1-2 1-2-.2-3.6-.7-1-2.3-1.5-3.7-1.4zm881.6 0c-.9.1-1.6.4-2.1.9-.6.5-.8 1.5-.8 2.5.1 1 .4 2 1 2.6 1.6 1.6 4.8 1 5.7-.9 1-2 1-2-.1-3.6-.7-1-2.3-1.5-3.7-1.4zm510.6 0c-1.1.1-2.2.6-3 1.7-.4.8-.7 1.2-.7 1.7 0 .4.2.9.6 1.6a4 4 0 0 0 3.1 1.9v-6.8zm-835.2 0c-1 .1-2.2.6-3 1.7l-.7 1.7c0 .4.2.9.6 1.6 1.2 2 4 2.6 5.7 1a4 4 0 0 0 1.2-2.5c0-2.2-1.9-3.5-3.8-3.4zm46.4 0c-1 .1-2.2.6-3 1.7l-.7 1.7c0 .4.2.9.6 1.6 1.2 2 4 2.6 5.7 1a4 4 0 0 0 1.2-2.5c0-2.2-1.9-3.5-3.8-3.4zm-533.2.1c-1 0-2.3.3-2.7.8-.5.5-.7 1.5-.7 2.5s.4 2 1 2.6c1 1 3.3 1.3 4.6.6v-6c-.6-.4-1.3-.5-2.2-.5zm69.6 0c-2.5 0-3.5 1-3.5 3.5 0 2.4 1 3.4 3.5 3.4 1 0 2.3-.3 2.7-.8.4-.4.7-1.6.7-2.6 0-2.5-1-3.5-3.4-3.5zm46.4 0h-1v6.8l1 .1c1 0 2.3-.3 2.7-.8.4-.4.7-1.6.7-2.6 0-2.5-1-3.5-3.4-3.5zm23.2 0c-2.5 0-3.5 1-3.5 3.5 0 2.4 1 3.4 3.5 3.4h.9v-6.8a7 7 0 0 0-1 0zm69.6 0c-2.5 0-3.5 1-3.5 3.5 0 1 .4 2.2.8 2.6 1 1.1 4 1 5.1-.2 1.2-1.2 1.3-4 .3-5.1-.4-.5-1.6-.8-2.7-.8zm46.4 0c-1 0-1.7.2-2.3.6v5.8c1.3.8 3.6.6 4.7-.5 2.2-2.2.7-5.9-2.4-5.9zm371 0c-2.1 0-3.3 1.3-3.3 3.5 0 3 4.1 4.4 6.1 2.4v-4.9c-.7-.6-1.7-1-2.7-1zm46.5 0c-2.3 0-3.4 1.3-3.4 3.7 0 3.1 4.7 4.4 6.5 1.8.5-.8 1-1.7 1-2 0-1.8-2-3.5-4.1-3.5zm92.8 0c-2.2 0-3.4 1.3-3.4 3.7 0 2.4 2.8 3.6 4.8 3v-6.5l-1.4-.2zm116 0a6 6 0 0 0-1.7.3v6.1c1.3.7 3.5.6 4.4-.3.4-.4.7-1.6.7-2.6 0-2.5-1-3.5-3.4-3.5zm23.2 0c-2.3 0-3.5 1-3.5 3 0 2.6 1.2 3.9 3.4 3.9h.2v-6.9h-.1zm46.4 0c-2.5 0-3.5 1-3.5 3.5 0 2.4 1 3.4 3.5 3.4 1 0 2.3-.3 2.7-.8.4-.4.7-1.6.7-2.6 0-2.5-1-3.5-3.4-3.5zm92.8 0c-2.5 0-3.4 1-3.4 3.5 0 1 .3 2.2.7 2.6.9 1 3.1 1 4.8.2V240c-.6-.3-1.2-.4-2.1-.4zm46.4 0c-2.4 0-3.4 1-3.4 3.5 0 1 .3 2.2.7 2.6 1 1.1 4 1 5.2-.2 1.1-1.2 1.3-4 .2-5.1-.4-.5-1.6-.8-2.7-.8zm69.6 0a6 6 0 0 0-.8 0v6.8c1.2.2 2.5-.1 3.2-.9 2.3-2.2.8-5.9-2.4-5.9zm23.2 0c-2.4 0-3.6 1.2-3.6 3.5 0 .8.3 2 .8 2.5.7.8 2.4 1 3.8.7v-6.6h-1zm-162.2 0v6.9c1 0 2.1-.4 2.5-.8.4-.4.7-1.6.7-2.6 0-2.4-.9-3.4-3.2-3.5zm-743 0c-2 .2-3.2 1.3-3.2 3.5 0 .8.4 2 .8 2.5.5.5 1.5.8 2.5.9zm-300.8 0v6.8c1.2-.1 2.4-.7 3-1.7.7-1.5.5-2.8-.6-4.3-.4-.5-1.4-.7-2.4-.8zm626.9 0v6.8c.8 0 1.6-.5 2.2-1.3.5-.8 1-1.7 1-2 0-.4-.5-1.3-1-2.1a3.3 3.3 0 0 0-2.2-1.4zm-858-65.8l-.2 6.6c.8-.2 1.6-.6 2.1-1.3.5-.8 1-1.7 1-2 0-1.5-1.4-2.8-3-3.3zm93 66v6.4a3 3 0 0 0 1.9-1.6c1-2 1-2-.2-3.6-.4-.6-1-1-1.8-1.2zm576.8.2c-.6.3-1.1.7-1.5 1.2-.5.8-.7 1.2-.7 1.7 0 .4.1.9.5 1.6.4.7 1 1.2 1.7 1.5zm50.3.4v5.2a4 4 0 0 0 1.3-2.6c0-1.2-.6-2-1.3-2.6zM28.9 174.8c-.4.6-.7 1.3-.7 2.3 0 .8.3 1.5.8 2v-4.3zm788.5 66.1l-.2.3c-.5.8-.8 1.2-.8 1.7 0 .4.2.9.6 1.6l.4.6zm811 1.7v.3c0 .4.2.9.6 1.6 1.1 2 4 2.6 5.6 1a4 4 0 0 0 1.2-2.5v-.4zm-1237 8.3c-.8-.1-1.8.2-2.7 1-.8.7-1.2 1.8-1.2 2.9 0 1 .5 2 1.4 2.6 1.9 1.3 3.4 1.3 4.9-.2 2.6-2.7.4-6.1-2.3-6.3zm858.4 0c-1-.1-2 .2-2.8 1-.8.7-1.2 1.8-1.2 2.9 0 1 .5 2 1.4 2.6 1.9 1.3 3.4 1.3 4.9-.2 2.6-2.7.5-6.1-2.3-6.3zm23.2 0a3.8 3.8 0 0 0-4 3.9c0 1 .6 2 1.4 2.6 1.9 1.3 3.4 1.3 4.9-.2 2.6-2.7.5-6.1-2.3-6.3zm23.2 0c-1-.1-2 .2-2.8 1-.8.7-1.2 1.8-1.1 2.9 0 1 .5 2 1.3 2.6 1.9 1.3 3.4 1.3 4.9-.2 2.6-2.7.5-6.1-2.3-6.3zm-1183.4 0c-1.8 0-3.7 2-3.7 3.9 0 1.5 2.3 3.6 3.9 3.6.7 0 1.9-.5 2.5-1 2.4-2.2.7-6.5-2.7-6.5zm23.2 0c-1.8 0-3.7 2-3.7 3.9 0 1.5 2.3 3.6 3.9 3.6.7 0 1.9-.5 2.5-1 2.5-2.2.7-6.5-2.7-6.5zm23.2 0c-1.8 0-3.7 2-3.7 3.9 0 1.5 2.3 3.6 4 3.6.7 0 1.8-.5 2.4-1 2.5-2.2.7-6.5-2.7-6.5zm23.2 0c-1.8 0-3.7 2-3.7 3.9 0 1.5 2.3 3.6 4 3.6.7 0 1.8-.5 2.4-1 2.5-2.2.7-6.5-2.7-6.5zm69.8 0c-2.4 0-3.9 1.8-3.8 3.7 0 .9.4 1.8 1.2 2.6 1.5 1.5 3 1.5 4.9.2 2.7-1.9 1-6.5-2.3-6.5zm69.6 0c-2.4 0-3.9 1.8-3.8 3.7 0 .9.4 1.8 1.2 2.6 1.5 1.5 3 1.5 4.8.2 2.8-1.9 1.1-6.5-2.2-6.5zm626.2 0c-2 0-3.7 2-3.7 3.9 0 1.5 2.2 3.6 3.8 3.6.8 0 1.9-.5 2.5-1 2.5-2.2.7-6.5-2.6-6.5zm23.2 0c-2 0-3.7 2-3.7 3.9 0 1.5 2.2 3.6 3.8 3.6.8 0 1.9-.5 2.5-1 2.5-2.2.7-6.5-2.6-6.5zm23.1 0c-1.8 0-3.6 2-3.6 3.9 0 1.5 2.2 3.6 3.8 3.6.8 0 1.9-.5 2.5-1 2.5-2.2.7-6.5-2.7-6.5zm23.3 0c-2 0-3.7 2-3.7 3.9 0 1.5 2.2 3.6 3.8 3.6.8 0 2-.5 2.5-1 2.5-2.2.7-6.5-2.6-6.5zm69.6 0c-1.2 0-2.1.5-2.9 1.6a3.6 3.6 0 0 0 5 5c3.1-2 1.6-6.6-2.1-6.6zm23.4 0c-2.4 0-3.9 1.8-3.8 3.7 0 .9.4 1.8 1.2 2.6 1.5 1.5 3.5 1.6 5 .2 2.5-2.2.8-6.5-2.4-6.5zm23.1 0c-2.4 0-3.9 1.8-3.8 3.7 0 .9.4 1.8 1.2 2.6 1.5 1.5 3 1.5 4.9.2 2.7-1.9 1-6.5-2.3-6.5zm23.2 0c-2.4 0-3.9 1.8-3.8 3.7 0 .9.4 1.8 1.2 2.6 1.5 1.5 3 1.5 4.9.2 2.7-1.9 1-6.5-2.3-6.5zm69.6 0a3.9 3.9 0 0 0-3.9 3.6c0 1 .4 2.2 1.4 3 .8.5 1.8 1 2.4 1 .5 0 1.6-.5 2.3-1 2.8-2 1.2-6.6-2.2-6.6zM20 184.9c-1 0-2.1.6-2.7 1.4-.6.8-.9 1.5-1 2.3 0 .9.4 1.7 1.3 2.6 1.5 1.5 3.6 1.6 5.1.2 1.4-1.3 1.5-4.2.2-5.5-.8-.8-1.9-1-3-1zm858.3 66c-1 0-2.1.6-2.7 1.4-.6.8-.9 1.5-.9 2.3 0 .9.4 1.7 1.2 2.6 1.5 1.5 3.6 1.6 5.1.2 1.4-1.3 1.5-4.2.2-5.5-.7-.8-1.8-1-3-1zm-417.1 0c-2 0-4 1.4-4 3.6 0 3.5 3.8 5.1 6.2 2.7 1.5-1.6 1.6-3.6.2-5.2-.7-.7-1.5-1-2.4-1zm69.1 0c-1.8.1-3.6 1.5-3.6 3.6 0 3.5 3.8 5.1 6.2 2.7 1.6-1.6 1.6-3 .3-5-.7-1-1.8-1.3-2.9-1.3zm23.2 0c-1.8.1-3.6 1.5-3.6 3.6 0 3.5 3.8 5.1 6.3 2.7 1.5-1.6 1.5-3 .2-5-.7-1-1.8-1.3-2.9-1.3zm23.2 0c-1.8.1-3.6 1.5-3.6 3.6 0 3.5 3.8 5.1 6.3 2.7 1.5-1.6 1.6-3 .2-5-.7-1-1.8-1.3-2.9-1.3zm23.2 0c-1.8.1-3.6 1.5-3.6 3.6 0 3.5 3.8 5.1 6.3 2.7 1.5-1.6 1.6-3 .2-5-.7-1-1.8-1.3-2.9-1.3zm69.6 0c-1.8.1-3.6 1.5-3.6 3.6 0 3.5 3.8 5.1 6.2 2.7 1.5-1.6 1.6-3 .3-5-.7-1-1.8-1.3-2.9-1.3zm696 0c-1.8.1-3.7 1.5-3.7 3.6 0 3.5 3.9 5.1 6.3 2.7 1.5-1.6 1.6-3 .3-5-.7-1-1.8-1.3-3-1.3zm69.6 0c-1.9.1-3.7 1.5-3.7 3.6 0 3.5 3.9 5.1 6.3 2.7 1.5-1.6 1.6-3 .3-5-.7-1-1.8-1.3-3-1.3zm69.6 0c-1.9.1-3.7 1.5-3.7 3.6 0 3.5 3.8 5.1 6.3 2.7 1.5-1.6 1.6-3 .3-5-.7-1-1.8-1.3-3-1.3zm69.6 0c-1.9.1-3.7 1.5-3.7 3.6 0 3.5 3.8 5.1 6.3 2.7 1.5-1.6 1.6-3 .3-5-.7-1-1.8-1.3-3-1.3zm-835.6 0a3.4 3.4 0 0 0-3.2 3.6c0 3.5 3.8 5.1 6.2 2.7.7-.7 1.3-1.9 1.3-2.6 0-.6-.6-1.8-1.3-2.5a4 4 0 0 0-3-1.2zm69.6 0a3.4 3.4 0 0 0-3.2 3.6c0 3.5 3.8 5.1 6.2 2.7.7-.7 1.3-1.9 1.3-2.6 0-.6-.6-1.8-1.3-2.5a4 4 0 0 0-3-1.2zm835.1 0a3.4 3.4 0 0 0-3.2 3.6c0 3.5 3.8 5.1 6.3 2.7.7-.7 1.3-1.9 1.3-2.6 0-.6-.6-1.8-1.3-2.5a4 4 0 0 0-3-1.2zm-20.1 1.2v3l1 .6.3-1c0-.7-.6-1.9-1.3-2.6zm-1420.3.2l-.2.2a4 4 0 0 0-.7 2c0 .9.3 1.8.9 2.4zm138.1 2v.8zM148 262.2c-1.5 0-4.4 2.6-4.4 4 0 1.3 2.8 4.1 4 4.1a6 6 0 0 0 2.5-1.3c1-.7 1.7-2 1.7-2.8 0-1.9-2-4-3.8-4zm115.8 0c-1.6 0-4.2 2.6-4.2 4.2 0 1.2 2.9 4 4.1 4 .5 0 1.4-.6 2.2-1.3V263c-.7-.4-1.4-.7-2.1-.7zm69.4 0c-1.5 0-4 2.6-4 4.2 0 1.2 2.8 4 4 4 .6 0 1.8-.8 2.6-1.6.9-.9 1.6-2 1.6-2.6 0-1.6-2.5-4-4.2-4zm46.6 0c-.3 0-.7 0-1.1.3v7.5c.3.2.7.3 1 .3.5 0 1.7-.7 2.5-1.5.9-.9 1.5-2 1.5-2.4 0-1.5-2.5-4.2-3.9-4.2zm23 0c-1.7 0-4 2.2-4 3.9 0 1.4 2.7 4.2 4 4.2l1-.3v-7.6l-1-.2zm557.2 0c-2.4 0-4 2.2-3.9 4.4 0 1 .5 1.9 1.3 2.6 1.8 1.4 2.6 1.4 4.6-.2 1-.7 1.7-2 1.7-2.8 0-1.8-2-4-3.7-4zm23.2 0c-2.4 0-4 2.2-4 4.4.1 1 .6 1.9 1.4 2.6 1.8 1.4 2.6 1.4 4.6-.2 1-.7 1.7-2 1.7-2.8 0-1.8-2-4-3.7-4zm46.3 0c-1.5 0-4.3 2.6-4.3 4 0 1.3 2.7 4.1 4 4.1a4 4 0 0 0 1.4-.6v-7.3l-1-.2zm115.7 0c-1.5 0-4 2.6-4 4.2 0 1.2 2.8 4 4 4 .5 0 1.7-.8 2.5-1.6.9-.9 1.6-2.1 1.6-2.8 0-1.8-2.2-3.8-4-3.8zm23.2 0c-1.5 0-4 2.6-4 4.2 0 1.2 2.8 4 4 4l.1-.1v-8.1zm46.3 0c-1.4 0-4 2.6-4 4.2 0 1.2 2.9 4 4 4 .6 0 1.8-.8 2.6-1.6.9-.9 1.6-2 1.6-2.6 0-1.6-2.5-4-4.2-4zm23.3 0c-1.6 0-4.1 2.6-4.1 4.2 0 1.2 2.8 4 4 4 .6 0 1.8-.8 2.6-1.6.9-.9 1.5-2 1.5-2.4 0-1.6-2.5-4.2-4-4.2zm23.3 0c-1.6 0-4.2 2.3-4.2 3.9 0 1.4 2.7 4.2 4 4.2.6 0 1.8-.7 2.6-1.5.9-.9 1.6-2 1.6-2.4 0-1.5-2.6-4.2-4-4.2zm23 0c-1.7 0-4 2.2-4 3.9 0 1.4 2.7 4.2 4 4.2.6 0 1.8-.7 2.6-1.5.9-.9 1.6-2 1.6-2.4 0-1.6-2.6-4.2-4.1-4.2zm23.3 0c-1.8 0-4 2.2-4 3.9 0 1.4 2.6 4.2 4 4.2.4 0 1.3-.5 2-1.1v-6c-.6-.6-1.4-1-2-1zm-696.2 0c-.8 0-1.8.4-2.6 1.2-.7.8-1.1 1.7-1.2 2.5 0 1.1.5 2.2 1.6 3.1 2 1.6 2.7 1.6 4.5.3 1-.6 1.4-1.6 1.4-2.9 0-2.6-1.7-4.3-3.7-4.2zm881.6 0c-1 0-1.8.4-2.6 1.2-.8.8-1.2 1.7-1.2 2.5 0 1.1.5 2.2 1.6 3.1 2 1.6 2.6 1.6 4.4.3 1-.6 1.4-1.6 1.4-2.9 0-2.6-1.7-4.3-3.6-4.2zm-1322.1 0c-1 0-2 .6-2.8 1.6-.8 1-1.2 1.9-1.2 2.6 0 .7.5 1.4 1.5 2.4 1.9 1.9 2.8 1.9 5 .2 2-1.5 2-3.8.3-5.6a3.7 3.7 0 0 0-2.8-1.2zm23.2 0c-1 0-2 .6-2.8 1.6-.8 1-1.2 1.9-1.2 2.6 0 .7.5 1.4 1.5 2.4 1.9 1.9 2.8 1.9 5 .2 2-1.5 2-3.8.3-5.6a3.7 3.7 0 0 0-2.8-1.2zm278.4 0c-1 0-2 .3-2.8 1.2-.8.8-1.2 1.7-1.2 2.5 0 1.1.4 2.2 1.6 3.1 2.1 1.7 3 1.7 5-.2 1.8-1.9 1.8-2.8.2-5-.8-1-1.8-1.5-2.8-1.6zm46.4 0c-.8 0-1.6.2-2.3.8v6.1c2 1.6 3 1.5 4.8-.3 1.9-1.9 2-2.8.2-5-.8-1-1.7-1.5-2.7-1.6zm23.2 0c-1 0-2 .3-2.9 1.2-.8.8-1.1 1.7-1.2 2.5 0 1.1.5 2.2 1.6 3.1 2.2 1.7 3 1.7 5-.2 1.8-1.9 1.9-2.8.2-5-.8-1-1.7-1.5-2.7-1.6zm23.2 0c-1 0-2 .3-2.8 1.2-.8.8-1.2 1.7-1.3 2.5 0 1.1.5 2.2 1.7 3.1 2 1.7 3 1.7 5-.2 1.8-1.9 1.8-2.8.2-5-.8-1-1.8-1.5-2.8-1.6zm510.3 0c-1 0-2 .6-2.7 1.6-.9 1-1.3 1.9-1.2 2.6 0 .7.5 1.4 1.4 2.4 1.9 1.9 2.8 1.9 5 .2 2-1.5 2.1-3.8.4-5.6a3.7 3.7 0 0 0-2.9-1.2zm23.2 0c-1 0-2 .6-2.7 1.6-.9 1-1.3 1.9-1.2 2.6 0 .7.5 1.4 1.4 2.4 1.9 1.9 2.8 1.9 5 .2 2-1.5 2.1-3.8.4-5.6a3.7 3.7 0 0 0-2.9-1.2zm23.2 0c-1 0-2 .6-2.7 1.6-.8 1-1.3 1.9-1.2 2.6 0 .7.5 1.4 1.4 2.4 2 1.9 2.9 1.9 5 .2 2-1.5 2.1-3.8.4-5.6a3.7 3.7 0 0 0-2.9-1.2zm232 0c-1 0-2 .3-2.8 1.2-.8.8-1.2 1.7-1.2 2.5 0 1.1.5 2.2 1.6 3.1 2.1 1.7 3 1.7 5-.2 1.8-1.9 1.9-2.8.2-5-.8-1-1.7-1.5-2.7-1.6zm69.6 0h-.8v7.8c1.1.5 2 .1 3.3-1.2 1.9-1.9 2-2.8.3-5-.8-1-1.8-1.5-2.8-1.6zm23.2 0c-1 0-2 .3-2.8 1.2-.8.8-1.2 1.7-1.2 2.5 0 1.1.5 2.2 1.6 3.1 1.5 1.2 2.4 1.5 3.4 1v-7.5c-.3-.2-.6-.3-1-.3zm-1322.1 0c-.9 0-1.8.6-2.8 1.5-.8.8-1.2 1.6-1.2 2.4 0 1 .5 2 1.7 3.1 1.7 1.4 2.5 1.4 4.5-.2 2-1.5 2.2-3.8.4-5.6-.8-.8-1.7-1.2-2.6-1.2zm116 0v8c.7-.1 1.4-.5 2.2-1.2 2-1.5 2.2-3.8.4-5.6a3.8 3.8 0 0 0-2.5-1.2zm696 0c-1 0-2 .6-2.9 1.5-.7.8-1.2 1.6-1.2 2.4 0 1 .5 2 1.7 3.1 1.7 1.4 2.5 1.4 4.5-.2 2-1.5 2.2-3.8.4-5.6-.8-.8-1.7-1.2-2.6-1.2zm69.5 0c-.9 0-1.8.6-2.8 1.5-.7.8-1.1 1.6-1.2 2.4 0 1 .6 2 1.7 3.1 1.7 1.4 2.5 1.4 4.5-.2 2-1.5 2.2-3.8.4-5.6-.8-.8-1.7-1.2-2.6-1.2zm-116 0c-1.9 0-3.6 1.6-3.6 4 0 3.6 3.5 5 6.1 2.8v-5.7c-.7-.7-1.6-1-2.4-1zm-302.1 0c-.9.1-1.7.5-2.5 1.3-.7.7-1.1 1.6-1 2.5 0 1.2.6 2.4 1.8 3.3 1.4 1 2 1.1 3.3.5.9-.4 1.9-1.4 2.1-2.1 1.2-3-1.2-5.6-3.7-5.4zm208.5.1c-1.2 0-2.3.7-3 2.1-.3.7-.4 1.4-.4 2 .2 2.8 3.2 4.8 6 3 1-.7 1.5-1.5 1.5-3.2 0-2.5-2.1-4-4.1-3.9zm-139.3 0c-1.1 0-2.2.7-2.8 2v3.6c.4.8 1 1.4 2 1.8 2 .9 4.2 0 5-2 1-3.1-1.7-5.6-4.2-5.4zm904.7 0c-.4 0-1 .2-1.3.4v6.7l.5.3c2.1.9 4.2 0 5-2 1.1-3.1-1.7-5.6-4.2-5.4zm23.2 0c-1.1 0-2.2.7-2.8 2-.3.7-.4 1.4-.4 2 0 1.5.9 2.8 2.3 3.4l1.4.3v-7.7h-.5zm-834.9 0a3.6 3.6 0 0 0-3.4 3.5c-.1 1.6.7 3.2 2.3 3.9 1.6.6 2.2.6 3.5-.3 3.3-2.1 1.2-7.3-2.4-7zm117.4 0v7.7c.7-.2 1.5-.6 2.2-1.3 1.4-1.4 1.2-3.8-.3-5.3a4 4 0 0 0-2-1zm-858.3-66v7.7c.8-.2 1.5-.6 2.2-1.3 1.3-1.4 1.2-3.8-.3-5.3a4 4 0 0 0-1.9-1zm93.2 66.1v7.4l1.1-.8c1-.7 1.7-1.9 1.7-2.8 0-1.5-1.4-3.2-2.8-3.8zm577 .1c-.8.3-1.5.9-2 1.8-.2.7-.4 1.4-.3 2 0 1.5.8 2.7 2.2 3.3zm50.2.8v6c2-1.7 1.6-4.5 0-6zm87.6.2l-.6 1a4 4 0 0 0 .6 4.4zm-788.2-66c-.7.9-1 2-1 3s.4 1.8 1 2.4v-5.4zm779.6 76c-.5 0-1 .2-1.7.6l-1 .8h4.8l-.4-.4c-.8-.6-1.3-1-1.7-1zm-487.1.2c-1 0-2 .4-2.7 1.2h5.3a3.7 3.7 0 0 0-2.6-1.2zm904.7 0c-1 0-2 .4-2.7 1.2h5.3a3.7 3.7 0 0 0-2.6-1.2zm-487.4 0a3 3 0 0 0-.7.1c-.6.2-1.2.6-1.7 1h5a3.3 3.3 0 0 0-2.6-1.1zm835.1 0a3 3 0 0 0-.6.1c-.6.2-1.2.6-1.8 1h5a3.3 3.3 0 0 0-2.6-1.1zm-1182.6 0a4.5 4.5 0 0 0-3 1.2h5.5a3.2 3.2 0 0 0-2.5-1.2zm881.5 0a4.5 4.5 0 0 0-3 1.2h5.5a3.2 3.2 0 0 0-2.5-1.2zm-1252.8-66c-1.7.2-3.9 2.2-3.9 4 0 4.3 6.3 5.4 7.7 1.4.9-2.2-.5-4.6-3-5.3h-.8zm858.4 66c-.8 0-1.7.5-2.4 1.2h4.9c-.6-.5-1.2-1-1.8-1-.2-.2-.5-.2-.7-.2zm-626.8 0l-.6.1c-.7.2-1.3.6-1.7 1h5.3c-.9-.6-2-1-3-1zm881.5 0l-.6.1c-.7.2-1.3.6-1.7 1h5.3c-.9-.6-2-1-3-1zm232.2 0c-1 .1-1.9.5-2.6 1.2h5.4c-.3-.4-.7-.7-1.2-.9-.6-.2-1.1-.3-1.6-.2zm-417.5 0c-1 0-1.9.5-2.5 1.2h5.4c-.4-.4-.9-.6-1.4-.9a4 4 0 0 0-1.5-.2zm-835 0c-1 0-2 .5-2.7 1.2h5.2c-.4-.4-.7-.7-1-.8-.6-.2-1-.3-1.6-.3zm23.2 0c-1 0-2 .5-2.7 1.2h5.2c-.4-.4-.7-.7-1-.8l-1.5-.3zm23.2 0c-1 0-2 .5-2.7 1.2h5.2c-.3-.4-.7-.7-1-.8l-1.5-.3zm23.2 0c-1 0-2 .5-2.7 1.2h5.2c-.3-.4-.7-.7-1-.8l-1.5-.3zm811.9 0c-1 0-2 .5-2.7 1.2h5.2c-.3-.4-.7-.7-1-.8l-1.5-.3zm23.2 0c-1 0-2 .5-2.6 1.2h5.1c-.3-.4-.7-.7-1-.8l-1.5-.3zm-46.6.1c-1 0-1.8.4-2.5 1h5.4c-.8-.6-1.9-1-3-1zm-301.5 0c-1 0-2 .4-2.7 1h5.4c-.8-.7-1.7-1-2.7-1zm835.2 0c-1 0-2 .4-2.8 1h5.4c-.7-.7-1.7-1-2.6-1zm-974.4 0c-1 0-1.9.4-2.6 1h5.3c-.8-.7-1.7-1-2.7-1zm23.2 0c-1 0-1.9.4-2.6 1h5.3c-.8-.7-1.7-1-2.7-1zm23.2 0c-1 0-1.8.4-2.6 1h5.3c-.8-.7-1.7-1-2.7-1zm23.2 0c-1 0-1.8.4-2.6 1h5.3c-.8-.7-1.7-1-2.7-1zm835.2 0c-1 0-2 .4-2.6 1h5.2c-.7-.7-1.7-1-2.6-1zm-348 0a4 4 0 0 0-2.6 1h5.4c-.7-.6-1.8-1-2.8-1zm23.1 0c-1 .1-2 .5-2.6 1h5.6c-.7-.7-1.8-1-3-1zm46.4 0c-1 .1-2 .5-2.7 1H1159.6c-.6-.7-1.8-1-3-1zm-695.6 0c-1 0-2.3.3-3 .9l-.2.2h5.7c-.5-.6-1.5-1-2.5-1zm788.7 0c-1.1 0-2.3.3-3 .9l-.2.2h5.7c-.5-.6-1.5-1-2.5-1zm46.4 0c-1 0-2.3.3-3 .9l-.2.2h5.7c-.5-.6-1.5-1-2.5-1zM9.4 219.6v7.8c.6-.1 1.2-.4 1.8-.8 1.7-1.1 1.9-4.3.3-6-.5-.6-1.2-1-2-1zm19.9.8c-1 .7-1.7 1.7-1.7 3 0 1 .8 2.1 1.7 3v-6zm-8.6 10.4c-.8 0-1.7.1-2.6.6-1.4.8-2 2-2 3.4 0 2.3 1.9 4.6 4.7 4.7.2 0 1.1-.6 2-1.3 3.4-2.6 1.3-7.1-2.1-7.4zM9.5 242.3v8.3c1.5-.1 2.1-.7 3-2 1-1.9.9-3.2-.4-4.7-.8-1-1.7-1.4-2.6-1.6zm19.8 1a4.4 4.4 0 0 0-1.7 3.4 4 4 0 0 0 1.6 3.3v-6.8zm-9 10.5c-2.9 0-4.6 2-4.5 4.3 0 1 .5 2 1.4 3 2.5 2.4 5.7 2 7-1.2 1.3-3.2-.5-6-3.9-6zM9.5 265.3v8.9c1-.3 2-1 2.6-1.7 2.4-2.8.3-6.5-2.6-7.2zm19.7.7l-.4.3a4 4 0 0 0-1.4 3.3 5 5 0 0 0 1.8 3.5v-7z"/>
</svg>
