<svg xmlns="http://www.w3.org/2000/svg" viewBox="0 0 28.3 28.3">
  <path d="M10.9 28l-.1-1c0-.9 0-1 .2-1.3.2-.2.4-.3 1-.3h.7v-2.7l-2.4-.6-2.3-.6L6.3 24h.2c.3 0 .6.2.8.4l.1 1v1.1c0 .3 0 .3-3.3.3H1.2l-.2-.2-.1-.1v-.9c0-1 0-1.2.4-1.4.2-.2.3-.2 1-.2h1l1.9-3 2-3h-.4l-.5-.1-2.1-4.2 2-8.1.4-.4L7 5V3.8H7c-.5-.1-1-.5-1.2-1a1.9 1.9 0 0 1 3.1-2c.5.5.7 1.3.4 2-.1.3-.6.8-1 1H8v.7a232.4 232.4 0 0 0 6-3 42.1 42.1 0 0 1 4.4 2.1v-.4c.3-.7.8-1.5 1.4-2 .5-.4 1-.7 1.6-.9a3 3 0 0 1 1.3 0l1.2.1c1.2.4 2.2 1.4 2.7 2.7.2.6.2 1.6 0 2.3A4.2 4.2 0 0 1 23 8.5l-.2.1a101.3 101.3 0 0 0 1.1 5.1L22 18h-.5l-.4.2 2 3 1.9 2.9h.8c.8 0 1 0 1.1.2.4.2.5.4.5 1.4v.9l-.2.1-.2.2H24c-3.1 0-3.2 0-3.3-.3a8.2 8.2 0 0 1 .1-2c.2-.3.5-.5.8-.5h.2l-1.6-2.5-2.4.6-2.3.6v2.7h.6c.6 0 .8 0 1 .3.2.2.3.4.3 1.3 0 .8 0 .9-.2 1v.2H11zm5.5-1.2v-.5H11.7v1H16.4zm-9.9-1.4v-.5H1.8v1H6.5zm19.8 0v-.5H21.6v1H26.3zm-11.8-3.1v-3h-.4-.5v6h.9zM7 21.2c1.5-2.4 1.8-2.8 1.7-2.9h-.6L6.3 21 4.4 24h.8zm16.7 2.7l-1.9-2.8-1.8-2.9h-.3l-.3.1s0 .2 3 4.8l.6.9h.7zm-11-4.8l-2.8-.5s-.3.2-.7 1l-.7 1 1 .3 2 .5 1.1.3v-1.3-1.3zm4.9 2l2-.5-.4-.6a168.3 168.3 0 0 1-1-1.4 28.7 28.7 0 0 0-2.7.5 30.5 30.5 0 0 0 0 2.6l2.1-.5zm-1.7-3l1.7-4.3-3.5-.1h-3.5l1.6 4.3 1 .2.9.2.9-.2 1-.2zm-4.8-.3l-1.6-4-4 .3 1.4 3 2 .3 2.2.4zm8-.3l2-.4c.2 0 .3-.4 1-1.5l.6-1.5-4-.3-1.6 4 2-.3zM7.6 13l1.8-.2a167.8 167.8 0 0 0 1.4-6.3 134.7 134.7 0 0 1 2-3.2l-3 1.4L7 6l-.8 3.5-.8 3.5c0 .1 0 .1.2 0l2.1-.1zM23 13a387 387 0 0 1-1.2-4.6l-.6-.2c-1-.3-2-1.2-2.4-2.2l-.3-1.2v-.2L16.9 4l-1.5-.7a51.1 51.1 0 0 0 1.9 3.2 88 88 0 0 1 1.4 6.3 152.8 152.8 0 0 0 4.2.3zm-5.2-.4a41.7 41.7 0 0 0-1.2-5.4v-.1h-2.4a37 37 0 0 0-2.5 0 233.6 233.6 0 0 1-1.2 5.5l3.6.1h3.7zm5.9-5.2c1-.4 1.9-1.2 2.1-2.3.1-.4.1-1.2 0-1.6A3.3 3.3 0 0 0 20 2.4a3 3 0 0 0-.6 1.3v1.4A3.4 3.4 0 0 0 22 7.6l1.6-.1zM22 6.2l-1-.7c-.7-1-.3-2.3.8-2.8l.8-.2c.6 0 1 .2 1.3.7.9.9.6 2.4-.6 2.9-.3.1-1 .2-1.3 0zm1-1c.6-.3.6-1 .1-1.5a1 1 0 0 0-1.5.8c0 .7.8 1 1.4.7zm-7 1L14 3l-1.9 3.2h4zM7.7 3c.4-.2.7-.5.7-1 0-1-1.4-1.2-1.8-.3v.7c.1.3.3.4.6.5h.5z"/>
</svg>
