<svg xmlns="http://www.w3.org/2000/svg" viewBox="0 0 28.3 28.3">
  <g>
    <path d="M27.3 11h-2a12 12 0 0 0-7.9-7.7V1.2c0-.4-.3-.8-.7-.8h-5.2c-.4 0-.8.4-.8.8v2.1A11.7 11.7 0 0 0 3 11h-2c-.5 0-.8.3-.8.7V17c0 .4.3.8.7.8h1.9A6.5 6.5 0 0 0 5 21.2c.2 1.2.5 2.3 1 3.2a6 6 0 0 0 2 2.2c1.4 1 3.3 1.4 6 1.4 2.6 0 4.5-.4 6-1.4a6 6 0 0 0 2-2.2c.5-1 .8-2 1-3.2 1.1-.9 2-2 2.4-3.4h1.8c.4 0 .8-.4.8-.8v-5.3c0-.4-.4-.7-.8-.7zm-25 5.3h-.7v-3.8h.9a12.4 12.4 0 0 0-.2 3.8zm10-14.4h3.6v1a11.8 11.8 0 0 0-3.7 0V2zM14 26.5c-4.5 0-6.7-1.3-7.3-4.5 1.8.8 4.1 1.1 7.3 1.1 3.1 0 5.5-.3 7.3-1-.7 3-2.9 4.4-7.3 4.4zm8-6.5c-.1 0-.2 0-.3.2h-.2c-1.7 1-4 1.4-7.5 1.4s-5.9-.4-7.5-1.3c-2-1-2.9-2.8-2.9-5.4C3.7 9 8.4 4.3 14.1 4.3S24.4 9 24.4 15c0 2.3-.7 4-2.3 5zm4.5-3.7h-.8a10.8 10.8 0 0 0-.1-3.8h.9z"/>
    <path d="M20 8.2a9.5 9.5 0 0 0-6-1.9c-2.1 0-4.2.7-5.8 2A6.2 6.2 0 0 0 5.7 13c0 .9.2 1.6.5 2 .2.3.6.7 1.4 1 1.3.6 3.4 1 6.5 1 3 0 5.2-.4 6.5-1a3 3 0 0 0 1.3-1c.4-.4.6-1.1.6-2 0-1.8-1-3.6-2.5-4.9zm.7 6c0 .2-.2.4-.7.6-1.1.5-3.1.7-6 .7-2.7 0-4.7-.2-5.9-.7-.5-.2-.6-.4-.7-.5a2 2 0 0 1-.2-1.2c0-1.4.6-2.7 2-3.7A8 8 0 0 1 14 7.8a8 8 0 0 1 5 1.6c1.2 1 2 2.3 2 3.7 0 .5-.2 1-.4 1.2z"/>
  </g>
</svg>
