<?xml version="1.0" encoding="UTF-8" standalone="no"?>
<!-- Created with Inkscape (http://www.inkscape.org/) -->

<svg
   xmlns:dc="http://purl.org/dc/elements/1.1/"
   xmlns:cc="http://creativecommons.org/ns#"
   xmlns:rdf="http://www.w3.org/1999/02/22-rdf-syntax-ns#"
   xmlns:svg="http://www.w3.org/2000/svg"
   xmlns="http://www.w3.org/2000/svg"
   xmlns:sodipodi="http://sodipodi.sourceforge.net/DTD/sodipodi-0.dtd"
   xmlns:inkscape="http://www.inkscape.org/namespaces/inkscape"
   width="37.297001mm"
   height="37.297001mm"
   viewBox="0 0 37.297001 37.297001"
   version="1.1"
   id="svg4560"
   inkscape:version="0.92.4 5da689c313, 2019-01-14"
   sodipodi:docname="logo.svg">
  <defs
     id="defs4554" />
  <sodipodi:namedview
     id="base"
     pagecolor="#ffffff"
     bordercolor="#666666"
     borderopacity="1.0"
     inkscape:pageopacity="0.0"
     inkscape:pageshadow="2"
     inkscape:zoom="2.8"
     inkscape:cx="26.49826"
     inkscape:cy="7.9166744"
     inkscape:document-units="mm"
     inkscape:current-layer="layer1"
     showgrid="false"
     fit-margin-top="0"
     fit-margin-left="0"
     fit-margin-right="0"
     fit-margin-bottom="0"
     inkscape:window-width="2558"
     inkscape:window-height="1416"
     inkscape:window-x="0"
     inkscape:window-y="22"
     inkscape:window-maximized="0" />
  <metadata
     id="metadata4557">
    <rdf:RDF>
      <cc:Work
         rdf:about="">
        <dc:format>image/svg+xml</dc:format>
        <dc:type
           rdf:resource="http://purl.org/dc/dcmitype/StillImage" />
        <dc:title></dc:title>
      </cc:Work>
    </rdf:RDF>
  </metadata>
  <g
     inkscape:label="Layer 1"
     inkscape:groupmode="layer"
     id="layer1"
     transform="translate(-96.81806,-121.30751)">
    <circle
       style="fill:#d0d0e0;fill-opacity:1;stroke-width:0.34593254"
       id="path4572"
       cx="115.46656"
       cy="139.95601"
       r="18.6485" />
    <path
       style="fill:#302947;fill-opacity:1;stroke-width:0.26458332"
       d="m 113.92705,152.67408 c -0.0585,-0.0532 -0.054,-0.12968 0.0204,-0.3507 0.25973,-0.77125 0.3313,-1.66832 0.20394,-2.55616 -0.1475,-1.02815 -0.55648,-1.95449 -1.18245,-2.67818 -0.14345,-0.16585 -0.26443,-0.33155 -0.26883,-0.36824 -0.005,-0.0367 0.24637,-0.25289 0.55729,-0.48047 0.91261,-0.66798 2.06016,-1.70524 2.79663,-2.52783 0.13979,-0.15614 0.28851,-0.27375 0.33312,-0.26344 0.10937,0.0253 0.30148,0.93381 0.35425,1.67534 0.18244,2.56386 -0.56068,5.00341 -2.10584,6.91321 -0.50554,0.62485 -0.61416,0.72243 -0.70853,0.63647 z m -9.93999,0.23593 c -0.1317,-0.0993 -0.11156,-0.28078 0.0549,-0.49451 0.12848,-0.16496 0.19192,-0.20478 0.30672,-0.1925 0.24144,0.0258 0.28458,0.24354 0.0987,0.49821 -0.1597,0.21882 -0.32863,0.28811 -0.46034,0.1888 z m 2.02101,-0.79825 c -0.13446,-0.15351 -0.10637,-0.23035 0.25089,-0.68635 0.32709,-0.4175 0.40907,-0.46804 0.58635,-0.36145 0.19984,0.12015 0.1512,0.30155 -0.20093,0.74937 -0.33135,0.42139 -0.47117,0.48696 -0.63631,0.29843 z m 1.58554,-0.26637 c -0.0562,-0.0603 -0.10532,-0.13204 -0.10916,-0.15948 -0.004,-0.0274 0.18669,-0.31204 0.42342,-0.63246 0.45612,-0.61735 0.59321,-0.70763 0.7763,-0.51124 0.1399,0.15008 0.0731,0.30494 -0.38637,0.89622 -0.39939,0.51391 -0.53267,0.59095 -0.70419,0.40696 z m -2.94832,0.19166 c -0.18511,-0.13958 -0.0952,-0.29624 1.01074,-1.76201 1.10439,-1.46366 1.23131,-1.59418 1.41532,-1.45544 0.184,0.13875 0.0934,0.29667 -1.01001,1.76105 -1.10503,1.4665 -1.23093,1.59599 -1.41605,1.4564 z m 2.42519,-1.32895 c -0.0393,-0.0538 -0.0759,-0.12944 -0.0813,-0.16805 -0.0106,-0.0755 3.33639,-4.55594 3.489,-4.67052 0.12362,-0.0928 0.37634,0.0264 0.39904,0.18827 0.0119,0.0849 -0.48821,0.79081 -1.70978,2.41314 -1.42908,1.89791 -1.75238,2.29668 -1.87608,2.31403 -0.0918,0.0129 -0.17701,-0.0168 -0.2209,-0.0769 z m 1.7339,-0.42525 c -0.0412,-0.031 -0.082,-0.10744 -0.0907,-0.16981 -0.0189,-0.13457 2.59665,-3.6276 2.73033,-3.64634 0.1382,-0.0194 0.3108,0.15914 0.2948,0.30491 -0.008,0.0713 -0.59272,0.89459 -1.29975,1.82945 -1.31325,1.73641 -1.41855,1.84474 -1.63465,1.68179 z m -4.53087,0.47477 c -0.0582,-0.0238 -0.1126,-0.10705 -0.12427,-0.19032 -0.017,-0.12113 0.23332,-0.48483 1.37836,-2.00274 1.14529,-1.51822 1.426,-1.85849 1.54725,-1.8755 0.16467,-0.0231 0.3093,0.12263 0.28192,0.28404 -0.0246,0.14517 -2.80543,3.80609 -2.89959,3.8173 -0.0441,0.005 -0.12674,-0.01 -0.18367,-0.0328 z m -0.44912,-1.39347 c -0.19997,-0.15079 -0.12352,-0.31766 0.56215,-1.227 0.59375,-0.78744 0.69476,-0.89634 0.83466,-0.89982 0.11583,-0.003 0.17945,0.0354 0.23371,0.14076 0.0713,0.13846 0.0441,0.18512 -0.62779,1.07779 -0.69397,0.92194 -0.826,1.04153 -1.00273,0.90827 z m 3.50085,-0.88126 c -0.0412,-0.031 -0.0819,-0.10705 -0.0906,-0.16893 -0.0189,-0.13491 2.26552,-3.19173 2.39928,-3.21049 0.10461,-0.0147 0.2916,0.13195 0.30683,0.24059 0.0178,0.12707 -2.3003,3.16154 -2.42898,3.17959 -0.0614,0.009 -0.14537,-0.01 -0.18652,-0.0408 z m 2.79949,-3.71341 c -1.28911,-0.97235 -2.10983,-1.62745 -2.11877,-1.69119 -0.0158,-0.11251 0.32584,-0.92847 0.80819,-1.93038 3.4791,-7.22654 9.94714,-13.83035 15.65647,-15.9851 0.34176,-0.12899 0.36807,-0.13175 0.4764,-0.0501 0.1083,0.0817 0.1129,0.10781 0.083,0.47177 -0.19292,2.34911 -1.04464,5.1785 -2.40672,7.99512 -2.02012,4.17737 -5.18376,8.36395 -8.65554,11.45427 -0.83199,0.74056 -1.52118,1.2922 -1.63422,1.30805 -0.0646,0.009 -0.91078,-0.59338 -2.20882,-1.57247 z m 9.39983,-9.24652 c 1.25439,-0.64876 1.56804,-2.28421 0.64298,-3.35277 -1.17903,-1.36195 -3.45305,-0.70524 -3.75165,1.08343 -0.11627,0.69641 0.17366,1.50123 0.7076,1.96424 0.66432,0.57607 1.63794,0.69979 2.40107,0.3051 z m -1.45101,-0.37706 c -0.3175,-0.0973 -0.7315,-0.40868 -0.81408,-0.61233 -0.12207,-0.30105 0.11922,-0.49922 0.55117,-0.45267 0.52779,0.0569 0.98072,-0.0976 1.48511,-0.50663 0.34251,-0.27774 0.55736,-0.33019 0.70478,-0.17204 0.14183,0.15214 0.15515,0.33731 0.0487,0.67776 -0.19423,0.6214 -0.65427,1.01071 -1.30158,1.10148 -0.28644,0.0402 -0.45613,0.0312 -0.67412,-0.0356 z m -12.47194,11.86128 c -0.0686,-0.0517 -0.13067,-0.13653 -0.13795,-0.18846 -0.0204,-0.14572 2.1956,-3.05539 2.34273,-3.07602 0.16214,-0.0227 0.34649,0.18713 0.29143,0.33177 -0.0646,0.1698 -2.23289,3.00731 -2.30582,3.01753 -0.0361,0.005 -0.1218,-0.0331 -0.19039,-0.0848 z m 2.04615,-0.77923 c -0.0575,-0.048 -0.11122,-0.13498 -0.11939,-0.19323 -0.0213,-0.15178 1.05746,-1.56492 1.21104,-1.58646 0.14323,-0.0201 0.31367,0.14666 0.29685,0.29041 -0.0165,0.1409 -1.09904,1.55066 -1.20182,1.56507 -0.0452,0.006 -0.12919,-0.0278 -0.18668,-0.0758 z m -0.41593,-3.50078 c -0.62924,-0.33728 -1.81193,-0.55981 -2.69959,-0.50795 -0.83248,0.0486 -2.01744,0.46367 -2.72364,0.95394 -0.21236,0.14744 -0.26054,0.16275 -0.33515,0.10649 -0.0746,-0.0563 -0.0454,-0.13115 0.20299,-0.52101 1.10922,-1.74082 2.90132,-3.16438 4.8542,-3.85597 1.11387,-0.39447 3.03431,-0.71077 3.14139,-0.5174 0.0226,0.0409 -0.0484,0.21404 -0.1613,0.39338 -0.5883,0.93432 -1.26991,2.3229 -1.66111,3.38404 -0.14499,0.39328 -0.27535,0.66139 -0.32454,0.66745 -0.0452,0.006 -0.17718,-0.0408 -0.29325,-0.10297 z"
       id="path934-5"
       inkscape:connector-curvature="0" />
  </g>
</svg>
