<svg xmlns="http://www.w3.org/2000/svg" viewBox="0 0 28.3 28.3">
  <g>
    <path d="M21.6 10.8a10.3 10.3 0 0 0-6.8-3.2v-2h2l2.8 1.2a.7.7 0 0 0 1-.7V2.4c0-.3-.2-.5-.4-.6l-3-1.3-.2-.1h-3c-.4 0-.7.3-.7.7v6.5a10.3 10.3 0 0 0-9.6 10 10.2 10.2 0 0 0 6.3 9.8 10.3 10.3 0 0 0 14.4-9.2c0-2.8-1-5.4-2.8-7.4zm-6.8-8.4V2h2l2.3 1v2l-1.8-.8h-2.5zm-6.9 9c.2 0 .4-.2.6-.4l.1.1a3 3 0 0 1-3.1 4.6c.4-1.6 1.2-3 2.4-4.2zm12.3 12.9a8.9 8.9 0 0 1-6.1 2.4 8.8 8.8 0 0 1-8.9-9.6 4.6 4.6 0 0 0 3.2-.6 4.5 4.5 0 0 0 1.3-6.3A8.8 8.8 0 0 1 22 14a3.6 3.6 0 0 0-1.6 5.9c.5.5 1.2 1 2 1a8.8 8.8 0 0 1-2.2 3.4zm2.7-6.2l-.1 1.4a2.1 2.1 0 0 1-.2-4.2c.2 1 .4 1.8.3 2.8z"/>
    <path d="M16 19.3a3.1 3.1 0 0 0-5.4 2c0 .9.3 1.6.9 2.2a3.1 3.1 0 0 0 4.4.1 3 3 0 0 0 0-4.3zm-1.2 3.3a1.6 1.6 0 0 1-2.2-2.4 1.6 1.6 0 0 1 2.2 2.4z"/>
  </g>
</svg>
