<svg xmlns="http://www.w3.org/2000/svg" viewBox="0 0 28.3 28.3">
  <g fill="#bdc9da">
    <path d="M21.3 7a2.7 2.7 0 0 0-3.8 0 2.7 2.7 0 0 0 0 3.8c.5.5 1.2.8 2 .8A2.7 2.7 0 0 0 22 8.9c0-.7-.3-1.4-.8-2zm-1 2.7l-.9.3A1.2 1.2 0 0 1 18.3 9a1.2 1.2 0 0 1 1.1-1.2c.3 0 .6.1.9.4.4.4.4 1.2 0 1.6zM.8 23.2a.7.7 0 0 1-.6-1.3l4.4-4.4a.8.8 0 0 1 1 1.1L1.3 23l-.5.2zM1.7 27.3a.7.7 0 0 1-.5-1.2l4.5-4.6a.8.8 0 1 1 1 1l-4.4 4.6c-.2.2-.4.2-.6.2zM5.9 28.3a.7.7 0 0 1-.5-1.3l4.3-4.3a.8.8 0 0 1 1 1l-4.3 4.4-.5.2z"/>
    <path d="M28 .2a.8.8 0 0 0-.6-.2 27.8 27.8 0 0 0-9.7 3.7C16 4.7 14.3 6 13 7.4l-5.7 1-.4.3-5.1 5.1a.8.8 0 0 0 .6 1.3l5.8-1.2-1 2.3c-.1.3 0 .7.1.9l1.5 1.4-1.4 1.3a.8.8 0 1 0 1.1 1l1.3-1.2 1.4 1.4a.8.8 0 0 0 .9.1l2.3-1-1.2 5.8a.8.8 0 0 0 1.3.7l5.1-5.2.2-.4 1.1-5.7A24.8 24.8 0 0 0 27 6c1-2.9 1.4-5 1.4-5 0-.3 0-.5-.2-.7zm-23.4 13l3.2-3.3 3.5-.7-2.1 3zm13.8 7.3l-3.2 3.2.9-4.6 3-2zm7-15.1A23.3 23.3 0 0 1 12 19.6l-1-1.1 2.1-2.2a.8.8 0 0 0-1-1l-2.2 2.1-1-1a28.5 28.5 0 0 1 5.1-7.9 26 26 0 0 1 12.7-6.8 30 30 0 0 1-1.2 3.7z"/>
  </g>
</svg>
