<svg xmlns="http://www.w3.org/2000/svg" viewBox="0 0 186.5 86.6">
  <path fill="#14264b" d="M31.1 2v9.8l-1.3-.7v6l1.3.7 1.5.8h-1.5V39h15.4v-9.7l-5.4-3v7.3h-4.5V21l5.5 3.2v-6l-5.5-3V7.4h4.5v6h5.4V2H31.1zm18.3 0v37h15.3v-9.7l-5.4-3v7.3H55V2h-5.5zm28.2 0v32.6l1 .5 6.7 4 6-3.5 1.7-1V2h-5.4v29.8l-2.3 1.3-2.3-1.3V2h-5.4zm18.7 0v9.8L95 11v6l1.4.7 1.6 1h-1.6V39h5.4V20.8l1.4.8v-5.9l-1.4-.8V2h-5.4zm9.7 0v37h5.4V21l4.5 2.5 1.6 1H116V39h5.4V2H106zm28.1 0v31.6h-4.5V20.7l-5.4-3.2V39h15.3V2h-5.4zm8.7 0v9.8l-1.4-.7v6l1.4.7 1.4.8H143V39h15.4v-9.7l-5.5-3v7.3h-4.5V21l5.5 3.2v-6l-5.5-3V7.4h4.5v6h5.5V2h-15.5zm-31.4 5.6h4.5v10l-4.5-2.6V7.6zm-109 42v37h10.3l5-2.9V52.4l-5-2.8H2.4zm18.5 0v10l-1.4-.9v6l1.4.7 1.4.8H21v20.4h15.3V77l-5.4-3v7.3h-4.5V68.4l5.6 3.2v-5.9l-5.5-3V55H31v6h5.4V49.6H21zm18.2 0v37h15.4V77l-5.4-3v7.3h-4.6V49.6h-5.4zm28.3 0v37H73V68.4l4.5 2.6 1.6 1h-1.6v14.6h5.4v-37H67.4zm18.6 0v10l-1.4-.9v6l1.4.7 1.4.8H86v20.4h5.4v-18l10 5.6V49.6H86zm18.2 0v37h15.4v-37h-15.4zm18.2 0v37H138V77l-5.4-3v7.3H128V49.6h-5.5zm18.3 0v37H156v-37h-15.3zm30.1 0l-2.9 7.7h4.6l-1.6 1v28.3h5.4v-37H171zm10.2 0l-2.8 7.7h4.5l-1.6 1v28.3h5.4v-37h-5.4zM8 55.1h2.7l1.7 1v24.2l-1.7 1H7.8L8 55.1zm65 0h4.5v10.1L73 62.5v-7.4zm18.6 0h4.5v10.1l-4.6-2.6.1-7.5zm18.3 0h4.5v26.2H110V55.1zm36.4 0h4.5v26.2h-4.5V55.1z" />
  <path fill="#fff" stroke="#14264b" stroke-width=".6" d="M29 0v9.7L27.6 9v6l1.4.8 1.4.8H29V37h15.4v-9.7l-5.4-3v7.3h-4.6V18.7L40 22v-6l-5.6-3.2V5.3H39v6h5.4V0H29zm18.3 0v37h15.3v-9.8l-5.4-3v7.3h-4.5V0h-5.4zm28.2 0v32.6l1 .5 6.7 4 6-3.6 1.7-1V0h-5.4v29.8l-2.3 1.3-2.3-1.3V0h-5.4zm18.6 0v9.7L93 9v6l1.3.7 1.7 1h-1.7V37h5.5V18.7l1.3.8v-5.9l-1.3-.8V0h-5.6zm9.7 0v37h5.5V18.6l4.5 2.7 1.6 1H114v14.5h5.4V0h-15.5zM132 0v31.6h-4.5v-13l-5.4-3.2V37h15.3V0H132zm8.7 0v9.7l-1.4-.8v6l1.4.8 1.4.8h-1.4V37h15.4v-9.7l-5.5-3v7.3h-4.5V18.7l5.5 3.2V16l-5.5-3.2V5.3h4.5v6h5.5V0h-15.4zm-31.4 5.3h4.5v10.1l-4.5-2.6V5.3zM3.3 47.5l-3 .1v37h10.3l5-2.9V50.3l-5-2.8H3.2zm39.2 0l-5.4.1v37h15.4V75L47 72v7.3h-4.5V47.5zm28.4 0l-5.6.1v37H71V66.3l4.5 2.6 1.5 1h-1.5v14.6h5.4v-37H71zm55 0l-5.5.1v37H136V75l-5.4-3v7.3H126V47.5zm-107 .1v9.8l-1.4-.8v6l1.3.7 1.5.8h-1.5v20.5h15.4V75l-5.4-3v7.3h-4.5v-13l5.5 3.2v-5.9l-5.5-3.2V53h4.5v6h5.4V47.6H18.8zm65.1 0v9.8l-1.4-.8v6l1.4.7 1.4.8H84v20.5h5.4V66.4l10 5.7V47.6H84zm18.2 0v37h15.4v-37h-15.4zm36.4 0v37H154v-37h-15.4zm30.2 0l-2.9 7.5h4.6l-1.6 1v28.5h5.4v-37H169zm10.2 0l-2.9 7.5h4.6l-1.6 1v28.5h5.4v-37h-5.4zM5.6 53h3l1.6 1v24.2l-1.7 1H5.6V53zm65.2 0h4.5v10l-4.5-2.5V53zm18.6 0H94v10l-4.5-2.6V53zm18.2 0h4.6v26.2h-4.6V53zm36.5 0h4.5v26.2h-4.5V53z" />
  <path fill="#1cd3f2" fill-opacity=".8" d="M30.5 1.5v.1l-.2.1c0 .3.2.3.4.3v-.4zm9 0v.1l-.3.1c0 .3.2.3.4.3v-.4zm3 0v.1l-.3.1c0 .3.2.3.4.3v-.4zm92 0v.1l-.2.1c0 .3.2.3.4.3v-.4zm8.7 0v.1l-.2.1c0 .3.2.3.4.3v-.4zm6 0v.1l-.3.1c0 .3.2.3.4.3v-.4zm3 0v.1l-.4.1c0 .3.2.3.4.3v-.4zm-118.7.1l-.2.1c0 .3.1.3.3.3l.1-.3zm3 0l-.2.1c0 .3.1.3.3.3l.1-.3zm11.8 0V2h.2l.1-.3h-.2zm3.1 0l-.3.1c0 .3.2.3.4.3l.1-.3zm26.7 0v.2c0 .1 0 .2.2.2s.2-.3 0-.4zm8.8 0c0 .3.3.4.4.2v-.2H87zm3 0a.2.2 0 0 0 0 .2zm6 0s-.2 0-.2.2V2c.1.1.4.1.4 0v-.3zm9 0V2c.2 0 .2-.4 0-.4zm3 0s-.3 0-.3.2.2.2.4.2c.1 0 .1-.4 0-.4zm3 0c-.2 0-.3 0-.3.2s.2.2.3.2c.2 0 .2-.4 0-.4zm3 0c-.2 0-.4 0-.4.2s.2.2.4.2.1-.4 0-.4zm3 0c-.2 0-.4 0-.4.2s.2.2.4.2c.1 0 .1-.4 0-.4zm29.3 0l-.2.1c0 .3.1.3.3.3l.1-.3zm8.8 0l-.2.1c0 .2 0 .3.2.3zM32 3l-.2.3c0 .1.2.3.4.1.1 0 .1-.3 0-.4zm2.7 0v.3c0 .1.2.3.4.1V3h-.2zm3 0v.3c0 .1.1.3.3.1.2 0 .2-.3 0-.4zm3 0v.3c0 .1.1.3.3.1.2 0 .1-.3 0-.4zm9 0l-.2.3c0 .1.3.3.5.1.1 0 .1-.3 0-.4zm26.8 0v.6h.3v-.5h-.2zm3.1 0c-.2 0-.3.1-.3.3 0 .2.3.3.4.1v-.3zm9 0c-.3 0-.4.1-.4.3 0 .2.1.3.3.2.2 0 .2-.4 0-.5zm8.7 0v.3c0 .2.2.3.4.2v-.4h-.2zm9 0s-.2 0-.2.3c0 .2 0 .3.3.2.2 0 .2-.3 0-.4zm3 0c-.2 0-.3 0-.3.3 0 .2.1.3.3.2.2 0 .3-.3.1-.4zm2.8 0v.3c0 .2.2.3.4.1v-.2s0-.2-.2-.2zm3 0v.3c0 .2.2.3.3.1l.1-.2-.2-.2zm3 0l-.2.3v.1l.2.1zm18 0l-.5.2c0 .3.3.4.5.3.1-.2.1-.3 0-.4h-.2zm5.6 0v.4c0 .1.2.2.3 0 .2 0 .1-.3 0-.4zm2.7 0v.3c0 .1.2.3.4.1.1 0 0-.3 0-.4h-.2zm3 0v.3c0 .1.1.3.3.1.2 0 .2-.3 0-.4zm3 0v.3c0 .1.1.3.3.1.2 0 .1-.3 0-.4h-.2zm3 0l-.2.3c0 .1.2.3.4.1.2 0 .1-.3 0-.4h-.2zm-20.4.2v.4c.3-.2.3-.3.1-.4zM78.1 4.5l.1.1H78v.1c0 .2.2.4.4.3l.1-.3zm-47.5.1s-.2.1-.2.3v.2h.4c.2-.2.2-.3 0-.5zm2.8 0v.5zm9.1 0l-.2.2V5c.2.2.2.2.4.1.2 0 0-.5 0-.5zm6 0v.5c.2 0 .1-.5 0-.5zm3 0l-.4.1v.1c0 .2.2.4.4.3.2-.2.1-.5 0-.5zm35.7 0c-.2 0-.3.1-.3.2l.1.3h.3c.2-.2.1-.5 0-.5zm8.8 0c-.2 0-.3.1-.3.2s0 .2.2.3h.3c.2-.2 0-.5 0-.5zm9 0zm0 0v.5h.2c.1-.2.1-.2 0-.4zm3 0zm0 0l-.3.1c0 .2 0 .4.2.4h.2c.2-.2.2-.2.1-.4zm8.8 0l-.2.2V5c.2.2.3.2.4 0 .2 0 .2-.2 0-.3zm17.8 0l-.2.3c0 .1 0 .2.2.3l.2-.2c.2 0 0-.4-.2-.4zm8.7 0s-.2.1-.2.3v.2h.4c.2-.2.2-.3 0-.5zm8.6 0l-.2.1V5c0 .1.2.3.4.2.2 0 0-.5 0-.5zm3.2 0c-.2 0-.2.1-.2.2V5l.2.1zM41 6l-.2.3c0 .3.2.4.4.3.2 0 .2-.4 0-.5H41zm9 0l-.2.3c0 .1 0 .3.2.3h.3c.2 0 0-.6-.3-.6zm47.6 0l-.2.4c0 .2.3.3.5.1 0 0 0-.4-.2-.4zm9 0c-.2 0-.3.2-.3.4s.4.3.5.1c.1 0 0-.4-.2-.4zm9 0c-.3 0-.4.2-.4.4s.4.3.5.1c.1 0 0-.4-.2-.4zm2.7 0a.3.3 0 0 0-.2.4c0 .1 0 .2.2.2zm35.3 0l-.2.3c0 .3.2.4.4.3.2 0 .1-.4 0-.5h-.2zM32.1 6c-.2 0-.3.2-.3.4s.2.3.4.2v-.5zm47.5 0l-.2.3c0 .2 0 .3.2.3h.3v-.5h-.3zm9 0l-.3.3c0 .3.2.4.4.2l.1-.2zM133 6v.6h.1c.2 0 .2-.5 0-.5zm3 0c-.2 0-.3.2-.3.4s.2.3.4.2v-.5zm6 0c-.2 0-.3 0-.3.2v.3h.3c.2 0 .2-.4 0-.4zm2.7 0c-.2 0-.3.2-.3.4s.1.3.4.2v-.5zm-68.2.1v.5h.3V6zM42.4 7.3v.2l-.2.2c0 .2.2.3.4.1.2 0 .2-.2 0-.4zm-.2.4zm36-.4v.2l-.3.1c0 .3.3.4.5.2.1-.2.1-.2 0-.4zm79.7 0l.1.2s-.2 0-.3.2l.3.2v-.5zm-.2.4zM51.3 7.4l.1.1c-.2 0-.2 0-.3.2.1.2.3.3.5.1v-.2zm-.2.3zm-20.5-.2c-.2 0-.3 0-.4.2v.1c0 .3.4.4.6.2.1 0 0-.3 0-.4h-.2zm2.8 0l-.2.2v.1c0 .2 0 .2.2.3zm15 0v.6h.2c.2-.2.2-.3 0-.5zm38.5 0v.3c0 .2.1.4.3.3.2 0 .2-.5 0-.6zm3 0v.1zm65.1 0s-.2 0-.3.2l.3.2zm-.3.2zM41 8.9s-.3.1-.3.3l.1.2c.2.2.3.2.5 0V9zm9 0c-.2 0-.3.1-.3.3v.2c.2.2.3.2.5 0V9zm29.7 0l-.3.3c.1.3.3.4.5.3V9h-.2zm9 0c-.3 0-.4.2-.4.3 0 .3.3.4.5.3.2-.2.2-.5 0-.6zm8.8 0c-.2 0-.3.2-.3.3 0 0 0 .2.2.2.2.2.2.2.4 0s0-.5-.3-.5zm8.8 0v.6h.4c.2-.3.1-.4 0-.5h-.2zm9 0l-.2.3.1.2c.2.2.2.2.4 0s.1-.5-.2-.5zm3 0l-.3.3c0 .1 0 .2.2.3l.1-.6zm23.6 0v.6h.3c.2-.3.2-.6 0-.6zm11.7 0c-.2 0-.3.1-.3.3l.1.2c.2.2.3.2.5 0V9zM32 9s-.2.1-.2.3l.1.3h.3c.2-.3.2-.5 0-.6zm44.6 0v.6h.2c.2 0 .2-.5 0-.6zm56.5 0v.6h.1c.2-.3.2-.5 0-.6zm3 0c-.3 0-.3.1-.4.3 0 0 0 .2.2.3h.3c.2-.3.1-.5 0-.6zm8.6 0c-.2 0-.3.1-.3.3 0 0 0 .2.2.3h.3c.2-.3.1-.5 0-.6zM87 10.2v.1l-.2.2v.2c0 .2.3.4.5.2v-.3c0-.2 0-.4-.3-.4zm9 0v.1l-.4.2v.2c0 .2.3.4.6.2v-.3c0-.2 0-.4-.3-.4zm-65.5.1l-.2.2v.2c0 .2.2.4.4.3l.1-.3c0-.2 0-.3-.3-.3zm3 0l-.3.2v.2s0 .2.2.2zm9 0l-.2.1h.1zm9 0c-.3 0-.4.2-.4.4s0 .3.2.3h.3v-.5h-.2zm26.6 0c-.2 0-.2.1-.2.4 0 .2 0 .3.2.3h.3l.1-.3c0-.2 0-.3-.3-.3zm29.8 0c-.2 0-.4.2-.4.4v.1c.2.2.4.2.5.2.1 0 .2-.2.1-.4 0-.2 0-.2-.2-.2zm9 0c-.3 0-.5.2-.5.3l.1.3h.5v-.5h-.2zm17.6 0l-.2.2v.2c0 .2.2.4.4.3l.1-.3c0-.2 0-.3-.3-.3zm8.7 0l-.2.2v.2c0 .2.2.4.4.3l.1-.3c0-.2 0-.3-.3-.3zm-94.8.1v.6h.2c.2-.2.1-.5 0-.6zm56.5 0v.6h.2v-.4c0-.2 0-.2-.2-.2zm-15 .1l-.2.2.1.2zM29 11.8l-.3.3c0 .3.4.5.6.3.2-.2 0-.6-.3-.6zm3 0l-.3.3c0 .4.4.6.6.3v-.3s0-.3-.3-.3zm18 0zm0 0c-.3 0-.5.2-.5.3 0 .4.4.5.6.3l.2-.2c0-.2-.2-.3-.4-.4zm26.6 0v.7h.3c.2-.3.2-.4 0-.6zm3 0s-.3.1-.3.4c0 .3.3.4.6.2V12zm9 0c-.3 0-.4.1-.4.3 0 .4.4.5.6.2V12zm5.8 0h.1zm0 0c-.1 0-.3.1-.3.3 0 .4.4.5.6.2V12zm3.1 0s-.2 0-.3.2v.4c.1.1.3.2.5 0v-.2c0-.3 0-.4-.2-.4zm9 0c-.3 0-.5.2-.5.4 0 .3.4.4.6.2.2-.2 0-.6-.2-.6zm8.8 0c-.2 0-.4.2-.4.4.1.3.4.4.6.2.2-.2.1-.6-.2-.6zm3 0l-.3.1v.3c0 .2 0 .2.2.3zm14.8 0v.7h.2c.2-.3 0-.7-.2-.7zm3 0c-.2 0-.5.2-.5.4s.5.4.7.2c.2-.2 0-.6-.3-.6zm5.8 0h.1zm0 0l-.3.3c0 .3.4.5.6.3.2-.2 0-.5-.2-.6zm2.8 0l-.4.3c0 .4.5.5.7.3v-.3zM30.5 13.2l-.4.4.4.4h.3l.1-.4zm3 0l-.4.4.4.4h.2l.1-.2-.4-.5zm18 0c-.3 0-.4.2-.5.3v.2c0 .2.3.4.5.3h.1v-.6h-.3zm26.6 0v.2l-.3.2c0 .3.3.5.5.4.2 0 .2-.2.2-.4s0-.3-.3-.3zm9 0l-.2.2c-.2 0-.2.1-.2.2l.1.3c.2.1.2.1.4 0 .1 0 .2 0 .2-.3 0-.2 0-.3-.3-.3zm8.8 0l-.4.4.2.3c.1.1.2.1.4 0 .3 0 .2-.5 0-.6H96zm12 0c-.2 0-.4.2-.4.4 0 .4.3.5.5.3.2 0 .2-.2.2-.3 0 0 0-.2-.2-.2h-.2zm9 0c-.3 0-.5.2-.5.4 0 .4.3.5.5.3l.2-.3s0-.2-.2-.2h-.2zm17.6 0c-.2 0-.3.3-.3.5 0 .1 0 .2.2.3.1 0 .4 0 .5-.2v-.2s0-.4-.3-.4zm6 0l-.2.1a2.5 2.5 0 0 0 .2.7h.2l.2-.4zm2.7 0l-.4.4.4.4h.3l.1-.4zm-94.7.1v.7h.1l.1-.4c0-.1 0-.3-.2-.3zm41.3 0l-.2.3c0 .1 0 .2.2.3v-.5zm9 0l-.2.3c0 .4.3.5.6.3zm6.1 0v.7h.2l.2-.4-.2-.2zM32 14.8c-.2 0-.3.1-.3.3 0 .3.4.5.6.3v-.3c0-.2 0-.3-.3-.3zm3 0c-.2 0-.4.1-.4.3 0 .3.4.5.7.3v-.3c0-.2 0-.3-.3-.3zm15 0c-.3 0-.5.1-.5.3 0 .3.4.5.7.3v-.3c0-.2 0-.3-.3-.3zm26.6 0v.7h.4V15c0-.2 0-.3-.3-.3zm3.1 0c-.3 0-.4 0-.4.3s.3.5.6.3v-.6zm9 0c-.3 0-.5 0-.5.2v.1c0 .3.4.5.6.3.2-.2.1-.5 0-.6zm5.8 0l.3.1zm-58 1.4v.1c-.2 0-.4.2-.4.4 0 .3.4.5.7.3v-.4c0-.2 0-.4-.3-.4zm109.7 0v.1c-.2 0-.4.2-.4.4 0 .3.4.5.7.3v-.4c0-.2 0-.4-.3-.4zm-112.7.1c-.2 0-.4.2-.4.4s.1.3.3.4h.4l.1-.4c0-.2-.2-.4-.4-.4zm18 0l-.5.2v.2c0 .3.3.5.6.3v-.6h-.2zm26.6 0c-.2.1-.3.2-.3.4s0 .3.3.4h.3l.2-.4-.2-.2c0-.2 0-.2-.2-.2zm8.8 0l-.2.4c0 .2 0 .3.2.4h.4l.2-.4-.2-.2c0-.2 0-.2-.2-.2zm3 0l-.3.4.2.4zm9 0s-.2 0-.3.2v.4l.1.1h.4c.2 0 .2 0 .2-.3s-.2-.4-.4-.4zm6 0v.8h.2l.2-.4c0-.2-.2-.4-.4-.4zm3 0s-.3 0-.4.2v.4c.2.2.3.3.6.1l.1-.3c0-.3 0-.4-.3-.4zm2.8 0v.1l-.3.3.1.3h.6c.2 0 .1-.6-.2-.7zm6 0l-.2.1-.2.3s0 .2.2.3h.5c.3-.3 0-.7-.2-.7zm17.8 0s-.4.2-.4.4.3.4.4.4h.3l.1-.4c0-.2-.2-.4-.4-.4zm14.7 0c-.2 0-.4.2-.4.4 0 .3.4.5.6.3l.2-.3c0-.2-.3-.4-.4-.4zm-100.8.1v.7h.2l.2-.4s0-.2-.2-.3zm65 .1v.2l.1.3h.6zM32 17.6l-.3.2v.6l.3.1h.3l.2-.4-.2-.3zm3 0l-.2.1.6.4v-.3zm3 0l-.3.2-.2.3.2.3.3.1h.3l.1-.4v-.3zm12 0c-.3 0-.5.3-.5.5v.1c.1.4.6.4.7 0v-.5h-.3zm26.6 0v1h.3c.2-.4.2-.7 0-.8h-.2v-.2zm3.1 0s-.2 0-.3.2l-.2.3c0 .1.1.3.3.3.2.2.2.1.4 0v-.6h-.2zm9 0l-.3.1c-.2.1-.3.3-.3.4 0 .1 0 .2.2.3.2.1.2.1.4 0 .3 0 .3-.4 0-.6zm8.6 0v.2c-.2 0-.2.2-.2.3 0 .1 0 .2.2.3.2.1.2.1.4 0 .2-.2.2-.5 0-.7h-.2zm9 0l-.3.3v.2c0 .3.3.5.6.3l.2-.3c0-.3-.3-.4-.5-.4zm6 0c-.2 0-.4.3-.4.5 0 .1 0 .2.2.3.1.2.3.2.5 0l.1-.3c0-.2-.3-.5-.4-.5zm3 0c-.3 0-.4.3-.4.5l.1.3c.2.2.4.2.5 0l.2-.3c0-.2-.3-.5-.4-.5zm3 0c-.3.1-.5.3-.5.5s0 .3.2.3l.2.1zm5.7 0c-.2.2-.2.4-.2.5l.1.3c.2.2.3.2.5 0l.2-.3-.6-.4zm9.1 0v1l.2-.2.2-.3c0-.2-.3-.5-.4-.5zm3 0zm0 0c-.3 0-.5.3-.5.5s0 .3.2.3c.2.2.3.2.5 0v-.5zm5.8 0v1l.3-.2.2-.3s0-.2-.2-.3zm2.8 0l-.3.2v.6l.3.1h.3v-.7zm3 0l-.3.2-.2.3v.1l.5.3h.2l.2-.4s0-.2-.2-.3zm3 0l-.3.2-.2.3s0 .2.2.3l.2.1c.1-.3.1-.6 0-.8zM30.5 19.2c-.2 0-.4.1-.4.4 0 .2.2.4.4.4h.3l.1-.4c0-.3 0-.4-.4-.4zm3 0c-.3 0-.4.2-.4.4s.1.3.3.4zm15 0a415 415 0 0 0 0 .8h.2l.1-.4c0-.3 0-.4-.4-.4zm3 0c-.4 0-.5.1-.5.4 0 .2.1.4.4.4h.2v-.8zm26.7 0s-.3 0-.4.2v.4c.2.2.6.2.7 0 .2-.3 0-.6-.3-.6zm9 0c-.3 0-.4 0-.5.2v.4c.2.2.6.2.7 0 .2-.3 0-.6-.3-.6zm2.6 0v.2l-.2.2v.2l.2.1zm6.2 0c-.3 0-.5.2-.5.4 0 .3.5.5.7.2.3-.2.1-.6-.2-.6zm9 0v.8l.2-.2.1-.2v-.3zm3 0c-.4 0-.5.1-.6.3v.2c.2.3.6.4.8.1v-.4c0-.2-.2-.2-.3-.2zm5.8 0c-.3 0-.4.1-.4.3v.2c.1.3.5.4.7.1l.2-.2-.2-.3h-.2zm3 0c-.3 0-.5.1-.5.4l.1.3h.7l.1-.3c0-.2-.3-.4-.5-.4zm8.8 0h.1zm0 0c-.2 0-.4.1-.4.4 0 .2.2.4.4.4h.3l.1-.4c0-.3 0-.4-.3-.4zm9 0c-.3 0-.5.1-.5.4 0 .2.2.4.4.4h.3l.1-.4c0-.3 0-.4-.4-.4zm8.6 0c-.2 0-.4.1-.4.4 0 .2.2.4.4.4h.3l.1-.4c0-.3 0-.4-.4-.4zm5.7 0l.7.3c0-.2-.2-.3-.4-.3zm-25 1.4a.4.4 0 0 0 0 .7c.1.2.3.2.5 0 .3-.2.1-.7-.2-.7a.4.4 0 0 0-.2 0zm-91.9 0c-.2 0-.4.2-.4.4 0 .4.4.6.7.4.3-.3.1-.8-.3-.8zm18 0c-.3 0-.6.2-.6.4 0 .4.5.6.8.4.3-.3 0-.8-.3-.8zm26.6 0v1c.1 0 .3 0 .4-.3l.1-.2v-.3l-.4-.2zm3.1 0c-.3 0-.5.2-.5.5s.4.5.7.3a116.4 116.4 0 0 0-.2-.8zm9 0c-.4 0-.6.2-.6.4 0 .5.5.7.8.3v-.2c0-.2-.2-.5-.3-.5zm8.7 0l-.3.3v.4c.1.2.4.3.6 0l.2-.3c0-.3-.3-.4-.5-.4zm9 0zm0 0c-.2 0-.3.1-.4.3v.4c.2.2.5.3.7 0v-.2c0-.3 0-.4-.3-.5zm9 0l-.5.2.8.4c0-.4-.2-.6-.4-.6zm2.8 0c-.2 0-.3.1-.3.3v.4l.3.2zm15 0v1l.1-.2c.3-.3.1-.8-.2-.8zm2.8 0h.1zm0 0c-.2 0-.4.2-.4.4 0 .4.4.6.7.4v-.6s0-.2-.2-.2zm5.8 0v.8c.1.1.3.1.4 0 .3-.3.1-.8-.2-.8zm3 0c-.3 0-.5.2-.5.4 0 .4.4.6.7.4v-.6s0-.2-.3-.2zM78.1 22v.1c-.4 0-.5.3-.5.5l.3.4h.4c.4-.3.2-1-.2-1zm8.8 0v.1c-.3 0-.4.3-.4.5l.3.4h.4c.3-.3.1-1-.3-1zm-35.6 0v.1l-.3.1-.2.3c0 .2.1.4.4.5.1 0 .2 0 .3-.2v-.6l-.2-.1zm-20.8.1c-.3 0-.4.1-.5.3 0 .3.3.6.5.6l.3-.2c.2-.2.1-.4 0-.6a.5.5 0 0 0-.3 0zm104 0c-.3 0-.4.1-.5.3 0 .3.3.6.5.6l.3-.2c.2-.2.1-.4 0-.6a.5.5 0 0 0-.3 0zm8.7 0c-.3 0-.4.1-.5.3 0 .3.3.6.5.6l.3-.2c.2-.2.1-.4 0-.6a.5.5 0 0 0-.3 0zm-109.9 0c-.2 0-.4.3-.4.4l.4.5zm15 0v1l.3-.3c.1 0 .2-.2.1-.4 0-.2-.2-.3-.4-.3zm41.4 0c-.2.1-.2.2-.2.4v.1c0 .2.1.3.2.3zm5.8 0v.4l.1.4c.2.1.2.1.4 0 .3 0 .3-.5.1-.7H96zm9.3 0v1l.3-.2.1-.4c0-.2-.2-.4-.4-.4zm3 0c-.3 0-.4.2-.5.4 0 .2 0 .3.2.4.2.2.4.2.6 0v-.6zm17.7 0s-.2 0-.3.2v.5c.3.2.5.2.7 0 .2-.2.1-.4 0-.6zm19.1 1.4v.1c-.3 0-.4.1-.4.4 0 .3 0 .5.4.5h.3v-.9zM32 23.6c-.3 0-.4.1-.4.4 0 .3.1.5.4.5h.4V24c0-.3 0-.4-.4-.4zm18 0c-.3 0-.5.1-.5.4l.1.4h.7c.2-.2.2-.6 0-.7zm26.7 0v.8h.4c.2-.2.2-.4 0-.7h-.3zm3 0s-.2 0-.3.2v.4c.1.2.3.3.6.2v-.8zm9 0zm0 0c-.2 0-.4 0-.5.2v.4c.2.3.5.3.7.1l.2-.3c0-.3-.2-.4-.4-.4zm9 0c-.4 0-.6.1-.6.4 0 .4.6.6.8.3.2-.2.2-.3 0-.5 0-.2-.2-.2-.3-.2zm8.7 0c-.2 0-.4.1-.4.4 0 .4.6.6.8.3l.2-.3c0-.2-.3-.4-.6-.4zm9 0l-.4.1v.3c0 .3.1.5.4.4.2 0 .3 0 .4-.2.1-.2.1-.2 0-.4 0-.2-.3-.2-.4-.2zm2.8 0l-.2.1v.3c0 .2 0 .4.2.4zm6 0c-.2 0-.4.1-.4.5s.7.5 1 .1c0-.3 0-.6-.6-.6zm9 0v1l.4-.4v-.5zm2.6 0v.7c.1.2.5.2.7 0v-.6h-.4zm6 0v.8h.6V24c0-.3 0-.4-.4-.4zM30.5 25c-.2 0-.4.2-.4.4v.2l.1.2c.2.2.4.2.6 0 .4-.2.2-.8-.3-.8zm3 0c-.3.1-.5.3-.5.5 0 .1 0 .3.2.4h.2zm15 0v1l.2-.2c.2-.2.2-.4 0-.6a.4.4 0 0 0-.3-.2zm3 0c-.4 0-.6.2-.6.5 0 .4.4.6.7.4v-.8h-.2zm26.7 0c-.3 0-.5.2-.5.5 0 .4.5.6.8.3.2-.2.2-.4 0-.6zm8.8 0c-.2 0-.4.2-.4.5 0 .4.5.6.8.3l.2-.3-.2-.3a.5.5 0 0 0-.4-.2zm2.8 0c0 .1-.3.3-.3.5s.2.4.3.4v-.8zm6.1 0c-.2 0-.4.2-.4.5 0 .5.7.7 1 .2l-.2-.5a.5.5 0 0 0-.4-.2zm9 0v1h.3c.2-.3.2-.7 0-.8zm3 0l-.4.2v.6c.2.2.5.2.7 0v-.6zm8.8 0c-.2 0-.4.3-.4.5s.2.5.5.5h.3c.3-.4 0-1-.4-1zm9 0zm0 0c-.3 0-.6.3-.6.5s.3.5.5.5h.4c.3-.4 0-1-.3-1zm8.8 0c-.3 0-.5.3-.4.5l.1.3c.2.2.4.2.6 0 .4-.2.2-.8-.3-.8zm8.7 0c-.3 0-.5.3-.4.5l.1.3c.2.2.4.2.6 0 .4-.2.2-.8-.3-.8zm-20 .3v.2zm21.5 1.1v.1c-.2 0-.5.3-.5.5s.3.5.5.5c0 0 .2 0 .3-.2v-.7zm-47.2.1c-.3 0-.5.2-.5.5 0 .5.5.6.8.3.2-.2.2-.5 0-.7a.5.5 0 0 0-.3 0zm26.7 0s-.3 0-.4.2l-.2.3.2.3c.3.3.4.3.7 0 .2-.2.2-.4 0-.7a.5.5 0 0 0-.3 0zm-92.2 0h.1zm0 0c-.2 0-.5.3-.5.5s.4.5.5.5c0 0 .2 0 .3-.2.2 0 .2-.2.2-.3 0-.2-.2-.4-.4-.5zm9 0c-.3 0-.6.3-.6.5s.4.5.6.5c0 0 .2 0 .3-.2l.2-.3-.3-.4zm9 0l-.5.1v.3l.1.4c.3.3.4.3.6 0 .3-.2.3-.3 0-.6a.5.5 0 0 0-.3-.2zm8.8 0h.1zm0 0l-.4.1v.3l.1.4c.3.3.4.3.6 0 .3-.2.3-.3 0-.6a.5.5 0 0 0-.2-.2zm17.8 0v1c.2 0 .4 0 .5-.3.2-.4-.2-.7-.5-.7zm3 0c-.2 0-.3 0-.4.2v.3c0 .2 0 .4.3.4h.3v-.9zm8.8 0s-.2 0-.3.3v.2c0 .4.4.6.7.4l.2-.4c0-.3-.3-.5-.5-.5zm18 0c-.3 0-.5.3-.5.5s0 .3.2.4c.2.2.3.1.6 0l.2-.4c0-.2-.3-.5-.5-.5zm9 0zm0 0c-.3 0-.5.1-.5.3v.6c.3.2.4.1.7 0l.2-.4c0-.2-.2-.4-.4-.5zm2.8 0s-.2 0-.3.2l-.2.3.3.4.2.1zm15 0v1l.2-.2c.2-.2.2-.4 0-.7a.5.5 0 0 0-.3 0zm2.8 0c-.2 0-.5.3-.5.5s.4.5.5.5c0 0 .2 0 .3-.2v-.7a.5.5 0 0 0-.3 0zm5.7 0v1h.2c.1 0 .3 0 .4-.2l.2-.3c0-.2-.4-.5-.6-.5zm11.4.2v.3c0 .2.3.5.4.5.1 0 .3 0 .4-.2zM30.5 28c-.2 0-.4.2-.4.4v.3c0 .2.2.4.4.4l.4-.2.1-.4c0-.3-.2-.5-.5-.5zm3 0c-.3.1-.4.2-.5.5 0 .3.2.5.4.5zm9 0c-.2 0-.3 0-.4.2v.7c.2.2.5.2.7 0 .2 0 .2-.5 0-.7h-.3zm5.8 0v1h.4c.2-.2.2-.6 0-.8h-.3l.1-.2zm3.1 0c-.3 0-.5.3-.5.6 0 .1 0 .3.2.4h.5v-1h-.2zm9 0c-.4 0-.6.3-.6.6v.2c.1.3.6.4.8.1.2 0 .2-.5.1-.6a.5.5 0 0 0-.4-.2zM78 28c-.2.1-.5.4-.5.6 0 .4.6.6 1 .3.2-.3 0-.9-.4-.9zm9 0l-.2.1c-.3.1-.4.3-.4.5s.2.5.5.5l.4-.2c.2-.2.2-.5 0-.8H87zm2.7 0v.2h.1V28zm0 .2c-.2 0-.3.3-.3.4 0 .2.1.4.3.4zm6.1-.2l-.2.1c-.2.1-.3.3-.3.5s.2.5.5.5l.4-.2c.2-.2.1-.5 0-.8h-.4zm9 0v1c.2 0 .4 0 .5-.3 0-.3 0-.5-.4-.6zm3 0c-.2 0-.5.3-.5.6 0 .4.5.6.8.3v-.7zm8.8 0c-.3 0-.4.3-.4.6 0 .5.8.6 1 .1l-.4-.5h-.2zm9 0c-.4 0-.6.3-.6.6 0 .5 1 .6 1 .1.1 0 0-.4-.3-.5h-.2zm8.8 0c-.3.1-.4.3-.5.5 0 .3.2.6.5.6s.4 0 .5-.4v-.3c0-.2-.3-.4-.5-.3zm8.7 0c-.2 0-.4.2-.4.5s.1.6.4.6l.4-.2s.1-.2 0-.4c0-.3-.2-.5-.4-.5zm9 0zm0 0l-.3.1-.2.2v.5c0 .2.2.3.4.3l.4-.2s.1-.2 0-.4c0-.3 0-.4-.3-.5zm2.7 0l-.2.2-.2.3c0 .2 0 .3.2.4l.3.1v-1zm-31.8.3v.5l.1-.2v-.3zm-91 1.2l-.5.2v.4c0 .4.4.7.8.3.2-.2.2-.5 0-.7a.5.5 0 0 0-.4-.2zm8.8 0c-.3 0-.6.2-.6.5 0 .5.6.7 1 .4.2-.3 0-.9-.4-.9zm9 0zm0 0c-.4 0-.6.2-.6.5 0 .5.5.7 1 .4.2-.3 0-.8-.4-.9zm8.8 0c-.3 0-.5.2-.5.6 0 .4.5.6 1 .3.2-.3 0-.9-.5-.9zm2.8 0l-.2.2v.4c0 .2 0 .4.2.4zm15 0v1h.4c.3-.3.3-.6 0-.8a.5.5 0 0 0-.4-.2zm3 0c-.2 0-.4.3-.4.6 0 .5.5.7.8.3l.1-.2-.2-.6h-.3zm9 0zm0 0c-.4 0-.6.3-.6.6 0 .1 0 .2.2.3.2.2.5.2.7 0l.2-.4c0-.2-.3-.4-.5-.5zm8.8 0l-.3.2-.2.3.2.4c.2.2.4.2.7 0 .2 0 .2-.5 0-.7zm9 0c-.3 0-.6.3-.6.5 0 .3.3.6.5.6h.4c.2-.3.2-.7 0-.9a.5.5 0 0 0-.4-.2zm9 0l-.5.2v.7c.2.2.5.2.7 0 .4-.2.1-.9-.3-.9zm2.8 0c-.3.1-.5.3-.5.6 0 .2.2.4.4.5v-1zm6.1 0c-.3 0-.7.2-.7.6 0 .4.6.6 1 .3v-.7zm8.8 0v1h.3c.2-.3.2-.6 0-.8zm3 0l-.4.2v.4c0 .4.4.7.8.3v-.7a.5.5 0 0 0-.4-.2zm5.8 0v1h.5c.2-.3.2-.6 0-.8a.5.5 0 0 0-.4-.2zm3 0l-.5.2v.4c0 .4.4.7.8.3v-.7a.5.5 0 0 0-.4-.2zm8.7 0c-.4 0-.6.2-.6.5 0 .5.6.7 1 .4.2-.3 0-.9-.4-.9zm-48.7 1.4V32s.2 0 .3-.2c.4-.3.2-.9-.3-1zm-62.4.1c-.3 0-.6.3-.6.6 0 0 0 .2.2.3.2.3.5.2.8 0v-.7a.5.5 0 0 0-.4-.2zm65.4 0c-.3 0-.6.2-.6.5 0 .5.5.7 1 .4V31a.5.5 0 0 0-.4 0zm-12 0c-.3 0-.5.2-.5.5 0 .2 0 .3.2.5h.7c.2-.3.2-.7 0-.9a.6.6 0 0 0-.3 0zm-65.4 0h.1zm0 0l-.4.2v.6l.4.3.4-.2.2-.3c0-.3-.2-.5-.5-.6zm3 0c-.3 0-.6.3-.6.5s.3.5.5.5zm15 0v1h.3c.2-.4.2-.6 0-.8zm3 0c-.3 0-.4 0-.5.2l-.2.3c0 .2 0 .3.2.4.2.2.4.2.6 0V31zm8.8 0c-.3 0-.6.3-.6.5s.4.6.5.6l.6-.3v-.3c0-.2-.3-.5-.5-.5zM78 31l-.3.1-.2.4c0 .3.3.7.7.5l.3-.2c.3-.4 0-.8-.5-.8zm2.7 0l-.2.5c0 .2 0 .3.2.5.3.2.7 0 .8-.2v-.2a3 3 0 0 1-.8-.5zm6.2 0c-.2 0-.5.2-.5.5 0 .2.1.3.3.5.2.2.6 0 .7-.2V31a.6.6 0 0 0-.4 0zm2.8 0c-.2.1-.3.3-.3.5s0 .3.2.4v.1h.1zm27 0c-.4 0-.6.2-.6.5 0 .5.6.8 1 .4.1-.2.2-.5 0-.7a.5.5 0 0 0-.5-.2zm8.8 0s-.2 0-.3.2c-.2.1-.2.2-.2.4l.1.3c.2.2.5.3.8 0 .2-.2.2-.5 0-.7a.5.5 0 0 0-.4-.2zm9 0c-.2 0-.4 0-.5.2v.7c.2.2.5.3.8 0 .2-.2.2-.5 0-.7a.5.5 0 0 0-.4-.2zm8.6 0h.1zm0 0c-.2 0-.5.3-.5.5s.2.5.5.6l.4-.2.2-.3c0-.3-.3-.5-.5-.6zm9 0c-.2 0-.4 0-.5.2v.6c.1.2.3.3.4.3.1 0 .3 0 .4-.2l.2-.3c0-.3-.3-.6-.6-.6zm2.8 0c-.2 0-.5.3-.5.6 0 0 0 .2.2.3l.3.2zm-56.5.2v.6zm-13.9.3c-.2.2-.5.4-.8.4.2.2.6.2.8 0v-.3zm-43.5 1c-.3 0-.5 0-.6.2v.7c.2.2.6.2.8 0 .3-.3.2-.8-.2-1zm38.5 0c-.3 0-.5.2-.5.5 0 .2 0 .3.2.4.2.2.6.2.8 0 .2-.3.1-.6-.2-.8a.5.5 0 0 0-.3-.2zm3 0c-.4 0-.5.3-.5.5l.1.4c.2.2.7.2.8 0 .3-.4 0-1-.4-1zm3 0c-.3 0-.6.3-.6.5 0 .5.7.8 1 .4.2-.3.2-.6 0-.8a.8.8 0 0 0-.5-.2zm12 0H97l-.2.5c0 .3.2.5.5.5s.4 0 .5-.2c.2-.3.1-.5 0-.7zm56 0c-.2 0-.4 0-.5.2v.7c.2.2.6.2.8 0 .3-.3.2-.8-.2-1zm-8.9 0a.6.6 0 0 0-.5.6c0 .4.6.6 1 .3v-.7h-.3c0-.2 0-.2-.2-.2zm-38.2 0h-.5l-.2.5c0 .3.2.5.5.5s.4 0 .6-.2v-.6l-.4-.2zm-56.5 0h-.2s-.3 0-.4.3v.2c0 .4.5.8 1 .4V33c0-.3-.2-.5-.4-.5zm38.7 0a.7.7 0 0 0-.2 0c-.2 0-.5.3-.5.5l.8-.5a.7.7 0 0 0-.1 0zm-29.8 0c-.4 0-.7.2-.7.5 0 .1 0 .2.2.3.2.3.5.3.8.1.2-.2.2-.6 0-.8a.6.6 0 0 0-.3 0zm-26.9 0c-.3 0-.5.3-.5.6 0 .4.6.6 1 .3v-.7l-.3-.2zm29.6 0c-.2 0-.4.3-.4.5a.6.6 0 0 0 .4.5zm53.4 0l-.2.2v.6c.1.2.3.2.5.2s.3 0 .4-.2c.3-.4 0-.8-.4-.8zm3 0l-.3.5c0 .3.2.5.5.5v-1zm5.8 0l-.2.5c0 .3.2.5.5.5.2 0 .4 0 .5-.2.3-.4 0-.8-.4-.8zm9.3 0v.2h-.5v.3c0 .5.6.8 1 .3v-.5a.5.5 0 0 0-.5-.3zm2.7 0c-.3.1-.3.2-.3.5 0 .5.5.7 1 .4v-.7a.6.6 0 0 0-.5 0v-.2zm6 0v1h.1c.3 0 .5 0 .6-.4.1-.3-.3-.7-.6-.6zm-107.2.2s-.2.2 0 .4c0 .4.5.6.8.3.1 0 .2-.5 0-.7zm3 0v.7c.2.2.6.2.7 0 .3-.2.2-.5 0-.7zm14.8 0v.6c.2.3.6.3.8.1.2-.2.2-.5 0-.7zm3 0v.6c.2.3.6.3 1 .1v-.7zm71.3 0v.3c0 .5.5.8 1 .3v-.5zm3 0v.3c0 .3 0 .5.4.5.2 0 .4 0 .5-.4v-.4zm17.6 0a.6.6 0 0 0-.2.4c.1.4.7.6 1 .3v-.7zm3 0v.7c.1.2.5.2.7 0 .2-.2.2-.5 0-.7h-.7zm-18.7 1.2c-.3 0-.6.3-.6.6 0 .5.6.8 1 .4.2-.2.2-.6 0-.8a.5.5 0 0 0-.4-.2zm-101 0c-.3 0-.4.1-.5.3v.6c.3.3.6.3.8.1.4-.3.1-1-.4-1zm3 0c-.4 0-.7.3-.6.6l.1.4c.2.2.5.2.8 0 .4-.3.1-1-.4-1zm2.8 0h.1zm0 0l-.4.2v.4c0 .5.5.8 1 .4.2-.4 0-1-.5-1zm3 0h.1zm0 0l-.4.2v.4c0 .5.4.8 1 .4.2-.4 0-1-.5-1zm3 0h.1zm0 0l-.4.2v.4c0 .5.4.8 1 .4.2-.4 0-1-.5-1zm6 0V35l.4-.2c.4-.4.1-1-.4-1zm3 0c-.4 0-.6.3-.6.6 0 .5.6.8 1 .4.3-.4 0-1-.4-1zm3 0zm0 0c-.4 0-.6.3-.6.6 0 .5.5.7 1 .4.3-.3.1-1-.4-1zm3 0c-.4 0-.6.3-.6.6 0 .5.5.8 1 .4.3-.4 0-1-.5-1zm3 0c-.5 0-.7.3-.7.6 0 .5.5.7 1 .4.4-.3.1-1-.4-1zm20.8 0c-.2 0-.4 0-.5.2v.2l.8.6c.3-.3.3-.5 0-.8a.6.6 0 0 0-.3 0zm3 0c-.4 0-.6.3-.6.6 0 .5.5.8 1 .4.3-.4 0-1-.5-1zm11.7 0c-.3 0-.6.4-.5.7l.1.3c.3.2.6.2.8 0 .2-.2.3-.4.1-.7 0-.2-.2-.2-.5-.2zm12 0l-.5.2v.4l.1.4c.2.2.5.2.7 0V34s-.2-.2-.3 0zm9 0l-.6.2v.4l.1.4c.2.2.5.2.7 0 .2-.2.2-.6 0-.8 0 0-.2-.2-.3 0zm8.8 0c-.4 0-.6.3-.6.6 0 .1 0 .3.2.4.2.2.5.2.7 0 .2-.2.2-.6 0-.8zm3 0zm0 0c-.4 0-.6.3-.7.6 0 .1 0 .3.2.4.3.2.6.2.8 0 .2-.2.2-.6 0-.8zm6 0c-.5 0-.7.3-.7.6l.1.4c.3.2.6.2.8 0 .4-.3.1-1-.3-1zm8.5 0c-.3 0-.5.3-.5.6l.1.4c.3.2.6.2.8 0 .4-.3.1-1-.4-1zm3 0c-.4 0-.6.3-.6.6 0 .1 0 .3.2.4.2.2.5.2.8 0 .3-.3 0-1-.4-1zm3 0zm0 0c-.3 0-.4.1-.5.2v.4c0 .5.4.8 1 .4.2-.4 0-1-.5-1zm3 0l-.5.2v.4c0 .5.4.8.8.4s.1-1-.4-1zm2.8 0l-.4.2v.4c0 .3.1.6.4.6zm-50 .1v1c.1 0 .3 0 .4-.4.2-.4 0-.7-.5-.7zm-6.5.1l-.2.4.2.4zM32 35.3h.1zm0 0c-.1 0-.3 0-.4.2l-.2.4h1.2c0-.3-.3-.6-.6-.6zm3 0c-.3 0-.6.3-.6.6h1.2c0-.3-.3-.6-.6-.6zm3 0c-.3 0-.6.3-.6.6h1.2c0-.3-.3-.6-.6-.6zm3 0zm0 0c-.2 0-.4 0-.5.2v.4h1v-.4a.6.6 0 0 0-.5-.2zm9 0c-.3 0-.4 0-.5.2l-.2.4h1.2c0-.2 0-.3-.2-.4a.6.6 0 0 0-.4-.2zm2.9 0zm0 0c-.2 0-.4 0-.5.2v.4h1v-.4a.6.6 0 0 0-.5-.2zm3 0c-.3 0-.4 0-.5.2l-.2.4h1.2c0-.2 0-.3-.2-.4a.6.6 0 0 0-.4-.2zm3 0c-.3 0-.4 0-.5.2l-.2.4h1.2c0-.4-.3-.6-.6-.6zm2.7 0a.6.6 0 0 0-.4.6h.4zm21 0l.6.4c0-.2-.4-.4-.6-.4zm15 0l-.5.1c-.2.1-.2.3-.2.5H98c0-.3-.2-.6-.5-.6zm8.8 0h.1zm0 0l-.4.1-.2.4 1.1.2c.1-.4-.2-.6-.4-.7zm9 0c-.3 0-.4 0-.6.2v.3h1v-.3a.6.6 0 0 0-.5-.2zm2.7 0c-.2 0-.4.3-.4.5.2 0 .3-.2.4-.5zm6 0l-.4.2-.2.3h1.2c0-.3-.3-.5-.6-.5zm3 0c-.2 0-.6.3-.6.5h1.2c0-.2-.3-.5-.6-.5zm3 0c-.2 0-.6.3-.6.5h1.2c0-.2-.3-.5-.6-.5zm3 0zm0 0c-.3 0-.7.3-.7.5h1.2c0-.2-.2-.4-.5-.5zm2.8 0c-.2 0-.5.3-.5.6h1v-.5a.6.6 0 0 0-.5 0zm6 0v.6h.6c0-.3-.3-.6-.6-.6zm2.8 0s-.3 0-.4.2l-.2.4h1.2c0-.3-.3-.6-.6-.6zm3 0c-.3 0-.6.3-.6.6h1.2c0-.3-.3-.6-.6-.6zm3 0zm0 0c-.3 0-.7.3-.7.6h1.2c0-.3-.3-.5-.5-.6zm2.8 0s-.3 0-.4.2l-.2.4h1.2c0-.2 0-.3-.2-.4a.6.6 0 0 0-.4-.2zM3.7 48.6c-.4 0-.7.4-.7.7v.3c.3.5 1 .6 1.3.2.3-.5.1-1-.4-1.2zm3 0c-.5.1-.7.4-.7.7v.3c.3.5 1 .6 1.3.2.3-.5 0-1-.4-1.2zm3 0c-.4 0-.7.3-.7.7v.3c.3.5 1 .6 1.3.2.3-.4.1-1-.3-1h-.2zm11.8 0c-.3 0-.5.3-.6.5v.2c0 .7.8 1 1.3.5.3-.5 0-1-.5-1.2zm3 0c-.3 0-.5.3-.6.5v.2c0 .7.8 1 1.2.5.4-.5.2-1-.4-1.2zm3 0c-.4 0-.6.3-.6.5v.2c0 .7.7 1 1.2.5.4-.5.1-1-.4-1.2zm3 0c-.4 0-.6.3-.7.5v.2c0 .7.8 1 1.3.5.4-.5.1-1-.4-1.2zm2.7 0c-.2.1-.2.2-.3.4v.4c0 .2 0 .4.3.5zm6.3 0l-.6.2-.2.5c0 .4.3.7.6.7s.7 0 .8-.3c.2-.3 0-1-.3-1h-.3zm27 0V50c.1 0 .3 0 .4-.3.1-.3.1-.5 0-.8a.7.7 0 0 0-.5-.3zm2.6 0c-.4.1-.6.4-.6.8l.2.4c.3.4 1 .3 1.1 0 .2-.4.2-.6 0-.9a.7.7 0 0 0-.4-.3zm3 0c-.4.1-.6.4-.6.8l.2.4c.3.4 1 .3 1.1 0 .2-.4.2-.6 0-.9a.7.7 0 0 0-.4-.3zm3 0c-.4.1-.6.4-.6.8l.1.4c.4.4 1 .3 1.2 0 .2-.4.2-.6 0-.9a.7.7 0 0 0-.4-.3zm3 0c-.4.1-.7.4-.6.8l.1.4c.3.4 1 .3 1.2 0 .2-.4.1-.6 0-.9a.7.7 0 0 0-.5-.3zm8.8 0l-.3.2c-.2.2-.3.3-.3.5 0 .3.2.6.6.7.2.1.6 0 .8-.3.2-.5 0-1-.5-1zm3 0l-.4.2-.2.5c0 .3.2.6.5.7.3.1.7 0 .8-.3.3-.5 0-1-.5-1zm3 0c-.4.1-.6.3-.6.7 0 .8 1 1 1.3.3v-.4c0-.3-.2-.5-.5-.6zm3 0c-.4.1-.7.3-.7.7 0 .8 1 1 1.4.3v-.5c0-.2-.3-.4-.5-.5zm8.8 0l-.4.3-.2.4.2.4c.2.4.8.5 1.1 0 .4-.4 0-1-.4-1zm3 0l-.4.3-.2.4.1.4c.3.4 1 .5 1.2 0 .4-.4 0-1-.4-1zm3 0c-.2 0-.3.1-.4.3l-.2.4.1.4c.2.4 1 .5 1.2 0 .3-.4 0-1-.4-1zm3 0c-.2 0-.3.1-.4.3-.2.1-.2.3-.2.4v.4c.3.4 1 .5 1.2 0 .4-.4 0-1-.3-1zm2.7 0c-.3.2-.5.4-.5.7l.1.3c0 .2.2.3.4.4zm6.3 0c-.5 0-.8.3-.7.7v.3c.2.5 1 .6 1.2.2.4-.5 0-1.2-.5-1.2zm17.6 0c-.3 0-.5.3-.5.5v.2c0 .7.8 1 1.2.5.4-.5.1-1-.4-1.2zm3 0c-.3 0-.5.3-.6.5v.2c0 .7.8 1 1.3.5.4-.5.1-1-.4-1.2zm2.7 0c-.2 0-.3.1-.4.4v.4c0 .3.1.6.6.6.3 0 .4 0 .5-.2.2-.3.3-.5 0-.8 0-.3 0-.3-.4-.4zm3 0c-.3 0-.6.4-.6.7l.1.4c.1.2.5.4.8.3l.4-.2c.2-.3.2-.5 0-.8 0-.3-.2-.3-.4-.4zm3 0l-.4.2-.2.5c0 .4.2.7.6.7.2 0 .6 0 .8-.3.1-.3 0-1-.3-1h-.2zm17.8 0a2 2 0 0 0-.7.8c0 .3.2.6.5.6s.7 0 .8-.4V49a.7.7 0 0 0-.5-.3zm2.6 0c-.2.2-.4.5-.4.8l.2.4c.2.3.6.3 1 .1a25 25 0 0 0 0-1.2h-.8zm9.3 0c-.3 0-.7.4-.7.8l.2.4c.3.4 1 .3 1.1 0 .2-.4.2-.6 0-.9a.7.7 0 0 0-.6-.3zm-180.5.2v1h.1c.3-.4.2-.7 0-1zm97 .3v.5zm81.3.1l-.2.5c.2-.2.2-.3.2-.5zM12 49.6c.1.3.4.5.8.4zm56 .5h-.3c-.2 0-.3 0-.5.2l-.2.5c0 .1 0 .3.2.5.3.4 1 .3 1.2-.2v-.6c0-.2-.2-.4-.5-.4zm103.5 0h-.2c-.2 0-.3 0-.5.2l-.2.5c0 .1 0 .3.2.5.3.4 1 .3 1.2-.2v-.6c0-.2-.2-.4-.5-.4zm9 0h-.3.1c-.3 0-.4 0-.6.2l-.2.5c0 .1 0 .3.2.5.3.4 1 .3 1.2-.2v-.6c0-.2-.2-.4-.5-.4zM41 50.1c-.4 0-.8.3-.8.7 0 .3 0 .4.3.5.3.3.7.3 1 0v-1a.7.7 0 0 0-.5-.2zm33 0h-.3c-.2 0-.4 0-.5.2-.2.2-.2.3-.2.5 0 .1 0 .3.2.5.2.3.7.3 1 0l.2-.5c0-.4-.2-.6-.4-.7zm-71.7 0c-.5 0-.7.3-.7.7 0 .4.2.7.7.7.2 0 .3 0 .5-.2.3-.4.3-.7 0-1a.8.8 0 0 0-.5-.2zm6 0c-.3 0-.6.1-.7.4v.6c.2.5 1 .6 1.2.2.2-.4.2-.7 0-1a.8.8 0 0 0-.5-.2zm101.1 0c-.5 0-.8.3-.8.7 0 .4.3.7.8.7.2 0 .3 0 .5-.2.3-.4.3-.7 0-1a.8.8 0 0 0-.5-.2zm3 0a.8.8 0 0 0-.2 0h.1c-.4 0-.7.3-.7.7 0 .4.3.7.7.7.3 0 .4 0 .5-.2.3-.4.3-.7 0-1a.8.8 0 0 0-.5-.2zm3 0a.8.8 0 0 0-.2 0c-.3 0-.6.3-.6.7 0 .4.2.7.7.7.2 0 .3 0 .5-.2.3-.4.3-.7 0-1a.8.8 0 0 0-.5-.2zm35.2 0c-.4 0-.7.3-.7.7 0 .3 0 .4.2.5.4.4 1 .2 1.2-.2v-.6a.7.7 0 0 0-.7-.4zm-145.4 0c-.2 0-.5 0-.6.4v.3c0 .6.7 1 1.2.5.3-.4.3-.7 0-1a.8.8 0 0 0-.5-.2zm6 0c-.3 0-.5 0-.7.4v.3c0 .4.3.7.7.7.3 0 .4 0 .5-.2.3-.4.3-.7 0-1a.8.8 0 0 0-.5-.2zm8.8 0v1.4h.3c.3 0 .5-.2.6-.5.1-.2 0-.6-.2-.7a.7.7 0 0 0-.5-.2zm3.1 0c-.3 0-.6.2-.7.5v.3c0 .6.8 1 1.3.4.1-.2.2-.4.1-.6 0-.4-.4-.6-.7-.6zm3 0c-.3 0-.5 0-.7.4v.3c0 .6.8 1 1.2.5.2-.2.2-.4.2-.6 0-.3-.4-.6-.7-.6zm2.6 0c-.2.2-.4.5-.4.8.2.7 1.2.8 1.4.2.2-.5-.2-1-.7-1zm3 0a1 1 0 0 0-.4.8c.1.7 1.1.8 1.4.2.2-.5-.2-1-.7-1zm6.4 0v1.4c.3 0 .5-.2.6-.4v-.6a.7.7 0 0 0-.6-.4zm32.6 0c-.2 0-.3 0-.5.2l-.2.5c0 .1 0 .3.2.5.3.4 1 .3 1.2-.2.2-.6-.2-1-.7-1zm6 0c-.2 0-.4 0-.5.2-.2.2-.3.3-.3.5l.2.5c.3.3.8.3 1 0 .4-.3.4-.8 0-1a.7.7 0 0 0-.4-.2zm3 0c-.2 0-.4 0-.5.2-.2.2-.3.3-.3.5 0 .1 0 .3.2.5l.5.2zm5.8 0l-.5.3v1h.1c.3.2.8.1 1 0 .2-.3.2-.7.1-1 0 0-.4-.3-.7-.3zm3 0c-.3 0-.7.4-.7.7 0 .2.1.5.3.6.2.2.7.1 1 0 .1-.3.2-.7 0-1zm3.1 0c-.2 0-.5 0-.6.2-.2.2-.2.3-.2.5s0 .5.3.6c.2.2.7.1 1 0 .1-.3.2-.8 0-1a.7.7 0 0 0-.5-.3zm3 0zm0 0c-.3 0-.5 0-.7.2l-.2.5c0 .2.1.5.3.6.2.2.7.1 1 0 .2-.3.2-.8 0-1a.7.7 0 0 0-.5-.3zm3 0c-.4 0-.7.2-.8.3v.3c0 .5.2.8.6.8.4 0 .5 0 .7-.3.2-.5 0-1-.6-1zm5.7 0v1.4c.3 0 .6 0 .7-.3.3-.6 0-1-.6-1zm3.1 0c-.5 0-.8.3-.7.7 0 .2 0 .4.2.5.3.4 1 .3 1.1 0 .3-.6 0-1.2-.6-1.2zm15.1 0a216 216 0 0 0 .2 1.2c.3-.4.3-.7 0-1zm2.7 0c-.3 0-.6 0-.7.4v.3c0 .4.2.7.7.7.2 0 .3 0 .5-.2v-1a.8.8 0 0 0-.5-.2zm17.4 0c-.2.2-.4.5-.4.8.2.7 1.2.8 1.4.2.2-.5-.2-1-.7-1zm2.7 0c-.2.2-.3.5-.3.8.1.7 1.1.8 1.4.2.2-.5-.2-1-.7-1zm3.4 0c-.5 0-.8.4-.8.7 0 .2.1.4.3.5.4.4 1 .2 1.2-.2.1-.5-.2-1-.7-1zm35.5 0c-.2 0-.4 0-.5.2-.2.2-.2.3-.2.5 0 .1 0 .3.2.5s.4.3.7.2v-1.4zm-14.4.1c0 .5-.2 1-.3 1.3.3 0 .5-.3.6-.5v-.2zm-15.9.2v.8zm-139.4.1v.3c0 .5.5 1 1 .7V51zm165.6 1a.7.7 0 0 0-.2 0v.1l-.7 1.1c.3.4.8.4 1.2.1a.7.7 0 0 0-.3-1.3zm-109.8 0v.1a.8.8 0 0 0-.7 1c.2.4.8.6 1.2.2V52h.2a.7.7 0 0 0-.7-.4zm3 0v.1c-.3 0-.5.1-.6.3H73a.7.7 0 0 0-.7-.4zm3.1 0l-.2.1-.6.3H76a.7.7 0 0 0-.6-.4zm14.8 0v.1h-.4l-.4.3h1.4a.7.7 0 0 0-.6-.4zm3 0a.7.7 0 0 0-.2 0l.1.1h-.3c-.2 0-.3.2-.4.3h1.3a.7.7 0 0 0-.6-.4zm76.9 0h-.2v.1l-.4.1-.3.6c0 .2.1.5.4.6.3.2.6.2.8 0a.7.7 0 0 0-.3-1.4zm11.9 0h-.3l.1.1a.8.8 0 0 0-.7 1c.2.4.8.6 1.2.2a.7.7 0 0 0-.3-1.3zm-178 0v.1h-.2c-.4 0-.7.3-.7.6 0 .2 0 .4.2.6.4.4 1 .3 1.2-.2.2-.3.1-.6-.2-.9zm3 0v.1h-.3c-.2 0-.4.1-.5.3h1.2v-.2zm3 0v.1h-.3c-.3 0-.5.2-.6.5l1.3.7v-.2c.2-.3.2-.6 0-.9zm3 0v.1h-.3c-.4 0-.6.3-.6.6 0 .2 0 .4.2.6.4.4 1 .2 1.2-.3 0-.3 0-.6-.3-.8zm11.8 0v.1h-.2c-.3 0-.5.1-.6.3h1.3l-.2-.2zm3 0v.1h-.2c-.3 0-.5.1-.6.3h1.3l-.2-.2zm11.7 0v.1l-.4.1c-.2.2-.3.3-.3.6s0 .4.3.5l.5.2s.3 0 .4-.2c.5-.4.3-1.2-.4-1.3zm38.7 0v.1l-.4.1-.3.6v.3c.3.5 1 .6 1.3.2.5-.5 0-1.3-.6-1.3zm9 0v.1H87c-.3 0-.5.4-.5.7 0 .2.2.5.4.6.3.2.6.2 1 0 .4-.6 0-1.4-.7-1.4zm8.8 0v.1h-.3c-.3.1-.4.4-.4.7 0 .3.2.7.6.7.3 0 .4 0 .6-.2l.2-.3c.2 0 .2-.4 0-.5a.7.7 0 0 0-.7-.5zm9 0v.1c-.3 0-.8.2-.8.7 0 .3.4.7.7.7.3 0 .6 0 .8-.4V52a.7.7 0 0 0-.7-.5zm3 0v.1c-.4 0-.6.1-.7.3h1.3l-.2-.2zm3 0v.1h-.2c-.2 0-.4.1-.5.3h1.3l-.2-.2zm3 0v.1h-.2c-.3 0-.5.1-.6.3h.1v1c.5.3 1 .2 1.3-.3.1-.3 0-.6-.3-.9zm8.8 0v.1c-.5 0-.7.3-.8.6l.3.6c.3.4 1 .3 1.2-.2.1-.3 0-.6-.3-.9zm17.8 0v.1c-.5 0-.8.3-.8.7 0 .2.1.4.3.5l.5.2s.3 0 .4-.2c.2 0 .3-.2.3-.5s0-.4-.3-.6zm8.6 0v.1l-.4.1-.2.2h1.1v1c.5-.5.3-1.3-.4-1.4zm3 0v.1l-.4.1c-.3.2-.3.3-.3.6s0 .4.2.5l.5.2c.1 0 .4 0 .5-.2.5-.4.2-1.2-.4-1.3zm20.9 0a.8.8 0 0 0-.3.1.8.8 0 0 0-.6 1c.2.4.7.6 1.1.3v-1.3a.8.8 0 0 0-.2 0zm-151.4.1c-.4 0-.7.3-.7.6 0 .2 0 .5.2.6.4.3 1 .3 1.1 0l.1-.5c0-.5-.2-.7-.7-.7zm9 0zm0 0c-.4 0-.6.1-.7.4v.6s0 .2.2.2l.4.2c.2 0 .4 0 .5-.2.2 0 .2-.2.2-.5 0-.5-.2-.7-.6-.7zm2.5 0v.1h.1zm0 .1l-.3.5c0 .2 0 .5.2.6l.1.1zm33.3 0V53c.1 0 .2 0 .3-.2a.7.7 0 0 0-.3-1.2zm50.1 0c-.3 0-.5.2-.5.5 0 .2 0 .4.3.6l.2.2zm27 0c-.5 0-.8.2-.8.5 0 .2 0 .5.3.6V52h1c0-.2-.3-.3-.6-.3zm2.7 0a1 1 0 0 0-.7.2h1.3c0-.2-.3-.3-.6-.3zm-145 .1v1l.2-.2c.2-.3.1-.6 0-.8zm97 .1v.7zM76.5 53a1 1 0 0 0-.2 0v1.4c.2.1.4.2.5.1.2 0 .5-.3.6-.5.1-.4-.2-1-.6-1a1 1 0 0 0-.3 0zm92 0a.8.8 0 0 0-.2 0l-.6.3c0 .6.4 1.1 1.2 1h.1c.2-.4.2-.7 0-1a.8.8 0 0 0-.6-.3zM67.8 53h-.5c-.3.2-.4.4-.4.8 0 .3.1.5.4.6.3.2.7.1 1-.2.2-.3.2-.6 0-1a.7.7 0 0 0-.5-.2zM20 53h-.2v1.5c.2 0 .6 0 .8-.3v-.9a.8.8 0 0 0-.6-.3zm12 0c-.5 0-.8.3-.8.8v.4c.3.4 1.1.4 1.4 0v-1a.8.8 0 0 0-.6-.2zM2 53c-.3 0-.6.5-.6.8 0 .3.3.7.6.7s.7 0 .8-.3v-.9s-.4-.3-.7-.3zm9.1 0c-.2 0-.3 0-.5.2.3.4.5.8.6 1.3.2 0 .3 0 .5-.2.3-.4.2-1-.3-1.2zm3 0c-.4 0-.8.5-.8.7 0 .6.6 1 1 .8v-1.4zm9 0c-.3 0-.5.1-.6.3-.2.1-.2.3-.3.5 0 .4.4.8 1 .7V53zm15 0v1.5c.2 0 .3-.2.4-.3.2-.4.1-1-.2-1zm2.8 0c-.5 0-.8.4-.8.8 0 .3.1.6.5.7.3 0 .6 0 .8-.2v-1a.8.8 0 0 0-.5-.3zm38.6 0l-.6.3v1l.6.2zm5.7 0l-.3.2v1.1l.2.1c.4.2 1 0 1.1-.4v-.7a1.1 1.1 0 0 0-.7-.3zm3 0c-.4.2-.5.4-.5.8 0 .3.1.5.4.6l.1.1zm9 0c-.3 0-.5.3-.6.6a1 1 0 0 0 0 .4l.2.2c.2.3.3.3.6.3.2 0 .3 0 .5-.2s.3-.7.1-1c0 0-.4-.3-.7-.3zm6 0v1.5c.2 0 .6 0 .7-.3.2-.2.2-.7 0-.9 0 0-.4-.3-.7-.3zm3 0c-.4 0-.7.4-.7.7 0 .2 0 .4.2.5.1.2.3.3.4.3h.4V53zm9 0c-.5 0-.8.5-.8.8 0 .3.3.7.6.7s.7 0 .8-.3v-.9s-.4-.3-.7-.3zm9 0c-.3 0-.6 0-.7.3l-.2.5c0 .2.1.5.4.6.4.2.6.1 1 0v-1c0-.2-.2-.3-.4-.3zm17.7 0l-.6.3-.2.5c0 .5.5 1 1 .7l.4-.3c.2-.4 0-1-.3-1a.8.8 0 0 0-.3-.2zm8.3 0c-.3.2-.4.5-.4.7 0 .5.4 1 1 .8l.4-.3c.2-.4 0-1-.3-1l-.4-.2zm21 0c-.2 0-.4 0-.6.3a.8.8 0 0 0 0 .8h1.3c.3-.5-.2-1-.7-1zm8.6 0c-.3.2-.4.4-.4.8v.3h1.4c.2-.3.1-.6 0-.8a.7.7 0 0 0-.6-.3zm3 0c-.3.2-.4.4-.4.8v.3c.6 0 1-.3 1-1h-.2zm-61.4.1v1.4l.2-.2c.3-.2.3-.7.2-1zm-26.5.1v.1zm0 .1v1l.2-.3v-.7zm58 0c-.2.1-.2.3-.2.5l.1.4zm-148.4.1v.7zm-.7 1c-.4 0-.8.3-.8.7v.3c.2.5 1 .7 1.3.3.2-.2.2-.3.2-.6 0-.2 0-.3-.2-.5a.8.8 0 0 0-.5-.2zm8.8 0a.7.7 0 0 0-.7.8c0 .2.2.5.4.6.4.2 1 0 1.1-.3V55c0-.4-.4-.6-.8-.6zm20.5 0l-.3.5v.2c0 .3.1.6.4.7v-1.2zm45 0c-.4 0-.7.3-.7.7 0 .7.8 1 1.3.6.2 0 .2-.3.2-.5 0-.4 0-.6-.4-.7a.8.8 0 0 0-.4 0zm26.4 0c-.3.2-.4.4-.4.8s.3.7.8.7c.2 0 .3 0 .5-.2s.3-.3.3-.6c0-.4-.4-.7-.8-.7zm12 0c-.3.1-.5.4-.5.7v.3l.5.5zm26.5 0l-.3.5v.2a.8.8 0 0 0 .3.7zm-73.8.1c-.4 0-.8.2-.8.7v.2l.2.4c.3.3.7.3 1 0v-1.2a.7.7 0 0 0-.4 0zm17.8 0c-.3 0-.4 0-.6.2-.2.2-.2.3-.2.5 0 .7.8 1 1.3.6.3-.3.3-.8 0-1a.8.8 0 0 0-.5-.3zm-65.5 0c-.4 0-.8.3-.7.8v.2c.2.4.4.5.7.5.3 0 .6-.2.7-.4V55c-.2-.3-.4-.4-.7-.4zm9 0zm0 0c-.4 0-.6.1-.8.4v.7l.2.2c.4.4 1 .2 1.3-.2V55c-.2-.3-.4-.4-.7-.4zm9 0c-.5 0-.7.1-.8.4v.4c0 .4.2.7.6.7.4 0 .6 0 .7-.4.2-.3.2-.4 0-.7 0-.3-.3-.4-.6-.4zm27 0V56l.4-.4c.2-.3.2-.3 0-.6l-.2-.4zm29.3 0c-.2 0-.4 0-.5.2-.2.2-.3.3-.3.5 0 .7 1 1 1.4.6l.1-.2c.2-.2.2-.6 0-.7l-.2-.2a.8.8 0 0 0-.5-.2zm18 0c-.3 0-.5 0-.7.2v1c.3.4.8.4 1.2 0 .2-.2.2-.2.2-.5a.8.8 0 0 0-.8-.7zm8.8 0c-.5 0-.8.3-.8.7v.3c.3.6 1 .7 1.3.3.3-.3.3-.3.2-.6 0-.4-.3-.7-.7-.7zm17.7 0c-.3 0-.5.1-.7.5v.4l.2.4c.4.4 1.1.2 1.3-.2V55c-.2-.3-.4-.4-.8-.4zm9.3 0v1.3l.2-.3c.2-.3.2-.4 0-.7 0 0 0-.2-.2-.3zm2.4 0c-.3 0-.5.1-.7.4v.4c0 .4.3.7.7.7.3 0 .5 0 .7-.4.2-.3.2-.4 0-.7 0-.3-.3-.4-.7-.4zm-150.8.2v1.1c.2-.3.3-.3.2-.6zm97 .1a.8.8 0 0 0 0 1zm75 0l-.9.5-.3.2c.1.4.7.6 1.1.4v-1zm9.2.6l-1 .5c.3.2.7.1 1-.3zM20.1 56a1 1 0 0 0-.2 0 203.7 203.7 0 0 1 .2 1.6c.3 0 .8-.3.8-.6s0-.8-.5-1a1 1 0 0 0-.3 0zM2.3 56H2c-.3.2-.4.4-.4.7 0 .2 0 .4.2.6.4.4 1 .2 1.3-.3.2-.5-.2-1-.7-1zm9 0v1.6c.2 0 .6-.3.7-.6 0-.3 0-.5-.3-.8zm2.8 0c-.4.1-.7.4-.7.8 0 .5.4.8.8.8h.3V56h-.2zm9 0c-.5 0-.8.3-.8.8 0 .6.5 1 1 .8V56h-.2zm8.8 0c-.4.1-.6.5-.6.8 0 .2 0 .4.2.6.4.4 1 .3 1.2-.3.3-.5-.2-1-.7-1zm9 0c-.4 0-.7.4-.7.8 0 .2 0 .4.2.6.4.3.7.3 1 0v-1.2H41zm27 0c-.3 0-.5 0-.7.3-.2.1-.2.2-.2.5s0 .4.2.6c.4.3.8.3 1 0 .5-.4.4-1 0-1.3a1 1 0 0 0-.4 0zm8.7 0l-.3.1v1.4l.5.1c.2 0 .4 0 .5-.3.2-.2.2-.6 0-.9 0-.2-.4-.4-.7-.4zm3 0l-.5.3c-.2.1-.2.2-.2.5s0 .4.3.6l.4.2zm6 0l-.6.3v1.1c.3.2.4.2.7.2.2 0 .4 0 .5-.3.3-.3.2-1-.3-1.2h-.3zm2.7 0a1 1 0 0 0-.6.8v.1c0 .2 0 .3.3.4l.3.3zm9.1 0a1 1 0 0 0-.3.1l-.4.4a.7.7 0 0 0 0 .6c.2.5.8.7 1.2.4l.3-.4c.1-.3 0-.6-.3-.9zm6 0v1.6c.3 0 .6-.2.7-.5.2-.4-.2-1-.7-1zm3 0a1 1 0 0 0-.4.1c-.3.2-.4.4-.4.8 0 .5.5.8 1 .7V56h-.3zm9 0l-.5.1c-.3.2-.4.4-.4.7 0 .2 0 .4.2.6.4.4 1.1.2 1.3-.3.2-.5-.2-1-.7-1zm8.7 0c-.5.1-.7.4-.7.8 0 .5.3.8.7.8.3 0 .5 0 .7-.3v-.9l-.2-.2-.4-.2zm17.8 0c-.4 0-.7.4-.7.8 0 1 1.1 1.1 1.5.3 0-.3 0-.6-.2-.9h-.6zm8.7 0c-.3 0-.4.1-.5.3-.2.2-.2.3-.2.5 0 .6.7 1.1 1.3.6.3-.3.3-.8 0-1-.2-.3-.3-.3-.6-.3zm20.7 0c-.2 0-.3 0-.5.2s-.2.3-.2.5v.1c0 .3 0 .4.2.6.4.3.8.3 1 0a.8.8 0 0 0-.4-1.3h-.2zm12 0c-.3 0-.4 0-.6.3-.2.1-.3.2-.3.5s0 .4.3.6c.2.2.5.3.7.2V56h-.2zm-145 .1v1.5l.2-.2c.3-.3.3-.8 0-1 0-.3-.2-.3-.3-.3zm83.2 0v1.5c.2 0 .4-.3.4-.5.2-.3 0-.6-.2-.9zm-26.5.1v1.1l.1-.2c.2-.3.1-.7 0-1zm58 .1l-.3.5.2.5zm28 0a2 2 0 0 0-1 1.3c.3 0 .5 0 .8-.2.3-.3.3-.8 0-1zm-176.4.1a.7.7 0 0 0 0 .8zm135.1 0v.1zm.8 1.1c-.3 0-.4.1-.6.3a1 1 0 0 0-.2.3v.4c0 .1 0 .2.2.3 0 .2.3.3.4.3.3 0 .8 0 1-.4a.8.8 0 0 0-.8-1.2zm-136.7 0a1 1 0 0 0-.7.3l-.2.5c0 .5.6 1 1.1.8l.4-.3.1-.5c0-.5-.3-.8-.7-.8zm9 0c-.5 0-.9.4-.9.8 0 .2 0 .4.2.5 0 .2.3.3.4.3.3 0 .8 0 1-.4.1-.4 0-1-.5-1h-.3zm8.8 0c-.4 0-.8.4-.8.8 0 .3.3.7.6.8.3 0 .8 0 1-.4 0-.3 0-.7-.2-1-.2-.2-.3-.2-.6-.2zm9 0c-.3 0-.4 0-.6.2v.3l1.3.1-.2-.3c-.2-.2-.3-.3-.6-.3zm9 0c-.4 0-.5 0-.7.3-.2.2-.2.3-.2.5s0 .4.2.5c.2.3.3.3.6.3.2 0 .3 0 .5-.3.2 0 .3-.3.3-.5s0-.3-.3-.5c-.2-.2-.3-.3-.5-.3zm29.7 0c-.5 0-.9.3-.9.8 0 .4.2.7.6.8h.7v-1.4a1 1 0 0 0-.4-.2zm8.7 0c-.3 0-.6.4-.6.8s.2.7.5.8c.4.1.8 0 1-.5.1-.2 0-.6 0-.8l-.5-.2H78zm9 0c-.5.2-.6.4-.6.8s.1.7.5.8c.4.1.8 0 1-.5.1-.2 0-.6 0-.8a1 1 0 0 0-.8-.3zm9 0c-.4 0-.7.2-.8.5v.6c.3.6 1 .7 1.4.1.2 0 .2-.7 0-.8a.8.8 0 0 0-.7-.4zm8.6 0c-.4.2-.5.4-.5.8s.2.7.6.8c.2 0 .7 0 .8-.3.2-.2.2-.7 0-1a.8.8 0 0 0-.6-.3zm9.2 0c-.2 0-.4 0-.6.3v1c.2.3.5.4 1 .3l.2-.3.2-.5c0-.5-.4-.8-.8-.8zm2.7 0l-.4.3-.2.5c0 .3.3.7.6.8zm6.2 0a1 1 0 0 0-.7.3v.5c0 .5.4 1 1 .8l.3-.3.2-.5c0-.5-.4-.8-.8-.8zm29.4 0c-.3 0-.4 0-.5.3-.2.2-.3.3-.3.5s0 .4.3.5c.1.3.2.3.5.3s.4 0 .6-.3c.2 0 .2-.3.2-.5s0-.3-.2-.5-.3-.3-.6-.3zm17.8 0V59l.6-.3a.8.8 0 0 0-.6-1.3zm2.6 0c-.3.2-.5.6-.5 1 0 .2.2.5.5.6h.7v-1.5a.8.8 0 0 0-.4 0zm9.2 0c-.4 0-.8.3-.8.8 0 .4.2.7.6.8.3 0 .6 0 .8-.3.2-.2.2-.3.2-.6s-.2-.5-.6-.7zm-148.6.1l-.2.2v.2zm33.3 0V59c.2 0 .3 0 .5-.3.3-.4.1-1-.4-1.2zm76.6 0v.2c-.3.2-.4.3-.4.5s.1.4.3.5l.1.2zm6.6 0v1.3h.1l.3-.6c0-.2 0-.3-.3-.5zm-148.3.1v1.2h.1l.2-.6c0-.3-.2-.5-.3-.6zm97 .1a.7.7 0 0 0-.2.5c0 .2 0 .3.2.5zm-60 1.1v1.6l.4-.4c.3-.5 0-1-.5-1.2zm2.6 0c-.4 0-.8.4-.8.8l.3.6c.3.3.8.3 1 0V59a1 1 0 0 0-.5-.2zm43.4 0l-.4.1h.4zm4 0l-.4.2-.2.6c0 .4.3.7.6.8zm33.2 0v1.6c.2 0 .3-.2.4-.4.2-.3.2-.5 0-.8a.7.7 0 0 0-.4-.4zM20 59v.5c0-.2-.3-.3-.4-.3l-.2.2v.5c0 .4.3.7.7.7.4 0 .6 0 .7-.4.2-.3.2-.5 0-.8 0-.3-.3-.4-.6-.4a1 1 0 0 0-.2 0zm151.4 0a.8.8 0 0 0-.9 1c.2.6 1 .8 1.4.4l.2-.4c.1-.2 0-.6-.2-.8a.8.8 0 0 0-.5-.2zm-169 0c-.5 0-.9.3-1 .6v.2c0 .2.2.6.4.7.5.2 1 0 1.2-.3.2-.4 0-1-.3-1zm8.8 0h.1zm.1 0v1.6c.3 0 .5 0 .6-.4.2-.3.2-.5 0-.8 0-.2-.3-.4-.6-.4zm3 0c-.4 0-.7.1-.9.4v.5c0 .4.3.7.7.7h.4V59zm8.8 0c-.5 0-.8.4-.8.8v.3c.2.3.5.5.8.5l.1-.7V59zm44.6 0c-.4 0-.8.3-.8.8v.2c.2.7 1.3.8 1.6 0 .2-.4-.2-1-.8-1zm8.6 0v1.5c.3.2.6.1 1 0l.2-.5c0-.6-.3-1-.8-1zm3.3 0c-.2 0-.4 0-.5.2-.2.2-.3.3-.3.6 0 .5.4.8.8.8zm6 0c-.2 0-.4 0-.6.2v.2l-.2.4c0 .7.8 1 1.3.6.2-.2.3-.3.3-.6 0-.5-.4-.8-.9-.8zm12 0c-.5 0-.7.2-.9.4v.8l.2.2c.4.3.8.3 1.1 0a.8.8 0 0 0-.5-1.4zm5.7 0v1.6c.2 0 .5 0 .7-.2.2-.2.2-.3.2-.6 0-.5-.4-.8-.8-.8zm3.1 0c-.5 0-.8.4-.8.8 0 .2 0 .4.2.6.2.2.5.2.8.2V59zm9 0c-.5 0-.9.3-.9.6v.2c0 .2.1.6.4.7.4.2 1 0 1.1-.3.2-.4 0-1-.3-1zm8.8 0c-.4 0-.6.1-.8.4v.5c0 .4.3.7.7.7.4 0 .5 0 .7-.3v-1c0-.2-.3-.3-.6-.3zm17.8 0c-.4 0-.7.2-.8.5v.3c0 .3 0 .5.3.7.4.2 1 0 1.2-.3.3-.6 0-1.2-.7-1.2zm8.6 0c-.5 0-.8.4-.8.8l.3.6c.4.4 1 .2 1.3-.2.3-.6 0-1.2-.8-1.2zm29.6 0v1.6c.3 0 .7 0 .8-.5.2-.5-.2-1-.8-1zm3 0c-.2 0-.4 0-.6.2-.2.2-.2.2-.2.6 0 .3 0 .4.2.6.3.2.6.2.8.2V59zM95 59v1.2c.2-.2.2-.3.2-.6s0-.5-.2-.6zm58 0l-.3.6c0 .2 0 .4.2.6zm-148.4.1a.7.7 0 0 0-.2.5c0 .2 0 .3.2.5zm135.1 0v1c.2-.4.1-.7 0-1zm-26 1v.2c-.2 0-.3.1-.5.3v1c.4.3 1 .3 1.3-.2.2-.3.2-.5 0-.8a.8.8 0 0 0-.7-.5zm-29.4.2a.8.8 0 0 0-.2 0l-.5.2c0 .5 0 1 .3 1.5.3 0 .7 0 1-.4a.8.8 0 0 0-.6-1.3zm2.9 0l-.7.3c-.2.2-.3.3-.3.6s0 .4.3.6c.4.4 1 .3 1.3-.2a.8.8 0 0 0-.6-1.3zm-83.4 0c-.5 0-.9.4-.9 1 0 .7 1 1 1.5.3l.2-.3V61l-.2-.3a.8.8 0 0 0-.6-.4zm8.8 0c-.4 0-.7.4-.7 1 0 .3.1.5.5.6.4.2 1 0 1-.4l.1-.4a.8.8 0 0 0-.9-.7zm6 0v.1zm3 0c-.4 0-.8.4-.8 1 0 .3.2.5.5.6.4.2 1 0 1.1-.4v-.4a.8.8 0 0 0-.8-.7zm17.6 0c-.4.2-.6.6-.6 1l.2.4c.4.5 1.2.4 1.4-.2.2-.6-.2-1.2-.7-1.2zm30 0l-.7.4v.5c0 .7.8 1.1 1.4.5l.1-.4-.3-.2v-.6a.8.8 0 0 0-.5-.2zm8.8 0a1 1 0 0 0-.7 1c0 .2 0 .3.3.5.4.4 1 .3 1.3-.2a.8.8 0 0 0-.8-1.2zm18 0c-.5 0-.9.5-.9 1 0 .3.4.7.8.7.3 0 .6 0 .7-.4 0 .1 0 0 .2 0v-.9a.9.9 0 0 0-.9-.4zm9 0c-.5 0-.9.4-.9 1 0 .4.3.7.8.7.3 0 .7-.2.8-.5.1-.3 0-.7-.3-1a.8.8 0 0 0-.5-.2zm11.6 0c-.4.2-.7.5-.7 1 0 .3.3.6.6.7zm6 0c-.4 0-.7.4-.7 1 0 .3.1.5.4.6.5.2 1 0 1.2-.4v-.4a.8.8 0 0 0-.9-.7zm18 0c-.3 0-.7.2-.8.4v.8c0 .2.1.3.3.4.5.2 1 0 1.2-.5 0-.3 0-.6-.2-.8a.7.7 0 0 0-.5-.2zm11.3 0c-.4.2-.6.6-.6 1l.2.4c.3.5 1.2.4 1.4-.2.2-.6-.2-1.2-.8-1.2zm21 0c-.5 0-.9.4-.9 1 0 .5.7 1 1.2.6v-1.4h-.3zm8.8 0l-.7.4v.5c0 .7.8 1.1 1.3.5.2 0 .2-.3.2-.5 0-.5-.4-.9-.8-.9zm-163 0a.8.8 0 0 0-.2.1c0 .6 0 1.2.3 1.6a.8.8 0 0 0 .7-1 .8.8 0 0 0-.8-.6zm151.2.1V62l.6-.3c.1 0 .2-.2.2-.5s0-.4-.2-.6a.9.9 0 0 0-.6-.2zm-103.5 0V62c.2 0 .3 0 .5-.3l.2-.5c0-.5-.3-.8-.7-.8zm-65 .1v1.3l.1-.2c.2-.3.2-.5 0-.8a1 1 0 0 0-.2-.3zm141.6 0c-.2 0-.4.3-.4.7 0 .3.1.5.4.7zm6.6 0V62c.2 0 .3-.3.3-.5v-.7zm-51.3.2l-.2.5c0 .2 0 .3.2.5zm-74.5.8l.1.2c.2.2.5.3.8.3zm65.6.2l.4.3zm-69.2.1h-.4c-.3.2-.5.4-.5.7l.4.2 1.1.5.2-.5c0-.4-.4-.9-.8-.9zm-17.9 0c-.2 0-.3 0-.5.2-.3.1-.4.4-.4.7 0 .4.3.8 1 .8.2 0 .3 0 .5-.3.5-.6 0-1.4-.6-1.4zm9 0v1.7c.2 0 .3 0 .5-.3.5-.6 0-1.4-.6-1.4zm3 0c-.3 0-.4 0-.6.2-.2.1-.4.4-.4.7 0 .4.4.8 1 .8h.2V62zm8.4 0c-.3.3-.4.5-.4 1 0 .2.2.5.5.7.4 0 .7 0 1-.3.4-.5 0-1.3-.6-1.4zm15.5 0v1.7c.2 0 .4-.2.5-.3l.1-.5a1 1 0 0 0-.6-.9zm2.8 0h.1zm0 0c-.2 0-.5 0-.7.3l-.2.5c0 .6.5 1 1 1l.4-.3V62a.9.9 0 0 0-.4-.2zm26.7 0l-.6.3-.2.6c0 .4.3.7.7.8.3 0 .8-.2 1-.4a.9.9 0 0 0-.9-1.3zm2.8 0c-.3.1-.6.5-.6 1 0 .2.3.6.6.7a1 1 0 0 0 1-.4c.1-.3.1-.5 0-.8-.2-.3-.5-.5-.8-.5zm5.8 0v1.7h.2a1 1 0 0 0 1-.4c.1-.3.1-.5 0-.8a.8.8 0 0 0-.8-.5zm3.3 0h.1zm0 0c-.2 0-.4.2-.5.3-.2.2-.3.3-.3.6s0 .4.3.5c0 .2.3.3.4.3h.1zm6 0c-.3 0-.4.1-.6.3-.2.1-.2.3-.2.5l1.4.7v-.2c.4-.5.2-1-.3-1.2h-.4zm2.8 0c-.4 0-.7.4-.7 1 0 .3.2.6.6.7a1 1 0 0 0 1-.4l.1-.4a1 1 0 0 0-.5-.8 1 1 0 0 0-.5 0zm9.1 0a1 1 0 0 0-.8.4l-.2.5.1.4h.1c.3.4.7.5 1.1.3.2 0 .4-.2.5-.5v-.5a1 1 0 0 0-.5-.5h-.3zm5.8 0v1.7c.2 0 .5 0 .7-.3.2 0 .2-.2.2-.5s0-.4-.2-.6l-.6-.3zm2.7 0a1 1 0 0 0-.5 1c0 .2.2.5.5.6h.6v-1.6zm9.2 0l-.4.2c-.3.1-.4.4-.4.7 0 .4.4.8 1 .8.2 0 .3 0 .5-.3.5-.6 0-1.4-.6-1.4zm9 0c-.2 0-.3 0-.5.2-.3.1-.4.4-.4.7 0 .4.3.8 1 .8.2 0 .3 0 .5-.3v-1a.8.8 0 0 0-.6-.4zm17.7 0c-.3 0-.4 0-.6.3l-.2.5c0 1 1 1.2 1.5.6.3-.3.3-.8 0-1-.2-.3-.3-.4-.7-.4zm8.8 0c-.3 0-.5 0-.7.3l-.2.5c0 .6.5 1 1 1 .2 0 .4-.3.5-.4l.2-.5c0-.5-.4-.9-.8-.9zm20.6 0l-.6.3-.2.6c0 .4.3.7.6.8.4 0 .8-.2 1-.4a.9.9 0 0 0-.8-1.3zm9 0v1.7c.2 0 .6-.2.7-.4a.9.9 0 0 0-.8-1.3zm2.8 0a1 1 0 0 0-.7 1c0 .2.3.6.6.7h.4V62h-.3zm-61.6.1v1.6l.3-.3c.2-.2.2-.3.2-.5 0-.4-.2-.7-.5-.8zM95 62v1.3l.2-.2c.2-.3.2-.6 0-.9zm58 0v.1l-.3.5c0 .3 0 .5.2.7zm-148.4.2a.8.8 0 0 0 0 1zm135.1 0v1l.1-.5zm-114.4.2v.3c0 .8 1 1.1 1.4.5zm65.4.1v.2c0 .3.1.6.4.7.4.2.7.1 1 0zM73 63c.1.3.3.5.6.6h.4zm-.7.2v.2c-.5 0-.8.4-.9.8l.1.4c.2.5 1 .6 1.3.4l.3-.4v-.9c-.2-.3-.4-.5-.8-.5zm6 0v.2a.8.8 0 0 0-.8 1.2c.3.7 1.3.6 1.6 0v-.9a1 1 0 0 0-.9-.5zm-74.6.2a.8.8 0 0 0-.3 1.6c.3.2 1 0 1.2-.3V64a.8.8 0 0 0-.7-.6.8.8 0 0 0-.2 0zm65.7 0c-.6 0-.9.4-.9.8v.4c.2.5 1 .6 1.3.4v-.3h.2a.8.8 0 0 0-.7-1.3zm112.5 0c-.6 0-.9.4-.9.8v.4c.2.5 1 .6 1.3.4l.3-.4a.8.8 0 0 0-.7-1.2zm-68 0h.1c-.3 0-.5 0-.7.2v1.3l.6.2c.3 0 .6-.2.7-.4a.8.8 0 0 0-.6-1.3zm-101 0c-.3 0-.5 0-.7.2-.2.2-.3.3-.3.6 0 .4 0 .5.3.7.4.3 1 .2 1.3-.2.4-.7 0-1.3-.7-1.3zm8.4 0c.5.3 1 .6 1.3 1 0-.3 0-.5-.3-.7-.2-.3-.3-.3-.6-.3zm3.4 0c-.2 0-.4 0-.6.2-.2.2-.3.3-.3.6 0 .4 0 .5.3.7.4.3.8.3 1.2 0l.3-.6c0-.5-.5-.9-.9-.9zm2.6 0l-.2.2c-.3.2-.3.3-.3.6 0 .4 0 .5.3.7.4.3.8.3 1.2 0l.2-.5a4 4 0 0 0-1.2-1zm12.2 0c-.4 0-.8.4-.8 1 0 .3.4.7.8.7s.7-.2 1-.5c0-.3 0-.7-.4-1a.9.9 0 0 0-.6-.2zm27 0V65h.3l.3-.5c.3-.5 0-1-.6-1.2zm20.6 0c-.2 0-.3 0-.5.2l1.3 1-.5.5c.2 0 .4-.3.5-.5.2-.3.2-.3 0-.7 0-.3-.4-.5-.8-.5zm3 0c-.4 0-.6.1-.7.4v.5c0 .4.2.8.7.8.3 0 .4 0 .6-.2.2-.2.2-.3.2-.7 0-.5-.3-.8-.8-.8zm6 0zm0 0c-.4 0-.5 0-.7.2l-.3.6c0 .2.1.5.3.6.2.3.3.3.6.3s.4 0 .6-.2l.1-.2c0 .1 0 0 .1 0a1 1 0 0 0 0-.9l-.2-.2c-.2-.2-.3-.2-.5-.2zm9 0c-.5 0-.8.2-.9.5v.4c0 .4.3.8.8.8.3 0 .6-.2.8-.5.3-.5-.2-1.2-.8-1.2zm11.5 0c-.4.1-.6.5-.6 1 0 .1.1.4.4.6h.2zm6.2 0c-.2 0-.4 0-.6.2-.2.2-.3.3-.3.6 0 .4 0 .5.3.7.4.3 1 .2 1.3-.2.4-.7 0-1.3-.7-1.3zm17.8 0c-.2 0-.4 0-.6.2l-.2.3v.7c0 .1 0 .2.2.3.4.3.8.3 1.2 0l.2-.6c0-.5-.4-.9-.8-.9zm11.6 0c-.4 0-.9.4-.9 1 0 .3.5.7 1 .7.2 0 .6-.2.7-.5V64a1 1 0 0 0-.2-.5.9.9 0 0 0-.6-.2zm17.8 0V65c.3 0 .6-.2.8-.5.2-.5-.2-1-.8-1.2zm3 0zm0 0a.8.8 0 0 0 0 1.7h.3v-1.6zm-29.9.1l-.2.1c-.2.2-.2.3-.2.6 0 .4 0 .5.2.7h.2zm-141.7.1v1.3l.2-.2c.3-.4.1-1-.2-1zm91.1 0l-.3.6c0 .2 0 .5.2.6.2.3.3.3.6.3.4 0 .5 0 .7-.2l.2-.5zm57.2 0v1.3c.2 0 .3-.2.4-.3.1-.4 0-.8-.4-1zm-51.3.1a1 1 0 0 0-.2.8l.2.3zm-23.9.2a.8.8 0 0 0 0 .7c.3.6 1.1.6 1.5.2zm50.4.2a1.8 1.8 0 0 0 0 .3zm25.8.6a.9.9 0 0 0-.9 1c0 .4.4.8 1 .8.3 0 .7-.2.8-.7.1-.3 0-.8-.4-1a1 1 0 0 0-.4 0zm-148.3 0a1 1 0 0 0-1 1l.4.5c.2.2.3.3.5.3.4 0 .7-.2 1-.5 0-.4 0-1-.6-1.2a1 1 0 0 0-.3 0zm11.8 0l-.3.1c-.3.2-.5.5-.5.8 0 .3.1.6.4.8.3.1.6.1.8 0v-1.6a1 1 0 0 0-.4 0zm9 0l-.4.1c-.3.2-.4.4-.4.8s.1.7.4.8l.5.1v-1.7H23zm3 0c-.5 0-.9.4-.9 1l1.1.8c.3 0 .5-.2.6-.5v-.7a.8.8 0 0 0-.9-.5zm14.8 0a.9.9 0 0 0-.8 1.2c.1.3.5.6.8.6.2 0 .4 0 .6-.2v-1.4a1 1 0 0 0-.6 0zm26.8 0a1 1 0 0 0-.3.1c-.3.1-.6.5-.6.8 0 .3.2.7.5.8.4.2.7.1 1-.2.3-.3.4-.6.2-1 0-.3-.4-.4-.8-.4zm12 0l-.4.1c-.3.1-.5.5-.5.8 0 .3.2.7.4.8l.4.1zm8.6 0c-.4.2-.7.6-.6 1 0 .2 0 .5.4.7h.2v-1.6zm.2 0h.2zm.2 0l.6.5-.2-.2a.8.8 0 0 0-.4-.2zm2.8 0a.9.9 0 0 0-.8 1.3l1 .5c.1 0 .2 0 .4-.3.2-.2.3-.3.3-.6l-.3-.6zm6 0c-.3 0-.4.1-.6.3l-.2.2-.2.4.1.5h.1l.2.1c.2.2.3.3.5.3.3 0 .7-.2.8-.4v-.8a.9.9 0 0 0-.7-.6zm5.8 0v1.8c.4 0 .7-.2 1-.4v-1a.8.8 0 0 0-.8-.4zm3.2 0a1 1 0 0 0-.7.3l-.3.6c0 .3 0 .4.3.6.2.2.3.3.5.3h.3v-1.8zm8.8 0c-.5 0-.9.5-.9 1 0 .1 0 .3.3.5.2.2.3.3.5.3.4 0 .7-.2 1-.5.1-.4 0-1-.6-1.2a1 1 0 0 0-.3 0zm8.8 0l-.3.1c-.3.2-.5.4-.5.8 0 .3 0 .4.3.6.2.2.3.3.5.3.3 0 .5 0 .7-.3V65a1 1 0 0 0-.7-.2zm18 0a1 1 0 0 0-1 1c0 .6.7 1 1.3.7.2 0 .3-.3.4-.6v-.5a.8.8 0 0 0-.9-.5zm29.2 0a1 1 0 0 0-.6.3c-.2.1-.2.4-.2.6 0 .5.3 1 .8 1 .3 0 .7-.3.8-.5.2-.5 0-1-.4-1.3a1 1 0 0 0-.4 0zm-160 .1v1.7c.2 0 .6-.2.7-.5v-.7a.9.9 0 0 0-.8-.5zm17.4 0c-.3.2-.5.4-.5.8 0 .5.2.8.6 1v-1.8zm9.5 0v1.7c.3 0 .5-.3.6-.7.1-.3 0-.8-.4-1zm32.5 0a1 1 0 0 0-.4.1l1.3 1c0-.4 0-.6-.3-.8zm3 0a1 1 0 0 0-.4.1c-.2.1-.5.5-.5.8 0 .3.2.7.5.8.4.2.7.1 1-.2.2-.2.3-.3.3-.6 0-.2 0-.4-.3-.6zm3 0a1 1 0 0 0-.4.1v.1c-.3.1-.5.5-.5.7 0 .3.2.7.5.8.3.2.7.1 1-.2.2-.2.2-.3.2-.6 0-.2 0-.4-.2-.6zm17.8 0a1 1 0 0 0-.7.3c-.2.2-.2.3-.2.6 0 .6.2.8.8 1 .3 0 .4 0 .6-.3.3-.3.3-.4.3-.7 0-.2 0-.4-.3-.6l-.4-.2zm27 0v1.6c.2 0 .4-.2.5-.4.2-.5 0-1-.5-1.2zm58.7 0v1.7c.2 0 .4 0 .6-.3.3-.3.4-.6.2-1 0-.3-.5-.4-.8-.4zm3 0a1 1 0 0 0-.4.1c-.2.1-.5.5-.5.8 0 .3.2.7.5.8h.6v-1.6h-.2zM153 65a.9.9 0 0 0 0 1.3zM4.6 65c-.2.2-.2.3-.2.5 0 .3 0 .4.2.5zm16.3.1c-.5 0-1 .3-1 1v.3c.4 0 .8 0 1-.5.2-.3.2-.4 0-.7zm64.2 0v1.1c.4.3.8.2 1 0 .3-.3.3-.4.3-.7v-.4zm54.6.1v.8c.2-.4.2-.5 0-.8zm12.4.8v.1a1 1 0 0 0-.9 1c0 .1 0 .3.2.5a1 1 0 0 0 1.5 0v-1s0-.3-.2-.3a1 1 0 0 0-.6-.3zm-47.1.1a1 1 0 0 0-1 1c0 .5.6 1 1.1.8.2 0 .4-.2.5-.3.2-.3.2-.9 0-1.2a.8.8 0 0 0-.6-.3zm8.9 0c-.3 0-.5 0-.7.2v1.4c.4.3 1 .3 1.3 0 .2-.4.2-1 0-1.3a.8.8 0 0 0-.6-.3zm-110 0a1 1 0 0 0-1 1l.1.4c.3.5 1 .5 1.5 0v-.8a.9.9 0 0 0-.7-.6zm8.9 0zm0 0a1 1 0 0 0-1 1l.2.4c.3.5 1 .5 1.4 0 .2-.2.2-.8 0-1a.8.8 0 0 0-.6-.4zm8.8 0a1 1 0 0 0-.6.3l-.3.6c0 .2 0 .3.2.5.3.5 1 .5 1.4 0a1 1 0 0 0 0-1 1 1 0 0 0-.7-.4zm6 0a1 1 0 0 0-.8.5l1 .5c.2 0 .5 0 .6-.2 0-.2 0-.4-.2-.5a1 1 0 0 0-.6-.3zm11.8 0a1 1 0 0 0-.8 1l.1.5c.4.4 1.2.4 1.5 0 .2-.4.2-1 0-1.2a1 1 0 0 0-.8-.3zm27 0V68c.2 0 .5-.2.6-.4a.9.9 0 0 0-.6-1.4zm2.8 0c-.4 0-.7.3-.8.7v.2a.9.9 0 0 0 1.3.8v-1.5a1 1 0 0 0-.5 0zm6 0c-.4 0-.7.2-.9.6a.7.7 0 0 0 0 .4l1.2.7c.2 0 .4-.2.5-.3a.9.9 0 0 0-.8-1.4zm3 0a1 1 0 0 0-.9.7v.2c0 .6.6 1.1 1.2.8.2 0 .4-.2.4-.3a.9.9 0 0 0-.7-1.4zm8.7 0a1 1 0 0 0-.7 1v.2c.2.7 1.2.8 1.6.2.4-.6 0-1.4-.8-1.4zm6 0a1 1 0 0 0-.8.6l1.5 1 .2-.4a.9.9 0 0 0-.8-1.2zm3.1 0a1 1 0 0 0-.7.3l-.3.6.1.3c.2.6 1 .8 1.4.3h.1l.2-.2v-.8l-.2-.3-.4-.2zm20.5 0a1 1 0 0 0-.6 1l.1.4.5.4zm6.3 0zm0 0a1 1 0 0 0-1 1l.1.4c.3.5 1.1.5 1.5 0 .2-.2.2-.8 0-1a.8.8 0 0 0-.6-.4zm17.7 0a1 1 0 0 0-.7.3v1.2c.2.4 1 .4 1.4 0a1 1 0 0 0 0-1 1 1 0 0 0-.7-.5zm29.4 0V68c.3 0 .5 0 .7-.4.3-.5.1-1-.3-1.3a1 1 0 0 0-.4 0zm2.8 0c-.2 0-.4.1-.5.3a1 1 0 0 0 0 1.2c.2.3.6.4 1 .2v-1.6a.9.9 0 0 0-.5 0zm9 0c-.4 0-.7.3-.8.7v.2c0 .6.6 1.1 1.2.8l.4-.3a.9.9 0 0 0-.8-1.4zm-38.7.1l-.2.2-.3.6.2.5.3.3zm-141.7.1v1.4h.2c.2-.4.2-1 0-1.3zm148.3 0v1.4c.2 0 .3-.2.3-.2l.1-.6c0-.2 0-.5-.4-.6zm-51.3.1l-.3.6.3.6zm26.5.4a.9.9 0 0 0 0 .5zm-83.7.7v.1h-.4l-.5.4-.2.5c0 .4.4 1 1 1l.5-.2v-1.7a.8.8 0 0 0-.4 0zm-38.9 0l.1.1c-.4 0-.8.2-.9.6v.4c0 .4.3.8 1 .8.2 0 .3 0 .5-.3.2-.2.3-.3.3-.6 0-.6-.5-.9-1-1zm12 0v.1c-.4 0-.6.2-.8.4v.9c.1.3.4.5.8.5h.3v-1.8zm83.2 0v.1h-.2c-.2 0-.4.2-.5.4l-.2.5.1.5s.1.1.1 0l.1.1.6.3c.3 0 .4 0 .7-.3.2-.2.2-.3.2-.6 0-.5-.4-1-.9-1zm6 0v1.9c.3 0 .4 0 .6-.3.2-.2.3-.3.3-.6 0-.5-.4-1-1-1zm11.8 0l.1.1c-.4 0-.7.2-.9.6v.4c0 .4.4.8 1 .8.2 0 .3 0 .5-.3.2-.2.3-.3.3-.6 0-.6-.5-.9-1-1zm68 .1c-.4 0-.6.2-.8.4v.5c0 .2 0 .4.2.6.2.2.3.3.6.3h.2v-1.8a1 1 0 0 0-.2 0zm-106.6 0c-.3 0-.6.2-.7.4l1.6 1v-1a1 1 0 0 0-.9-.5zm8.9 0l-.5.1v1.5l.6.2c.4 0 .7-.2.8-.5.1-.4.1-.4 0-.8a1 1 0 0 0-.9-.5zm85.8 0a1 1 0 0 0-.7.3l-.2.6.3.6c.2.2.3.3.6.3.4 0 .6 0 .8-.4.2-.4.2-.6 0-1a.9.9 0 0 0-.7-.4zm-160 0v1.8c.2 0 .3 0 .5-.3.4-.3.4-.8.1-1.2a1 1 0 0 0-.7-.3zm8.6 0v1.8c.4 0 1-.2 1-.5.2-.3.1-.8 0-1a1 1 0 0 0-.8-.3zm3.2 0a1 1 0 0 0-1 1l.2.2c.1.4.5.6 1 .6v-1.8zm15.1 0v1.8c.2 0 .4-.2.5-.4.4-.6 0-1.3-.5-1.4zm29.2 0c-.4.2-.6.5-.6 1 0 .2 0 .3.3.5.2.2.3.3.6.3.4 0 .7-.2 1-.5.1-.5 0-1-.6-1.3h-.3zm12.2 0c-.3 0-.6.2-.7.4v.5l.1.6.6.3zm8.7 0c-.2 0-.4.2-.6.4v.5c0 .2 0 .4.2.6l.4.3zm6 0c-.2 0-.3 0-.4.2l1.4.8c0-.4 0-.5-.2-.7a1 1 0 0 0-.7-.3zm12.1 0a1 1 0 0 0-1 1c0 .3.4.8 1 .8h.2v-1.8zm17.7 0c-.3 0-.5.2-.7.4l-.2.5.1.4c.2.3.5.5 1 .5.2 0 .3 0 .5-.3V68a1 1 0 0 0-.7-.3zm18 0a1 1 0 0 0-.8.3c-.2.1-.3.3-.3.6l.4.7c.4.3 1.2.2 1.4-.3.1-.3 0-.8-.2-1a1 1 0 0 0-.6-.3zm8.2 0c-.4.2-.5.5-.5 1 0 .3 0 .3.2.5l.6.3c.4 0 .6 0 .8-.4.4-.7 0-1.4-.8-1.4zm30 0v1.8c.3 0 .6-.2.8-.5.2-.5 0-1-.5-1.3h-.3zm-58.8.1v1.6c.1 0 .2 0 .3-.2.2-.2.3-.3.3-.6a1 1 0 0 0-.6-.8zm-116.9.1a1 1 0 0 0-.3.7l.3.6zm135.1.1v1.2l.1-.2a1 1 0 0 0 0-1zm13.2.1c-.2.1-.3.3-.3.5s.1.5.3.7zm-39.2 1v.1c-.2 0-.3 0-.5.2v1.3c.4.3 1.1.3 1.4-.3.2-.3.2-.5 0-.8 0-.3-.5-.5-.9-.5zm-74.5.1a1 1 0 0 0-.2 0c-.3.2-.4.5-.5.8 0 .3.1.5.3.7.2.2.3.3.7.3.4 0 .6-.2.8-.6.3-.6-.2-1.2-.9-1.2a1 1 0 0 0-.2 0zm112.7 0a1 1 0 0 0-.2 0c-.3.2-.5.5-.5.8 0 .3 0 .5.3.7.2.2.3.3.6.3.4 0 .7-.2.8-.5v-.8a1 1 0 0 0-.8-.5 1 1 0 0 0-.2 0zm-82.5 0c-.5 0-.9.2-1 .5v.8c.2.5 1 .6 1.3.4v-1.6a.6.6 0 0 0-.3 0zm71.1 0a1 1 0 0 0-.8.4v1c.2.2.4.4.8.4s.7-.2.8-.6c.2-.2.1-.4 0-.7a.8.8 0 0 0-.7-.5zm-118.7 0h-.3l-.4.1c-.3.2-.4.4-.4.8 0 .5.3.8.8 1 .3 0 .4 0 .7-.3l.3-.4c.3-.5-.1-1.1-.7-1.2zm-18.2 0h.1zm0 0c-.1 0-.3 0-.5.2-.2.3-.2.4-.2.7 0 1 1.2 1.3 1.7.4v-.8c-.2-.3-.5-.5-1-.5zm9 0h.1zm0 0c-.2 0-.3 0-.5.2-.3.3-.3.4-.3.7 0 1 1.3 1.3 1.7.4.2-.3.2-.5 0-.8 0-.3-.5-.5-.8-.5zm53.8 0V71c.2 0 .4-.2.5-.3.4-.4.3-1 0-1.3zm11.4 0l1.3.7c0-.2 0-.3-.3-.5-.2-.2-.3-.2-.6-.2zm9.3 0c-.6 0-1 .4-1 1l.1.3c.3.6 1.2.7 1.6 0l.2-.4c0-.3 0-.4-.3-.7-.2-.2-.4-.2-.6-.2zm9 0l.3.1a1 1 0 0 0-.3 0zm.3.1a1 1 0 0 1 .1.1h.1zm.2.1v.1h.1v-.2zm8.3-.2c-.2 0-.5 0-.6.2-.3.3-.3.4-.3.7a1 1 0 0 0 1.7.5c.4-.7-.2-1.5-.8-1.4zm11.6 0l-.4.2c-.2.3-.2.4-.2.7 0 .4.3.8.6 1zm6.2 0c-.2 0-.4 0-.6.2a1 1 0 0 0-.3.7c0 .4.3.8.8 1 .4 0 .7-.3 1-.6 0-.3.1-.5 0-.8a.9.9 0 0 0-.9-.5zm20.3 0a1 1 0 0 0-.5 1c0 .1.1.4.4.6h.1zm27 0V71c.2 0 .4 0 .5-.3.4-.4.3-1 0-1.3-.2-.2-.4-.2-.6-.2zm3 0c-.7 0-1 .4-1 1 0 .1 0 .3.2.5.3.3.7.4 1 .2v-1.7zm8.8 0c-.4 0-.8.2-1 .5v.4l.1.4c.3.6 1 .7 1.5.2.2-.2.2-.3.2-.6s0-.4-.3-.7c-.2-.2-.3-.2-.5-.2zm-180.5.1v1.6l.3-.4c.1-.3.1-.5 0-.8 0-.2-.2-.3-.3-.4zm148.3 0v1.6l.4-.5c.2-.4 0-.9-.4-1zM14.3 70.6a1 1 0 0 0-.2 0c-.3 0-.6.2-.7.5v.4c0 .7.5 1.2 1.1 1v-1.9a1 1 0 0 0-.2 0zm157 0a1 1 0 0 0-.5.1 1 1 0 0 0-.5 1c0 .1 0 .3.2.4a1 1 0 0 0-.5 0v1.8c.4 0 .7-.3.8-.5.2-.4.1-.6 0-1 .4.2.8.1 1.1-.2a1 1 0 0 0-.6-1.6zm-169.4 0c-.4.2-.7.5-.7 1 0 .1 0 .3.2.5v1.6l.3-.3a1 1 0 0 0 0-1l-.2-.2c.4.4 1.1.4 1.4 0l.2-.7c0-.3 0-.4-.3-.6a1 1 0 0 0-.7-.3zm18 0a428.8 428.8 0 0 0 .2 2c.3 0 .7-.3.8-.5.2-.3.2-.8 0-1a1 1 0 0 0-.8-.5zm3.3 0a1 1 0 0 0-1 1c0 .4.4 1 1 1zm17.7 0c-.3 0-.7.2-.8.4l-.2.5.1.5c.2.3.6.5 1 .5l.4-.2v-1.5a.9.9 0 0 0-.5-.2zm26.6 0a1 1 0 0 0-.7 1c0 .4.3 1 1 1 .3 0 .4 0 .6-.4.3-.4.4-.8.1-1.2 0-.2-.5-.4-.8-.4zm12 0v.2l-.7.2a1 1 0 0 0 0 1 1 1 0 0 0-.2 0 1 1 0 0 0-.4 0 1 1 0 0 0-.9 1c0 .3 0 .4.3.6.2.2.3.3.6.3.4 0 .8-.2 1-.5a1 1 0 0 0 0-1l.3.1zm6 0a1 1 0 0 0-.6.2v1.5a1 1 0 0 0 1.4-.3c.3-.5 0-1-.4-1.3a1 1 0 0 0-.4 0zm2.7 0a1 1 0 0 0-.7 1v.3l.7.6zm15 0v2a1 1 0 0 0 1-.7v-.7c-.2-.3-.6-.6-.9-.6zm3.1 0c-.3 0-.7.2-.9.5v.5l.1.5c.3.3.7.4 1 .4v-1.9zm8.6 0c-.4.2-.7.5-.7 1l.3.6a1 1 0 0 0-.6-.3v.1a1 1 0 0 0-.6.2v1.4h.1c.5.3 1.2.1 1.4-.3a1 1 0 0 0-.2-1c.4.3 1 .3 1.3 0l.2-.8c0-.3 0-.4-.3-.6a1 1 0 0 0-.7-.3zm9.2 0c-.3 0-.6.2-.8.5v.4c0 .8 1 1.4 1.5.7V71l-.2-.2a1 1 0 0 0-.6 0zm17.7 0h.1zm0 0a1 1 0 0 0-.9 1l.1.4c.2.3.6.5.8.5.3 0 .7-.2.8-.4.2-.3.2-.9 0-1 0-.3-.4-.4-.7-.5zm8.7 0a1 1 0 0 0-.9 1l.1.4c.1.3.6.5.8.5.3 0 .7-.2.8-.4a1 1 0 0 0-.3-1.4 1 1 0 0 0-.5 0zm29.7 0v2c.4 0 .5 0 .7-.4.3-.4.4-.8.1-1.2 0-.2-.5-.4-.8-.4zm2.8 0s-.3 0-.4.2a1 1 0 0 0 .5 1.7h.2v-1.9zm-171.6.1a1 1 0 0 0-.2 0v1.8c.2 0 .5 0 .7-.3.2-.2.2-.3.2-.6 0-.4 0-.7-.5-.9a1 1 0 0 0-.2 0zm26.7 0v1.8c.2 0 .5-.3.6-.4.2-.5 0-1-.4-1.4zm83.3 0v1.7c.4 0 .5-.3.6-.6.1-.5 0-.9-.5-1zm31.4.1l-.2.2v1l.2.3zM4.5 71a1 1 0 0 0-.3.7l.3.6zM77 71c-.3 0-.6.2-.8.5v1c.5.2 1 0 1.3-.4a1 1 0 0 0 0-1H77zm62.7.2v1c.2-.3.2-.9 0-1zM4 72.1a1 1 0 0 0-1 1c0 .1.2.5.5.7.4.2 1 0 1.3-.4v-1A1 1 0 0 0 4 72zm62.6 0v1.8c.3 0 .5-.3.7-.5a1 1 0 0 0-.7-1.4zm20.6 0h.1zm0 0c-.3 0-.4 0-.6.2-.2.2-.3.3-.3.7 0 .3 0 .4.3.6.2.2.3.3.6.3.5 0 .8-.2 1-.7v-.6c-.2-.4-.5-.6-1-.6zm17.6 0a1 1 0 0 0-.7 1l.1.2c.2.4.5.6 1 .6.2 0 .3 0 .6-.3.2-.2.2-.3.2-.6 0-.6-.4-1-1-1zm12 0a1 1 0 0 0-.8 1c0 .1.2.5.5.7h.2zM12.3 72a1 1 0 0 0-.2 0c-.3.2-.6.6-.6 1s.4 1 1 1c.4 0 .6-.2.8-.6a1 1 0 0 0-.9-1.4h.1a1 1 0 0 0-.2 0zm9 0a1 1 0 0 0-.2 0c-.4.2-.7.6-.7 1s.5 1 1 1c.4 0 .6-.2.8-.6.4-.6 0-1.5-.8-1.4a1 1 0 0 0-.2 0zM39 72a1 1 0 0 0-.7 1l.3.6a1 1 0 0 0-.5-.2v2l.8-.7V74a1 1 0 0 0-.2-.3l.6.2c.3 0 .6-.2.8-.5.3-.6-.2-1.4-.8-1.4zm29.8 0c-.2 0-.4.2-.5.4-.2.1-.2.2-.2.4v.2l.1.5a1 1 0 0 0-.4 0c-.5 0-.8 0-1 .4v.5a1 1 0 0 0 1.6.6c.2-.2.3-.3.3-.7 0-.3 0-.4-.3-.7.3.3.8.3 1 .2l.1-1.7a.9.9 0 0 0-.4 0zm53.7 0a1 1 0 0 0-1 1l.1.3.1.2a.8.8 0 0 0-.2 0v1.7c.2 0 .4-.2.5-.4.2-.3.2-.5 0-1l.5.1c.4 0 .6 0 .8-.5a1 1 0 0 0-.6-1.4zm17.7 0a1 1 0 0 0-.7.4v1c.2.3.4.5.8.5s.6 0 .8-.5c.4-.6-.2-1.5-.9-1.4zm2.8 0c-.3.2-.5.5-.5.8 0 .4.2.7.5 1zm6.6 0v1.7l.4-.4c.2-.3.1-.8 0-1zm2.1 0a1 1 0 0 0-.7 1c0 .2 0 .4.2.6a1 1 0 0 0-.6-.2 1 1 0 0 0-1 1c0 .4.5 1 1 1l.7-.3a1 1 0 0 0-.3.6c0 .4.3.8.7 1a1 1 0 0 0 1.1-.5v-1a1 1 0 0 0-.8-.5 1 1 0 0 0-.5.2l.1-.2V74a1 1 0 0 0-.1-.2l.4.1c.4 0 .7-.2.8-.5v-1a1 1 0 0 0-.7-.4zm20.7 0c-.2 0-.4.2-.5.4-.2.1-.2.2-.2.4v.2l.1.5h-1c-.2.1-.5.5-.5 1 0 .1.3.6.6.7.4.2 1 0 1.2-.3l.2-.6c0-.3 0-.4-.3-.7.3.3.7.3 1 .2v-1.7h-.3zm9 0c-.3 0-.5.2-.6.4-.2.1-.2.2-.2.4v.2l.1.5a1 1 0 0 0-.4 0v1.8c.1 0 .4 0 .6-.3.2-.2.3-.3.3-.7 0-.3 0-.4-.3-.7a1 1 0 0 0 1.5-.2 1 1 0 0 0-.8-1.4zm-56.7.4v.4l.1-.4zm-101.6 1c-.2 0-.4 0-.6.2a1 1 0 0 0-.4.7c0 .6.5 1 1.1 1v-2zm56.6 0a1 1 0 0 0-1 1c0 .6.5 1 1 1zm103.6 0c-.5 0-.8.1-1 .5v.5c0 .6.5 1 1.1 1v-2zM41 73.4a1 1 0 0 0-.6.2 1 1 0 0 0-.3.7v.4c.2.3.6.6 1 .6.1 0 .3 0 .5-.2v-1.6a1 1 0 0 0-.5 0zm-38.7 0c-.3 0-.4 0-.6.2-.2.3-.3.4-.3.7v.2c0 .8 1 1 1.5.6a1 1 0 0 0-.2.7c.1.4.4.7.8.8.3.2.7 0 1-.2l.1-.3v-.6c0-.3 0-.4-.4-.6a1 1 0 0 0-.5 0v-.2a1 1 0 0 0-.5.2l.1-.2V74c-.2-.4-.6-.5-1-.5zm9 0a1 1 0 0 1 .1 0zm.1 0v2c.2 0 .5-.3.7-.6.2-.3.2-.5 0-.9a1 1 0 0 0-.7-.5zm3 0c-.4 0-.6 0-.8.2-.2.3-.3.4-.3.7 0 .5.2.7.5 1h.8v-1.8h-.4zm5.5 0v2c.4 0 .8 0 1-.6.3-.3.3-.5.1-.9a1 1 0 0 0-.8-.5zm10 0c.2.3.5.4.8.4zm18.2 0v.3h.7zm28.3 0v1.8h.6l.5-.2a1 1 0 0 0 0 1.4 1 1 0 1 0 .8-1.7 1 1 0 0 0-.8.3c.2-.2.2-.4.2-.7 0-.3 0-.4-.3-.7-.2-.2-.3-.2-.6-.2zm9.3 0l-.6.1v1.6l.5.2c.4 0 .7-.2 1-.5v-.5c0-.3 0-.4-.3-.7-.2-.2-.3-.2-.6-.2zm2.7 0c-.5 0-.7.4-.7 1 0 .4.4.8.7 1zm15 0v2h.2l.6-.3a1 1 0 0 0-.3.6 1 1 0 0 0 1.7.7l.2-.4v-.7a1 1 0 0 0-.9-.6 1 1 0 0 0-.6.2l.1-.2c.3-.7-.2-1.3-1-1.3zm3 0c-.3 0-.4 0-.6.2-.2.3-.3.4-.3.7 0 .6.5 1 1 1h.2v-1.9zm9 0zm0 0c-.4 0-.5 0-.7.2-.2.3-.3.4-.3.7v.2c.1.9 1 1 1.6.6a1 1 0 0 0-.2.7c0 .4.3.7.7.8v-1.9a1 1 0 0 0-.3.2l.1-.2V74c-.2-.4-.5-.5-1-.5zm8.8 0c-.3 0-.4 0-.6.2-.2.3-.3.4-.3.7 0 .5.2.7.5 1 .4.1.8 0 1-.3v-1.4a1 1 0 0 0-.6-.2zm7.2 0v.4a1.2 1.2 0 0 0 .7 0l-.6-.4zm10.6 0a1 1 0 0 0-.9.7v.2c0 .6.5 1 1 1 .3 0 .5 0 .6-.2a1 1 0 0 0-.2.7c0 .3.1.6.5.8V75a1 1 0 0 0-.2.2l.1-.3c.2-.3.2-.5 0-.8a1 1 0 0 0-.8-.5zm-137.4.1a1 1 0 0 0-.3.8c0 .2.1.5.3.7v-.4zm135.1.1V75l.2-.3c.1-.4 0-.7-.2-1zm13.3 0a1 1 0 0 0-.3.7v.4l.3.4zm-104 .1v.6c0 .2.2.7.5.8.3.2.8 0 1.1-.2L49 74zm83.2 0a1 1 0 0 0 0 .6c0 .3 0 .5.3.7.5.3 1 .2 1.3-.2l-1.6-1zm-101 .3v.2c0 .6.3 1 1 1l.4-.2zm-.7.7a1 1 0 0 0-.7.3v1.5l.4.2c.4.2.8 0 1-.3.6-.6.1-1.6-.6-1.6zm17.9 0H48v2c.4 0 .8 0 1-.4a1 1 0 0 0 .2-1 1 1 0 0 0-1-.6zm-35.8 0a1 1 0 0 0-.4.1 1 1 0 0 0-.5 1c0 .2.2.6.6 1a1 1 0 0 0 1.3-.8 1 1 0 0 0-1-1.3zm9.1 0c-.4 0-.8.2-1 .5v.4c0 .5.2 1 .6 1 .4.2.8 0 1-.3a1 1 0 0 0-.2-1.5 1 1 0 0 0-.4 0zm17.8 0c-.7 0-1 .5-1 1 0 .4.2.8.7 1 .3 0 .7 0 1-.4.5-.6 0-1.6-.7-1.6zm27 0v2c.2 0 .5-.3.6-.5.3-.7 0-1.3-.7-1.5zm2.6 0a1 1 0 0 0-.4.2 1 1 0 0 0-.5.7c0 .3.1.6.4.8.3.3.7.3 1.1.2V75a1 1 0 0 0-.6-.2zm18 0a1 1 0 0 0-.7 1.7 1 1 0 1 0 .8-1.7zm26.7 0a1 1 0 0 0-.6.2v1.6a1 1 0 0 0 1.5-.4c.2-.5 0-1-.4-1.2a1 1 0 0 0-.5-.2zm9 0a1 1 0 0 0-.6.2 1 1 0 0 0 .2 1.8c.5.1 1-.2 1.2-.8v-.8a1 1 0 0 0-.9-.4zm8.6 0v2c.5 0 1-.3 1.1-.7a1 1 0 0 0-1-1.3zm9.1 0a1 1 0 0 0-.8.4v1.4c.1.1.3.3.5.3.3.2.7 0 1-.3.5-.6 0-1.6-.7-1.6zm-.8 1.8v6.7h.3v-.5h1v.6h1.8v-.5h1v.6h2v-.6h1v.6h2v-.6h1l-.2.6h2c.1 0 .1-.2 0-.4v-.2h1.1s-.2.4 0 .6h.2v-4.8s0-.2-.2-.3c-.2-.3-.3-.3-.7-.3-.3 0-.4 0-.7.3-.3.3-.4.7-.2 1l.1.3h-.2a1 1 0 0 0-1 0v-.2c.2-.4 0-.8-.3-1V81h-1v-.8h-2v.8h-1v-.8h-2v.8h-1v-1h.3v-2h-.2c.3-.5 0-1.2-.5-1.5h-.3v-.2h-.4a1 1 0 0 0-.6 1c0 .5.3 1 1 1h.3c-.2.2-.3.6 0 1 0 .1 0 .1 0 0h-1l-.3.1.1-.2c.2-.4 0-.8-.3-1-.2-.4-.3-.4-.6-.4h-.4a1 1 0 0 0 0-1.2zm33-1.8a1 1 0 0 0-.4.2 1 1 0 0 0-.5.7c0 .3.1.6.4.8.3.3.7.3 1 .2V75a1 1 0 0 0-.5 0zm9 0zm0 0a1 1 0 0 0-.5.2 1 1 0 0 0-.5.7c0 .3.1.6.4.8.4.5 1.2.3 1.5-.2.4-.8-.2-1.4-1-1.5zM134 75l-.3.4v.4c0 .5.1 1 .5 1h.5v-1l-.7-.5zm36 0v2c.2 0 .5-.3.6-.5.4-.5.2-1.2-.3-1.5zM1.2 75v1.6c.1 0 .3-.2.3-.4.3-.5.1-1-.3-1.2zm49.4 0a1 1 0 0 0-.3.8c0 .6.5 1 1 1v-1.4zm99 0v1.6l.2-.2c.4-.5.2-1.2-.3-1.4zm-117 .2a1 1 0 0 0-.2.6c0 .4.2.7.6 1v-1.4a7 7 0 0 1-.3-.2zm138.6 1v.1a1 1 0 0 0-1 1c0 .2 0 .3.2.5.3.7 1.5.6 1.8 0v-.6c0-.6-.5-1-1-1zm9 0v2.1c.3 0 .7-.3 1-.6v-.5c0-.6-.5-.9-1-1zm3 0v.1a1 1 0 0 0-.8.3c-.2.2-.3.3-.3.6 0 .7.4 1 1 1h.2a953.3 953.3 0 0 1-.2-2zM14 76.3a1 1 0 0 0-.2 0c-.4.2-.6.5-.6 1 0 .4 0 .4.3.7l.6.3h.4v-2a1 1 0 0 0-.3 0 1 1 0 0 0-.2 0zm53.7 0a1 1 0 0 0-.7.3c-.2.2-.3.3-.3.6 0 .7.4 1 1 1h.4a1 1 0 0 0 0 1v.3l-.2-.2h-1v-.6c0-.3 0-.4-.2-.6a1 1 0 0 0-.3-.2v2h.2c.3-.3.3-.3.2 0v.7c0 .2 0 .2-.2.1h-.2v2h.4v.6c.5 0 1.3.2 2 .1v-.7h1a317.3 317.3 0 0 1-.2-1.9l-.9.1v-1h1v-1.7c-.3-.3-.4-.3-.8-.3h-.3l.1-.6c0-.6-.4-.9-.9-1h.1a1 1 0 0 0-.2 0zm47.7 0a1 1 0 0 0-1 .5v.5c0 .5.3 1 1 1h.2a1 1 0 0 0 0 .8v.2h-1l-.3.2v-.3c.3-.4.2-.8-.2-1.2-.2-.2-.3-.2-.6-.2h-.3v1.8h.2c.2.2.6.2 1 0v1.2h-.9c-.3 0-.3 0-.2-.2V80h-2v.7c.2.1.2.1 0 .1h-.8c-.3 0-.3 0-.2-.2V80h-2l.1.7v.1h-.9c-.2 0-.2 0-.2-.2V80h-.7v-.7h-1l-.2.2v-.3a1 1 0 0 0 0-.9c0-.3-.4-.5-.9-.5a1 1 0 0 0-.3 0c.2-.4.2-.8 0-1a1 1 0 0 0-.8-.5v2h.3v.9c.1.2 0 .2 0 .1h-.4v2h.7v1h-.6v1h1.1v-.6h1v.6h2v-.6h1v.6h2V83h1a97 97 0 0 1 0 .4h2V83h1v.4h2V83h.1v-2c-.3 0-.3 0-.3-.3v-.9h.3v-2l-.4.1.2-.6c0-.3 0-.4-.3-.6a1 1 0 0 0-.6-.3zm-2.2 1.5c.1-.3.1-.6 0-.8zm-36.7-1.5v2h.5a1 1 0 0 0 0 1v.2l-.2-.2a1 1 0 0 0-.5 0v2h.9v1h-.9v1l1.4.1v-.7h1v.7c.4 0 .8-.2 1-.8v-.4h-.6v-1h.5v-2l-.8.1v-.2a1 1 0 0 0-1-1.3 1 1 0 0 0-.3 0c.2-.4.2-.6 0-1a1 1 0 0 0-.8-.5 1 1 0 0 0-.2 0zm9.1 0h.1zm0 0zm0 0a1 1 0 0 0-.6.2v1.6a1.1 1.1 0 0 0 1 .1 1 1 0 0 0 0 1v.3l-.3-.2H85v2h1.3v1H85v-1 1.8l1.5.2V83c0-.2 0-.2.4-.2h.5v.7c.4 0 .8-.3 1-.8v-.4h-.5v-1h.3v-2l-.6.1c.1-.5 0-1.2-.5-1.4a1 1 0 0 0-.8 0v-.2a1 1 0 0 0-.8-1.4zm-83.3 0a1 1 0 0 0-.9.5v.6c0 .5.3 1 1 1 .2 0 .6-.3.7-.6l.1-.6c0-.3 0-.4-.2-.6a1 1 0 0 0-.7-.3zm77.3 0a1 1 0 0 0-.7.3c-.2.2-.2.3-.2.6 0 .6.3 1 1 1v-1.9zm-68.4 0v2c.3 0 .5 0 .6-.3a1 1 0 0 0-.2.5l.1.8h-1l-.3.1.1-.3-1.2.6h1c.2-.2.2-.2 0 0 0 .2-.2.8 0 1v.1h-1a1 1 0 0 1-.2 0l.1-.3V80a7 7 0 0 1-2 .2v.6c.2.1.2.1 0 .1h-.8c-.2 0-.3 0-.2-.2a44.4 44.4 0 0 0 0-.5c-.4 0-.9-.2-1.3-.5l-.2-.3-.3.2.2-.3v-1l-.3-.3c-.2-.2-.3-.2-.6-.2-.8 0-1.2.6-1 1.3.1.3.1.3 0 .2h-1l-.2.2.1-.3c.2-.4.1-.8-.2-1.2a1183.1 1183.1 0 0 0 0 1.8v3.5h2V83h1l-.2.1v.3h2c.1 0 .1-.3 0-.4h1.1v.5h2V83h1v.2l.8-.2c.7-.5 1.8-.9 2.6-1.5v-.2h.2c.5-.4.8-1 .6-1.9h-.9l-.2.1v-.3a1 1 0 0 0-.2-1 1 1 0 0 0-1.3 0l.2-.3v-.6c0-.3 0-.5-.2-.6a1 1 0 0 0-.7-.3zm12 0a1 1 0 0 0-1 1c0 .5.3 1 1 1v-2zm8.5 0a1 1 0 0 0-.7 1l.1.5c.4.5 1 .6 1.5.3-.3.3-.4.7-.2 1l.1.4h-.2a1 1 0 0 0-.5-.3 1 1 0 0 0-.5.2v-.2c.2-.4.1-.8-.3-1-.2-.4-.3-.4-.6-.4H30a1 1 0 0 0 0-1V78h-.2v1.8h.1c.3.2.7.2 1 .1.1 0 .2 0 0 .1v1h-1v-1.2.3H28v.8h-1v-.7h-2v.2l.1.5c.1.1.1.1 0 .1H24v-.8h-.8v-.7h-.7l-.2.1.1-.3c.2-.4 0-.7-.3-1-.2-.3-.3-.3-.6-.3s-.5 0-.6.2V78c.4-.5.1-1.2-.4-1.5a1 1 0 0 0-.6 0v2h.2c.3 0 .5 0 .6-.2-.3.3-.4 1 0 1.2H20v2h.6a1 1 0 0 0 0 .8c.1.1 0 .1-.4.1H20v1.1h1.3V83h1v.6h2v-.7h1v.3l-.2.3h2.1v-.6h1v.6h2v-.7h1v.6h2v-.6h.1v-2l-.2.1V80h.2v-2l-.4.1c.4-.6.1-1.3-.4-1.6H32l.1-.2zm9.2 0a1 1 0 0 0-1 1c0 .1 0 .3.2.5.3.5 1 .6 1.4.3v-1.5a1 1 0 0 0-.6 0zm9 0a1 1 0 0 0-.9 1.5c.3.5 1 .6 1.4.4-.3.3-.4.5-.2 1l.1.2h-.2a1 1 0 0 0-1 0s-.2 0 0 0c.2-.5 0-1-.3-1.4-.2-.2-.3-.2-.7-.2v2h.7c.2-.2.3-.2.2 0v1h-1.1a1.2 1.2 0 0 0 0-.8h-2v.8h-1v-.6h-2v.8h-1a1.2 1.2 0 0 0 0-.8h-.4v-1.9a1 1 0 0 0-.2 1l.1.4-.2-.2h-1c-.2.2-.2.2 0 0 .2-.5 0-.9-.3-1.2-.2-.3-.3-.3-.6-.3h-.5c.4-.5 0-1.2-.5-1.5h-.2v2l.4-.2a1 1 0 0 0-.2 1l.1.3h-.2v2c.4-.3.4-.3.3 0v.7h-.4v1.1h1v-.6h1l-.2.6h2v-.6h1v.6h2v-.6h1l-.2.6H48v-.6h1l-.2.6H51v-.6h.5v-2l-.5.1c-.2 0-.2 0 0 0v-.6a1.2 1.2 0 0 0 0-.5h.5V78h-.3a1 1 0 0 0-.4 0c.4-.8 0-1.5-.8-1.5zm38.4 0l-.5.3c-.2.3-.2.3-.2.7 0 .4 0 .4.2.7l.5.3zm18 0a1 1 0 0 0-.4.1 1 1 0 0 0-.5.8c0 .3 0 .6.3.8.2.2.3.3.6.3h.3v-2h-.2zm26.8 0a1 1 0 0 0-1 1c0 .5.4 1 1 1h.3c-.2.3-.3.7 0 1 0 .1 0 .1 0 0h-1.2c.3-.8 0-1.4-.8-1.5v2h.7a1.2 1.2 0 0 0 0 1c.1 0 .1 0 0 0h-.9a1 1 0 0 1-.2 0v-.7h-1.9v.7c.1.1.1.1 0 .1h-.8c-.3 0-.3 0-.2-.2a43 43 0 0 0 0-.6h-2v.2l.1.5v.1h-.9a1 1 0 0 1-.2 0v-.8h-.3v-3.5a1 1 0 0 0-1 0c-.4 0-.6.3-.6 1 0 .2 0 .2.3.5.2.2.3.3.6.3h.4v.2c-.2.3 0 .6 0 .8h-1l-.3.1.1-.3a1 1 0 0 0-.3-1 1 1 0 0 0-1-.3l.2-.6c0-.3 0-.5-.3-.6l-.4-.3v5c.2 0 .3 0 .2.2v.7h-.2v1.1h.7V83h1v.4h2V83h1v.4h2V83h1v.4h2V83h1v.1l-.2.3h2c.1 0 0-.3 0-.4v-.2h.7v-2a1 1 0 0 0-.5 0 1 1 0 0 1-.2.1v-1.1h.7V78h-.8c.3-.6 0-1.3-.5-1.6a1 1 0 0 0-.3 0zm17.2 0a1 1 0 0 0-.7 1c0 .1 0 .3.2.5a1 1 0 0 0 1.7 0c.3-.5 0-1.2-.5-1.5h-.3zm2.6.2a1 1 0 0 0-.4.8 1 1 0 0 0 .4.8zm-148.3.1c-.2.2-.3.5-.3.8 0 .3 0 .4.2.6zM172.7 78a1 1 0 0 0-.6.2 1 1 0 0 0-.2 1.1v.3h-.2c-.2-.2-.6-.2-1 0 .1-.3.2-.6 0-.9a1 1 0 0 0-.8-.7v2h.3l.3-.2v.3c-.2.2-.2.4 0 .8h-.6v2h.5v.5c.5 0 1.4.2 2 .1v-.7h.8v-1.9h-.9v-.6a1.2 1.2 0 0 0 0-.5h1V78a1 1 0 0 0-.5 0zm9 0h.1zm0 0c-.3 0-.4 0-.7.2-.3.4-.4.8-.2 1.2l.1.3-.2-.2h-.5v2h.3c.3-.2.4-.2.3 0v.8h-.6v1l1 .1v-.6h1.1v.2s-.2.3 0 .4v.1c.5 0 1 0 1.2-.8v-.4h-.9l.1-.2v-.8h.7v-2l-.8.1v-.6c0-.3 0-.4-.2-.6-.2-.3-.3-.3-.6-.3zm-75 .6v.7zm-29.3 1.1l.2.2h1c.1 0 .1 0 0 .2v.8c0 .1 0 .1-.2 0l-.8.1c-.2 0-.2 0 0 0v-1zm8.8 0l.3.2h1c.1-.2.2 0 0 .2v.6c0 .3 0 .4-.2.3h-.8c-.2 0-.2 0 0 0v-1zm-81.9.1v.1c-.2.2-.2.8 0 1v.1h-1c-.2 0-.2 0-.2-.2v-.9h1zm34.5 0c.3.2.8.2 1 .1.2 0 .2 0 .1.1v1h-1v-1zm65.3 0h.3c.2.2.6.2 1 0v1.1h-1v-1h-.3zm35.7 0c.3.2.8.2 1 .1.2 0 .2 0 .1.1v1h-1v-1zm11.6 0h.1c.3.2.7.2 1 .1.1 0 .2 0 0 .1v1h-1v-1zm-28.1 0v.1c-.3.2-.3.8 0 1l-.2.1h-.9a1 1 0 0 1-.2 0v-1.2h1zM12 79.8a2 2 0 0 0 1.2 0v.1a1.2 1.2 0 0 0 0 1h-.9a1 1 0 0 1-.3 0V80zm9 0a2 2 0 0 0 1.1 0v1c.1.1.1.1 0 .1h-.9a1 1 0 0 1-.3 0l.1-.3V80zm160.1 0h1.1v1c0 .1 0 .1-.2 0l-.9.1zM1.7 81.3h1v1h-1v-.9zm3 0h.8c.2 0 .2 0 .1.3v.5l.1.2h-1v-.9zm3 0h1v1h-1v-.9zm3 0h.8c.2 0 .2 0 0 .3v.5l.2.2h-1v-.9zm11.8 0h1c.1 0 .1 0 0 .1a1 1 0 0 0 0 .8c.1.2 0 .2 0 .1a2 2 0 0 0-1 0v-.9zm3 0h1v1.1h-1v-1zm3 0h.7c.3 0 .4 0 .2.1v1h-1v-1zm3 0h.7c.3 0 .3 0 .2.1v1h-1v-1zm8.8 0c.4.1.6.1.8 0 .3 0 .4 0 .3.1v1h-1v-1zm3 0c.4.1.6.1.8 0 .3 0 .3 0 .2.1v1h-1v-1zm3 0c.4.1.6.1.8 0 .3 0 .3 0 .2.1v1h-1v-1zm3.8 0c.3 0 .3 0 .2.1v1h-.6c-.4 0-.5 0-.4-.2a1 1 0 0 0 0-.9c.3.1.5.1.8 0zm17 0c.4.1.6.1.8 0 .3 0 .4 0 .3.1v.9a2 2 0 0 0-1 0v-.7zm38.6 0h1c.1 0 .1 0 0 .2v.6l.1.2h-1v-.9zm3 0h1c.1 0 .1 0 0 .2v.6l.1.2h-1v-.9zm3 0h1v1h-1v-.9zm3 0h1v1h-1v-.9zm8.8 0h1v.8l.1.2h-1v-.9zm3 0h1v1h-1v-.9zm3 0h1v.8l.1.2h-1v-.9zm3 0h1s.1 0 0 .1a1 1 0 0 0 0 .8l-.5.1h-.5v-.9zm8.8 0c.4.1.6.1.8 0 .3 0 .4 0 .2.1v1h-1v-1zm2.8 0c.4.1.6.1.8 0 .3 0 .3 0 .2.1v1h-1v-1zm3 0c.3.1.5.1.8 0 .3 0 .3 0 .2.1v1h-1v-1zm3 0h.7c.3 0 .4 0 .2.1v1h-1v-1zm20.6 0c.4.1.6.1.8 0 .3 0 .4 0 .2.1v1h-1v-.8z"/>
</svg>
