{
    "asset" : {
        "generator" : "Khronos glTF Blender I/O v0.9.35",
        "version" : "2.0"
    },
    "scene" : 0,
    "scenes" : [
        {
            "name" : "Scene",
            "nodes" : [
                0,
                1,
                2,
                3,
                4
            ]
        }
    ],
    "nodes" : [
        {
            "name" : "Text.003",
            "rotation" : [
                0.7071067690849304,
                0,
                0,
                0.7071068286895752
            ],
            "scale" : [
                1.7906861305236816,
                1.7906861305236816,
                1.7906861305236816
            ],
            "translation" : [
                5.4798359870910645,
                0.3960012197494507,
                0.8518940210342407
            ]
        },
        {
            "name" : "Text.002",
            "rotation" : [
                0.5213338136672974,
                -0.4777144193649292,
                0.4777143895626068,
                0.5213338136672974
            ],
            "scale" : [
                1.7906861305236816,
                1.7906861305236816,
                1.7906861305236816
            ],
            "translation" : [
                5.13999605178833,
                0.3969686031341553,
                -0.6041519641876221
            ]
        },
        {
            "name" : "Text.001",
            "rotation" : [
                0.5,
                0.5,
                -0.4999999701976776,
                0.5000000596046448
            ],
            "scale" : [
                1.7906861305236816,
                1.7906861305236816,
                1.7906861305236816
            ],
            "translation" : [
                6.929127216339111,
                0.3969686031341553,
                0.6049642562866211
            ]
        },
        {
            "name" : "Text",
            "scale" : [
                1.7906861305236816,
                1.7906861305236816,
                1.7906861305236816
            ],
            "translation" : [
                5.4388508796691895,
                1.8518528938293457,
                0.6008760929107666
            ]
        },
        {
            "mesh" : 0,
            "name" : "Cube.007",
            "translation" : [
                6.041450023651123,
                1.004180669784546,
                0
            ]
        }
    ],
    "materials" : [
        {
            "doubleSided" : true,
            "name" : "WOOD",
            "pbrMetallicRoughness" : {}
        }
    ],
    "meshes" : [
        {
            "name" : "Cube.009",
            "primitives" : [
                {
                    "attributes" : {
                        "POSITION" : 0,
                        "NORMAL" : 1
                    },
                    "indices" : 2,
                    "material" : 0
                }
            ]
        }
    ],
    "accessors" : [
        {
            "bufferView" : 0,
            "componentType" : 5126,
            "count" : 168,
            "max" : [
                1,
                1,
                1
            ],
            "min" : [
                -1,
                -1,
                -1
            ],
            "type" : "VEC3"
        },
        {
            "bufferView" : 1,
            "componentType" : 5126,
            "count" : 168,
            "type" : "VEC3"
        },
        {
            "bufferView" : 2,
            "componentType" : 5123,
            "count" : 324,
            "type" : "SCALAR"
        }
    ],
    "bufferViews" : [
        {
            "buffer" : 0,
            "byteLength" : 2016,
            "byteOffset" : 0
        },
        {
            "buffer" : 0,
            "byteLength" : 2016,
            "byteOffset" : 2016
        },
        {
            "buffer" : 0,
            "byteLength" : 648,
            "byteOffset" : 4032
        }
    ],
    "buffers" : [
        {
            "byteLength" : 4680,
            "uri" : "data:application/octet-stream;base64,"
        }
    ]
}
